<svg width="791" height="71" viewBox="0 0 791 71" fill="none" xmlns="http://www.w3.org/2000/svg">
<path d="M1.16 16.968V18.48H23V16.968H1.16ZM1.736 4.896V6.48H22.4V4.896H1.736ZM9.488 14.448C8 16.8 5.768 20.016 4.232 21.96L5.936 22.536C7.472 20.568 9.68 17.424 11.24 14.928L9.488 14.448ZM16.688 17.496C14.768 22.176 10.064 23.88 1.496 24.336C1.784 24.744 2.072 25.392 2.192 25.92C11.192 25.248 16.304 23.28 18.416 18L16.688 17.496ZM5.528 21.72C11.624 22.848 17.504 24.48 21.176 25.992L22.256 24.528C18.536 23.064 12.368 21.456 6.44 20.4L5.528 21.72ZM8.288 5.496V13.872H9.992V5.496H8.288ZM13.88 5.496V13.872H15.584V5.496H13.88ZM4.616 10.008H19.592V13.272H4.616V10.008ZM2.936 8.544V14.76H21.392V8.544H2.936ZM26.576 7.872V9.624H47.576V7.872H26.576ZM37.76 9.432L36.344 9.864C38.312 16.176 41.84 21.672 46.952 24.168C47.24 23.64 47.84 22.944 48.272 22.584C43.256 20.4 39.56 15.192 37.76 9.432ZM44.96 10.608C43.664 12.384 41.432 14.712 39.8 16.08L41.072 17.064C42.752 15.696 44.936 13.56 46.52 11.736L44.96 10.608ZM40.16 5.064C41.696 5.88 43.616 7.08 44.552 7.92L45.704 6.624C44.696 5.832 42.728 4.704 41.264 3.936L40.16 5.064ZM27.872 11.976C29.36 13.296 31.016 15.216 31.736 16.464L33.2 15.432C32.456 14.16 30.728 12.336 29.264 11.064L27.872 11.976ZM36.056 3.912V23.496C36.056 23.952 35.888 24.072 35.456 24.096C34.976 24.12 33.416 24.12 31.736 24.072C32.024 24.624 32.312 25.464 32.408 25.968C34.52 25.968 35.96 25.944 36.776 25.608C37.568 25.32 37.904 24.768 37.904 23.496V3.912H36.056ZM25.928 21.984L27.032 23.592C29.168 22.392 32 20.712 34.592 19.104L34.016 17.496C31.088 19.2 27.944 20.952 25.928 21.984ZM63.512 7.632L61.52 7.584C61.28 10.08 60.776 12.792 60.08 15.072C58.856 19.128 57.56 20.76 56.432 20.76C55.352 20.76 53.984 19.416 53.984 16.392C53.984 12.864 57.272 8.52 62.552 8.52C67.16 8.52 69.824 11.688 69.824 15.528C69.824 19.68 66.8 21.984 63.728 22.68C63.152 22.8 62.432 22.896 61.664 22.968L62.768 24.744C68.48 24 71.792 20.64 71.792 15.624C71.792 10.752 68.216 6.792 62.6 6.792C56.72 6.792 52.088 11.328 52.088 16.536C52.088 20.52 54.224 22.968 56.384 22.968C58.592 22.968 60.512 20.424 61.976 15.504C62.72 12.936 63.2 10.128 63.512 7.632ZM86.36 11.064H95.288V14.16H86.36V11.064ZM86.36 6.528H95.288V9.576H86.36V6.528ZM84.728 4.968V15.72H97.016V4.968H84.728ZM84.416 18.528V20.184H97.352V18.528H84.416ZM82.568 23.496V25.128H98.144V23.496H82.568ZM76.04 5.472V7.176H83.528V5.472H76.04ZM76.304 12.408V14.112H83.192V12.408H76.304ZM75.8 21.6L76.232 23.448C78.368 22.728 81.104 21.816 83.72 20.928L83.408 19.2C80.624 20.136 77.744 21.072 75.8 21.6ZM79.04 6.144V21.36L80.768 21.024V6.144H79.04ZM90.032 5.712V14.952H89.912V24.24H91.736V14.952H91.616V5.712H90.032ZM103.232 9.936V11.352H110.168V9.936H103.232ZM103.232 14.016V15.384H110.168V14.016H103.232ZM103.232 18.192V19.608H110.168V18.192H103.232ZM113.456 15.216V16.776H122.6V15.216H113.456ZM104.48 6V7.416H108.464V6H104.48ZM111.92 5.064V6.6H121.304V5.064H111.92ZM111.632 19.704V21.312H123.008V19.704H111.632ZM116.696 12.744V25.824H118.424V12.744H116.696ZM106.208 10.632V18.792H107.504V10.632H106.208ZM120.728 5.064V5.304C120.56 9.072 120.368 10.464 120.056 10.824C119.912 11.016 119.696 11.064 119.36 11.04C119.024 11.04 118.16 11.04 117.2 10.944C117.416 11.352 117.584 11.976 117.608 12.456C118.616 12.504 119.624 12.504 120.104 12.456C120.728 12.408 121.088 12.264 121.424 11.856C121.928 11.304 122.168 9.744 122.336 5.736C122.36 5.52 122.36 5.064 122.36 5.064H120.728ZM113.552 12.96C113.144 15 112.4 17.016 111.368 18.36C111.752 18.552 112.472 18.912 112.784 19.128C113.792 17.688 114.632 15.504 115.112 13.272L113.552 12.96ZM104.432 3.84C103.712 6.792 102.368 9.648 100.664 11.496C101.048 11.736 101.744 12.288 102.032 12.576C103.736 10.536 105.2 7.44 106.088 4.2L104.432 3.84ZM102.536 9.936V16.32C102.536 19.032 102.368 22.608 100.736 25.152C101.096 25.32 101.768 25.728 102.032 25.968C103.736 23.304 104.024 19.248 104.024 16.32V9.936H102.536ZM109.688 9.936V23.952C109.688 24.264 109.544 24.36 109.232 24.384C108.896 24.408 107.816 24.408 106.592 24.36C106.808 24.792 107.072 25.488 107.144 25.896C108.8 25.896 109.784 25.872 110.384 25.608C111.008 25.344 111.2 24.84 111.2 23.952V9.936H109.688ZM115.328 5.568C114.992 8.28 114.128 10.656 111.176 11.904C111.536 12.168 111.968 12.744 112.184 13.128C115.544 11.616 116.576 8.88 116.984 5.568H115.328ZM108.032 6V6.288C107.672 7.488 107 9.216 106.4 10.296C106.736 10.44 107.264 10.752 107.552 10.992C108.272 9.864 109.184 8.088 109.688 6.6L108.632 5.904L108.392 6H108.032Z" fill="#444444"/>
<path d="M194.707 15.2071C195.098 14.8166 195.098 14.1834 194.707 13.7929L188.343 7.42893C187.953 7.03841 187.319 7.03841 186.929 7.42893C186.538 7.81946 186.538 8.45262 186.929 8.84315L192.586 14.5L186.929 20.1569C186.538 20.5474 186.538 21.1805 186.929 21.5711C187.319 21.9616 187.953 21.9616 188.343 21.5711L194.707 15.2071ZM144 15.5H194V13.5H144V15.5Z" fill="#444444"/>
<path d="M215.16 16.968V18.48H237V16.968H215.16ZM215.736 4.896V6.48H236.4V4.896H215.736ZM223.488 14.448C222 16.8 219.768 20.016 218.232 21.96L219.936 22.536C221.472 20.568 223.68 17.424 225.24 14.928L223.488 14.448ZM230.688 17.496C228.768 22.176 224.064 23.88 215.496 24.336C215.784 24.744 216.072 25.392 216.192 25.92C225.192 25.248 230.304 23.28 232.416 18L230.688 17.496ZM219.528 21.72C225.624 22.848 231.504 24.48 235.176 25.992L236.256 24.528C232.536 23.064 226.368 21.456 220.44 20.4L219.528 21.72ZM222.288 5.496V13.872H223.992V5.496H222.288ZM227.88 5.496V13.872H229.584V5.496H227.88ZM218.616 10.008H233.592V13.272H218.616V10.008ZM216.936 8.544V14.76H235.392V8.544H216.936ZM253.536 4.152V25.92H255.336V4.152H253.536ZM249.384 5.064C248.832 8.184 247.824 11.28 246.432 13.296C246.888 13.488 247.632 13.92 247.992 14.184C249.36 12.048 250.464 8.76 251.112 5.4L249.384 5.064ZM249.624 8.76L249.168 10.536H260.832V8.76H249.624ZM246.624 15.816V17.592H261.888V15.816H246.624ZM245.448 3.936C244.176 7.584 242.04 11.184 239.784 13.512C240.12 13.944 240.648 14.88 240.816 15.288C243.312 12.576 245.64 8.52 247.152 4.464L245.448 3.936ZM243.024 10.128V25.896H244.752V8.448L244.728 8.424L243.024 10.128ZM277.512 7.632L275.52 7.584C275.28 10.08 274.776 12.792 274.08 15.072C272.856 19.128 271.56 20.76 270.432 20.76C269.352 20.76 267.984 19.416 267.984 16.392C267.984 12.864 271.272 8.52 276.552 8.52C281.16 8.52 283.824 11.688 283.824 15.528C283.824 19.68 280.8 21.984 277.728 22.68C277.152 22.8 276.432 22.896 275.664 22.968L276.768 24.744C282.48 24 285.792 20.64 285.792 15.624C285.792 10.752 282.216 6.792 276.6 6.792C270.72 6.792 266.088 11.328 266.088 16.536C266.088 20.52 268.224 22.968 270.384 22.968C272.592 22.968 274.512 20.424 275.976 15.504C276.72 12.936 277.2 10.128 277.512 7.632ZM294.024 11.184V12.912H308.016V11.184H294.024ZM300.936 16.92V18.624H309.024V16.92H300.936ZM299.976 12.072V23.976L301.848 24.216V12.072H299.976ZM294.288 14.976C293.76 19.32 292.464 22.752 289.776 24.84C290.208 25.104 290.976 25.728 291.264 26.04C293.976 23.688 295.488 20.016 296.16 15.168L294.288 14.976ZM295.416 18.072L293.952 18.624C296.016 24.48 299.928 25.608 305.64 25.608H311.28C311.352 25.08 311.664 24.216 311.952 23.784C310.776 23.808 306.624 23.808 305.736 23.808C300.864 23.808 297.12 22.968 295.416 18.072ZM299.952 3.864V7.752H301.848V3.864H299.952ZM290.928 6.6V11.832H292.704V8.328H309.144V11.832H310.992V6.6H290.928ZM316.272 6.384V7.8H335.592V6.384H316.272ZM317.568 9.288V10.632H334.296V9.288H317.568ZM315.24 12.168V13.608H336.6V12.168H315.24ZM315.216 17.52V18.936H336.672V17.52H315.216ZM324.96 7.08V12.888H326.808V7.08H324.96ZM330.144 3.792C329.808 4.56 329.208 5.688 328.704 6.408L330.216 6.888C330.744 6.24 331.44 5.256 332.04 4.296L330.144 3.792ZM315.12 21.048L315.288 22.512C318.216 22.248 322.368 21.864 326.376 21.48V20.184C322.2 20.544 317.904 20.856 315.12 21.048ZM320.328 14.904V24.096C320.328 24.432 320.208 24.528 319.848 24.528C319.512 24.552 318.24 24.552 316.92 24.504C317.136 24.912 317.376 25.512 317.472 25.944C319.296 25.944 320.424 25.92 321.144 25.704C321.84 25.488 322.08 25.08 322.08 24.144V14.904H320.328ZM324.888 13.848C322.728 14.376 318.792 14.808 315.504 15C315.672 15.336 315.888 15.84 315.936 16.2C319.296 16.032 323.352 15.6 325.992 14.976L324.888 13.848ZM326.88 13.992C327.24 20.832 330.384 25.92 334.536 25.92C336.096 25.92 336.72 25.248 336.984 22.704C336.552 22.56 335.976 22.296 335.592 21.96C335.472 23.688 335.304 24.24 334.632 24.264C331.632 24.312 328.896 19.968 328.608 13.992H326.88ZM333.24 19.224C331.32 21.696 327.48 23.448 323.712 24.408C324.024 24.768 324.504 25.512 324.672 25.872C328.536 24.672 332.592 22.656 334.8 19.752L333.24 19.224ZM330.408 15.048C331.776 15.6 333.432 16.56 334.272 17.28L335.304 16.08C334.44 15.336 332.76 14.472 331.392 13.944L330.408 15.048ZM319.92 4.416C320.568 5.184 321.24 6.288 321.504 6.984L323.16 6.312C322.848 5.616 322.176 4.584 321.456 3.864L319.92 4.416Z" fill="#444444"/>
<path d="M408.707 15.2071C409.098 14.8166 409.098 14.1834 408.707 13.7929L402.343 7.42893C401.953 7.03841 401.319 7.03841 400.929 7.42893C400.538 7.81946 400.538 8.45262 400.929 8.84315L406.586 14.5L400.929 20.1569C400.538 20.5474 400.538 21.1805 400.929 21.5711C401.319 21.9616 401.953 21.9616 402.343 21.5711L408.707 15.2071ZM358 15.5H408V13.5H358V15.5Z" fill="#444444"/>
<path d="M431.412 9.936V11.352H438.348V9.936H431.412ZM431.412 14.016V15.384H438.348V14.016H431.412ZM431.412 18.192V19.608H438.348V18.192H431.412ZM441.636 15.216V16.776H450.78V15.216H441.636ZM432.66 6V7.416H436.644V6H432.66ZM440.1 5.064V6.6H449.484V5.064H440.1ZM439.812 19.704V21.312H451.188V19.704H439.812ZM444.876 12.744V25.824H446.604V12.744H444.876ZM434.388 10.632V18.792H435.684V10.632H434.388ZM448.908 5.064V5.304C448.74 9.072 448.548 10.464 448.236 10.824C448.092 11.016 447.876 11.064 447.54 11.04C447.204 11.04 446.34 11.04 445.38 10.944C445.596 11.352 445.764 11.976 445.788 12.456C446.796 12.504 447.804 12.504 448.284 12.456C448.908 12.408 449.268 12.264 449.604 11.856C450.108 11.304 450.348 9.744 450.516 5.736C450.54 5.52 450.54 5.064 450.54 5.064H448.908ZM441.732 12.96C441.324 15 440.58 17.016 439.548 18.36C439.932 18.552 440.652 18.912 440.964 19.128C441.972 17.688 442.812 15.504 443.292 13.272L441.732 12.96ZM432.612 3.84C431.892 6.792 430.548 9.648 428.844 11.496C429.228 11.736 429.924 12.288 430.212 12.576C431.916 10.536 433.38 7.44 434.268 4.2L432.612 3.84ZM430.716 9.936V16.32C430.716 19.032 430.548 22.608 428.916 25.152C429.276 25.32 429.948 25.728 430.212 25.968C431.916 23.304 432.204 19.248 432.204 16.32V9.936H430.716ZM437.868 9.936V23.952C437.868 24.264 437.724 24.36 437.412 24.384C437.076 24.408 435.996 24.408 434.772 24.36C434.988 24.792 435.252 25.488 435.324 25.896C436.98 25.896 437.964 25.872 438.564 25.608C439.188 25.344 439.38 24.84 439.38 23.952V9.936H437.868ZM443.508 5.568C443.172 8.28 442.308 10.656 439.356 11.904C439.716 12.168 440.148 12.744 440.364 13.128C443.724 11.616 444.756 8.88 445.164 5.568H443.508ZM436.212 6V6.288C435.852 7.488 435.18 9.216 434.58 10.296C434.916 10.44 435.444 10.752 435.732 10.992C436.452 9.864 437.364 8.088 437.868 6.6L436.812 5.904L436.572 6H436.212ZM461.748 7.704V9.408H472.332V15.672H474.108V7.704H461.748ZM460.404 14.832V16.56H476.1V14.832H460.404ZM466.476 3.888V12.072C466.476 16.824 465.804 21.48 459.3 24.696C459.756 24.984 460.428 25.608 460.74 25.968C467.532 22.512 468.276 17.304 468.276 12.096V3.888H466.476ZM469.14 15.648L467.484 16.056C468.732 20.808 471.132 24.264 475.044 25.992C475.308 25.488 475.884 24.792 476.292 24.432C472.572 23.016 470.22 19.824 469.14 15.648ZM455.22 5.352C456.756 6.072 458.604 7.224 459.516 8.088L460.548 6.624C459.636 5.784 457.74 4.704 456.228 4.056L455.22 5.352ZM453.948 11.88C455.508 12.528 457.404 13.608 458.34 14.424L459.372 12.936C458.412 12.144 456.468 11.112 454.932 10.536L453.948 11.88ZM454.62 24.432L456.18 25.584C457.476 23.328 458.988 20.304 460.14 17.76L458.748 16.656C457.5 19.392 455.82 22.584 454.62 24.432ZM479.628 10.824V12.408H500.292V10.824H479.628ZM489.18 9.312V25.92H491.076V9.312H489.18ZM481.356 14.28V20.496H483.252V15.84H497.988V14.28H481.356ZM497.1 14.28V18.768C497.1 18.984 497.028 19.08 496.74 19.08C496.476 19.104 495.564 19.104 494.58 19.056C494.772 19.464 495.06 20.016 495.18 20.496C496.548 20.496 497.508 20.496 498.132 20.232C498.78 19.992 498.948 19.584 498.948 18.768V14.28H497.1ZM489.348 17.688C487.284 20.424 483.132 22.704 479.028 23.64C479.436 24.024 479.94 24.696 480.18 25.152C484.308 23.976 488.46 21.456 490.74 18.264L489.348 17.688ZM490.644 17.616L489.684 18.648C491.508 20.976 495.372 23.808 500.076 25.056C500.34 24.576 500.868 23.88 501.228 23.472C496.476 22.44 492.396 19.896 490.644 17.616ZM482.076 5.952V7.512H489.66V5.952H482.076ZM491.292 5.952V7.512H500.604V5.952H491.292ZM482.58 3.768C481.764 5.856 480.372 7.944 478.788 9.312C479.22 9.528 479.964 10.032 480.3 10.296C481.836 8.832 483.348 6.552 484.308 4.224L482.58 3.768ZM491.868 3.768C491.124 5.928 489.684 7.944 488.028 9.24C488.484 9.48 489.228 10.008 489.54 10.32C491.172 8.856 492.756 6.6 493.644 4.2L491.868 3.768ZM483.492 7.128C484.116 8.136 484.74 9.48 484.98 10.32L486.564 9.744C486.324 8.904 485.628 7.608 485.028 6.648L483.492 7.128ZM493.428 7.032C494.148 8.04 494.892 9.384 495.204 10.272L496.812 9.72C496.476 8.832 495.684 7.512 494.964 6.552L493.428 7.032ZM516.492 7.632L514.5 7.584C514.26 10.08 513.756 12.792 513.06 15.072C511.836 19.128 510.54 20.76 509.412 20.76C508.332 20.76 506.964 19.416 506.964 16.392C506.964 12.864 510.252 8.52 515.532 8.52C520.14 8.52 522.804 11.688 522.804 15.528C522.804 19.68 519.78 21.984 516.708 22.68C516.132 22.8 515.412 22.896 514.644 22.968L515.748 24.744C521.46 24 524.772 20.64 524.772 15.624C524.772 10.752 521.196 6.792 515.58 6.792C509.7 6.792 505.068 11.328 505.068 16.536C505.068 20.52 507.204 22.968 509.364 22.968C511.572 22.968 513.492 20.424 514.956 15.504C515.7 12.936 516.18 10.128 516.492 7.632ZM539.844 4.608V7.512C539.844 9.192 539.484 11.184 537.18 12.672C537.54 12.912 538.236 13.536 538.476 13.872C541.044 12.168 541.572 9.624 541.572 7.536V4.608H539.844ZM545.7 4.608V10.536C545.7 12.24 546.132 12.72 547.596 12.72C547.908 12.72 548.964 12.72 549.276 12.72C550.572 12.72 551.004 11.976 551.148 9.168C550.692 9.048 549.972 8.784 549.636 8.52C549.588 10.824 549.492 11.136 549.084 11.136C548.844 11.136 548.052 11.136 547.86 11.136C547.476 11.136 547.404 11.04 547.404 10.512V4.608H545.7ZM541.14 15.936L539.532 16.44C541.452 21.144 545.028 24.456 550.02 25.92C550.26 25.464 550.788 24.744 551.196 24.36C546.372 23.136 542.796 20.064 541.14 15.936ZM547.86 14.256V14.544C546.42 19.872 542.076 23.112 537.228 24.336C537.564 24.72 538.02 25.488 538.212 25.92C543.468 24.384 547.98 20.928 549.684 14.64L548.532 14.184L548.22 14.256H547.86ZM538.284 14.256V15.888H548.556V14.256H538.284ZM540.564 4.608V6.216H546.564V4.608H540.564ZM529.98 11.112V12.552H537.132V11.112H529.98ZM530.1 4.704V6.144H537.084V4.704H530.1ZM529.98 14.328V15.768H537.132V14.328H529.98ZM528.852 7.848V9.336H537.972V7.848H528.852ZM530.844 17.568V19.056H535.548V23.064H530.844V24.576H537.132V17.568H530.844ZM529.956 17.568V25.68H531.516V17.568H529.956ZM563.316 12.072V13.848H576.204V12.072H563.316ZM568.956 3.912V25.92H570.78V3.912H568.956ZM554.94 11.112V12.552H562.428V11.112H554.94ZM555.084 4.704V6.144H562.452V4.704H555.084ZM554.94 14.328V15.768H562.428V14.328H554.94ZM553.812 7.848V9.336H563.364V7.848H553.812ZM555.78 17.568V19.056H560.748V23.064H555.78V24.576H562.356V17.568H555.78ZM554.916 17.568V25.68H556.524V17.568H554.916Z" fill="#444444"/>
<path d="M647.707 15.2071C648.098 14.8166 648.098 14.1834 647.707 13.7929L641.343 7.42893C640.953 7.03841 640.319 7.03841 639.929 7.42893C639.538 7.81946 639.538 8.45262 639.929 8.84315L645.586 14.5L639.929 20.1569C639.538 20.5474 639.538 21.1805 639.929 21.5711C640.319 21.9616 640.953 21.9616 641.343 21.5711L647.707 15.2071ZM597 15.5H647V13.5H597V15.5Z" fill="#444444"/>
<path d="M678.984 4.608V7.512C678.984 9.192 678.624 11.184 676.32 12.672C676.68 12.912 677.376 13.536 677.616 13.872C680.184 12.168 680.712 9.624 680.712 7.536V4.608H678.984ZM684.84 4.608V10.536C684.84 12.24 685.272 12.72 686.736 12.72C687.048 12.72 688.104 12.72 688.416 12.72C689.712 12.72 690.144 11.976 690.288 9.168C689.832 9.048 689.112 8.784 688.776 8.52C688.728 10.824 688.632 11.136 688.224 11.136C687.984 11.136 687.192 11.136 687 11.136C686.616 11.136 686.544 11.04 686.544 10.512V4.608H684.84ZM680.28 15.936L678.672 16.44C680.592 21.144 684.168 24.456 689.16 25.92C689.4 25.464 689.928 24.744 690.336 24.36C685.512 23.136 681.936 20.064 680.28 15.936ZM687 14.256V14.544C685.56 19.872 681.216 23.112 676.368 24.336C676.704 24.72 677.16 25.488 677.352 25.92C682.608 24.384 687.12 20.928 688.824 14.64L687.672 14.184L687.36 14.256H687ZM677.424 14.256V15.888H687.696V14.256H677.424ZM679.704 4.608V6.216H685.704V4.608H679.704ZM669.12 11.112V12.552H676.272V11.112H669.12ZM669.24 4.704V6.144H676.224V4.704H669.24ZM669.12 14.328V15.768H676.272V14.328H669.12ZM667.992 7.848V9.336H677.112V7.848H667.992ZM669.984 17.568V19.056H674.688V23.064H669.984V24.576H676.272V17.568H669.984ZM669.096 17.568V25.68H670.656V17.568H669.096ZM702.456 12.072V13.848H715.344V12.072H702.456ZM708.096 3.912V25.92H709.92V3.912H708.096ZM694.08 11.112V12.552H701.568V11.112H694.08ZM694.224 4.704V6.144H701.592V4.704H694.224ZM694.08 14.328V15.768H701.568V14.328H694.08ZM692.952 7.848V9.336H702.504V7.848H692.952ZM694.92 17.568V19.056H699.888V23.064H694.92V24.576H701.496V17.568H694.92ZM694.056 17.568V25.68H695.664V17.568H694.056ZM730.512 7.632L728.52 7.584C728.28 10.08 727.776 12.792 727.08 15.072C725.856 19.128 724.56 20.76 723.432 20.76C722.352 20.76 720.984 19.416 720.984 16.392C720.984 12.864 724.272 8.52 729.552 8.52C734.16 8.52 736.824 11.688 736.824 15.528C736.824 19.68 733.8 21.984 730.728 22.68C730.152 22.8 729.432 22.896 728.664 22.968L729.768 24.744C735.48 24 738.792 20.64 738.792 15.624C738.792 10.752 735.216 6.792 729.6 6.792C723.72 6.792 719.088 11.328 719.088 16.536C719.088 20.52 721.224 22.968 723.384 22.968C725.592 22.968 727.512 20.424 728.976 15.504C729.72 12.936 730.2 10.128 730.512 7.632ZM762.36 8.04C762.024 9.864 761.328 12.504 760.728 14.112L762.144 14.496C762.768 12.96 763.488 10.464 764.088 8.424L762.36 8.04ZM753.072 8.568C753.672 10.464 754.2 12.912 754.32 14.544L755.904 14.136C755.76 12.552 755.184 10.104 754.536 8.208L753.072 8.568ZM752.496 5.208V6.888H764.568V5.208H752.496ZM751.56 15.552V17.28H765.048V15.552H751.56ZM757.512 5.784V25.92H759.264V5.784H757.512ZM744 11.112V12.552H751.152V11.112H744ZM744.12 4.704V6.144H751.104V4.704H744.12ZM744 14.328V15.768H751.152V14.328H744ZM742.872 7.848V9.336H751.992V7.848H742.872ZM744.864 17.568V19.056H749.568V23.064H744.864V24.576H751.152V17.568H744.864ZM743.976 17.568V25.68H745.536V17.568H743.976ZM774.432 6.288V7.92H789.72V6.288H774.432ZM774.744 11.856V25.536H776.424V13.464H787.8V25.392H789.528V11.856H774.744ZM778.944 6.528V13.008H780.648V6.528H778.944ZM783.408 6.528V13.008H785.136V6.528H783.408ZM775.512 22.368V23.952H789.024V22.368H775.512ZM779.088 12.96V23.568H780.648V12.96H779.088ZM783.408 12.96V23.568H784.968V12.96H783.408ZM772.992 3.912C771.72 7.488 769.608 11.016 767.352 13.296C767.688 13.728 768.192 14.64 768.36 15.048C770.832 12.384 773.136 8.4 774.624 4.44L772.992 3.912ZM770.616 10.152V25.92H772.32V8.496L772.296 8.472L770.616 10.152Z" fill="#444444"/>
<path d="M503 70H502V71H503V70ZM503.707 32.2929C503.317 31.9024 502.683 31.9024 502.293 32.2929L495.929 38.6569C495.538 39.0474 495.538 39.6805 495.929 40.0711C496.319 40.4616 496.953 40.4616 497.343 40.0711L503 34.4142L508.657 40.0711C509.047 40.4616 509.681 40.4616 510.071 40.0711C510.462 39.6805 510.462 39.0474 510.071 38.6569L503.707 32.2929ZM729 70V71H730V70H729ZM504 70V33H502V70H504ZM728 33V70H730V33H728ZM729 69L503 69V71L729 71V69Z" fill="#444444"/>
</svg>
