<svg width="652" height="71" viewBox="0 0 652 71" fill="none" xmlns="http://www.w3.org/2000/svg">
<path d="M8.91825 22.152C9.63025 22.152 10.2663 22.032 10.8263 21.792C11.3863 21.552 11.8583 21.216 12.2423 20.784C12.6343 20.352 12.9303 19.836 13.1303 19.236C13.3383 18.636 13.4423 17.976 13.4423 17.256V6.804H15.7583V17.256C15.7583 18.248 15.5983 19.168 15.2783 20.016C14.9663 20.864 14.5143 21.6 13.9223 22.224C13.3383 22.84 12.6223 23.324 11.7743 23.676C10.9263 24.028 9.97425 24.204 8.91825 24.204C7.86225 24.204 6.91025 24.028 6.06225 23.676C5.21425 23.324 4.49425 22.84 3.90225 22.224C3.31025 21.6 2.85425 20.864 2.53425 20.016C2.22225 19.168 2.06625 18.248 2.06625 17.256V6.804H4.38225V17.244C4.38225 17.964 4.48225 18.624 4.68225 19.224C4.89025 19.824 5.18625 20.34 5.57025 20.772C5.96225 21.204 6.43825 21.544 6.99825 21.792C7.56625 22.032 8.20625 22.152 8.91825 22.152ZM22.0511 13.608C22.3151 13.312 22.5951 13.044 22.8911 12.804C23.1871 12.564 23.4991 12.36 23.8271 12.192C24.1631 12.016 24.5151 11.884 24.8831 11.796C25.2591 11.7 25.6631 11.652 26.0951 11.652C26.7591 11.652 27.3431 11.764 27.8471 11.988C28.3591 12.204 28.7831 12.516 29.1191 12.924C29.4631 13.324 29.7231 13.808 29.8991 14.376C30.0751 14.944 30.1631 15.572 30.1631 16.26V24H28.0151V16.26C28.0151 15.34 27.8031 14.628 27.3791 14.124C26.9631 13.612 26.3271 13.356 25.4711 13.356C24.8391 13.356 24.2471 13.508 23.6951 13.812C23.1511 14.116 22.6471 14.528 22.1831 15.048V24H20.0351V11.844H21.3191C21.6231 11.844 21.8111 11.992 21.8831 12.288L22.0511 13.608ZM42.2979 14.736C41.8979 14.2 41.4659 13.828 41.0019 13.62C40.5379 13.404 40.0179 13.296 39.4419 13.296C38.3139 13.296 37.4459 13.7 36.8379 14.508C36.2299 15.316 35.9259 16.468 35.9259 17.964C35.9259 18.756 35.9939 19.436 36.1299 20.004C36.2659 20.564 36.4659 21.028 36.7299 21.396C36.9939 21.756 37.3179 22.02 37.7019 22.188C38.0859 22.356 38.5219 22.44 39.0099 22.44C39.7139 22.44 40.3259 22.28 40.8459 21.96C41.3739 21.64 41.8579 21.188 42.2979 20.604V14.736ZM44.4339 6.324V24H43.1619C42.8579 24 42.6659 23.852 42.5859 23.556L42.3939 22.08C41.8739 22.704 41.2819 23.208 40.6179 23.592C39.9539 23.976 39.1859 24.168 38.3139 24.168C37.6179 24.168 36.9859 24.036 36.4179 23.772C35.8499 23.5 35.3659 23.104 34.9659 22.584C34.5659 22.064 34.2579 21.416 34.0419 20.64C33.8259 19.864 33.7179 18.972 33.7179 17.964C33.7179 17.068 33.8379 16.236 34.0779 15.468C34.3179 14.692 34.6619 14.02 35.1099 13.452C35.5579 12.884 36.1059 12.44 36.7539 12.12C37.4099 11.792 38.1459 11.628 38.9619 11.628C39.7059 11.628 40.3419 11.756 40.8699 12.012C41.4059 12.26 41.8819 12.608 42.2979 13.056V6.324H44.4339ZM56.9036 16.596C56.9036 16.1 56.8316 15.648 56.6876 15.24C56.5516 14.824 56.3476 14.468 56.0756 14.172C55.8116 13.868 55.4876 13.636 55.1036 13.476C54.7196 13.308 54.2836 13.224 53.7956 13.224C52.7716 13.224 51.9596 13.524 51.3596 14.124C50.7676 14.716 50.3996 15.54 50.2556 16.596H56.9036ZM58.6316 22.296C58.3676 22.616 58.0516 22.896 57.6836 23.136C57.3156 23.368 56.9196 23.56 56.4956 23.712C56.0796 23.864 55.6476 23.976 55.1996 24.048C54.7516 24.128 54.3076 24.168 53.8676 24.168C53.0276 24.168 52.2516 24.028 51.5396 23.748C50.8356 23.46 50.2236 23.044 49.7036 22.5C49.1916 21.948 48.7916 21.268 48.5036 20.46C48.2156 19.652 48.0716 18.724 48.0716 17.676C48.0716 16.828 48.1996 16.036 48.4556 15.3C48.7196 14.564 49.0956 13.928 49.5836 13.392C50.0716 12.848 50.6676 12.424 51.3716 12.12C52.0756 11.808 52.8676 11.652 53.7476 11.652C54.4756 11.652 55.1476 11.776 55.7636 12.024C56.3876 12.264 56.9236 12.616 57.3716 13.08C57.8276 13.536 58.1836 14.104 58.4396 14.784C58.6956 15.456 58.8236 16.224 58.8236 17.088C58.8236 17.424 58.7876 17.648 58.7156 17.76C58.6436 17.872 58.5076 17.928 58.3076 17.928H50.1836C50.2076 18.696 50.3116 19.364 50.4956 19.932C50.6876 20.5 50.9516 20.976 51.2876 21.36C51.6236 21.736 52.0236 22.02 52.4876 22.212C52.9516 22.396 53.4716 22.488 54.0476 22.488C54.5836 22.488 55.0436 22.428 55.4276 22.308C55.8196 22.18 56.1556 22.044 56.4356 21.9C56.7156 21.756 56.9476 21.624 57.1316 21.504C57.3236 21.376 57.4876 21.312 57.6236 21.312C57.7996 21.312 57.9356 21.38 58.0316 21.516L58.6316 22.296ZM64.4353 14.28C64.8193 13.448 65.2913 12.8 65.8513 12.336C66.4113 11.864 67.0953 11.628 67.9033 11.628C68.1593 11.628 68.4033 11.656 68.6353 11.712C68.8753 11.768 69.0873 11.856 69.2713 11.976L69.1153 13.572C69.0673 13.772 68.9473 13.872 68.7553 13.872C68.6433 13.872 68.4793 13.848 68.2633 13.8C68.0473 13.752 67.8033 13.728 67.5313 13.728C67.1473 13.728 66.8033 13.784 66.4993 13.896C66.2033 14.008 65.9353 14.176 65.6953 14.4C65.4633 14.616 65.2513 14.888 65.0593 15.216C64.8753 15.536 64.7073 15.904 64.5553 16.32V24H62.4073V11.844H63.6313C63.8633 11.844 64.0233 11.888 64.1113 11.976C64.1993 12.064 64.2593 12.216 64.2913 12.432L64.4353 14.28ZM79.1192 13.848C79.0232 14.024 78.8752 14.112 78.6752 14.112C78.5552 14.112 78.4192 14.068 78.2672 13.98C78.1152 13.892 77.9272 13.796 77.7032 13.692C77.4872 13.58 77.2272 13.48 76.9232 13.392C76.6192 13.296 76.2592 13.248 75.8432 13.248C75.4832 13.248 75.1592 13.296 74.8712 13.392C74.5832 13.48 74.3352 13.604 74.1272 13.764C73.9272 13.924 73.7712 14.112 73.6592 14.328C73.5552 14.536 73.5032 14.764 73.5032 15.012C73.5032 15.324 73.5912 15.584 73.7672 15.792C73.9512 16 74.1912 16.18 74.4872 16.332C74.7832 16.484 75.1192 16.62 75.4952 16.74C75.8712 16.852 76.2552 16.976 76.6472 17.112C77.0472 17.24 77.4352 17.384 77.8112 17.544C78.1872 17.704 78.5232 17.904 78.8192 18.144C79.1152 18.384 79.3512 18.68 79.5272 19.032C79.7112 19.376 79.8032 19.792 79.8032 20.28C79.8032 20.84 79.7032 21.36 79.5032 21.84C79.3032 22.312 79.0072 22.724 78.6152 23.076C78.2232 23.42 77.7432 23.692 77.1752 23.892C76.6072 24.092 75.9512 24.192 75.2072 24.192C74.3592 24.192 73.5912 24.056 72.9032 23.784C72.2152 23.504 71.6312 23.148 71.1512 22.716L71.6552 21.9C71.7192 21.796 71.7952 21.716 71.8832 21.66C71.9712 21.604 72.0832 21.576 72.2192 21.576C72.3632 21.576 72.5152 21.632 72.6752 21.744C72.8352 21.856 73.0272 21.98 73.2512 22.116C73.4832 22.252 73.7632 22.376 74.0912 22.488C74.4192 22.6 74.8272 22.656 75.3152 22.656C75.7312 22.656 76.0952 22.604 76.4072 22.5C76.7192 22.388 76.9792 22.24 77.1872 22.056C77.3952 21.872 77.5472 21.66 77.6432 21.42C77.7472 21.18 77.7992 20.924 77.7992 20.652C77.7992 20.316 77.7072 20.04 77.5232 19.824C77.3472 19.6 77.1112 19.412 76.8152 19.26C76.5192 19.1 76.1792 18.964 75.7952 18.852C75.4192 18.732 75.0312 18.608 74.6312 18.48C74.2392 18.352 73.8512 18.208 73.4672 18.048C73.0912 17.88 72.7552 17.672 72.4592 17.424C72.1632 17.176 71.9232 16.872 71.7392 16.512C71.5632 16.144 71.4752 15.7 71.4752 15.18C71.4752 14.716 71.5712 14.272 71.7632 13.848C71.9552 13.416 72.2352 13.04 72.6032 12.72C72.9712 12.392 73.4232 12.132 73.9592 11.94C74.4952 11.748 75.1072 11.652 75.7952 11.652C76.5952 11.652 77.3112 11.78 77.9432 12.036C78.5832 12.284 79.1352 12.628 79.5992 13.068L79.1192 13.848ZM87.114 24.192C86.154 24.192 85.414 23.924 84.894 23.388C84.382 22.852 84.126 22.08 84.126 21.072V13.632H82.662C82.534 13.632 82.426 13.596 82.338 13.524C82.25 13.444 82.206 13.324 82.206 13.164V12.312L84.198 12.06L84.69 8.304C84.714 8.184 84.766 8.088 84.846 8.016C84.934 7.936 85.046 7.896 85.182 7.896H86.262V12.084H89.778V13.632H86.262V20.928C86.262 21.44 86.386 21.82 86.634 22.068C86.882 22.316 87.202 22.44 87.594 22.44C87.818 22.44 88.01 22.412 88.17 22.356C88.338 22.292 88.482 22.224 88.602 22.152C88.722 22.08 88.822 22.016 88.902 21.96C88.99 21.896 89.066 21.864 89.13 21.864C89.242 21.864 89.342 21.932 89.43 22.068L90.054 23.088C89.686 23.432 89.242 23.704 88.722 23.904C88.202 24.096 87.666 24.192 87.114 24.192ZM99.5316 18.528C98.5476 18.56 97.7076 18.64 97.0116 18.768C96.3236 18.888 95.7596 19.048 95.3196 19.248C94.8876 19.448 94.5716 19.684 94.3716 19.956C94.1796 20.228 94.0836 20.532 94.0836 20.868C94.0836 21.188 94.1356 21.464 94.2396 21.696C94.3436 21.928 94.4836 22.12 94.6596 22.272C94.8436 22.416 95.0556 22.524 95.2956 22.596C95.5436 22.66 95.8076 22.692 96.0876 22.692C96.4636 22.692 96.8076 22.656 97.1196 22.584C97.4316 22.504 97.7236 22.392 97.9956 22.248C98.2756 22.104 98.5396 21.932 98.7876 21.732C99.0436 21.532 99.2916 21.304 99.5316 21.048V18.528ZM92.6316 13.56C93.3036 12.912 94.0276 12.428 94.8036 12.108C95.5796 11.788 96.4396 11.628 97.3836 11.628C98.0636 11.628 98.6676 11.74 99.1956 11.964C99.7236 12.188 100.168 12.5 100.528 12.9C100.888 13.3 101.16 13.784 101.344 14.352C101.528 14.92 101.62 15.544 101.62 16.224V24H100.672C100.464 24 100.304 23.968 100.192 23.904C100.08 23.832 99.9916 23.696 99.9276 23.496L99.6876 22.344C99.3676 22.64 99.0556 22.904 98.7516 23.136C98.4476 23.36 98.1276 23.552 97.7916 23.712C97.4556 23.864 97.0956 23.98 96.7116 24.06C96.3356 24.148 95.9156 24.192 95.4516 24.192C94.9796 24.192 94.5356 24.128 94.1196 24C93.7036 23.864 93.3396 23.664 93.0276 23.4C92.7236 23.136 92.4796 22.804 92.2956 22.404C92.1196 21.996 92.0316 21.516 92.0316 20.964C92.0316 20.484 92.1636 20.024 92.4276 19.584C92.6916 19.136 93.1196 18.74 93.7116 18.396C94.3036 18.052 95.0756 17.772 96.0276 17.556C96.9796 17.332 98.1476 17.204 99.5316 17.172V16.224C99.5316 15.28 99.3276 14.568 98.9196 14.088C98.5116 13.6 97.9156 13.356 97.1316 13.356C96.6036 13.356 96.1596 13.424 95.7996 13.56C95.4476 13.688 95.1396 13.836 94.8756 14.004C94.6196 14.164 94.3956 14.312 94.2036 14.448C94.0196 14.576 93.8356 14.64 93.6516 14.64C93.5076 14.64 93.3836 14.604 93.2796 14.532C93.1756 14.452 93.0876 14.356 93.0156 14.244L92.6316 13.56ZM107.849 13.608C108.113 13.312 108.393 13.044 108.689 12.804C108.985 12.564 109.297 12.36 109.625 12.192C109.961 12.016 110.313 11.884 110.681 11.796C111.057 11.7 111.461 11.652 111.893 11.652C112.557 11.652 113.141 11.764 113.645 11.988C114.157 12.204 114.581 12.516 114.917 12.924C115.261 13.324 115.521 13.808 115.697 14.376C115.873 14.944 115.961 15.572 115.961 16.26V24H113.813V16.26C113.813 15.34 113.601 14.628 113.177 14.124C112.761 13.612 112.125 13.356 111.269 13.356C110.637 13.356 110.045 13.508 109.493 13.812C108.949 14.116 108.445 14.528 107.981 15.048V24H105.833V11.844H107.117C107.421 11.844 107.609 11.992 107.681 12.288L107.849 13.608ZM128.096 14.736C127.696 14.2 127.264 13.828 126.8 13.62C126.336 13.404 125.816 13.296 125.24 13.296C124.112 13.296 123.244 13.7 122.636 14.508C122.028 15.316 121.724 16.468 121.724 17.964C121.724 18.756 121.792 19.436 121.928 20.004C122.064 20.564 122.264 21.028 122.528 21.396C122.792 21.756 123.116 22.02 123.5 22.188C123.884 22.356 124.32 22.44 124.808 22.44C125.512 22.44 126.124 22.28 126.644 21.96C127.172 21.64 127.656 21.188 128.096 20.604V14.736ZM130.232 6.324V24H128.96C128.656 24 128.464 23.852 128.384 23.556L128.192 22.08C127.672 22.704 127.08 23.208 126.416 23.592C125.752 23.976 124.984 24.168 124.112 24.168C123.416 24.168 122.784 24.036 122.216 23.772C121.648 23.5 121.164 23.104 120.764 22.584C120.364 22.064 120.056 21.416 119.84 20.64C119.624 19.864 119.516 18.972 119.516 17.964C119.516 17.068 119.636 16.236 119.876 15.468C120.116 14.692 120.46 14.02 120.908 13.452C121.356 12.884 121.904 12.44 122.552 12.12C123.208 11.792 123.944 11.628 124.76 11.628C125.504 11.628 126.14 11.756 126.668 12.012C127.204 12.26 127.68 12.608 128.096 13.056V6.324H130.232Z" fill="#444444"/>
<path d="M202.707 15.2071C203.098 14.8166 203.098 14.1834 202.707 13.7929L196.343 7.42893C195.953 7.03841 195.319 7.03841 194.929 7.42893C194.538 7.81946 194.538 8.45262 194.929 8.84315L200.586 14.5L194.929 20.1569C194.538 20.5474 194.538 21.1805 194.929 21.5711C195.319 21.9616 195.953 21.9616 196.343 21.5711L202.707 15.2071ZM152 15.5H202V13.5H152V15.5Z" fill="#444444"/>
<path d="M239.453 15.408C239.453 16.696 239.249 17.868 238.841 18.924C238.433 19.98 237.857 20.884 237.113 21.636C236.369 22.388 235.473 22.972 234.425 23.388C233.385 23.796 232.233 24 230.969 24H224.549V6.804H230.969C232.233 6.804 233.385 7.012 234.425 7.428C235.473 7.836 236.369 8.42 237.113 9.18C237.857 9.932 238.433 10.836 238.841 11.892C239.249 12.948 239.453 14.12 239.453 15.408ZM237.065 15.408C237.065 14.352 236.921 13.408 236.633 12.576C236.345 11.744 235.937 11.04 235.409 10.464C234.881 9.888 234.241 9.448 233.489 9.144C232.737 8.84 231.897 8.688 230.969 8.688H226.877V22.116H230.969C231.897 22.116 232.737 21.964 233.489 21.66C234.241 21.356 234.881 20.92 235.409 20.352C235.937 19.776 236.345 19.072 236.633 18.24C236.921 17.408 237.065 16.464 237.065 15.408ZM251.235 16.596C251.235 16.1 251.163 15.648 251.019 15.24C250.883 14.824 250.679 14.468 250.407 14.172C250.143 13.868 249.819 13.636 249.435 13.476C249.051 13.308 248.615 13.224 248.127 13.224C247.103 13.224 246.291 13.524 245.691 14.124C245.099 14.716 244.731 15.54 244.587 16.596H251.235ZM252.963 22.296C252.699 22.616 252.383 22.896 252.015 23.136C251.647 23.368 251.251 23.56 250.827 23.712C250.411 23.864 249.979 23.976 249.531 24.048C249.083 24.128 248.639 24.168 248.199 24.168C247.359 24.168 246.583 24.028 245.871 23.748C245.167 23.46 244.555 23.044 244.035 22.5C243.523 21.948 243.123 21.268 242.835 20.46C242.547 19.652 242.403 18.724 242.403 17.676C242.403 16.828 242.531 16.036 242.787 15.3C243.051 14.564 243.427 13.928 243.915 13.392C244.403 12.848 244.999 12.424 245.703 12.12C246.407 11.808 247.199 11.652 248.079 11.652C248.807 11.652 249.479 11.776 250.095 12.024C250.719 12.264 251.255 12.616 251.703 13.08C252.159 13.536 252.515 14.104 252.771 14.784C253.027 15.456 253.155 16.224 253.155 17.088C253.155 17.424 253.119 17.648 253.047 17.76C252.975 17.872 252.839 17.928 252.639 17.928H244.515C244.539 18.696 244.643 19.364 244.827 19.932C245.019 20.5 245.283 20.976 245.619 21.36C245.955 21.736 246.355 22.02 246.819 22.212C247.283 22.396 247.803 22.488 248.379 22.488C248.915 22.488 249.375 22.428 249.759 22.308C250.151 22.18 250.487 22.044 250.767 21.9C251.047 21.756 251.279 21.624 251.463 21.504C251.655 21.376 251.819 21.312 251.955 21.312C252.131 21.312 252.267 21.38 252.363 21.516L252.963 22.296ZM257.438 24V13.668L256.094 13.512C255.918 13.472 255.778 13.412 255.674 13.332C255.57 13.244 255.518 13.12 255.518 12.96V12.084H257.438V11.412C257.438 10.668 257.554 9.988 257.786 9.372C258.018 8.748 258.366 8.212 258.83 7.764C259.294 7.316 259.87 6.968 260.558 6.72C261.254 6.472 262.058 6.348 262.97 6.348C263.274 6.348 263.586 6.368 263.906 6.408C264.226 6.448 264.502 6.508 264.734 6.588L264.65 7.704C264.642 7.784 264.61 7.84 264.554 7.872C264.506 7.904 264.438 7.924 264.35 7.932C264.262 7.94 264.15 7.944 264.014 7.944C263.886 7.936 263.738 7.932 263.57 7.932C262.146 7.932 261.114 8.228 260.474 8.82C259.834 9.404 259.514 10.288 259.514 11.472V12.084H266.858V24H264.71V13.632H259.574V24H257.438ZM273.332 13.608C273.596 13.312 273.876 13.044 274.172 12.804C274.468 12.564 274.78 12.36 275.108 12.192C275.444 12.016 275.796 11.884 276.164 11.796C276.54 11.7 276.944 11.652 277.376 11.652C278.04 11.652 278.624 11.764 279.128 11.988C279.64 12.204 280.064 12.516 280.4 12.924C280.744 13.324 281.004 13.808 281.18 14.376C281.356 14.944 281.444 15.572 281.444 16.26V24H279.296V16.26C279.296 15.34 279.084 14.628 278.66 14.124C278.244 13.612 277.608 13.356 276.752 13.356C276.12 13.356 275.528 13.508 274.976 13.812C274.432 14.116 273.928 14.528 273.464 15.048V24H271.316V11.844H272.6C272.904 11.844 273.092 11.992 273.164 12.288L273.332 13.608ZM293.795 16.596C293.795 16.1 293.723 15.648 293.579 15.24C293.443 14.824 293.239 14.468 292.967 14.172C292.703 13.868 292.379 13.636 291.995 13.476C291.611 13.308 291.175 13.224 290.687 13.224C289.663 13.224 288.851 13.524 288.251 14.124C287.659 14.716 287.291 15.54 287.147 16.596H293.795ZM295.523 22.296C295.259 22.616 294.943 22.896 294.575 23.136C294.207 23.368 293.811 23.56 293.387 23.712C292.971 23.864 292.539 23.976 292.091 24.048C291.643 24.128 291.199 24.168 290.759 24.168C289.919 24.168 289.143 24.028 288.431 23.748C287.727 23.46 287.115 23.044 286.595 22.5C286.083 21.948 285.683 21.268 285.395 20.46C285.107 19.652 284.963 18.724 284.963 17.676C284.963 16.828 285.091 16.036 285.347 15.3C285.611 14.564 285.987 13.928 286.475 13.392C286.963 12.848 287.559 12.424 288.263 12.12C288.967 11.808 289.759 11.652 290.639 11.652C291.367 11.652 292.039 11.776 292.655 12.024C293.279 12.264 293.815 12.616 294.263 13.08C294.719 13.536 295.075 14.104 295.331 14.784C295.587 15.456 295.715 16.224 295.715 17.088C295.715 17.424 295.679 17.648 295.607 17.76C295.535 17.872 295.399 17.928 295.199 17.928H287.075C287.099 18.696 287.203 19.364 287.387 19.932C287.579 20.5 287.843 20.976 288.179 21.36C288.515 21.736 288.915 22.02 289.379 22.212C289.843 22.396 290.363 22.488 290.939 22.488C291.475 22.488 291.935 22.428 292.319 22.308C292.711 22.18 293.047 22.044 293.327 21.9C293.607 21.756 293.839 21.624 294.023 21.504C294.215 21.376 294.379 21.312 294.515 21.312C294.691 21.312 294.827 21.38 294.923 21.516L295.523 22.296Z" fill="#444444"/>
<path d="M367.707 15.2071C368.098 14.8166 368.098 14.1834 367.707 13.7929L361.343 7.42893C360.953 7.03841 360.319 7.03841 359.929 7.42893C359.538 7.81946 359.538 8.45262 359.929 8.84315L365.586 14.5L359.929 20.1569C359.538 20.5474 359.538 21.1805 359.929 21.5711C360.319 21.9616 360.953 21.9616 361.343 21.5711L367.707 15.2071ZM317 15.5H367V13.5H317V15.5Z" fill="#444444"/>
<path d="M404.313 15.408C404.313 16.696 404.109 17.868 403.701 18.924C403.293 19.98 402.717 20.884 401.973 21.636C401.229 22.388 400.333 22.972 399.285 23.388C398.245 23.796 397.093 24 395.829 24H389.409V6.804H395.829C397.093 6.804 398.245 7.012 399.285 7.428C400.333 7.836 401.229 8.42 401.973 9.18C402.717 9.932 403.293 10.836 403.701 11.892C404.109 12.948 404.313 14.12 404.313 15.408ZM401.925 15.408C401.925 14.352 401.781 13.408 401.493 12.576C401.205 11.744 400.797 11.04 400.269 10.464C399.741 9.888 399.101 9.448 398.349 9.144C397.597 8.84 396.757 8.688 395.829 8.688H391.737V22.116H395.829C396.757 22.116 397.597 21.964 398.349 21.66C399.101 21.356 399.741 20.92 400.269 20.352C400.797 19.776 401.205 19.072 401.493 18.24C401.781 17.408 401.925 16.464 401.925 15.408ZM416.095 16.596C416.095 16.1 416.023 15.648 415.879 15.24C415.743 14.824 415.539 14.468 415.267 14.172C415.003 13.868 414.679 13.636 414.295 13.476C413.911 13.308 413.475 13.224 412.987 13.224C411.963 13.224 411.151 13.524 410.551 14.124C409.959 14.716 409.591 15.54 409.447 16.596H416.095ZM417.823 22.296C417.559 22.616 417.243 22.896 416.875 23.136C416.507 23.368 416.111 23.56 415.687 23.712C415.271 23.864 414.839 23.976 414.391 24.048C413.943 24.128 413.499 24.168 413.059 24.168C412.219 24.168 411.443 24.028 410.731 23.748C410.027 23.46 409.415 23.044 408.895 22.5C408.383 21.948 407.983 21.268 407.695 20.46C407.407 19.652 407.263 18.724 407.263 17.676C407.263 16.828 407.391 16.036 407.647 15.3C407.911 14.564 408.287 13.928 408.775 13.392C409.263 12.848 409.859 12.424 410.563 12.12C411.267 11.808 412.059 11.652 412.939 11.652C413.667 11.652 414.339 11.776 414.955 12.024C415.579 12.264 416.115 12.616 416.563 13.08C417.019 13.536 417.375 14.104 417.631 14.784C417.887 15.456 418.015 16.224 418.015 17.088C418.015 17.424 417.979 17.648 417.907 17.76C417.835 17.872 417.699 17.928 417.499 17.928H409.375C409.399 18.696 409.503 19.364 409.687 19.932C409.879 20.5 410.143 20.976 410.479 21.36C410.815 21.736 411.215 22.02 411.679 22.212C412.143 22.396 412.663 22.488 413.239 22.488C413.775 22.488 414.235 22.428 414.619 22.308C415.011 22.18 415.347 22.044 415.627 21.9C415.907 21.756 416.139 21.624 416.323 21.504C416.515 21.376 416.679 21.312 416.815 21.312C416.991 21.312 417.127 21.38 417.223 21.516L417.823 22.296ZM428.679 13.848C428.583 14.024 428.435 14.112 428.235 14.112C428.115 14.112 427.979 14.068 427.827 13.98C427.675 13.892 427.487 13.796 427.263 13.692C427.047 13.58 426.787 13.48 426.483 13.392C426.179 13.296 425.819 13.248 425.403 13.248C425.043 13.248 424.719 13.296 424.431 13.392C424.143 13.48 423.895 13.604 423.687 13.764C423.487 13.924 423.331 14.112 423.219 14.328C423.115 14.536 423.063 14.764 423.063 15.012C423.063 15.324 423.151 15.584 423.327 15.792C423.511 16 423.751 16.18 424.047 16.332C424.343 16.484 424.679 16.62 425.055 16.74C425.431 16.852 425.815 16.976 426.207 17.112C426.607 17.24 426.995 17.384 427.371 17.544C427.747 17.704 428.083 17.904 428.379 18.144C428.675 18.384 428.911 18.68 429.087 19.032C429.271 19.376 429.363 19.792 429.363 20.28C429.363 20.84 429.263 21.36 429.063 21.84C428.863 22.312 428.567 22.724 428.175 23.076C427.783 23.42 427.303 23.692 426.735 23.892C426.167 24.092 425.511 24.192 424.767 24.192C423.919 24.192 423.151 24.056 422.463 23.784C421.775 23.504 421.191 23.148 420.711 22.716L421.215 21.9C421.279 21.796 421.355 21.716 421.443 21.66C421.531 21.604 421.643 21.576 421.779 21.576C421.923 21.576 422.075 21.632 422.235 21.744C422.395 21.856 422.587 21.98 422.811 22.116C423.043 22.252 423.323 22.376 423.651 22.488C423.979 22.6 424.387 22.656 424.875 22.656C425.291 22.656 425.655 22.604 425.967 22.5C426.279 22.388 426.539 22.24 426.747 22.056C426.955 21.872 427.107 21.66 427.203 21.42C427.307 21.18 427.359 20.924 427.359 20.652C427.359 20.316 427.267 20.04 427.083 19.824C426.907 19.6 426.671 19.412 426.375 19.26C426.079 19.1 425.739 18.964 425.355 18.852C424.979 18.732 424.591 18.608 424.191 18.48C423.799 18.352 423.411 18.208 423.027 18.048C422.651 17.88 422.315 17.672 422.019 17.424C421.723 17.176 421.483 16.872 421.299 16.512C421.123 16.144 421.035 15.7 421.035 15.18C421.035 14.716 421.131 14.272 421.323 13.848C421.515 13.416 421.795 13.04 422.163 12.72C422.531 12.392 422.983 12.132 423.519 11.94C424.055 11.748 424.667 11.652 425.355 11.652C426.155 11.652 426.871 11.78 427.503 12.036C428.143 12.284 428.695 12.628 429.159 13.068L428.679 13.848ZM435.198 11.844V24H433.062V11.844H435.198ZM435.654 8.028C435.654 8.236 435.61 8.432 435.522 8.616C435.442 8.792 435.33 8.952 435.186 9.096C435.05 9.232 434.886 9.34 434.694 9.42C434.51 9.5 434.314 9.54 434.106 9.54C433.898 9.54 433.702 9.5 433.518 9.42C433.342 9.34 433.186 9.232 433.05 9.096C432.914 8.952 432.806 8.792 432.726 8.616C432.646 8.432 432.606 8.236 432.606 8.028C432.606 7.82 432.646 7.624 432.726 7.44C432.806 7.248 432.914 7.084 433.05 6.948C433.186 6.804 433.342 6.692 433.518 6.612C433.702 6.532 433.898 6.492 434.106 6.492C434.314 6.492 434.51 6.532 434.694 6.612C434.886 6.692 435.05 6.804 435.186 6.948C435.33 7.084 435.442 7.248 435.522 7.44C435.61 7.624 435.654 7.82 435.654 8.028ZM443.903 18.06C444.335 18.06 444.715 18 445.043 17.88C445.371 17.76 445.647 17.592 445.871 17.376C446.095 17.16 446.263 16.904 446.375 16.608C446.487 16.304 446.543 15.972 446.543 15.612C446.543 14.868 446.315 14.276 445.859 13.836C445.411 13.396 444.759 13.176 443.903 13.176C443.039 13.176 442.379 13.396 441.923 13.836C441.475 14.276 441.251 14.868 441.251 15.612C441.251 15.972 441.307 16.304 441.419 16.608C441.539 16.904 441.711 17.16 441.935 17.376C442.159 17.592 442.435 17.76 442.763 17.88C443.091 18 443.471 18.06 443.903 18.06ZM447.755 24.66C447.755 24.364 447.671 24.124 447.503 23.94C447.335 23.756 447.107 23.612 446.819 23.508C446.539 23.404 446.211 23.332 445.835 23.292C445.459 23.244 445.059 23.208 444.635 23.184C444.219 23.16 443.795 23.136 443.363 23.112C442.931 23.088 442.515 23.048 442.115 22.992C441.667 23.2 441.299 23.464 441.011 23.784C440.731 24.096 440.591 24.464 440.591 24.888C440.591 25.16 440.659 25.412 440.795 25.644C440.939 25.884 441.155 26.088 441.443 26.256C441.731 26.432 442.091 26.568 442.523 26.664C442.963 26.768 443.479 26.82 444.071 26.82C444.647 26.82 445.163 26.768 445.619 26.664C446.075 26.56 446.459 26.412 446.771 26.22C447.091 26.028 447.335 25.8 447.503 25.536C447.671 25.272 447.755 24.98 447.755 24.66ZM449.927 12.324V13.116C449.927 13.38 449.759 13.548 449.423 13.62L448.043 13.8C448.315 14.328 448.451 14.912 448.451 15.552C448.451 16.144 448.335 16.684 448.103 17.172C447.879 17.652 447.567 18.064 447.167 18.408C446.767 18.752 446.287 19.016 445.727 19.2C445.167 19.384 444.559 19.476 443.903 19.476C443.335 19.476 442.799 19.408 442.295 19.272C442.039 19.432 441.843 19.604 441.707 19.788C441.571 19.964 441.503 20.144 441.503 20.328C441.503 20.616 441.619 20.836 441.851 20.988C442.091 21.132 442.403 21.236 442.787 21.3C443.171 21.364 443.607 21.404 444.095 21.42C444.591 21.436 445.095 21.464 445.607 21.504C446.127 21.536 446.631 21.596 447.119 21.684C447.615 21.772 448.055 21.916 448.439 22.116C448.823 22.316 449.131 22.592 449.363 22.944C449.603 23.296 449.723 23.752 449.723 24.312C449.723 24.832 449.591 25.336 449.327 25.824C449.071 26.312 448.699 26.744 448.211 27.12C447.723 27.504 447.123 27.808 446.411 28.032C445.707 28.264 444.911 28.38 444.023 28.38C443.135 28.38 442.359 28.292 441.695 28.116C441.031 27.94 440.479 27.704 440.039 27.408C439.599 27.112 439.267 26.768 439.043 26.376C438.827 25.992 438.719 25.588 438.719 25.164C438.719 24.564 438.907 24.056 439.283 23.64C439.659 23.224 440.175 22.892 440.831 22.644C440.471 22.484 440.183 22.272 439.967 22.008C439.759 21.736 439.655 21.372 439.655 20.916C439.655 20.74 439.687 20.56 439.751 20.376C439.815 20.184 439.911 19.996 440.039 19.812C440.175 19.62 440.339 19.44 440.531 19.272C440.723 19.104 440.947 18.956 441.203 18.828C440.603 18.492 440.135 18.048 439.799 17.496C439.463 16.936 439.295 16.288 439.295 15.552C439.295 14.96 439.407 14.424 439.631 13.944C439.863 13.456 440.183 13.044 440.591 12.708C440.999 12.364 441.483 12.1 442.043 11.916C442.611 11.732 443.231 11.64 443.903 11.64C444.431 11.64 444.923 11.7 445.379 11.82C445.835 11.932 446.251 12.1 446.627 12.324H449.927ZM455.112 13.608C455.376 13.312 455.656 13.044 455.952 12.804C456.248 12.564 456.56 12.36 456.888 12.192C457.224 12.016 457.576 11.884 457.944 11.796C458.32 11.7 458.724 11.652 459.156 11.652C459.82 11.652 460.404 11.764 460.908 11.988C461.42 12.204 461.844 12.516 462.18 12.924C462.524 13.324 462.784 13.808 462.96 14.376C463.136 14.944 463.224 15.572 463.224 16.26V24H461.076V16.26C461.076 15.34 460.864 14.628 460.44 14.124C460.024 13.612 459.388 13.356 458.532 13.356C457.9 13.356 457.308 13.508 456.756 13.812C456.212 14.116 455.708 14.528 455.244 15.048V24H453.096V11.844H454.38C454.684 11.844 454.872 11.992 454.944 12.288L455.112 13.608Z" fill="#444444"/>
<path d="M535.707 15.2071C536.098 14.8166 536.098 14.1834 535.707 13.7929L529.343 7.42893C528.953 7.03841 528.319 7.03841 527.929 7.42893C527.538 7.81946 527.538 8.45262 527.929 8.84315L533.586 14.5L527.929 20.1569C527.538 20.5474 527.538 21.1805 527.929 21.5711C528.319 21.9616 528.953 21.9616 529.343 21.5711L535.707 15.2071ZM485 15.5H535V13.5H485V15.5Z" fill="#444444"/>
<path d="M568.26 22.104L568.248 24H557.652V6.804H568.248V8.7H559.98V14.412H566.676V16.236H559.98V22.104H568.26ZM581.813 11.844L576.857 24H574.937L569.981 11.844H571.721C571.897 11.844 572.041 11.888 572.153 11.976C572.265 12.064 572.341 12.168 572.381 12.288L575.465 20.112C575.561 20.408 575.645 20.696 575.717 20.976C575.789 21.256 575.857 21.536 575.921 21.816C575.985 21.536 576.053 21.256 576.125 20.976C576.197 20.696 576.285 20.408 576.389 20.112L579.509 12.288C579.557 12.16 579.637 12.056 579.749 11.976C579.861 11.888 579.993 11.844 580.145 11.844H581.813ZM591.063 18.528C590.079 18.56 589.239 18.64 588.543 18.768C587.855 18.888 587.291 19.048 586.851 19.248C586.419 19.448 586.103 19.684 585.903 19.956C585.711 20.228 585.615 20.532 585.615 20.868C585.615 21.188 585.667 21.464 585.771 21.696C585.875 21.928 586.015 22.12 586.191 22.272C586.375 22.416 586.587 22.524 586.827 22.596C587.075 22.66 587.339 22.692 587.619 22.692C587.995 22.692 588.339 22.656 588.651 22.584C588.963 22.504 589.255 22.392 589.527 22.248C589.807 22.104 590.071 21.932 590.319 21.732C590.575 21.532 590.823 21.304 591.063 21.048V18.528ZM584.163 13.56C584.835 12.912 585.559 12.428 586.335 12.108C587.111 11.788 587.971 11.628 588.915 11.628C589.595 11.628 590.199 11.74 590.727 11.964C591.255 12.188 591.699 12.5 592.059 12.9C592.419 13.3 592.691 13.784 592.875 14.352C593.059 14.92 593.151 15.544 593.151 16.224V24H592.203C591.995 24 591.835 23.968 591.723 23.904C591.611 23.832 591.523 23.696 591.459 23.496L591.219 22.344C590.899 22.64 590.587 22.904 590.283 23.136C589.979 23.36 589.659 23.552 589.323 23.712C588.987 23.864 588.627 23.98 588.243 24.06C587.867 24.148 587.447 24.192 586.983 24.192C586.511 24.192 586.067 24.128 585.651 24C585.235 23.864 584.871 23.664 584.559 23.4C584.255 23.136 584.011 22.804 583.827 22.404C583.651 21.996 583.563 21.516 583.563 20.964C583.563 20.484 583.695 20.024 583.959 19.584C584.223 19.136 584.651 18.74 585.243 18.396C585.835 18.052 586.607 17.772 587.559 17.556C588.511 17.332 589.679 17.204 591.063 17.172V16.224C591.063 15.28 590.859 14.568 590.451 14.088C590.043 13.6 589.447 13.356 588.663 13.356C588.135 13.356 587.691 13.424 587.331 13.56C586.979 13.688 586.671 13.836 586.407 14.004C586.151 14.164 585.927 14.312 585.735 14.448C585.551 14.576 585.367 14.64 585.183 14.64C585.039 14.64 584.915 14.604 584.811 14.532C584.707 14.452 584.619 14.356 584.547 14.244L584.163 13.56ZM599.572 6.324V24H597.436V6.324H599.572ZM613.992 11.844V24H612.72C612.416 24 612.224 23.852 612.144 23.556L611.976 22.248C611.448 22.832 610.856 23.304 610.2 23.664C609.544 24.016 608.792 24.192 607.944 24.192C607.28 24.192 606.692 24.084 606.18 23.868C605.676 23.644 605.252 23.332 604.908 22.932C604.564 22.532 604.304 22.048 604.128 21.48C603.96 20.912 603.876 20.284 603.876 19.596V11.844H606.012V19.596C606.012 20.516 606.22 21.228 606.636 21.732C607.06 22.236 607.704 22.488 608.568 22.488C609.2 22.488 609.788 22.34 610.332 22.044C610.884 21.74 611.392 21.324 611.856 20.796V11.844H613.992ZM624.927 18.528C623.943 18.56 623.103 18.64 622.407 18.768C621.719 18.888 621.155 19.048 620.715 19.248C620.283 19.448 619.967 19.684 619.767 19.956C619.575 20.228 619.479 20.532 619.479 20.868C619.479 21.188 619.531 21.464 619.635 21.696C619.739 21.928 619.879 22.12 620.055 22.272C620.239 22.416 620.451 22.524 620.691 22.596C620.939 22.66 621.203 22.692 621.483 22.692C621.859 22.692 622.203 22.656 622.515 22.584C622.827 22.504 623.119 22.392 623.391 22.248C623.671 22.104 623.935 21.932 624.183 21.732C624.439 21.532 624.687 21.304 624.927 21.048V18.528ZM618.027 13.56C618.699 12.912 619.423 12.428 620.199 12.108C620.975 11.788 621.835 11.628 622.779 11.628C623.459 11.628 624.063 11.74 624.591 11.964C625.119 12.188 625.563 12.5 625.923 12.9C626.283 13.3 626.555 13.784 626.739 14.352C626.923 14.92 627.015 15.544 627.015 16.224V24H626.067C625.859 24 625.699 23.968 625.587 23.904C625.475 23.832 625.387 23.696 625.323 23.496L625.083 22.344C624.763 22.64 624.451 22.904 624.147 23.136C623.843 23.36 623.523 23.552 623.187 23.712C622.851 23.864 622.491 23.98 622.107 24.06C621.731 24.148 621.311 24.192 620.847 24.192C620.375 24.192 619.931 24.128 619.515 24C619.099 23.864 618.735 23.664 618.423 23.4C618.119 23.136 617.875 22.804 617.691 22.404C617.515 21.996 617.427 21.516 617.427 20.964C617.427 20.484 617.559 20.024 617.823 19.584C618.087 19.136 618.515 18.74 619.107 18.396C619.699 18.052 620.471 17.772 621.423 17.556C622.375 17.332 623.543 17.204 624.927 17.172V16.224C624.927 15.28 624.723 14.568 624.315 14.088C623.907 13.6 623.311 13.356 622.527 13.356C621.999 13.356 621.555 13.424 621.195 13.56C620.843 13.688 620.535 13.836 620.271 14.004C620.015 14.164 619.791 14.312 619.599 14.448C619.415 14.576 619.231 14.64 619.047 14.64C618.903 14.64 618.779 14.604 618.675 14.532C618.571 14.452 618.483 14.356 618.411 14.244L618.027 13.56ZM634.797 24.192C633.837 24.192 633.097 23.924 632.577 23.388C632.065 22.852 631.809 22.08 631.809 21.072V13.632H630.345C630.217 13.632 630.109 13.596 630.021 13.524C629.933 13.444 629.889 13.324 629.889 13.164V12.312L631.881 12.06L632.373 8.304C632.397 8.184 632.449 8.088 632.529 8.016C632.617 7.936 632.729 7.896 632.865 7.896H633.945V12.084H637.461V13.632H633.945V20.928C633.945 21.44 634.069 21.82 634.317 22.068C634.565 22.316 634.885 22.44 635.277 22.44C635.501 22.44 635.693 22.412 635.853 22.356C636.021 22.292 636.165 22.224 636.285 22.152C636.405 22.08 636.505 22.016 636.585 21.96C636.673 21.896 636.749 21.864 636.813 21.864C636.925 21.864 637.025 21.932 637.113 22.068L637.737 23.088C637.369 23.432 636.925 23.704 636.405 23.904C635.885 24.096 635.349 24.192 634.797 24.192ZM648.692 16.596C648.692 16.1 648.62 15.648 648.476 15.24C648.34 14.824 648.136 14.468 647.864 14.172C647.6 13.868 647.276 13.636 646.892 13.476C646.508 13.308 646.072 13.224 645.584 13.224C644.56 13.224 643.748 13.524 643.148 14.124C642.556 14.716 642.188 15.54 642.044 16.596H648.692ZM650.42 22.296C650.156 22.616 649.84 22.896 649.472 23.136C649.104 23.368 648.708 23.56 648.284 23.712C647.868 23.864 647.436 23.976 646.988 24.048C646.54 24.128 646.096 24.168 645.656 24.168C644.816 24.168 644.04 24.028 643.328 23.748C642.624 23.46 642.012 23.044 641.492 22.5C640.98 21.948 640.58 21.268 640.292 20.46C640.004 19.652 639.86 18.724 639.86 17.676C639.86 16.828 639.988 16.036 640.244 15.3C640.508 14.564 640.884 13.928 641.372 13.392C641.86 12.848 642.456 12.424 643.16 12.12C643.864 11.808 644.656 11.652 645.536 11.652C646.264 11.652 646.936 11.776 647.552 12.024C648.176 12.264 648.712 12.616 649.16 13.08C649.616 13.536 649.972 14.104 650.228 14.784C650.484 15.456 650.612 16.224 650.612 17.088C650.612 17.424 650.576 17.648 650.504 17.76C650.432 17.872 650.296 17.928 650.096 17.928H641.972C641.996 18.696 642.1 19.364 642.284 19.932C642.476 20.5 642.74 20.976 643.076 21.36C643.412 21.736 643.812 22.02 644.276 22.212C644.74 22.396 645.26 22.488 645.836 22.488C646.372 22.488 646.832 22.428 647.216 22.308C647.608 22.18 647.944 22.044 648.224 21.9C648.504 21.756 648.736 21.624 648.92 21.504C649.112 21.376 649.276 21.312 649.412 21.312C649.588 21.312 649.724 21.38 649.82 21.516L650.42 22.296Z" fill="#444444"/>
<path d="M426 70H425V71H426V70ZM426.707 32.2929C426.317 31.9024 425.683 31.9024 425.293 32.2929L418.929 38.6569C418.538 39.0474 418.538 39.6805 418.929 40.0711C419.319 40.4616 419.953 40.4616 420.343 40.0711L426 34.4142L431.657 40.0711C432.047 40.4616 432.681 40.4616 433.071 40.0711C433.462 39.6805 433.462 39.0474 433.071 38.6569L426.707 32.2929ZM604 70V71H605V70H604ZM427 70V33H425V70H427ZM603 33V70H605V33H603ZM604 69L426 69V71L604 71V69Z" fill="#444444"/>
</svg>
