<svg id="Layer_1" data-name="Layer 1" xmlns="http://www.w3.org/2000/svg" viewBox="0 0 16 16"><defs><style>.cls-1{fill:#fff;}</style></defs><path class="cls-1" d="M13.39,20a4.83,4.83,0,0,0-.35-.92,3.59,3.59,0,0,0-.61-.92,7.61,7.61,0,0,0,3.84-1.33,3.12,3.12,0,0,0,1.26-2.52,2.43,2.43,0,0,0-.5-1.54,3.22,3.22,0,0,0-1.4-1,18.6,18.6,0,0,1-3.57,4.31c.08.23.17.45.26.66s.18.42.27.62a4.74,4.74,0,0,0-.73.24l-.8.33a4.68,4.68,0,0,0-.61.32c-.06-.12-.11-.25-.16-.37s-.11-.25-.17-.37a8.45,8.45,0,0,1-2.18,1,5.27,5.27,0,0,1-2.06.18A2.35,2.35,0,0,1,4.6,18,2.18,2.18,0,0,1,4,16.3a4.92,4.92,0,0,1,.65-2.46,7.12,7.12,0,0,1,1.79-2A9.5,9.5,0,0,1,9,10.37c0-.36,0-.71,0-1.07s0-.71,0-1.06c-.81,0-1.57.08-2.27.09a13.18,13.18,0,0,1-1.75-.05L4.9,6.33c.53,0,1.17.08,1.94.09s1.57,0,2.45,0c.06-.44.13-.85.19-1.25s.13-.77.21-1.12L12,4.38c-.14.55-.26,1.16-.37,1.82,1-.09,2-.22,2.89-.38a19.08,19.08,0,0,0,2.34-.52L17,7.2a23.55,23.55,0,0,1-2.53.5c-1,.16-2.05.28-3.14.38,0,.28,0,.56-.06.85s0,.58,0,.87a10.83,10.83,0,0,1,1.9-.17l.6,0a5.61,5.61,0,0,1,.59.06c.11-.23.21-.46.3-.7s.19-.47.27-.71l2.22.54c-.09.23-.19.45-.28.67s-.2.43-.31.65a5.77,5.77,0,0,1,2.54,1.63A3.76,3.76,0,0,1,20,14.33a4.71,4.71,0,0,1-.81,2.72A5.9,5.9,0,0,1,16.91,19,11,11,0,0,1,13.39,20Zm-6-3.43a4.26,4.26,0,0,0,1-.36,7.69,7.69,0,0,0,1.13-.71c-.11-.5-.2-1-.28-1.57s-.12-1.09-.15-1.64a6.12,6.12,0,0,0-2,1.61,3.13,3.13,0,0,0-.76,2c0,.37.1.6.3.68A1.49,1.49,0,0,0,7.43,16.57Zm4.08-2.78c.33-.35.65-.73,1-1.14a13.75,13.75,0,0,0,.92-1.3h-.27c-.32,0-.64,0-1,0s-.62.08-.91.14A21.37,21.37,0,0,0,11.51,13.79Z" transform="translate(-4 -4)"/></svg>