<svg id="Layer_1" data-name="Layer 1" xmlns="http://www.w3.org/2000/svg" viewBox="0 0 100 100"><defs><style>.cls-1{fill:#444;}.cls-2{fill:#fff;}</style></defs><rect class="cls-1" width="100" height="100" rx="10"/><path class="cls-2" d="M31.69,76.88c-3.55,0-6.26-1-8.15-3s-2.84-4.75-2.84-8.26V42.9H16.54a1.92,1.92,0,0,1-1.35-.51,2,2,0,0,1-.55-1.55V37l6.54-1.07,2.06-11.1A2.16,2.16,0,0,1,24,23.56a2.26,2.26,0,0,1,1.43-.44H30.5V35.93H41.36v7H30.5V65a4.4,4.4,0,0,0,.93,3A3.21,3.21,0,0,0,34,69a4.5,4.5,0,0,0,1.53-.22,7.3,7.3,0,0,0,1.07-.46c.3-.15.58-.31.81-.45a1.34,1.34,0,0,1,.72-.22,1.08,1.08,0,0,1,.71.22,3.25,3.25,0,0,1,.6.65l2.93,4.76A14.91,14.91,0,0,1,37.43,76,18.48,18.48,0,0,1,31.69,76.88Z"/><path class="cls-2" d="M65.3,34.94a22.37,22.37,0,0,1,8.23,1.46,17.7,17.7,0,0,1,10.4,10.75,24.81,24.81,0,0,1,1.43,8.68,25,25,0,0,1-1.43,8.72,18.59,18.59,0,0,1-4.06,6.62,17.85,17.85,0,0,1-6.34,4.2,23.91,23.91,0,0,1-16.51,0,17.79,17.79,0,0,1-6.37-4.2,19.06,19.06,0,0,1-4.08-6.62,25,25,0,0,1-1.45-8.72,24.81,24.81,0,0,1,1.45-8.68,18.62,18.62,0,0,1,4.08-6.58A18,18,0,0,1,57,36.4,22.56,22.56,0,0,1,65.3,34.94Zm0,34.37q5.07,0,7.52-3.41t2.43-10q0-6.58-2.43-10T65.3,42.43c-3.43,0-6,1.15-7.63,3.47s-2.48,5.65-2.48,10,.83,7.68,2.48,10S61.87,69.31,65.3,69.31Z"/></svg>