<svg width="817" height="377" viewBox="0 0 817 377" fill="none" xmlns="http://www.w3.org/2000/svg">
<g clip-path="url(#clip0_67_264)">
<rect width="817" height="377" fill="white"/>
<path d="M80.682 82.704V83.784H82.122C82.068 83.46 82.032 82.812 82.032 82.146V72.93C82.032 72.282 82.032 71.976 82.068 71.526C81.618 71.544 81.366 71.562 81.132 71.562H72.492C71.322 71.562 71.052 71.544 70.422 71.436V72.876C71.034 72.804 71.412 72.786 72.492 72.786H80.682V81.48H72.114C70.998 81.48 70.746 81.462 70.152 81.354V82.776C70.62 82.722 70.62 82.722 72.078 82.704H80.682ZM90.024 70.176C90.06 70.572 90.078 70.788 90.078 71.148V71.814L90.042 82.128C90.042 82.794 90.006 82.992 89.916 83.298L90.636 84.198C90.888 84.09 90.978 84.072 91.68 83.928C96.486 82.992 99.132 81.318 101.598 77.646C101.166 77.286 101.058 77.142 100.608 76.512C99.564 78.42 98.358 79.716 96.558 80.832C95.118 81.732 93.48 82.29 91.41 82.632L91.464 71.778C91.464 71.022 91.5 70.554 91.554 70.176H90.024ZM112.29 69.33C112.2 69.96 111.84 70.77 111.156 71.958C109.914 74.154 108.546 75.648 106.638 76.89C107.16 77.214 107.34 77.376 107.646 77.826C109.41 76.494 110.85 74.91 111.948 73.146L118.014 73.038C117.384 75.288 116.304 77.394 114.918 79.068C113.19 81.138 111.282 82.506 108.564 83.622C109.032 83.982 109.176 84.162 109.464 84.684C112.092 83.496 114.072 82.074 115.728 80.184C117.258 78.402 118.572 75.954 119.328 73.416C119.526 72.768 119.526 72.75 119.688 72.534L118.914 71.778C118.662 71.886 118.608 71.904 117.978 71.904C112.776 71.994 112.776 71.994 112.542 72.048C112.74 71.724 112.902 71.418 113.37 70.446C113.604 69.942 113.604 69.942 113.766 69.708L112.29 69.33ZM127.374 71.256C128.688 71.706 130.56 72.714 131.802 73.632L132.54 72.426C131.01 71.472 129.84 70.878 128.076 70.158L127.374 71.256ZM125.952 75.558C127.59 76.17 129.228 77.07 130.542 78.024L131.244 76.818C129.678 75.828 128.382 75.162 126.672 74.46L125.952 75.558ZM126.564 84.18C126.834 84.09 126.906 84.054 127.266 83.982C127.626 83.91 127.95 83.838 128.238 83.784C129.714 83.478 131.532 82.866 132.792 82.236C135.96 80.67 138.156 78.222 139.722 74.478C139.236 74.154 139.056 73.992 138.606 73.524C138.048 75.108 137.454 76.242 136.446 77.556C134.988 79.446 133.278 80.724 131.046 81.57C129.246 82.254 127.374 82.686 126.204 82.686L126.564 84.18ZM154.428 84.072V84.972H155.67C155.616 84.666 155.598 84.432 155.598 83.856V75.72C155.598 75.09 155.598 74.802 155.616 74.334C155.292 74.352 154.968 74.37 154.392 74.37H147.696C146.994 74.37 146.562 74.334 146.13 74.262V75.504C146.58 75.432 146.742 75.432 147.696 75.432H154.428V78.564H148.11C147.408 78.564 146.976 78.528 146.544 78.456V79.68C146.994 79.608 147.138 79.608 148.092 79.608H154.428V82.992H147.516C146.85 82.992 146.382 82.956 145.95 82.884V84.144C146.4 84.072 146.544 84.072 147.516 84.072H154.428ZM163.608 72.246C165.174 73.2 166.596 74.37 167.892 75.774L168.828 74.658C167.532 73.38 166.416 72.498 164.49 71.274L163.608 72.246ZM163.734 83.946C164.184 83.802 164.328 83.766 164.814 83.658C167.82 82.974 169.674 82.236 171.528 80.976C173.904 79.338 175.578 77.232 177.018 74.1C176.514 73.758 176.334 73.596 175.92 73.038C174.462 76.854 172.05 79.5 168.576 81.048C166.902 81.822 164.742 82.38 163.338 82.434L163.734 83.946Z" fill="#444444"/>
<line x1="64" y1="100.5" x2="182" y2="100.5" stroke="#444444"/>
<path d="M112.398 126.662C113.046 127.778 113.658 128.516 114.576 129.29C116.34 130.784 118.284 131.72 120.966 132.368C121.128 131.936 121.308 131.63 121.614 131.198C119.868 130.928 118.23 130.352 116.718 129.488C118.14 128.516 119.04 127.796 120.246 126.698L119.22 126.014C118.248 127.112 117.366 127.85 115.782 128.912C114.774 128.21 114.162 127.58 113.568 126.662H116.862C117.618 126.662 118.104 126.68 118.536 126.716C118.5 126.302 118.482 125.978 118.482 125.258V122.162C118.482 121.586 118.482 121.244 118.518 120.848C119.544 121.424 120.228 121.766 121.254 122.198C121.452 121.712 121.614 121.442 121.938 121.046C120.39 120.56 118.788 119.786 117.33 118.868C115.962 117.968 115.062 117.194 114.09 116.06H112.866C111.21 118.166 108.366 120.038 105.288 121.046C105.612 121.424 105.72 121.586 105.954 122.144C106.998 121.712 107.466 121.496 108.528 120.92C108.564 121.28 108.582 121.82 108.582 122.414V130.838C107.358 131.054 106.692 131.126 106.116 131.126L106.422 132.386C106.728 132.314 106.89 132.278 107.088 132.242C110.868 131.486 111.804 131.27 114.036 130.622L114.054 129.578C112.272 130.1 111.39 130.316 109.716 130.64V126.662H112.398ZM113.982 120.668V120.056C113.982 119.408 114 119.084 114.072 118.688H112.794C112.866 119.048 112.902 119.39 112.902 120.056V120.668H110.238C109.698 120.668 109.464 120.668 108.996 120.65C110.904 119.516 112.308 118.364 113.496 116.942C114.612 118.256 115.944 119.318 118.158 120.632C117.672 120.668 117.42 120.668 116.79 120.668H113.982ZM109.716 121.622H117.366V123.116H109.716V121.622ZM109.716 124.07H117.366V125.708H109.716V124.07ZM127.464 121.136C127.464 121.748 127.446 122.216 127.392 122.702C127.878 122.648 128.436 122.63 129.3 122.63H135.438C136.32 122.63 136.824 122.648 137.328 122.702C137.274 122.27 137.256 121.802 137.256 121.118V118.076C137.256 117.428 137.274 117.05 137.328 116.582C136.842 116.654 136.338 116.672 135.294 116.672H129.408C128.454 116.672 127.95 116.654 127.392 116.582C127.446 117.05 127.464 117.482 127.464 118.094V121.136ZM128.598 117.698H136.104V121.604H128.598V117.698ZM124.872 130.514C124.872 131.432 124.854 131.918 124.782 132.386H125.988V131.252H130.164V132.044H131.334C131.28 131.612 131.262 131.162 131.262 130.28V126.122C131.262 125.114 131.28 124.808 131.316 124.43C130.848 124.466 130.434 124.484 129.858 124.484H126.456C125.754 124.484 125.322 124.466 124.8 124.412C124.854 124.952 124.872 125.456 124.872 126.158V130.514ZM125.988 125.492H130.164V130.244H125.988V125.492ZM133.044 130.622C133.044 131.45 133.026 131.918 132.972 132.386H134.142V131.252H138.75V132.386H139.974C139.902 131.936 139.884 131.486 139.884 130.514V126.176C139.884 125.42 139.902 124.88 139.956 124.412C139.524 124.466 139.092 124.484 138.408 124.484H134.448C133.836 124.484 133.44 124.466 132.99 124.43C133.044 124.862 133.044 125.132 133.044 125.978V130.622ZM134.142 125.492H138.768V130.244H134.142V125.492Z" fill="#444444"/>
<rect x="54.5" y="54.5" width="137" height="93" stroke="#444444"/>
<path d="M456.682 82.704V83.784H458.122C458.068 83.46 458.032 82.812 458.032 82.146V72.93C458.032 72.282 458.032 71.976 458.068 71.526C457.618 71.544 457.366 71.562 457.132 71.562H448.492C447.322 71.562 447.052 71.544 446.422 71.436V72.876C447.034 72.804 447.412 72.786 448.492 72.786H456.682V81.48H448.114C446.998 81.48 446.746 81.462 446.152 81.354V82.776C446.62 82.722 446.62 82.722 448.078 82.704H456.682ZM466.024 70.176C466.06 70.572 466.078 70.788 466.078 71.148V71.814L466.042 82.128C466.042 82.794 466.006 82.992 465.916 83.298L466.636 84.198C466.888 84.09 466.978 84.072 467.68 83.928C472.486 82.992 475.132 81.318 477.598 77.646C477.166 77.286 477.058 77.142 476.608 76.512C475.564 78.42 474.358 79.716 472.558 80.832C471.118 81.732 469.48 82.29 467.41 82.632L467.464 71.778C467.464 71.022 467.5 70.554 467.554 70.176H466.024ZM488.29 69.33C488.2 69.96 487.84 70.77 487.156 71.958C485.914 74.154 484.546 75.648 482.638 76.89C483.16 77.214 483.34 77.376 483.646 77.826C485.41 76.494 486.85 74.91 487.948 73.146L494.014 73.038C493.384 75.288 492.304 77.394 490.918 79.068C489.19 81.138 487.282 82.506 484.564 83.622C485.032 83.982 485.176 84.162 485.464 84.684C488.092 83.496 490.072 82.074 491.728 80.184C493.258 78.402 494.572 75.954 495.328 73.416C495.526 72.768 495.526 72.75 495.688 72.534L494.914 71.778C494.662 71.886 494.608 71.904 493.978 71.904C488.776 71.994 488.776 71.994 488.542 72.048C488.74 71.724 488.902 71.418 489.37 70.446C489.604 69.942 489.604 69.942 489.766 69.708L488.29 69.33ZM503.374 71.256C504.688 71.706 506.56 72.714 507.802 73.632L508.54 72.426C507.01 71.472 505.84 70.878 504.076 70.158L503.374 71.256ZM501.952 75.558C503.59 76.17 505.228 77.07 506.542 78.024L507.244 76.818C505.678 75.828 504.382 75.162 502.672 74.46L501.952 75.558ZM502.564 84.18C502.834 84.09 502.906 84.054 503.266 83.982C503.626 83.91 503.95 83.838 504.238 83.784C505.714 83.478 507.532 82.866 508.792 82.236C511.96 80.67 514.156 78.222 515.722 74.478C515.236 74.154 515.056 73.992 514.606 73.524C514.048 75.108 513.454 76.242 512.446 77.556C510.988 79.446 509.278 80.724 507.046 81.57C505.246 82.254 503.374 82.686 502.204 82.686L502.564 84.18ZM530.428 84.072V84.972H531.67C531.616 84.666 531.598 84.432 531.598 83.856V75.72C531.598 75.09 531.598 74.802 531.616 74.334C531.292 74.352 530.968 74.37 530.392 74.37H523.696C522.994 74.37 522.562 74.334 522.13 74.262V75.504C522.58 75.432 522.742 75.432 523.696 75.432H530.428V78.564H524.11C523.408 78.564 522.976 78.528 522.544 78.456V79.68C522.994 79.608 523.138 79.608 524.092 79.608H530.428V82.992H523.516C522.85 82.992 522.382 82.956 521.95 82.884V84.144C522.4 84.072 522.544 84.072 523.516 84.072H530.428ZM539.608 72.246C541.174 73.2 542.596 74.37 543.892 75.774L544.828 74.658C543.532 73.38 542.416 72.498 540.49 71.274L539.608 72.246ZM539.734 83.946C540.184 83.802 540.328 83.766 540.814 83.658C543.82 82.974 545.674 82.236 547.528 80.976C549.904 79.338 551.578 77.232 553.018 74.1C552.514 73.758 552.334 73.596 551.92 73.038C550.462 76.854 548.05 79.5 544.576 81.048C542.902 81.822 540.742 82.38 539.338 82.434L539.734 83.946Z" fill="#444444"/>
<line x1="440" y1="100.5" x2="558" y2="100.5" stroke="#444444"/>
<path d="M463.126 119.138C462.136 119.48 461.002 119.714 459.454 119.912V118.184C459.454 117.356 459.472 117.014 459.544 116.51H458.212C458.284 117.05 458.302 117.5 458.302 118.22V120.002C457.762 120.038 457.06 120.056 456.574 120.056C455.764 120.056 455.26 120.02 454.738 119.93V121.118C454.882 121.118 454.99 121.118 455.062 121.118C455.116 121.118 455.26 121.118 455.476 121.118C455.674 121.136 456.16 121.136 456.43 121.136C456.952 121.136 457.258 121.136 457.582 121.118C458.14 121.082 458.14 121.082 458.302 121.064V124.466C457.168 124.952 456.43 125.384 455.764 125.942C454.792 126.77 454.342 127.544 454.342 128.336C454.342 128.984 454.612 129.542 455.17 130.028C455.962 130.73 457.132 131.18 458.14 131.18C459.022 131.18 459.454 130.712 459.454 129.74V125.24C460.966 124.754 462.118 124.538 463.27 124.538C465.628 124.538 467.122 125.636 467.122 127.4C467.122 128.876 466.114 129.938 464.71 129.938C463.396 129.938 462.856 129.164 462.856 127.292C462.856 127.076 462.856 126.914 462.892 126.59C462.442 126.842 462.262 126.914 461.704 127.058C461.686 127.958 461.758 128.498 461.92 129.092C462.262 130.388 463.27 131.126 464.692 131.126C466.762 131.126 468.364 129.506 468.364 127.4C468.364 126.068 467.698 124.916 466.51 124.214C465.682 123.71 464.602 123.458 463.324 123.458C462.118 123.458 461.02 123.638 459.454 124.106V120.992C460.3 120.902 461.164 120.758 462.64 120.452C462.892 120.398 462.964 120.38 463.18 120.344L463.126 119.138ZM458.302 129.074C458.302 129.848 458.248 129.956 457.888 129.956C457.42 129.956 456.772 129.74 456.286 129.434C455.764 129.092 455.512 128.732 455.512 128.354C455.512 127.49 456.52 126.518 458.302 125.654V129.074ZM469.12 121.46C468.04 120.074 467.14 119.21 465.484 118.04L464.548 118.742C465.952 119.696 467.23 120.938 468.184 122.27L469.12 121.46ZM485.212 118.616C486.31 118.616 487.048 118.652 487.48 118.742V117.446C486.868 117.536 486.256 117.572 485.212 117.572H476.356C476.626 117.086 476.698 116.924 476.86 116.6C477.022 116.222 477.04 116.186 477.166 115.97L475.888 115.682C475.834 116.042 475.744 116.312 475.546 116.744C474.718 118.58 473.656 120.002 472.108 121.298C472.576 121.604 472.828 121.82 472.954 122.09C474.16 120.974 474.88 120.11 475.78 118.616H485.212ZM483.52 130.586C482.26 129.434 481.288 128.606 479.956 127.616C480.514 127.022 481.036 126.392 481.504 125.744C481.864 125.258 481.864 125.258 481.954 125.132C482.134 124.916 482.134 124.916 482.206 124.826L481.054 124.16C480.802 124.862 480.082 125.87 479.038 126.95C477.832 126.086 477.058 125.6 475.6 124.772L474.826 125.492C476.482 126.464 477.184 126.914 478.264 127.706C476.734 129.11 475.258 129.992 472.684 131.072C473.116 131.414 473.278 131.612 473.548 132.062C476.212 130.802 477.49 129.956 479.182 128.39C480.784 129.65 481.576 130.37 482.692 131.522L483.52 130.586ZM484.348 123.71C484.384 126.572 484.582 128.264 485.032 129.614C485.518 131.072 486.4 132.134 487.102 132.134C487.552 132.134 487.948 131.72 488.182 130.964C488.416 130.28 488.524 129.74 488.668 128.498C488.254 128.318 488.056 128.174 487.678 127.796C487.57 129.452 487.282 130.802 487.03 130.802C486.832 130.802 486.382 130.1 486.13 129.38C485.698 128.156 485.464 126.338 485.464 124.142C485.464 123.566 485.482 123.152 485.536 122.612C484.978 122.684 484.564 122.702 483.502 122.702H474.88C474.178 122.702 473.692 122.666 473.206 122.594V123.818C473.728 123.746 474.268 123.71 475.06 123.71H484.348ZM475.366 121.244C475.816 121.172 476.302 121.154 477.04 121.154H484.222C485.068 121.154 485.5 121.172 485.986 121.262V120.038C485.608 120.11 485.086 120.146 484.222 120.146H476.932C476.194 120.146 475.708 120.128 475.366 120.056V121.244ZM493.492 116.96C493.456 117.374 493.42 117.554 493.24 118.4C492.646 121.064 492.43 122.972 492.43 125.528C492.43 127.418 492.556 128.714 492.898 130.622C492.952 130.964 492.97 131.054 493.006 131.342L494.302 131.234C494.302 131.108 494.302 131.018 494.302 130.964C494.302 129.956 494.95 127.796 495.76 126.014L494.896 125.6C494.32 126.914 493.978 127.904 493.726 129.11C493.654 128.156 493.618 127.094 493.618 125.69C493.618 123.53 493.78 121.946 494.158 120.056C494.428 118.832 494.644 117.95 494.914 117.176L493.492 116.96ZM497.2 120.362C498.37 120.488 499.072 120.542 500.08 120.542C501.466 120.542 502.906 120.452 503.95 120.308C504.742 120.2 505.156 120.146 505.192 120.146L505.102 118.868C503.896 119.192 502.276 119.354 500.278 119.354C498.874 119.354 497.992 119.282 497.218 119.084L497.2 120.362ZM498.514 123.872C497.398 125.15 496.948 126.122 496.948 127.22C496.948 127.886 497.128 128.426 497.488 128.876C498.262 129.812 499.558 130.244 501.61 130.244C502.834 130.244 504.04 130.136 505.3 129.884C505.66 129.83 505.696 129.812 505.93 129.794L505.75 128.408C504.778 128.804 503.248 129.038 501.61 129.038C499.288 129.038 498.154 128.39 498.154 127.058C498.154 126.266 498.604 125.402 499.504 124.412L498.514 123.872ZM517.18 118.256C517.09 120.056 516.946 120.956 516.604 122.18C516.046 124.106 515.128 125.834 513.832 127.418C512.644 128.858 511.618 129.74 509.656 130.964C510.106 131.288 510.34 131.558 510.628 132.026C511.762 131.252 512.23 130.874 512.896 130.262C513.832 129.398 514.66 128.48 515.326 127.526C516.55 125.798 517.288 124.088 517.846 121.694C518.17 123.098 518.44 123.89 518.98 125.024C519.592 126.356 520.51 127.724 521.554 128.912C522.634 130.154 523.48 130.892 525.046 131.99C525.442 131.378 525.568 131.252 526.054 130.838C524.434 129.848 523.75 129.308 522.688 128.228C521.572 127.058 520.69 125.852 519.988 124.502C518.944 122.504 518.458 120.488 518.458 118.22C518.458 117.824 518.476 117.482 518.53 117.032C518.17 117.104 517.72 117.14 516.856 117.14H514.48C513.832 117.14 513.472 117.122 513.112 117.05V118.346C513.706 118.292 514.138 118.256 514.48 118.256H517.18ZM532.228 116.42C532.228 116.636 532.21 116.726 532.174 116.996C531.724 120.182 531.562 121.874 531.562 123.638C531.562 123.728 531.562 123.89 531.562 124.052L531.598 125.924L531.616 126.248C531.616 126.284 531.616 126.356 531.616 126.446L532.912 126.392C532.894 126.122 532.894 126.032 532.894 125.96C532.894 124.646 533.236 123.26 533.866 121.946C534.892 119.84 536.044 118.814 537.412 118.814C539.14 118.814 540.148 120.488 540.148 123.386C540.148 126.266 539.158 128.156 537.052 129.362C536.008 129.956 535.072 130.244 533.398 130.496C533.794 130.982 533.902 131.18 534.118 131.72C535.378 131.45 536.458 131.09 537.322 130.658C540.022 129.308 541.48 126.842 541.48 123.584C541.48 121.658 541.156 120.326 540.4 119.21C539.698 118.166 538.69 117.608 537.52 117.608C536.116 117.608 534.928 118.382 533.92 119.93C533.398 120.74 533.038 121.622 532.822 122.612C532.732 122.99 532.732 122.99 532.696 123.134L532.624 123.116C532.678 122.198 532.93 120.236 533.218 118.418C533.38 117.446 533.488 116.942 533.632 116.564L532.228 116.42Z" fill="#444444"/>
<rect x="430.5" y="54.5" width="137" height="93" stroke="#444444"/>
<path d="M644.682 82.704V83.784H646.122C646.068 83.46 646.032 82.812 646.032 82.146V72.93C646.032 72.282 646.032 71.976 646.068 71.526C645.618 71.544 645.366 71.562 645.132 71.562H636.492C635.322 71.562 635.052 71.544 634.422 71.436V72.876C635.034 72.804 635.412 72.786 636.492 72.786H644.682V81.48H636.114C634.998 81.48 634.746 81.462 634.152 81.354V82.776C634.62 82.722 634.62 82.722 636.078 82.704H644.682ZM654.024 70.176C654.06 70.572 654.078 70.788 654.078 71.148V71.814L654.042 82.128C654.042 82.794 654.006 82.992 653.916 83.298L654.636 84.198C654.888 84.09 654.978 84.072 655.68 83.928C660.486 82.992 663.132 81.318 665.598 77.646C665.166 77.286 665.058 77.142 664.608 76.512C663.564 78.42 662.358 79.716 660.558 80.832C659.118 81.732 657.48 82.29 655.41 82.632L655.464 71.778C655.464 71.022 655.5 70.554 655.554 70.176H654.024ZM676.29 69.33C676.2 69.96 675.84 70.77 675.156 71.958C673.914 74.154 672.546 75.648 670.638 76.89C671.16 77.214 671.34 77.376 671.646 77.826C673.41 76.494 674.85 74.91 675.948 73.146L682.014 73.038C681.384 75.288 680.304 77.394 678.918 79.068C677.19 81.138 675.282 82.506 672.564 83.622C673.032 83.982 673.176 84.162 673.464 84.684C676.092 83.496 678.072 82.074 679.728 80.184C681.258 78.402 682.572 75.954 683.328 73.416C683.526 72.768 683.526 72.75 683.688 72.534L682.914 71.778C682.662 71.886 682.608 71.904 681.978 71.904C676.776 71.994 676.776 71.994 676.542 72.048C676.74 71.724 676.902 71.418 677.37 70.446C677.604 69.942 677.604 69.942 677.766 69.708L676.29 69.33ZM691.374 71.256C692.688 71.706 694.56 72.714 695.802 73.632L696.54 72.426C695.01 71.472 693.84 70.878 692.076 70.158L691.374 71.256ZM689.952 75.558C691.59 76.17 693.228 77.07 694.542 78.024L695.244 76.818C693.678 75.828 692.382 75.162 690.672 74.46L689.952 75.558ZM690.564 84.18C690.834 84.09 690.906 84.054 691.266 83.982C691.626 83.91 691.95 83.838 692.238 83.784C693.714 83.478 695.532 82.866 696.792 82.236C699.96 80.67 702.156 78.222 703.722 74.478C703.236 74.154 703.056 73.992 702.606 73.524C702.048 75.108 701.454 76.242 700.446 77.556C698.988 79.446 697.278 80.724 695.046 81.57C693.246 82.254 691.374 82.686 690.204 82.686L690.564 84.18ZM718.428 84.072V84.972H719.67C719.616 84.666 719.598 84.432 719.598 83.856V75.72C719.598 75.09 719.598 74.802 719.616 74.334C719.292 74.352 718.968 74.37 718.392 74.37H711.696C710.994 74.37 710.562 74.334 710.13 74.262V75.504C710.58 75.432 710.742 75.432 711.696 75.432H718.428V78.564H712.11C711.408 78.564 710.976 78.528 710.544 78.456V79.68C710.994 79.608 711.138 79.608 712.092 79.608H718.428V82.992H711.516C710.85 82.992 710.382 82.956 709.95 82.884V84.144C710.4 84.072 710.544 84.072 711.516 84.072H718.428ZM727.608 72.246C729.174 73.2 730.596 74.37 731.892 75.774L732.828 74.658C731.532 73.38 730.416 72.498 728.49 71.274L727.608 72.246ZM727.734 83.946C728.184 83.802 728.328 83.766 728.814 83.658C731.82 82.974 733.674 82.236 735.528 80.976C737.904 79.338 739.578 77.232 741.018 74.1C740.514 73.758 740.334 73.596 739.92 73.038C738.462 76.854 736.05 79.5 732.576 81.048C730.902 81.822 728.742 82.38 727.338 82.434L727.734 83.946Z" fill="#444444"/>
<line x1="628" y1="100.5" x2="746" y2="100.5" stroke="#444444"/>
<path d="M663.636 120.146C662.736 120.146 662.304 120.128 661.692 120.02L661.71 121.388C662.358 121.298 662.556 121.298 663.618 121.298L666.894 121.28C666.66 123.296 666.39 124.304 665.778 125.564C664.788 127.58 663.24 129.164 661.098 130.298C661.548 130.694 661.692 130.838 662.016 131.36C664.05 130.136 665.724 128.444 666.732 126.59C667.524 125.078 667.938 123.584 668.172 121.28L673.212 121.262C673.194 123.926 673.032 126.23 672.762 127.652C672.42 129.434 672.132 129.866 671.25 129.866C670.656 129.866 669.9 129.722 668.928 129.398C669.09 129.866 669.126 130.118 669.126 130.532C669.126 130.586 669.126 130.64 669.126 130.748C670.08 130.964 670.782 131.054 671.358 131.054C672.978 131.054 673.518 130.406 673.968 127.94C674.202 126.698 674.418 123.98 674.472 121.64C674.49 120.992 674.508 120.83 674.616 120.56L673.95 119.984C673.59 120.092 673.572 120.11 672.762 120.11L668.262 120.128C668.316 119.624 668.316 119.408 668.352 118.85C668.424 116.942 668.424 116.942 668.496 116.528L667.038 116.492C667.092 116.816 667.11 117.014 667.11 117.428C667.11 118.22 667.074 119.21 667.002 120.128L663.636 120.146ZM679.566 124.826C680.106 124.772 680.484 124.754 681.798 124.754H692.238C693.444 124.754 693.858 124.772 694.434 124.826V123.368C693.876 123.44 693.588 123.458 692.256 123.458H681.798C680.574 123.458 680.088 123.44 679.566 123.35V124.826ZM703.596 131.558C703.524 131.054 703.506 130.658 703.506 129.65V124.232C703.506 123.782 703.488 123.53 703.434 123.17L703.47 123.152C703.632 123.278 703.758 123.35 704.028 123.458C706.566 124.502 709.05 125.834 710.742 127.022L711.516 125.69C708.366 123.872 706.278 122.882 703.506 121.892V118.526C703.506 117.5 703.524 117.122 703.596 116.654H702.048C702.12 117.104 702.156 117.536 702.156 118.49V129.668C702.156 130.64 702.12 131.072 702.048 131.558H703.596Z" fill="#444444"/>
<rect x="618.5" y="54.5" width="137" height="93" stroke="#444444"/>
<path d="M90.3822 205.256C91.6962 205.706 93.5682 206.714 94.8102 207.632L95.5482 206.426C94.0182 205.472 92.8482 204.878 91.0842 204.158L90.3822 205.256ZM88.9602 209.558C90.5982 210.17 92.2362 211.07 93.5502 212.024L94.2522 210.818C92.6862 209.828 91.3902 209.162 89.6802 208.46L88.9602 209.558ZM89.5722 218.18C89.8422 218.09 89.9142 218.054 90.2742 217.982C90.6342 217.91 90.9582 217.838 91.2462 217.784C92.7222 217.478 94.5402 216.866 95.8002 216.236C98.9682 214.67 101.164 212.222 102.73 208.478C102.244 208.154 102.064 207.992 101.614 207.524C101.056 209.108 100.462 210.242 99.4542 211.556C97.9962 213.446 96.2862 214.724 94.0542 215.57C92.2542 216.254 90.3822 216.686 89.2122 216.686L89.5722 218.18ZM107.896 206.246C109.462 207.2 110.884 208.37 112.18 209.774L113.116 208.658C111.82 207.38 110.704 206.498 108.778 205.274L107.896 206.246ZM108.022 217.946C108.472 217.802 108.616 217.766 109.102 217.658C112.108 216.974 113.962 216.236 115.816 214.976C118.192 213.338 119.866 211.232 121.306 208.1C120.802 207.758 120.622 207.596 120.208 207.038C118.75 210.854 116.338 213.5 112.864 215.048C111.19 215.822 109.03 216.38 107.626 216.434L108.022 217.946ZM130.864 203.438C130.828 203.906 130.45 204.806 129.73 206.048C128.416 208.298 126.976 209.882 125.212 210.998C125.734 211.304 125.914 211.484 126.22 211.916C127.822 210.764 129.532 208.874 130.522 207.236L136.588 207.146C135.202 212.132 131.818 215.912 127.138 217.712C127.588 218.054 127.768 218.288 128.038 218.774C133.042 216.542 136.174 213.014 137.83 207.722C137.974 207.254 137.992 207.218 138.136 207.02L137.056 205.886C136.804 205.994 136.75 205.994 136.12 206.012L131.764 206.084C131.422 206.084 131.26 206.102 131.116 206.138C131.296 205.886 131.494 205.472 131.944 204.554C132.16 204.068 132.178 204.05 132.34 203.816L130.864 203.438ZM137.002 203.726C137.578 204.32 138.388 205.562 138.838 206.498L139.738 205.958C139.18 204.878 138.784 204.284 137.902 203.24L137.002 203.726ZM139.036 202.736C139.792 203.6 140.44 204.59 140.872 205.49L141.772 204.968C141.124 203.798 140.818 203.33 139.918 202.232L139.036 202.736ZM146.474 204.284C146.528 204.698 146.546 204.914 146.546 205.562C146.546 209.36 146.294 211.718 145.736 213.284C145.142 214.958 144.17 216.254 142.694 217.424C143.234 217.766 143.414 217.928 143.774 218.396C145.412 216.83 146.276 215.624 146.888 213.95C147.572 212.132 147.716 210.8 147.86 205.922C147.896 204.824 147.896 204.824 147.968 204.374L146.474 204.284ZM150.956 204.158C151.028 204.59 151.028 204.59 151.028 205.76L150.92 216.29C150.92 217.064 150.902 217.208 150.794 217.514L151.514 218.342C151.676 218.252 151.712 218.234 151.928 218.144C152.18 218.054 152.18 218.054 152.504 217.928C153.566 217.514 154.286 217.154 155.078 216.614C156.626 215.552 157.814 214.058 158.696 211.988C158.21 211.592 158.066 211.43 157.688 210.944C157.256 212.33 156.554 213.518 155.564 214.544C154.628 215.498 153.71 216.074 152.216 216.632L152.324 205.76C152.324 204.932 152.342 204.608 152.432 204.176L150.956 204.158Z" fill="#444444"/>
<line x1="64" y1="234.5" x2="182" y2="234.5" stroke="#444444"/>
<path d="M112.398 260.662C113.046 261.778 113.658 262.516 114.576 263.29C116.34 264.784 118.284 265.72 120.966 266.368C121.128 265.936 121.308 265.63 121.614 265.198C119.868 264.928 118.23 264.352 116.718 263.488C118.14 262.516 119.04 261.796 120.246 260.698L119.22 260.014C118.248 261.112 117.366 261.85 115.782 262.912C114.774 262.21 114.162 261.58 113.568 260.662H116.862C117.618 260.662 118.104 260.68 118.536 260.716C118.5 260.302 118.482 259.978 118.482 259.258V256.162C118.482 255.586 118.482 255.244 118.518 254.848C119.544 255.424 120.228 255.766 121.254 256.198C121.452 255.712 121.614 255.442 121.938 255.046C120.39 254.56 118.788 253.786 117.33 252.868C115.962 251.968 115.062 251.194 114.09 250.06H112.866C111.21 252.166 108.366 254.038 105.288 255.046C105.612 255.424 105.72 255.586 105.954 256.144C106.998 255.712 107.466 255.496 108.528 254.92C108.564 255.28 108.582 255.82 108.582 256.414V264.838C107.358 265.054 106.692 265.126 106.116 265.126L106.422 266.386C106.728 266.314 106.89 266.278 107.088 266.242C110.868 265.486 111.804 265.27 114.036 264.622L114.054 263.578C112.272 264.1 111.39 264.316 109.716 264.64V260.662H112.398ZM113.982 254.668V254.056C113.982 253.408 114 253.084 114.072 252.688H112.794C112.866 253.048 112.902 253.39 112.902 254.056V254.668H110.238C109.698 254.668 109.464 254.668 108.996 254.65C110.904 253.516 112.308 252.364 113.496 250.942C114.612 252.256 115.944 253.318 118.158 254.632C117.672 254.668 117.42 254.668 116.79 254.668H113.982ZM109.716 255.622H117.366V257.116H109.716V255.622ZM109.716 258.07H117.366V259.708H109.716V258.07ZM127.464 255.136C127.464 255.748 127.446 256.216 127.392 256.702C127.878 256.648 128.436 256.63 129.3 256.63H135.438C136.32 256.63 136.824 256.648 137.328 256.702C137.274 256.27 137.256 255.802 137.256 255.118V252.076C137.256 251.428 137.274 251.05 137.328 250.582C136.842 250.654 136.338 250.672 135.294 250.672H129.408C128.454 250.672 127.95 250.654 127.392 250.582C127.446 251.05 127.464 251.482 127.464 252.094V255.136ZM128.598 251.698H136.104V255.604H128.598V251.698ZM124.872 264.514C124.872 265.432 124.854 265.918 124.782 266.386H125.988V265.252H130.164V266.044H131.334C131.28 265.612 131.262 265.162 131.262 264.28V260.122C131.262 259.114 131.28 258.808 131.316 258.43C130.848 258.466 130.434 258.484 129.858 258.484H126.456C125.754 258.484 125.322 258.466 124.8 258.412C124.854 258.952 124.872 259.456 124.872 260.158V264.514ZM125.988 259.492H130.164V264.244H125.988V259.492ZM133.044 264.622C133.044 265.45 133.026 265.918 132.972 266.386H134.142V265.252H138.75V266.386H139.974C139.902 265.936 139.884 265.486 139.884 264.514V260.176C139.884 259.42 139.902 258.88 139.956 258.412C139.524 258.466 139.092 258.484 138.408 258.484H134.448C133.836 258.484 133.44 258.466 132.99 258.43C133.044 258.862 133.044 259.132 133.044 259.978V264.622ZM134.142 259.492H138.768V264.244H134.142V259.492Z" fill="#444444"/>
<rect x="54.5" y="188.5" width="137" height="93" stroke="#444444"/>
<path d="M278.382 205.256C279.696 205.706 281.568 206.714 282.81 207.632L283.548 206.426C282.018 205.472 280.848 204.878 279.084 204.158L278.382 205.256ZM276.96 209.558C278.598 210.17 280.236 211.07 281.55 212.024L282.252 210.818C280.686 209.828 279.39 209.162 277.68 208.46L276.96 209.558ZM277.572 218.18C277.842 218.09 277.914 218.054 278.274 217.982C278.634 217.91 278.958 217.838 279.246 217.784C280.722 217.478 282.54 216.866 283.8 216.236C286.968 214.67 289.164 212.222 290.73 208.478C290.244 208.154 290.064 207.992 289.614 207.524C289.056 209.108 288.462 210.242 287.454 211.556C285.996 213.446 284.286 214.724 282.054 215.57C280.254 216.254 278.382 216.686 277.212 216.686L277.572 218.18ZM295.896 206.246C297.462 207.2 298.884 208.37 300.18 209.774L301.116 208.658C299.82 207.38 298.704 206.498 296.778 205.274L295.896 206.246ZM296.022 217.946C296.472 217.802 296.616 217.766 297.102 217.658C300.108 216.974 301.962 216.236 303.816 214.976C306.192 213.338 307.866 211.232 309.306 208.1C308.802 207.758 308.622 207.596 308.208 207.038C306.75 210.854 304.338 213.5 300.864 215.048C299.19 215.822 297.03 216.38 295.626 216.434L296.022 217.946ZM318.864 203.438C318.828 203.906 318.45 204.806 317.73 206.048C316.416 208.298 314.976 209.882 313.212 210.998C313.734 211.304 313.914 211.484 314.22 211.916C315.822 210.764 317.532 208.874 318.522 207.236L324.588 207.146C323.202 212.132 319.818 215.912 315.138 217.712C315.588 218.054 315.768 218.288 316.038 218.774C321.042 216.542 324.174 213.014 325.83 207.722C325.974 207.254 325.992 207.218 326.136 207.02L325.056 205.886C324.804 205.994 324.75 205.994 324.12 206.012L319.764 206.084C319.422 206.084 319.26 206.102 319.116 206.138C319.296 205.886 319.494 205.472 319.944 204.554C320.16 204.068 320.178 204.05 320.34 203.816L318.864 203.438ZM325.002 203.726C325.578 204.32 326.388 205.562 326.838 206.498L327.738 205.958C327.18 204.878 326.784 204.284 325.902 203.24L325.002 203.726ZM327.036 202.736C327.792 203.6 328.44 204.59 328.872 205.49L329.772 204.968C329.124 203.798 328.818 203.33 327.918 202.232L327.036 202.736ZM334.474 204.284C334.528 204.698 334.546 204.914 334.546 205.562C334.546 209.36 334.294 211.718 333.736 213.284C333.142 214.958 332.17 216.254 330.694 217.424C331.234 217.766 331.414 217.928 331.774 218.396C333.412 216.83 334.276 215.624 334.888 213.95C335.572 212.132 335.716 210.8 335.86 205.922C335.896 204.824 335.896 204.824 335.968 204.374L334.474 204.284ZM338.956 204.158C339.028 204.59 339.028 204.59 339.028 205.76L338.92 216.29C338.92 217.064 338.902 217.208 338.794 217.514L339.514 218.342C339.676 218.252 339.712 218.234 339.928 218.144C340.18 218.054 340.18 218.054 340.504 217.928C341.566 217.514 342.286 217.154 343.078 216.614C344.626 215.552 345.814 214.058 346.696 211.988C346.21 211.592 346.066 211.43 345.688 210.944C345.256 212.33 344.554 213.518 343.564 214.544C342.628 215.498 341.71 216.074 340.216 216.632L340.324 205.76C340.324 204.932 340.342 204.608 340.432 204.176L338.956 204.158Z" fill="#444444"/>
<line x1="252" y1="234.5" x2="370" y2="234.5" stroke="#444444"/>
<path d="M302.018 259.762H299.516C298.814 259.762 298.436 259.744 297.986 259.69C298.04 260.158 298.058 260.572 298.058 261.256V264.118C298.058 265.144 298.022 265.756 297.95 266.278H299.174V265.414H306.95V266.278H308.174C308.102 265.774 308.066 265.144 308.066 264.1V261.328C308.066 260.608 308.084 260.176 308.138 259.69C307.688 259.744 307.31 259.762 306.626 259.762H303.134V256.936H307.274C308.03 256.936 308.57 256.972 309.002 257.044V255.802C308.624 255.874 308.084 255.91 307.238 255.91H303.134V255.082C303.134 254.128 303.152 253.822 303.224 253.462H301.928C302 253.84 302.018 254.146 302.018 255.064V259.762ZM299.174 260.788H306.95V264.388H299.174V260.788ZM301.442 251.896H297.104C296.384 251.896 295.79 251.86 295.214 251.806C295.268 252.346 295.286 252.85 295.286 253.984C295.286 260.608 294.89 263.056 293.432 265.252C293.972 265.612 294.062 265.702 294.422 266.098C296.042 263.362 296.42 260.95 296.438 252.922H307.598C308.588 252.922 309.128 252.94 309.596 253.012V251.788C309.146 251.86 308.57 251.896 307.598 251.896H302.576V251.122C302.576 250.528 302.612 250.186 302.684 249.862H301.334C301.406 250.204 301.442 250.564 301.442 251.122V251.896ZM323.348 261.814V264.496C323.348 265.18 323.33 265.576 323.276 266.062H324.464C324.41 265.63 324.392 265.216 324.392 264.478V261.814H326.984V264.586C326.984 264.928 326.894 265.018 326.588 265.018C326.246 265.018 325.634 264.964 325.148 264.892C325.31 265.342 325.364 265.558 325.382 265.99C325.724 266.008 326.066 266.026 326.264 266.026C326.966 266.026 327.38 265.972 327.596 265.882C327.884 265.738 328.028 265.432 328.028 264.892V256.45C328.028 255.604 328.046 255.172 328.1 254.704C327.596 254.758 327.2 254.776 326.39 254.776H324.392V253.174H326.984C327.704 253.174 328.154 253.192 328.532 253.264V252.076C328.082 252.148 327.722 252.166 327.002 252.166H324.392V251.536C324.392 250.852 324.428 250.438 324.5 249.988H323.24C323.312 250.438 323.348 250.852 323.348 251.536V252.166H320.81C320.108 252.166 319.712 252.148 319.316 252.076V253.246C319.73 253.192 320.144 253.174 320.792 253.174H323.348V254.776H321.53C320.756 254.776 320.288 254.758 319.82 254.704C319.874 255.208 319.892 255.64 319.892 256.396V264.442C319.892 265.306 319.874 265.828 319.802 266.26H321.008C320.936 265.828 320.918 265.342 320.918 264.406V261.814H323.348ZM323.348 260.878H320.918V258.736H323.348V260.878ZM324.392 260.878V258.736H326.984V260.878H324.392ZM323.348 257.8H320.918V255.748H323.348V257.8ZM324.392 257.8V255.748H326.984V257.8H324.392ZM316.616 257.908V256.054H317.57C318.254 256.054 318.452 256.072 318.776 256.126V255.064C318.488 255.118 318.254 255.136 317.534 255.136H316.616V254.776C316.616 254.056 316.634 253.714 316.706 253.318H315.5C315.572 253.75 315.59 254.11 315.59 254.794V255.136H314.816C314.312 255.136 313.97 255.118 313.556 255.046V256.126C313.97 256.072 314.222 256.054 314.834 256.054H315.59V257.908H313.736C313.052 257.908 312.692 257.89 312.278 257.818V258.952C312.746 258.88 313.052 258.862 313.736 258.862H317.912C318.578 258.862 318.902 258.88 319.28 258.934V257.836C318.92 257.89 318.542 257.908 317.858 257.908H316.616ZM315.5 250.186C315.158 250.924 314.726 251.626 314.132 252.4C313.448 253.282 312.872 253.84 311.792 254.704C312.098 255.1 312.206 255.262 312.386 255.676C314.186 254.11 315.14 252.976 316.13 251.176C316.94 252.49 317.588 253.228 318.956 254.38C319.136 253.948 319.298 253.714 319.532 253.426C318.182 252.382 317.336 251.428 316.634 250.186H315.5ZM318.668 266.062C318.596 265.648 318.578 265.252 318.578 264.622V261.706C318.578 261.058 318.596 260.68 318.632 260.284C318.236 260.338 317.948 260.356 317.39 260.356H314.474C313.898 260.356 313.556 260.338 313.16 260.284C313.214 260.716 313.232 261.112 313.232 261.778V264.586C313.232 265.342 313.214 265.792 313.124 266.26H314.312V265.342H317.498V266.062H318.668ZM314.312 261.31H317.498V264.388H314.312V261.31ZM325.13 250.546C326.066 251.014 326.642 251.356 327.344 251.932L327.992 251.194C327.218 250.672 326.858 250.456 325.778 249.916L325.13 250.546Z" fill="#444444"/>
<rect x="242.5" y="188.5" width="137" height="93" stroke="#444444"/>
<path d="M314.912 100.5L315.912 100.5L315.912 99.5L314.912 99.5L314.912 100.5ZM191.793 99.7929C191.403 100.183 191.403 100.817 191.793 101.207L198.157 107.571C198.548 107.962 199.181 107.962 199.572 107.571C199.962 107.181 199.962 106.547 199.572 106.157L193.915 100.5L199.572 94.8431C199.962 94.4526 199.962 93.8195 199.572 93.4289C199.181 93.0384 198.548 93.0384 198.157 93.4289L191.793 99.7929ZM315.912 187.793L315.912 100.5L313.912 100.5L313.912 187.793H315.912ZM314.912 99.5L192.5 99.5L192.5 101.5L314.912 101.5L314.912 99.5Z" fill="#444444"/>
<path d="M242.707 235.707C243.098 235.317 243.098 234.683 242.707 234.293L236.343 227.929C235.953 227.538 235.319 227.538 234.929 227.929C234.538 228.319 234.538 228.953 234.929 229.343L240.586 235L234.929 240.657C234.538 241.047 234.538 241.681 234.929 242.071C235.319 242.462 235.953 242.462 236.343 242.071L242.707 235.707ZM192 236H242V234H192V236Z" fill="#444444"/>
<path d="M121.293 188.707C121.683 189.098 122.317 189.098 122.707 188.707L129.071 182.343C129.462 181.953 129.462 181.319 129.071 180.929C128.681 180.538 128.047 180.538 127.657 180.929L122 186.586L116.343 180.929C115.953 180.538 115.319 180.538 114.929 180.929C114.538 181.319 114.538 181.953 114.929 182.343L121.293 188.707ZM121 148L121 188L123 188L123 148L121 148Z" fill="#444444"/>
<path d="M498.841 234.5L498.841 235.5L499.841 235.5L499.841 234.5L498.841 234.5ZM379.792 233.793C379.402 234.183 379.402 234.817 379.792 235.207L386.156 241.571C386.547 241.962 387.18 241.962 387.571 241.571C387.961 241.181 387.961 240.547 387.571 240.157L381.914 234.5L387.571 228.843C387.961 228.453 387.961 227.819 387.571 227.429C387.18 227.038 386.547 227.038 386.156 227.429L379.792 233.793ZM497.841 147.5L497.841 234.5L499.841 234.5L499.841 147.5L497.841 147.5ZM498.841 233.5L380.5 233.5L380.5 235.5L498.841 235.5L498.841 233.5Z" fill="#444444"/>
<path d="M122 304.5L121 304.5L121 305.5L122 305.5L122 304.5ZM122.707 282.793C122.317 282.402 121.683 282.402 121.293 282.793L114.929 289.157C114.538 289.547 114.538 290.181 114.929 290.571C115.319 290.962 115.953 290.962 116.343 290.571L122 284.914L127.657 290.571C128.047 290.962 128.681 290.962 129.071 290.571C129.462 290.181 129.462 289.547 129.071 289.157L122.707 282.793ZM687 304.5L687 305.5L688 305.5L688 304.5L687 304.5ZM123 304.5L123 283.5L121 283.5L121 304.5L123 304.5ZM685.999 147L686 304.5L688 304.5L687.999 147L685.999 147ZM687 303.5L122 303.5L122 305.5L687 305.5L687 303.5Z" fill="#444444"/>
<path d="M170.984 157.498C171.32 157.064 171.544 156.756 171.922 156.14L171.152 155.874C170.872 156.448 170.564 156.966 170.144 157.498H167.582C167.064 157.498 166.826 157.484 166.49 157.456C166.518 157.722 166.532 158.03 166.532 158.366V159.472C166.532 159.808 166.518 160.102 166.49 160.368C166.84 160.34 167.148 160.326 167.582 160.326H167.946C167.89 160.942 167.764 161.348 167.484 161.684C167.078 162.216 166.616 162.454 165.328 162.818C165.566 163.056 165.692 163.224 165.86 163.532C166.98 163.126 167.624 162.734 168.086 162.16C168.492 161.656 168.66 161.166 168.716 160.326H169.92V162.146C169.92 162.804 170.186 162.944 171.446 162.944C172.552 162.944 172.902 162.846 173.112 162.482C173.28 162.202 173.364 161.824 173.406 161.138C173.112 161.068 172.93 160.998 172.664 160.83C172.65 162.16 172.594 162.23 171.53 162.23C170.816 162.23 170.69 162.188 170.69 161.922V160.326H171.46C171.894 160.326 172.188 160.34 172.482 160.368C172.454 160.102 172.44 159.85 172.44 159.458V158.366C172.44 158.002 172.454 157.708 172.482 157.456C172.146 157.484 171.894 157.498 171.376 157.498H170.984ZM171.656 159.668H167.316V158.156H171.656V159.668ZM164.712 155.636H167.4C168.002 155.636 168.45 155.65 168.828 155.678C168.8 155.286 168.786 154.978 168.786 154.418V153.088C168.786 152.514 168.8 152.122 168.828 151.758C168.408 151.8 168.1 151.814 167.4 151.814H165.258C164.6 151.814 164.18 151.8 163.788 151.758C163.83 152.192 163.844 152.626 163.844 153.312V162.482C163.844 163.252 163.816 163.686 163.76 164.064H164.796C164.74 163.686 164.712 163.294 164.712 162.524V155.636ZM164.712 152.444H167.974V153.396H164.712V152.444ZM164.712 154.026H167.974V155.006H164.712V154.026ZM175.226 153.312C175.226 152.682 175.24 152.22 175.296 151.758C174.904 151.8 174.47 151.814 173.812 151.814H171.46C170.76 151.814 170.452 151.8 170.032 151.758C170.06 152.15 170.074 152.612 170.074 153.088V154.418C170.074 154.894 170.06 155.272 170.032 155.678C170.34 155.65 170.872 155.636 171.46 155.636H174.358V162.65C174.358 162.972 174.246 163.056 173.77 163.056C173.42 163.056 172.93 163.014 172.426 162.93C172.566 163.266 172.622 163.462 172.664 163.798C173 163.826 173.462 163.84 173.784 163.84C174.4 163.84 174.694 163.798 174.89 163.658C175.128 163.49 175.226 163.196 175.226 162.706V153.312ZM170.886 152.444H174.358V153.396H170.886V152.444ZM170.886 154.026H174.358V155.006H170.886V154.026ZM168.716 157.106C168.38 156.588 168.128 156.266 167.694 155.804L167.05 156.112C167.512 156.602 167.722 156.896 168.044 157.456L168.716 157.106ZM182.016 155.048H182.8C183.36 155.048 183.752 155.062 184.032 155.09C184.004 154.866 183.99 154.712 183.99 154.404V153.802C183.99 153.522 184.004 153.354 184.032 153.116C183.752 153.144 183.528 153.158 182.884 153.158H182.002V152.402H183.206C183.71 152.402 184.046 152.416 184.396 152.458V151.702C184.088 151.758 183.724 151.772 183.122 151.772H179.93C179.244 151.772 178.908 151.758 178.558 151.716C178.6 152.08 178.614 152.444 178.614 153.06V155.216C178.614 155.79 178.6 156.14 178.572 156.476C178.992 156.448 179.314 156.434 179.804 156.434H183.206C183.626 156.434 183.962 156.448 184.396 156.49V155.776C184.144 155.818 183.766 155.832 183.206 155.832H182.016V155.048ZM181.26 155.048V155.832H179.398V155.048H181.26ZM179.398 154.474V153.732H183.248V154.474H179.398ZM179.398 153.158V152.402H181.246V153.158H179.398ZM189.03 153.396C189.562 153.396 189.884 153.41 190.22 153.466V152.598C189.87 152.654 189.576 152.668 189.03 152.668H186.216C186.37 152.36 186.468 152.164 186.692 151.618L185.852 151.394C185.488 152.612 184.97 153.41 184.018 154.208C184.284 154.39 184.424 154.516 184.62 154.782C185.194 154.194 185.39 153.956 185.768 153.396H189.03ZM182.156 161.768C181.652 162.734 180.378 163.266 178.586 163.266C178.432 163.266 178.278 163.266 177.97 163.252C178.208 163.588 178.292 163.742 178.432 164.092C180.896 164.036 182.45 163.266 183.052 161.768H184.914V162.93C184.914 163.756 185.292 163.91 187.378 163.91C189.016 163.91 189.59 163.826 189.898 163.546C190.164 163.294 190.318 162.846 190.486 161.88C190.136 161.796 189.954 161.712 189.66 161.53C189.59 162.23 189.506 162.664 189.366 162.86C189.198 163.098 188.82 163.154 187.224 163.154C185.922 163.154 185.768 163.112 185.768 162.692V161.768H186.986C187.658 161.768 188.162 161.782 188.54 161.824C188.498 161.586 188.484 161.11 188.484 160.368V158.31C188.484 157.652 188.498 157.33 188.526 156.952C188.12 156.994 187.798 157.008 187.084 157.008H181.232C180.546 157.008 180.126 156.994 179.776 156.966C179.804 157.386 179.818 157.778 179.818 158.31V160.396C179.818 161.082 179.804 161.516 179.762 161.824C180.126 161.782 180.672 161.768 181.33 161.768H182.156ZM180.644 157.666H187.658V158.38H180.644V157.666ZM180.644 158.996H187.658V159.724H180.644V158.996ZM180.644 160.34H187.658V161.124H180.644V160.34ZM185.32 155.706C185.642 155.65 185.978 155.636 186.51 155.636H188.526C189.072 155.636 189.352 155.65 189.716 155.706V154.824C189.394 154.88 189.086 154.894 188.526 154.894H186.482C185.978 154.894 185.628 154.88 185.32 154.824V155.706ZM202.176 152.276L197.122 165.086H198.172L203.212 152.276H202.176ZM144.788 181.13C145.39 181.13 145.768 181.144 146.146 181.186C146.118 180.878 146.104 180.654 146.104 180.136V178.778C146.104 178.442 146.118 178.12 146.146 177.77C145.782 177.798 145.46 177.812 144.872 177.812H142.94C142.954 177.49 142.954 177.392 142.954 177.112V176.594H143.738C144.284 176.594 144.592 176.608 144.984 176.65V175.81C145.614 176.286 146.062 176.58 146.832 177C147.014 176.622 147.126 176.454 147.364 176.188C146.216 175.67 145.376 175.138 144.494 174.354C143.822 173.738 143.388 173.234 142.926 172.492H141.96C141.092 174.116 139.93 175.278 138.152 176.314C138.39 176.496 138.516 176.65 138.726 177.014C139.384 176.566 139.734 176.3 140.238 175.866V176.65C140.644 176.608 140.938 176.594 141.484 176.594H142.128V177.28C142.128 177.434 142.128 177.504 142.128 177.812H140.308C139.608 177.812 139.496 177.812 139.076 177.77C139.104 178.064 139.118 178.26 139.118 178.68V180.318C139.118 180.626 139.104 180.906 139.076 181.186C139.468 181.144 139.818 181.13 140.35 181.13H141.722C141.176 182.698 140.056 183.608 137.956 184.196C138.194 184.434 138.32 184.616 138.488 184.98C139.594 184.546 140.266 184.196 140.84 183.748C141.61 183.146 142.142 182.404 142.478 181.48C143.262 183.062 144.69 184.238 146.692 184.98C146.832 184.658 146.972 184.42 147.21 184.126C145.236 183.552 143.864 182.558 143.108 181.13H144.788ZM141.484 175.838C140.966 175.838 140.644 175.824 140.322 175.796C141.274 174.928 141.82 174.284 142.464 173.192C143.332 174.41 143.864 174.97 144.956 175.796C144.62 175.824 144.298 175.838 143.738 175.838H141.484ZM142.1 178.54C142.058 179.422 142.002 179.884 141.904 180.416H139.93V178.54H142.1ZM145.292 178.54V180.416H142.73C142.828 179.87 142.884 179.296 142.926 178.54H145.292ZM137.746 175.894C138.068 175.894 138.334 175.908 138.614 175.936V175.054C138.362 175.096 138.138 175.11 137.732 175.11H137.186V173.724C137.186 173.038 137.2 172.646 137.256 172.296H136.29C136.346 172.632 136.36 172.94 136.36 173.738V175.11H135.464C135.016 175.11 134.722 175.096 134.484 175.054V175.95C134.722 175.908 135.044 175.894 135.464 175.894H136.206C135.87 177.63 135.058 179.562 134.162 180.794C134.4 181.046 134.512 181.186 134.722 181.592C135.324 180.626 135.758 179.646 136.038 178.652C136.304 177.714 136.304 177.714 136.43 177.28C136.388 178.12 136.36 178.862 136.36 179.492V183.454C136.36 184.182 136.332 184.672 136.276 185.078H137.27C137.214 184.7 137.186 184.21 137.186 183.454V179.198C137.186 178.54 137.158 177.574 137.13 176.944C137.522 177.98 137.802 178.554 138.348 179.394C138.502 179.1 138.628 178.932 138.852 178.68C138.054 177.686 137.62 176.93 137.256 175.894H137.746ZM149.632 181.298C149.954 181.256 150.164 181.242 150.612 181.242C151.564 181.228 152.894 181.186 154.742 181.102V183.748C154.742 184.378 154.728 184.658 154.658 185.022H155.75C155.68 184.658 155.652 184.336 155.652 183.748V181.06C157.318 180.99 157.318 180.99 159.642 180.808C160.048 181.27 160.188 181.424 160.622 181.956L161.28 181.368C160.384 180.332 159.586 179.562 158.452 178.638L157.822 179.1C158.396 179.576 158.592 179.758 159.012 180.15C156.604 180.304 156.604 180.304 154.672 180.36C155.988 179.408 156.674 178.834 157.556 177.938C157.752 177.728 157.892 177.602 158.032 177.476L157.122 177.028C156.772 177.63 156.044 178.372 154.938 179.282C154.35 178.806 154.322 178.792 153.734 178.358C154.532 177.602 154.924 177.182 155.512 176.44H160.16V178.316H161.098C161.056 178.05 161.042 177.798 161.042 177.406V176.454C161.042 176.062 161.056 175.936 161.098 175.614C160.664 175.656 160.328 175.67 159.698 175.67H155.596V174.326H159.726C160.398 174.326 160.888 174.354 161.266 174.396V173.458C160.888 173.514 160.454 173.542 159.726 173.542H155.596V173.304C155.596 172.968 155.624 172.66 155.694 172.324H154.63C154.7 172.632 154.728 172.982 154.728 173.304V173.542H150.962C150.234 173.542 149.786 173.514 149.408 173.458V174.396C149.814 174.34 150.234 174.326 150.948 174.326H154.728V175.67H150.948C150.36 175.67 149.982 175.656 149.548 175.614C149.59 175.936 149.604 176.104 149.604 176.51V177.42C149.604 177.77 149.59 178.022 149.548 178.302H150.486V176.44H154.448C154.084 176.958 153.776 177.308 153.104 177.91C152.712 177.644 152.544 177.546 152.026 177.224L151.452 177.826C152.726 178.596 153.286 178.988 154.294 179.786C154.042 179.982 154.042 179.982 153.762 180.178C153.692 180.22 153.608 180.29 153.468 180.388C152.46 180.416 152.25 180.416 151.368 180.416C150.36 180.416 149.87 180.388 149.464 180.332L149.632 181.298ZM152.74 181.634C152.236 182.222 151.928 182.502 151.284 182.922C150.682 183.314 150.234 183.538 149.422 183.818C149.716 184.042 149.898 184.238 150.108 184.56C151.648 183.818 152.46 183.23 153.496 182.096L152.74 181.634ZM156.926 182.04C158.298 183.286 159.082 183.818 160.566 184.518C160.734 184.224 160.93 183.972 161.182 183.734C159.628 183.118 158.774 182.586 157.598 181.508L156.926 182.04ZM173.726 183.916C173.334 183.58 172.858 183.132 172.396 182.67L171.486 181.746C172.242 180.724 172.522 180.122 173.082 178.344L172.102 177.966C171.85 179.282 171.542 180.01 170.814 181.074L167.888 178.134C169.176 177.56 169.33 177.476 169.722 177.14C170.268 176.664 170.534 176.062 170.534 175.278C170.534 173.976 169.386 173.08 167.706 173.08C166.572 173.08 165.746 173.444 165.242 174.186C165.004 174.522 164.878 174.914 164.878 175.362C164.878 176.09 165.13 176.65 165.802 177.336L166.278 177.84C165.312 178.274 164.92 178.526 164.472 178.974C163.856 179.576 163.548 180.318 163.548 181.172C163.548 181.984 163.828 182.698 164.346 183.216C164.934 183.818 165.83 184.126 166.978 184.126C167.734 184.126 168.434 183.986 169.092 183.72C169.75 183.44 170.128 183.174 170.8 182.516L171.122 182.852C171.388 183.132 171.528 183.3 172.004 183.916H173.726ZM166.6 176.818C166.124 176.342 165.942 175.95 165.942 175.432C165.942 174.522 166.628 173.962 167.72 173.962C168.812 173.962 169.484 174.508 169.484 175.404C169.484 175.964 169.232 176.398 168.672 176.776C168.42 176.944 168.238 177.028 167.216 177.448L166.6 176.818ZM170.128 181.844C169.596 182.362 169.288 182.572 168.798 182.81C168.238 183.062 167.664 183.188 167.062 183.188C165.564 183.188 164.612 182.376 164.612 181.102C164.612 180.486 164.864 179.912 165.312 179.506C165.69 179.142 166.04 178.932 166.936 178.54L170.128 181.844ZM177.084 175.32C176.426 175.32 176.034 175.292 175.642 175.236V176.23C176.062 176.174 176.496 176.146 177.084 176.146H179.716V183.412H176.79C176.146 183.412 175.698 183.384 175.334 183.328V184.336C175.754 184.28 176.202 184.252 176.79 184.252H186.366C186.954 184.252 187.402 184.28 187.822 184.336V183.328C187.444 183.384 187.01 183.412 186.366 183.412H183.244V176.146H186.156C186.73 176.146 187.192 176.174 187.584 176.23V175.236C187.192 175.292 186.8 175.32 186.142 175.32H183.44C184.07 174.48 184.364 174.004 185.022 172.758L184.084 172.436C183.594 173.64 183.244 174.256 182.474 175.32H177.084ZM180.612 183.412V176.146H182.348V183.412H180.612ZM177.854 172.758C178.582 173.556 178.946 174.102 179.436 175.082L180.248 174.634C179.73 173.71 179.394 173.234 178.652 172.338L177.854 172.758ZM176.244 177.63C177 179.1 177.238 179.786 177.798 181.97L178.666 181.648C178.134 179.688 177.84 178.89 177.07 177.322L176.244 177.63ZM185.974 177.392C185.316 179.422 184.966 180.192 184.014 181.76L184.812 182.152C185.708 180.598 185.988 179.996 186.814 177.77L185.974 177.392ZM190.804 175.012C190.86 175.012 190.93 174.998 190.944 174.998C190.972 174.998 191.07 174.998 191.21 174.984C193.03 174.858 193.366 174.816 194.332 174.55C193.534 175.236 193.534 175.236 193.072 175.796C191.854 177.308 191.21 178.918 191.21 180.458C191.21 182.754 192.736 184.35 194.934 184.35C196.6 184.35 198.07 183.398 198.686 181.914C199.05 181.06 199.232 180.108 199.232 179.058C199.232 177.938 199.106 177.196 198.672 175.866C199.582 177.56 200.072 178.204 201.206 179.226L201.472 179.464L201.542 179.52L201.78 179.73L202.312 178.764C201.64 178.442 200.408 177.224 199.778 176.244C199.26 175.502 198.7 174.424 198.462 173.696L197.454 174.032C197.972 175.096 198.322 176.93 198.322 178.54C198.322 179.73 198.168 180.626 197.818 181.452C197.328 182.6 196.166 183.37 194.934 183.37C193.352 183.37 192.176 182.152 192.176 180.5C192.176 179.072 192.82 177.546 194.094 176.006C194.682 175.292 194.962 175.026 195.732 174.494L195.144 173.612C194.626 173.864 193.002 174.06 191.448 174.06C191.154 174.06 191.028 174.046 190.79 174.018L190.804 175.012ZM199.176 172.982C199.582 173.416 200.268 174.466 200.604 175.208L201.318 174.788C200.898 173.962 200.506 173.374 199.876 172.618L199.176 172.982ZM200.772 172.24C201.304 172.87 201.892 173.78 202.2 174.438L202.9 174.032C202.438 173.15 202.088 172.632 201.444 171.862L200.772 172.24ZM209.046 176.314C209.606 176.314 209.886 176.328 210.25 176.384V175.53C209.858 175.586 209.508 175.6 209.018 175.6H208.066C208.15 175.18 208.178 174.928 208.248 174.298H209.116C209.676 174.298 209.984 174.312 210.264 174.368V173.514C209.998 173.57 209.662 173.584 209.088 173.584H208.304C208.346 172.87 208.374 172.464 208.402 172.352H207.492C207.52 172.534 207.534 172.702 207.534 172.856C207.534 173.206 207.534 173.206 207.52 173.584H206.19C205.63 173.584 205.294 173.57 204.986 173.514V174.368C205.308 174.312 205.602 174.298 206.176 174.298H207.478C207.422 174.83 207.38 175.138 207.282 175.6H205.924C205.308 175.6 205 175.586 204.594 175.53V176.384C204.986 176.328 205.322 176.314 205.91 176.314H207.072C206.61 177.504 205.854 178.302 204.454 179.1C204.608 179.226 204.86 179.52 205.028 179.786C206.4 178.848 207.142 178.008 207.688 176.79C208.248 177.658 208.738 178.148 209.662 178.75C209.858 178.442 209.984 178.288 210.236 178.092C209.578 177.77 209.242 177.518 208.738 177.014C208.5 176.762 208.374 176.608 208.178 176.314H209.046ZM215.472 176.314C216.046 176.314 216.368 176.328 216.76 176.384V175.53C216.354 175.586 216.088 175.6 215.486 175.6H213.54C213.652 175.152 213.694 174.844 213.75 174.298H215.262C215.85 174.298 216.116 174.312 216.41 174.368V173.514C216.102 173.57 215.794 173.584 215.234 173.584H213.792C213.848 172.786 213.862 172.548 213.904 172.352H212.994C213.036 172.59 213.036 172.646 213.036 173.122C213.036 173.346 213.036 173.416 213.022 173.584H212.056C211.524 173.584 211.146 173.556 210.88 173.514V174.368C211.16 174.312 211.468 174.298 212.028 174.298H212.98C212.91 174.83 212.868 175.138 212.756 175.6H211.93C211.454 175.6 211.09 175.586 210.698 175.53V176.384C211.062 176.328 211.342 176.314 211.902 176.314H212.504C212.056 177.252 211.58 177.784 210.6 178.4C210.824 178.582 210.894 178.638 211.076 178.89L211.174 179.03C212.21 178.218 212.812 177.49 213.232 176.51C213.512 177.056 213.778 177.42 214.212 177.882C214.884 178.596 215.514 179.058 216.508 179.576C216.648 179.24 216.76 179.086 216.998 178.792C216.228 178.512 215.752 178.246 215.15 177.742C214.618 177.294 214.254 176.86 213.918 176.314H215.472ZM208.01 179.156C207.338 179.156 206.96 179.142 206.512 179.1C206.554 179.604 206.568 180.024 206.568 180.626V183.552C206.568 184.224 206.54 184.602 206.484 184.98H207.422V184.294H214.03V184.98H214.968C214.912 184.63 214.884 184.238 214.884 183.552V180.626C214.884 180.01 214.898 179.576 214.94 179.1C214.478 179.142 214.114 179.156 213.428 179.156H208.01ZM207.422 179.926H214.03V181.298H207.422V179.926ZM207.422 182.054H214.03V183.524H207.422V182.054ZM222.346 173.752C224.026 174.298 225.048 174.48 227.568 174.704L227.764 173.766C225.916 173.71 224.18 173.416 222.696 172.898L222.346 173.752ZM221.142 177.364C221.506 177.322 221.8 177.294 222.472 177.252C224.852 177.098 225.776 177 226.644 176.804C225.636 177.77 224.922 178.47 224.516 178.876C223.382 179.996 222.22 181.116 221.212 182.054C220.372 182.852 220.19 183.006 219.7 183.342L220.484 184.21C220.974 183.65 221.898 182.698 222.584 182.068C223.746 180.99 224.432 180.598 225.16 180.598C225.454 180.598 225.706 180.724 225.804 180.934C225.888 181.102 225.916 181.256 225.958 181.9C226.028 182.824 226.098 183.132 226.266 183.44C226.56 183.986 227.176 184.238 228.226 184.238C228.842 184.238 229.374 184.182 230.144 184.056C231.138 183.902 231.138 183.902 231.278 183.888L231.124 182.81C230.382 183.132 229.318 183.328 228.296 183.328C227.652 183.328 227.33 183.216 227.134 182.95C226.98 182.726 226.938 182.516 226.882 181.634C226.826 180.836 226.728 180.514 226.448 180.234C226.21 179.996 225.888 179.87 225.496 179.87C225.118 179.87 224.88 179.954 224.096 180.332C224.782 179.8 225.692 178.988 226.868 177.812C227.68 177.014 227.82 176.874 228.114 176.65L227.498 175.88C227.316 175.95 227.148 175.992 226.826 176.034C225.622 176.202 223.144 176.37 221.912 176.37C221.604 176.37 221.422 176.37 221.072 176.342L221.142 177.364Z" fill="#444444"/>
</g>
<defs>
<clipPath id="clip0_67_264">
<rect width="817" height="377" fill="white"/>
</clipPath>
</defs>
</svg>
