<svg width="744" height="887" viewBox="0 0 744 887" fill="none" xmlns="http://www.w3.org/2000/svg">
<g clip-path="url(#clip0_126_5652)">
<path d="M582.32 362H120L231.17 614.33H471.15L582.32 362Z" fill="#58B7B1"/>
<path d="M591.56 341.33L703.18 88H0L111.62 341.33H591.56Z" fill="#29978E"/>
<path d="M240 634L351.18 886.34L462.35 634H240Z" fill="#B5DFDD"/>
<path d="M675.99 371.97C676.139 370.819 676.495 369.705 677.04 368.68C677.523 367.778 678.179 366.979 678.97 366.33C679.762 365.689 680.668 365.204 681.64 364.9C682.687 364.582 683.776 364.423 684.87 364.43C685.974 364.415 687.073 364.587 688.12 364.94C689.027 365.251 689.865 365.733 690.59 366.36C691.262 366.95 691.8 367.676 692.17 368.49C692.537 369.325 692.724 370.228 692.72 371.14C692.728 371.879 692.634 372.616 692.44 373.33C692.27 373.919 691.999 374.473 691.64 374.97C691.287 375.446 690.845 375.85 690.34 376.16C689.793 376.503 689.205 376.775 688.59 376.97C689.959 377.344 691.181 378.129 692.09 379.22C692.883 380.325 693.287 381.661 693.24 383.02C693.263 384.206 693.017 385.383 692.52 386.46C692.047 387.434 691.364 388.291 690.52 388.97C689.684 389.661 688.724 390.183 687.69 390.51C686.588 390.862 685.437 391.037 684.28 391.03C683.124 391.051 681.971 390.899 680.86 390.58C679.935 390.306 679.072 389.854 678.32 389.25C677.586 388.642 676.964 387.911 676.48 387.09C675.941 386.14 675.509 385.134 675.19 384.09L677.19 383.28C677.642 383.066 678.151 383.006 678.64 383.11C678.852 383.145 679.053 383.229 679.227 383.356C679.401 383.482 679.542 383.648 679.64 383.84C679.86 384.26 680.09 384.67 680.35 385.08C680.607 385.485 680.92 385.852 681.28 386.17C681.659 386.494 682.088 386.754 682.55 386.94C683.101 387.153 683.689 387.255 684.28 387.24C684.965 387.255 685.646 387.129 686.28 386.87C686.816 386.636 687.299 386.296 687.7 385.87C688.067 385.492 688.353 385.043 688.54 384.55C688.725 384.082 688.82 383.583 688.82 383.08C688.829 382.507 688.762 381.935 688.62 381.38C688.491 380.871 688.204 380.416 687.8 380.08C687.266 379.668 686.648 379.378 685.99 379.23C684.952 379.004 683.891 378.904 682.83 378.93V375.76C683.746 375.768 684.659 375.664 685.55 375.45C686.17 375.306 686.752 375.034 687.26 374.65C687.672 374.335 687.984 373.908 688.16 373.42C688.329 372.907 688.413 372.37 688.41 371.83C688.45 371.321 688.381 370.809 688.209 370.328C688.036 369.847 687.764 369.408 687.41 369.04C686.657 368.382 685.679 368.041 684.68 368.09C684.168 368.098 683.66 368.192 683.18 368.37C682.747 368.51 682.341 368.723 681.98 369C681.634 369.263 681.334 369.58 681.09 369.94C680.848 370.306 680.666 370.707 680.55 371.13C680.425 371.581 680.141 371.972 679.75 372.23C679.309 372.422 678.817 372.464 678.35 372.35L675.99 371.97Z" fill="#444444"/>
<path d="M696.87 371.97C697.003 370.822 697.342 369.708 697.87 368.68C698.353 367.778 699.009 366.979 699.8 366.33C700.592 365.689 701.498 365.204 702.47 364.9C703.517 364.582 704.606 364.423 705.7 364.43C706.804 364.415 707.903 364.587 708.95 364.94C709.857 365.251 710.695 365.733 711.42 366.36C712.092 366.95 712.63 367.676 713 368.49C713.367 369.325 713.554 370.228 713.55 371.14C713.558 371.879 713.464 372.616 713.27 373.33C713.1 373.921 712.826 374.476 712.46 374.97C712.111 375.446 711.673 375.85 711.17 376.16C710.623 376.503 710.035 376.775 709.42 376.97C710.79 377.344 712.011 378.129 712.92 379.22C713.713 380.325 714.117 381.661 714.07 383.02C714.093 384.206 713.847 385.383 713.35 386.46C712.877 387.434 712.194 388.291 711.35 388.97C710.514 389.661 709.554 390.183 708.52 390.51C707.418 390.862 706.267 391.037 705.11 391.03C703.954 391.051 702.801 390.899 701.69 390.58C700.765 390.306 699.902 389.854 699.15 389.25C698.416 388.642 697.794 387.911 697.31 387.09C696.771 386.14 696.339 385.134 696.02 384.09L698.02 383.28C698.472 383.066 698.981 383.006 699.47 383.11C699.682 383.146 699.882 383.231 700.056 383.358C700.229 383.484 700.371 383.649 700.47 383.84C700.685 384.265 700.922 384.679 701.18 385.08C701.437 385.485 701.75 385.852 702.11 386.17C702.489 386.494 702.918 386.754 703.38 386.94C703.931 387.153 704.519 387.255 705.11 387.24C705.795 387.255 706.476 387.129 707.11 386.87C707.646 386.636 708.129 386.296 708.53 385.87C708.897 385.492 709.183 385.043 709.37 384.55C709.555 384.082 709.65 383.583 709.65 383.08C709.654 382.507 709.587 381.936 709.45 381.38C709.317 380.87 709.027 380.415 708.62 380.08C708.09 379.668 707.475 379.378 706.82 379.23C705.782 379.004 704.721 378.904 703.66 378.93V375.76C704.573 375.768 705.483 375.664 706.37 375.45C706.994 375.308 707.58 375.036 708.09 374.65C708.502 374.335 708.814 373.908 708.99 373.42C709.159 372.907 709.243 372.37 709.24 371.83C709.278 371.321 709.208 370.809 709.036 370.329C708.864 369.848 708.593 369.409 708.24 369.04C707.484 368.38 706.502 368.04 705.5 368.09C705.007 368.087 704.517 368.164 704.05 368.32C703.617 368.46 703.211 368.673 702.85 368.95C702.504 369.213 702.204 369.53 701.96 369.89C701.718 370.256 701.536 370.657 701.42 371.08C701.29 371.529 701.007 371.918 700.62 372.18C700.179 372.372 699.687 372.414 699.22 372.3L696.87 371.97Z" fill="#444444"/>
<path d="M729.18 371.02C729.192 371.931 729.022 372.835 728.68 373.68C728.374 374.426 727.926 375.105 727.36 375.68C726.813 376.239 726.156 376.678 725.43 376.97C724.707 377.269 723.932 377.422 723.15 377.42C722.328 377.428 721.513 377.275 720.75 376.97C720.035 376.68 719.39 376.24 718.86 375.68C718.306 375.107 717.877 374.426 717.6 373.68C717.29 372.828 717.137 371.927 717.15 371.02C717.137 370.087 717.29 369.16 717.6 368.28C717.87 367.509 718.299 366.804 718.86 366.21C719.389 365.644 720.034 365.197 720.75 364.9C722.294 364.3 724.006 364.3 725.55 364.9C726.275 365.196 726.929 365.643 727.47 366.21C728.031 366.804 728.46 367.509 728.73 368.28C729.04 369.16 729.193 370.087 729.18 371.02V371.02ZM737.84 365.42C738.002 365.234 738.187 365.069 738.39 364.93C738.659 364.774 738.969 364.701 739.28 364.72H742.52L723.18 390.08C723.028 390.27 722.842 390.43 722.63 390.55C722.386 390.685 722.109 390.751 721.83 390.74H718.52L737.84 365.42ZM725.76 371.02C725.774 370.43 725.703 369.84 725.55 369.27C725.444 368.858 725.253 368.474 724.99 368.14C724.775 367.864 724.492 367.647 724.17 367.51C723.85 367.391 723.511 367.33 723.17 367.33C722.828 367.328 722.489 367.389 722.17 367.51C721.852 367.645 721.576 367.862 721.37 368.14C721.121 368.478 720.941 368.862 720.84 369.27C720.696 369.842 720.629 370.43 720.64 371.02C720.629 371.587 720.696 372.152 720.84 372.7C720.945 373.094 721.125 373.464 721.37 373.79C721.58 374.053 721.856 374.257 722.17 374.38C722.489 374.501 722.828 374.562 723.17 374.56C723.511 374.56 723.85 374.499 724.17 374.38C724.488 374.255 724.77 374.052 724.99 373.79C725.25 373.469 725.44 373.098 725.55 372.7C725.716 372.155 725.801 371.589 725.8 371.02H725.76ZM743.88 384.62C743.895 385.534 743.728 386.441 743.39 387.29C743.082 388.035 742.633 388.714 742.07 389.29C741.518 389.845 740.862 390.287 740.14 390.59C739.414 390.892 738.636 391.048 737.85 391.05C737.031 391.055 736.219 390.899 735.46 390.59C734.745 390.291 734.098 389.848 733.56 389.29C733.015 388.713 732.59 388.033 732.31 387.29C731.999 386.435 731.847 385.53 731.86 384.62C731.847 383.691 732 382.766 732.31 381.89C732.58 381.122 733.006 380.417 733.56 379.82C734.095 379.256 734.742 378.809 735.46 378.51C736.219 378.201 737.031 378.045 737.85 378.05C738.676 378.045 739.494 378.201 740.26 378.51C740.982 378.807 741.633 379.253 742.17 379.82C742.724 380.419 743.152 381.123 743.43 381.89C743.754 382.764 743.92 383.688 743.92 384.62H743.88ZM740.45 384.62C740.461 384.034 740.394 383.449 740.25 382.88C740.145 382.467 739.958 382.079 739.7 381.74C739.483 381.464 739.196 381.25 738.87 381.12C738.55 380.998 738.212 380.934 737.87 380.93C737.528 380.93 737.188 380.995 736.87 381.12C736.548 381.248 736.268 381.463 736.06 381.74C735.805 382.078 735.624 382.467 735.53 382.88C735.39 383.449 735.326 384.034 735.34 384.62C735.325 385.189 735.389 385.758 735.53 386.31C735.622 386.712 735.803 387.087 736.06 387.41C736.269 387.681 736.549 387.889 736.87 388.01C737.189 388.132 737.528 388.193 737.87 388.19C738.211 388.19 738.55 388.129 738.87 388.01C739.194 387.885 739.48 387.679 739.7 387.41C739.96 387.087 740.147 386.712 740.25 386.31C740.408 385.76 740.489 385.192 740.49 384.62H740.45Z" fill="#444444"/>
<path d="M582.71 663.6C582.918 663.59 583.125 663.621 583.321 663.691C583.516 663.762 583.696 663.87 583.85 664.01C583.991 664.149 584.101 664.316 584.173 664.501C584.245 664.685 584.278 664.882 584.27 665.08V667.74H566.42V666.27C566.423 665.944 566.487 665.622 566.61 665.32C566.738 664.981 566.944 664.676 567.21 664.43L575.11 656.51C575.77 655.84 576.36 655.2 576.88 654.58C577.369 654.019 577.804 653.413 578.18 652.77C578.517 652.193 578.785 651.579 578.98 650.94C579.175 650.292 579.269 649.617 579.26 648.94C579.271 648.378 579.18 647.819 578.99 647.29C578.821 646.84 578.559 646.431 578.22 646.09C577.883 645.766 577.48 645.517 577.04 645.36C576.537 645.194 576.01 645.113 575.48 645.12C574.981 645.117 574.484 645.194 574.01 645.35C573.579 645.489 573.177 645.702 572.82 645.98C572.474 646.243 572.174 646.56 571.93 646.92C571.688 647.286 571.506 647.687 571.39 648.11C571.268 648.56 570.987 648.951 570.6 649.21C570.159 649.403 569.667 649.446 569.2 649.33L566.86 648.92C566.998 647.773 567.336 646.66 567.86 645.63C568.347 644.727 569.006 643.929 569.8 643.28C570.588 642.639 571.491 642.153 572.46 641.85C573.507 641.532 574.596 641.373 575.69 641.38C576.812 641.364 577.929 641.543 578.99 641.91C579.933 642.232 580.8 642.743 581.54 643.41C582.252 644.065 582.817 644.862 583.2 645.75C583.596 646.7 583.797 647.721 583.79 648.75C583.798 649.657 583.656 650.559 583.37 651.42C583.084 652.242 582.701 653.028 582.23 653.76C581.741 654.527 581.185 655.25 580.57 655.92C579.93 656.61 579.27 657.32 578.57 658.04L572.7 664.04C573.256 663.881 573.82 663.754 574.39 663.66C574.915 663.571 575.447 663.524 575.98 663.52L582.71 663.6Z" fill="#444444"/>
<path d="M587.87 648.97C588.003 647.822 588.342 646.708 588.87 645.68C589.353 644.778 590.009 643.98 590.8 643.33C591.592 642.689 592.498 642.204 593.47 641.9C594.517 641.582 595.606 641.423 596.7 641.43C597.804 641.415 598.903 641.587 599.95 641.94C600.857 642.251 601.695 642.733 602.42 643.36C603.092 643.95 603.63 644.676 604 645.49C604.367 646.325 604.554 647.228 604.55 648.14C604.558 648.879 604.464 649.616 604.27 650.33C604.098 650.923 603.824 651.481 603.46 651.98C603.107 652.45 602.67 652.851 602.17 653.16C601.623 653.503 601.035 653.775 600.42 653.97C601.79 654.344 603.011 655.129 603.92 656.22C604.713 657.325 605.117 658.661 605.07 660.02C605.093 661.206 604.847 662.383 604.35 663.46C603.877 664.434 603.194 665.291 602.35 665.97C601.514 666.66 600.554 667.183 599.52 667.51C598.418 667.862 597.267 668.037 596.11 668.03C594.954 668.051 593.801 667.899 592.69 667.58C591.765 667.306 590.902 666.854 590.15 666.25C589.416 665.642 588.794 664.911 588.31 664.09C587.771 663.14 587.339 662.134 587.02 661.09L589.02 660.28C589.472 660.066 589.981 660.006 590.47 660.11C590.682 660.146 590.882 660.231 591.056 660.357C591.229 660.484 591.371 660.649 591.47 660.84C591.685 661.265 591.922 661.679 592.18 662.08C592.437 662.485 592.75 662.852 593.11 663.17C593.489 663.494 593.918 663.754 594.38 663.94C594.931 664.153 595.519 664.255 596.11 664.24C596.795 664.255 597.476 664.129 598.11 663.87C598.646 663.636 599.129 663.296 599.53 662.87C599.897 662.492 600.183 662.043 600.37 661.55C600.555 661.082 600.65 660.583 600.65 660.08C600.654 659.507 600.587 658.936 600.45 658.38C600.317 657.87 600.027 657.415 599.62 657.08C599.09 656.668 598.475 656.378 597.82 656.23C596.782 656.004 595.721 655.904 594.66 655.93V652.76C595.573 652.773 596.484 652.669 597.37 652.45C597.994 652.308 598.58 652.036 599.09 651.65C599.502 651.335 599.814 650.908 599.99 650.42C600.159 649.907 600.243 649.37 600.24 648.83C600.278 648.321 600.208 647.809 600.036 647.329C599.864 646.848 599.593 646.409 599.24 646.04C598.492 645.362 597.509 645.003 596.5 645.04C596.007 645.037 595.517 645.114 595.05 645.27C594.617 645.41 594.211 645.623 593.85 645.9C593.504 646.163 593.204 646.48 592.96 646.84C592.718 647.206 592.536 647.607 592.42 648.03C592.29 648.479 592.007 648.868 591.62 649.13C591.179 649.322 590.687 649.364 590.22 649.25L587.87 648.97Z" fill="#444444"/>
<path d="M620.18 648.01C620.193 648.924 620.023 649.832 619.68 650.68C619.374 651.426 618.926 652.105 618.36 652.68C617.813 653.239 617.156 653.679 616.43 653.97C615.707 654.269 614.932 654.422 614.15 654.42C613.328 654.428 612.513 654.275 611.75 653.97C611.035 653.68 610.39 653.24 609.86 652.68C609.307 652.107 608.878 651.427 608.6 650.68C608.289 649.825 608.136 648.92 608.15 648.01C608.137 647.081 608.29 646.156 608.6 645.28C608.87 644.509 609.299 643.804 609.86 643.21C610.392 642.647 611.036 642.201 611.75 641.9C613.294 641.301 615.006 641.301 616.55 641.9C617.273 642.2 617.927 642.646 618.47 643.21C619.031 643.804 619.46 644.509 619.73 645.28C620.04 646.156 620.193 647.081 620.18 648.01V648.01ZM628.84 642.42C629.002 642.234 629.187 642.069 629.39 641.93C629.66 641.774 629.969 641.701 630.28 641.72H633.52L614.18 667.08C614.028 667.27 613.842 667.43 613.63 667.55C613.386 667.685 613.109 667.751 612.83 667.74H609.52L628.84 642.42ZM616.76 648.01C616.773 647.423 616.702 646.837 616.55 646.27C616.444 645.859 616.253 645.474 615.99 645.14C615.775 644.864 615.492 644.647 615.17 644.51C614.85 644.391 614.511 644.33 614.17 644.33C613.828 644.328 613.49 644.389 613.17 644.51C612.852 644.645 612.576 644.863 612.37 645.14C612.121 645.478 611.941 645.862 611.84 646.27C611.696 646.839 611.629 647.424 611.64 648.01C611.628 648.58 611.695 649.149 611.84 649.7C611.945 650.094 612.125 650.464 612.37 650.79C612.58 651.054 612.856 651.257 613.17 651.38C613.49 651.501 613.828 651.562 614.17 651.56C614.511 651.56 614.85 651.499 615.17 651.38C615.488 651.255 615.77 651.052 615.99 650.79C616.25 650.469 616.44 650.098 616.55 649.7C616.717 649.152 616.801 648.583 616.8 648.01H616.76ZM634.88 661.62C634.895 662.534 634.729 663.441 634.39 664.29C634.082 665.035 633.634 665.714 633.07 666.29C632.518 666.845 631.862 667.287 631.14 667.59C630.414 667.892 629.636 668.048 628.85 668.05C628.031 668.055 627.219 667.899 626.46 667.59C625.745 667.291 625.098 666.848 624.56 666.29C624.015 665.713 623.59 665.033 623.31 664.29C623 663.435 622.847 662.53 622.86 661.62C622.847 660.691 623 659.766 623.31 658.89C623.58 658.122 624.006 657.417 624.56 656.82C625.095 656.256 625.742 655.81 626.46 655.51C627.219 655.201 628.031 655.045 628.85 655.05C629.676 655.045 630.494 655.202 631.26 655.51C631.982 655.807 632.633 656.253 633.17 656.82C633.724 657.419 634.152 658.123 634.43 658.89C634.754 659.764 634.92 660.688 634.92 661.62H634.88ZM631.45 661.62C631.462 661.034 631.394 660.448 631.25 659.88C631.145 659.467 630.958 659.079 630.7 658.74C630.483 658.464 630.196 658.25 629.87 658.12C629.551 657.998 629.212 657.934 628.87 657.93C628.528 657.93 628.189 657.995 627.87 658.12C627.548 658.248 627.268 658.463 627.06 658.74C626.805 659.078 626.624 659.467 626.53 659.88C626.39 660.449 626.326 661.034 626.34 661.62C626.326 662.193 626.39 662.765 626.53 663.32C626.624 663.718 626.805 664.09 627.06 664.41C627.269 664.682 627.549 664.889 627.87 665.01C628.189 665.132 628.528 665.193 628.87 665.19C629.211 665.19 629.55 665.129 629.87 665.01C630.194 664.885 630.48 664.679 630.7 664.41C630.958 664.089 631.145 663.718 631.25 663.32C631.407 662.767 631.488 662.195 631.49 661.62H631.45Z" fill="#444444"/>
<path d="M641.72 302.85C663.26 324.68 668.21 357.85 654.23 384.04C639.74 411.22 607.87 425.43 577.12 418.32" stroke="#444444" stroke-width="4" stroke-miterlimit="10"/>
<path d="M593.17 404.3L595.33 407.67L578.7 418.28L590.5 434.09L587.29 436.48L572.92 417.22L593.17 404.3Z" fill="#444444"/>
<path d="M531.72 575.85C553.26 597.68 558.21 630.85 544.23 657.04C529.74 684.22 497.87 698.43 467.12 691.32" stroke="#444444" stroke-width="4" stroke-miterlimit="10"/>
<path d="M483.17 677.3L485.33 680.67L468.7 691.28L480.5 707.09L477.29 709.48L462.93 690.22L483.17 677.3Z" fill="#444444"/>
<path d="M241.732 192.388H234.604V186.556C234.604 185.332 234.64 184.468 234.748 183.676H230.428C230.572 184.576 230.608 185.548 230.608 186.844V193.972C230.608 194.8 230.572 195.484 230.5 196.276C231.364 196.204 232.12 196.168 233.092 196.168H241.732V207.976H233.272V202.144C233.272 200.704 233.308 199.912 233.452 199.048H229.096C229.204 199.984 229.276 201.1 229.276 202.504V210.136C229.276 211.576 229.204 212.656 229.06 213.736H233.272V211.864H254.692V213.736H258.904C258.76 212.764 258.688 211.828 258.688 210.136V202.36C258.688 200.92 258.76 199.876 258.868 198.94H254.512C254.656 199.84 254.692 200.776 254.692 202V207.976H245.8V196.168H255.088C255.952 196.168 256.816 196.204 257.608 196.276C257.536 195.7 257.5 194.908 257.5 193.972V186.808C257.5 185.476 257.536 184.756 257.68 183.676H253.36C253.468 184.54 253.504 185.332 253.504 186.52V192.388H245.8V184.504C245.8 182.848 245.872 181.984 246.016 180.94H241.516C241.66 181.876 241.732 182.776 241.732 184.504V192.388ZM272.188 183.28H267.796C266.176 183.28 264.988 183.208 263.836 183.064V186.916C264.916 186.772 266.032 186.7 267.796 186.7H272.188V187.24C272.188 187.924 272.152 188.284 272.044 188.968H276.04C275.932 188.356 275.932 188.068 275.932 187.168V186.7H283.528V187.42C283.528 188.176 283.492 188.608 283.42 189.148H287.38C287.308 188.5 287.272 188.104 287.272 187.348V186.7H292.204C294.004 186.7 294.976 186.736 296.128 186.916V183.064C295.012 183.208 293.824 183.28 292.204 183.28H287.272V182.524C287.272 181.732 287.308 181.336 287.38 180.688H283.384C283.492 181.372 283.528 181.804 283.528 182.524V183.28H275.932V182.524C275.932 181.732 275.968 181.336 276.04 180.688H272.044C272.152 181.408 272.188 181.768 272.188 182.488V183.28ZM289.18 193.828V208.948C289.18 209.776 288.928 209.956 287.74 209.956C286.516 209.956 284.896 209.812 283.096 209.524C283.636 210.892 283.852 211.792 284.032 213.484C285.4 213.592 286.336 213.628 287.488 213.628C289.684 213.628 290.944 213.448 291.736 213.016C292.672 212.476 293.14 211.396 293.14 209.74V193.828C294.688 193.864 295.3 193.864 296.308 193.972V190.156C295.228 190.3 294.004 190.372 292.168 190.372H278.56C276.76 190.372 275.536 190.336 274.42 190.192V193.972C275.536 193.864 276.58 193.828 278.56 193.828H289.18ZM277.948 209.56V207.256H283.528C284.86 207.256 285.508 207.292 286.264 207.364C286.192 206.716 286.156 206.104 286.156 204.772V199.228C286.156 197.644 286.192 197.032 286.264 196.24C285.436 196.348 284.716 196.384 283.204 196.384H277.372C275.824 196.384 275.212 196.348 274.276 196.24C274.348 196.996 274.384 197.824 274.384 199.336V206.824C274.384 207.868 274.348 208.768 274.24 209.56H277.948ZM277.948 199.588H282.664V204.052H277.948V199.588ZM267.472 210.028C267.472 211.72 267.436 212.62 267.256 214.06H271.54C271.396 212.62 271.324 211.504 271.324 210.028V195.628C272.44 193.684 273.124 192.28 273.592 191.128C273.916 190.3 273.916 190.3 274.132 189.976L270.424 188.392C270.208 189.508 269.776 190.624 268.948 192.208C267.508 195.016 265.384 197.536 262.828 199.444C263.404 200.272 264.016 201.64 264.592 203.332C265.996 202.072 266.68 201.352 267.58 200.128C267.508 201.856 267.472 202.828 267.472 204.016V210.028ZM302.752 192.496C303.292 192.424 303.436 192.424 304.336 192.388C308.62 192.316 313.948 191.956 317.116 191.524C319.492 195.952 319.528 196.06 321.004 198.076C319.204 197.356 317.116 196.996 314.776 196.996C310.672 196.996 307.684 197.824 305.596 199.588C303.94 200.992 303.004 202.9 303.004 204.952C303.004 206.752 303.76 208.516 305.128 209.812C306.964 211.576 310.528 212.548 315.136 212.548C318.736 212.548 322.084 211.972 326.548 210.604L325.972 205.996C323.164 207.472 318.952 208.408 315.136 208.408C310.24 208.408 307.576 207.112 307.576 204.772C307.576 202.216 310.456 200.74 315.352 200.74C317.512 200.74 319.42 201.028 321.04 201.568C322.048 201.928 322.624 202.288 323.524 203.116L327.7 201.208C326.44 199.516 324.856 197.176 323.884 195.52C323.524 194.872 322.696 193.36 321.4 190.948C324.388 190.372 326.152 190.012 326.692 189.868C327.916 189.616 328.312 189.508 329.248 189.364L328.744 185.08C326.836 185.8 323.632 186.556 319.924 187.204C318.808 184.576 318.16 182.668 317.944 181.444L313.3 182.056C313.48 182.344 315.028 186.16 315.64 187.744C313.408 188.032 308.62 188.356 305.92 188.356C304.444 188.356 303.508 188.32 302.428 188.176L302.752 192.496ZM345.916 194.044C345.952 193.612 345.988 193.396 345.988 193.396L346.06 191.272C346.276 190.984 346.348 190.912 346.492 190.696C346.816 190.228 346.816 190.228 346.996 190.048C347.536 189.4 347.68 189.256 348.04 188.968L346.708 187.456C346.456 187.528 346.312 187.6 346.276 187.6C346.348 185.404 346.384 185.116 346.42 184.396C346.492 183.676 346.528 183.208 346.528 183.028C346.564 182.2 346.564 182.128 346.672 181.696L342.1 181.624C342.208 182.452 342.208 182.704 342.208 183.64C342.208 184.468 342.172 185.584 342.172 186.592C342.136 187.42 342.136 187.42 342.1 187.96C340.408 188.068 338.428 188.176 337.744 188.176C337.24 188.176 336.916 188.176 336.268 188.104L336.484 192.172C337.456 191.992 338.176 191.92 341.992 191.668C341.992 192.64 341.956 192.712 341.956 193.54C341.884 194.944 341.884 195.34 341.848 197.068C341.164 197.824 341.164 197.824 337.78 201.172C336.844 202.108 336.268 202.648 335.44 203.224L337.528 207.508C337.888 206.968 338.392 206.356 339.184 205.456C341.02 203.404 341.416 202.936 341.74 202.432L341.812 202.396C341.74 203.368 341.74 203.368 341.74 207.22C341.704 211.468 341.704 211.468 341.488 212.944H346.132C345.988 211.612 345.988 211.504 345.952 207.004C345.916 203.008 345.916 203.008 345.916 202.72C345.916 201.712 345.916 200.704 345.988 199.084C347.356 197.428 349.912 195.16 352.54 193.216C354.304 191.956 355.852 191.272 357.004 191.272C357.976 191.272 358.48 191.74 358.48 192.604C358.48 193.432 358.264 194.836 357.724 197.14C356.392 203.116 356.248 204.088 356.248 206.176C356.248 208.372 356.824 209.704 358.12 210.712C358.912 211.288 360.028 211.648 361.216 211.648C363.196 211.648 364.96 210.82 366.544 209.056C367.48 208.048 367.984 207.364 369.064 205.492C367.876 203.836 367.444 203.08 366.652 201.172C366.22 202.468 365.428 204.016 364.564 205.276C363.808 206.392 362.836 207.112 362.044 207.112C361.108 207.112 360.568 206.464 360.568 205.312C360.568 204.16 360.856 202.648 362.08 197.212C362.728 194.44 362.98 192.892 362.98 191.704C362.98 188.824 360.964 186.916 357.94 186.916C355.744 186.916 353.476 187.924 350.344 190.3C347.752 192.244 346.996 192.892 345.952 194.044H345.916ZM373.348 191.272C373.672 191.236 373.852 191.236 374.032 191.236C374.32 191.236 374.824 191.236 375.472 191.272C376.084 191.308 376.444 191.308 376.624 191.308H378.712C378.784 191.308 378.928 191.308 379.18 191.272C377.992 197.68 375.22 206.068 372.736 210.64L377.272 212.404C379.648 206.032 380.26 204.232 381.304 200.488C382.24 197.212 383.14 193.396 383.536 191.164C384.724 191.128 387.604 190.768 389.44 190.408C390.304 190.264 390.304 190.264 390.592 190.228L390.412 186.088C388.612 186.628 386.92 186.916 384.256 187.168C384.4 186.34 384.436 186.124 384.616 185.116C385.048 182.488 385.048 182.488 385.3 181.66L380.548 181.228C380.584 181.516 380.584 181.732 380.584 181.876C380.584 182.884 380.224 185.656 379.9 187.384C379.072 187.42 378.676 187.42 378.244 187.42C376.156 187.42 374.716 187.312 373.42 187.096L373.348 191.272ZM401.896 192.064C399.628 192.028 399.304 192.028 398.332 192.028C394.444 192.028 392.716 192.208 387.604 193.18L387.928 197.14C391.492 196.348 393.868 196.096 397.432 196.096C399.232 196.096 400.24 196.168 401.968 196.348L401.896 192.064ZM387.712 199.624C385.732 202.324 385.048 203.944 385.048 205.852C385.048 207.652 386.056 209.38 387.604 210.28C389.332 211.252 391.636 211.72 394.84 211.72C396.964 211.72 398.548 211.576 401.536 211.144C402.364 211 402.652 210.964 403.3 210.892L402.976 206.464C400.888 207.22 397.432 207.796 394.804 207.796C391.204 207.796 389.404 206.86 389.404 205.024C389.404 203.764 389.836 202.864 391.276 201.064L387.712 199.624ZM420.868 203.116C422.344 205.528 423.748 207.112 426.124 208.984C429.292 211.504 433.072 213.052 438.724 214.168C439.192 212.8 439.66 211.756 440.56 210.172C437.212 209.812 434.944 209.308 432.388 208.336C434.548 206.896 436.528 205.384 438.796 203.368L435.16 201.424C434.836 201.784 434.764 201.892 434.476 202.216C434.44 201.64 434.44 201.316 434.44 200.596V193.108C434.44 192.604 434.44 192.388 434.44 191.812C436.024 192.64 437.248 193.216 439.192 193.936C439.696 192.352 440.236 191.164 440.992 189.94C437.896 189.076 434.908 187.78 432.244 186.16C429.544 184.54 427.672 182.956 425.836 180.796H421.588C418.42 184.72 413.128 188.068 406.9 190.048C407.836 191.704 408.016 192.1 408.664 193.972C410.68 193.144 411.472 192.784 413.164 191.92C413.2 192.856 413.2 193.108 413.2 193.54V209.776C411.76 209.956 409.6 210.136 409.132 210.136C409.096 210.136 409.024 210.136 408.952 210.136H408.592L409.276 214.276C409.996 214.096 410.464 214.024 410.932 213.916C417.376 212.836 420.184 212.296 424 211.396V207.94C420.724 208.66 420.436 208.696 416.98 209.236V203.116H420.868ZM431.308 203.116C432.1 203.116 432.712 203.116 433.504 203.152C431.884 204.628 430.804 205.42 428.896 206.608C427.312 205.6 426.16 204.52 425.152 203.116H431.308ZM416.656 189.832C419.572 187.96 421.732 186.124 423.748 183.82C425.8 186.088 427.996 187.924 431.056 189.832H425.512V188.788C425.512 187.78 425.548 187.276 425.656 186.628H421.696C421.84 187.204 421.876 187.78 421.876 188.788V189.832H416.656ZM416.98 193.072H430.66V194.872H416.98V193.072ZM416.98 197.932H430.66V199.948H416.98V197.932ZM449.308 191.596C449.308 192.928 449.272 193.9 449.164 194.908C450.244 194.8 451.036 194.764 452.908 194.764H467.164C469.072 194.764 469.792 194.8 470.908 194.908C470.8 193.936 470.764 193.036 470.764 191.56V184.9C470.764 183.532 470.8 182.632 470.908 181.732C469.972 181.876 468.82 181.912 466.804 181.912H453.232C451.288 181.912 450.244 181.876 449.164 181.732C449.272 182.668 449.308 183.64 449.308 184.936V191.596ZM453.16 185.512H466.876V191.272H453.16V185.512ZM444.52 210.064C444.52 211.936 444.484 212.908 444.34 213.952H448.336V212.08H454.6V213.376H458.488C458.38 212.584 458.344 211.612 458.344 210.136V200.524C458.344 198.688 458.344 198.148 458.452 197.392C457.588 197.464 456.796 197.5 455.752 197.5H447.868C446.392 197.5 445.456 197.464 444.376 197.356C444.484 198.4 444.52 199.516 444.52 200.812V210.064ZM448.3 200.992H454.6V208.588H448.3V200.992ZM463.672 197.5C462.592 197.5 461.836 197.464 461.008 197.392C461.08 198.148 461.08 198.724 461.08 200.344V210.748C461.08 212.224 461.044 212.944 460.972 213.952H464.824V212.08H471.664V213.952H475.696C475.552 212.98 475.516 212.044 475.516 210.1V200.812C475.516 199.336 475.552 198.364 475.66 197.356C474.76 197.464 473.932 197.5 472.456 197.5H463.672ZM464.824 200.992H471.7V208.588H464.824V200.992Z" fill="white"/>
<path d="M283.446 241.28C282.462 241.448 281.862 241.688 281.07 242.24C279.75 243.176 279.102 244.496 279.102 246.176C279.102 247.616 279.606 248.912 280.494 249.776C281.862 251.096 283.782 251.696 286.566 251.696C291.486 251.696 294.174 249.728 294.174 246.152C294.174 244.568 293.622 243.32 292.494 242.408C291.702 241.736 290.982 241.424 289.902 241.28C292.086 240.656 293.358 239.024 293.358 236.792C293.358 235.928 293.118 235.064 292.71 234.392C291.678 232.712 289.542 231.776 286.638 231.776C282.534 231.776 279.942 233.72 279.942 236.792C279.942 238.016 280.374 239.192 281.118 239.96C281.814 240.656 282.438 241.016 283.446 241.28ZM286.638 234.368C288.774 234.368 290.118 235.448 290.118 237.152C290.118 238.904 288.822 239.984 286.686 239.984C284.502 239.984 283.158 238.88 283.158 237.128C283.158 235.448 284.526 234.368 286.638 234.368ZM286.59 249.056C283.998 249.056 282.462 247.904 282.462 245.936C282.462 243.944 284.046 242.72 286.638 242.72C289.23 242.72 290.79 243.92 290.79 245.912C290.79 247.928 289.278 249.056 286.59 249.056ZM300.172 247.784H296.644V251.288H298.66C298.636 252.776 298.3 253.208 296.836 253.616L297.7 254.888C299.644 254.12 300.172 253.352 300.172 251.288V247.784ZM310.168 251.672C312.664 251.672 314.656 250.712 316 248.84C317.128 247.28 317.776 244.688 317.776 241.736C317.776 239.768 317.464 237.848 316.84 236.168C316.528 235.304 315.976 234.464 315.256 233.744C313.984 232.472 312.232 231.8 310.192 231.8C307.528 231.8 305.368 232.976 304.072 235.136C303.184 236.6 302.608 239.24 302.608 241.784C302.608 243.728 302.92 245.6 303.544 247.304C303.856 248.168 304.408 249.008 305.128 249.728C306.4 251 308.128 251.672 310.168 251.672ZM310.192 248.888C308.872 248.888 307.864 248.384 307.12 247.328C306.352 246.224 305.896 244.136 305.896 241.616C305.896 239 306.424 237.032 307.48 235.784C308.176 234.944 309.016 234.56 310.168 234.56C311.248 234.56 312.208 234.92 312.784 235.568C313.864 236.744 314.464 238.928 314.464 241.712C314.464 244.52 313.864 246.752 312.784 247.88C312.184 248.528 311.248 248.888 310.192 248.888ZM324.086 241.28C323.102 241.448 322.502 241.688 321.71 242.24C320.39 243.176 319.742 244.496 319.742 246.176C319.742 247.616 320.246 248.912 321.134 249.776C322.502 251.096 324.422 251.696 327.206 251.696C332.126 251.696 334.814 249.728 334.814 246.152C334.814 244.568 334.262 243.32 333.134 242.408C332.342 241.736 331.622 241.424 330.542 241.28C332.726 240.656 333.998 239.024 333.998 236.792C333.998 235.928 333.758 235.064 333.35 234.392C332.318 232.712 330.182 231.776 327.278 231.776C323.174 231.776 320.582 233.72 320.582 236.792C320.582 238.016 321.014 239.192 321.758 239.96C322.454 240.656 323.078 241.016 324.086 241.28ZM327.278 234.368C329.414 234.368 330.758 235.448 330.758 237.152C330.758 238.904 329.462 239.984 327.326 239.984C325.142 239.984 323.798 238.88 323.798 237.128C323.798 235.448 325.166 234.368 327.278 234.368ZM327.23 249.056C324.638 249.056 323.102 247.904 323.102 245.936C323.102 243.944 324.686 242.72 327.278 242.72C329.87 242.72 331.43 243.92 331.43 245.912C331.43 247.928 329.918 249.056 327.23 249.056ZM341.172 241.28C340.188 241.448 339.588 241.688 338.796 242.24C337.476 243.176 336.828 244.496 336.828 246.176C336.828 247.616 337.332 248.912 338.22 249.776C339.588 251.096 341.508 251.696 344.292 251.696C349.212 251.696 351.9 249.728 351.9 246.152C351.9 244.568 351.348 243.32 350.22 242.408C349.428 241.736 348.708 241.424 347.628 241.28C349.812 240.656 351.084 239.024 351.084 236.792C351.084 235.928 350.844 235.064 350.436 234.392C349.404 232.712 347.268 231.776 344.364 231.776C340.26 231.776 337.668 233.72 337.668 236.792C337.668 238.016 338.1 239.192 338.844 239.96C339.54 240.656 340.164 241.016 341.172 241.28ZM344.364 234.368C346.5 234.368 347.844 235.448 347.844 237.152C347.844 238.904 346.548 239.984 344.412 239.984C342.228 239.984 340.884 238.88 340.884 237.128C340.884 235.448 342.252 234.368 344.364 234.368ZM344.316 249.056C341.724 249.056 340.188 247.904 340.188 245.936C340.188 243.944 341.772 242.72 344.364 242.72C346.956 242.72 348.516 243.92 348.516 245.912C348.516 247.928 347.004 249.056 344.316 249.056ZM360.97 234.656C360.898 237.608 360.874 237.848 360.634 239.432C360.154 242.624 359.122 245.168 357.442 247.352C356.386 248.72 355.498 249.512 353.746 250.64C354.61 251.336 355.21 252.032 355.762 252.944C357.922 251.408 359.194 250.088 360.466 248.072C361.834 245.864 362.626 243.752 363.13 240.896H370.594C370.426 245.072 370.09 248 369.61 249.176C369.346 249.848 368.914 250.04 367.738 250.04C366.802 250.04 365.362 249.848 363.97 249.56C364.354 250.52 364.498 251.216 364.618 252.296C366.73 252.464 367.234 252.488 368.026 252.488C370.402 252.488 371.458 251.96 372.058 250.472C372.658 249.008 373.138 245.192 373.306 240.968C373.378 238.832 373.378 238.808 373.45 238.256C372.73 238.352 371.794 238.376 370.378 238.376H363.49C363.634 237.056 363.658 236.528 363.706 234.656H372.706C373.786 234.656 374.818 234.704 375.754 234.8V231.968C374.818 232.064 373.834 232.112 372.682 232.112H357.25C356.074 232.112 355.066 232.064 354.178 231.968V234.8C355.162 234.704 356.17 234.656 357.274 234.656H360.97ZM386.554 252.08C386.482 251.288 386.458 250.664 386.458 249.416V243.08C386.458 242.408 386.434 242.12 386.362 241.448C386.554 241.568 386.626 241.592 387.178 241.856C391.186 243.704 393.682 245.072 395.674 246.44L397.354 243.608C393.514 241.448 389.746 239.696 386.458 238.544V234.08C386.458 232.592 386.458 232.28 386.554 231.56H383.266C383.362 232.208 383.41 232.832 383.41 234.008V249.392C383.41 250.664 383.386 251.312 383.266 252.08H386.554ZM403.834 235.592C406.066 236.84 408.034 238.424 409.954 240.464L412.018 237.848C410.17 236.096 408.682 234.992 405.826 233.216L403.834 235.592ZM404.674 251.432C405.226 251.24 405.298 251.216 406.258 251.024C409.978 250.232 412.954 249.056 415.402 247.424C418.69 245.24 420.97 242.408 423.01 238.016C421.786 237.152 421.402 236.792 420.466 235.664C419.746 237.608 419.074 238.928 418.018 240.464C416.122 243.2 413.89 245.048 410.89 246.344C408.706 247.304 405.85 248 403.786 248.12L404.674 251.432Z" fill="white"/>
<path d="M290.19 524.288C291.726 524.288 292.686 524.336 293.814 524.432V521.264C293.022 521.384 291.822 521.456 290.31 521.456H283.59C283.95 520.544 284.238 520.064 284.958 519.296C285.558 518.648 286.758 517.64 287.814 516.896C290.934 514.76 291.174 514.568 291.846 513.944C293.022 512.84 293.55 511.688 293.55 510.104C293.55 506.816 290.958 504.8 286.758 504.8C284.358 504.8 282.462 505.544 281.262 506.936C280.374 507.968 279.942 508.952 279.606 510.776L283.038 511.184C283.206 510.08 283.374 509.552 283.782 508.976C284.382 508.04 285.438 507.56 286.83 507.56C288.87 507.56 290.142 508.568 290.142 510.2C290.142 511.424 289.47 512.216 287.262 513.728C284.862 515.336 284.142 515.888 283.302 516.632C281.742 518.048 280.662 519.584 280.014 521.336C279.702 522.2 279.534 523.04 279.39 524.408C280.23 524.312 280.614 524.288 282.486 524.288H290.19ZM300.172 520.784H296.644V524.288H298.66C298.636 525.776 298.3 526.208 296.836 526.616L297.7 527.888C299.644 527.12 300.172 526.352 300.172 524.288V520.784ZM317.248 505.064C316.384 505.16 315.76 505.184 313.96 505.184H306.328C304.912 505.184 304.144 505.136 303.04 505.016V508.184C304.024 508.064 304.768 508.016 306.184 508.016H313.6C311.488 510.992 310.504 512.624 309.4 515C308.008 517.976 307.288 520.28 306.496 524.288H310.288C310.936 519.224 312.208 515.552 314.752 511.304C315.784 509.576 316.48 508.592 317.248 507.848V505.064ZM320.15 520.016C320.678 521.36 321.014 521.936 321.662 522.632C322.982 524.048 324.758 524.72 327.134 524.72C331.598 524.72 334.358 522.104 334.358 517.88C334.358 515.96 333.83 514.52 332.654 513.368C331.478 512.144 329.918 511.568 327.974 511.568C326.318 511.568 325.046 512.024 323.87 513.032C323.942 512.552 323.99 512.216 324.014 512.024L324.398 507.824H330.038C331.358 507.824 332.294 507.872 333.35 508.016V504.992C332.27 505.16 331.67 505.184 330.014 505.184H324.11C322.838 505.184 322.286 505.16 321.566 505.112C321.542 506.312 321.494 507.128 321.47 507.56L320.918 513.512C320.87 514.184 320.846 514.304 320.606 516.008L323.606 516.296C323.822 515.768 323.99 515.552 324.326 515.216C325.07 514.496 326.126 514.112 327.302 514.112C329.582 514.112 331.07 515.624 331.07 517.976C331.07 520.352 329.51 521.936 327.134 521.936C325.862 521.936 324.854 521.528 324.182 520.712C323.846 520.328 323.678 520.016 323.462 519.32L320.15 520.016ZM337.284 520.52C337.98 521.912 338.436 522.536 339.252 523.184C340.452 524.144 341.868 524.576 343.884 524.576C346.164 524.576 347.724 524.024 348.996 522.752C350.58 521.216 351.54 518.048 351.54 514.424C351.54 512.456 351.3 510.752 350.844 509.456C349.836 506.528 347.316 504.728 344.244 504.728C342.588 504.728 341.148 505.088 340.044 505.784C338.076 506.984 336.996 508.976 336.996 511.424C336.996 515.288 339.54 517.736 343.524 517.736C345.108 517.736 346.332 517.376 347.412 516.632C347.964 516.224 348.228 515.936 348.684 515.264C348.564 518.096 348.012 519.824 346.812 520.976C346.14 521.648 345.252 521.96 344.1 521.96C342.876 521.96 341.94 521.624 341.34 520.976C341.052 520.664 340.884 520.352 340.596 519.656L337.284 520.52ZM344.004 515.144C341.676 515.144 340.188 513.632 340.188 511.304C340.188 509 341.796 507.368 344.1 507.368C346.476 507.368 348.132 508.976 348.132 511.232C348.132 513.464 346.356 515.144 344.004 515.144ZM360.97 507.656C360.898 510.608 360.874 510.848 360.634 512.432C360.154 515.624 359.122 518.168 357.442 520.352C356.386 521.72 355.498 522.512 353.746 523.64C354.61 524.336 355.21 525.032 355.762 525.944C357.922 524.408 359.194 523.088 360.466 521.072C361.834 518.864 362.626 516.752 363.13 513.896H370.594C370.426 518.072 370.09 521 369.61 522.176C369.346 522.848 368.914 523.04 367.738 523.04C366.802 523.04 365.362 522.848 363.97 522.56C364.354 523.52 364.498 524.216 364.618 525.296C366.73 525.464 367.234 525.488 368.026 525.488C370.402 525.488 371.458 524.96 372.058 523.472C372.658 522.008 373.138 518.192 373.306 513.968C373.378 511.832 373.378 511.808 373.45 511.256C372.73 511.352 371.794 511.376 370.378 511.376H363.49C363.634 510.056 363.658 509.528 363.706 507.656H372.706C373.786 507.656 374.818 507.704 375.754 507.8V504.968C374.818 505.064 373.834 505.112 372.682 505.112H357.25C356.074 505.112 355.066 505.064 354.178 504.968V507.8C355.162 507.704 356.17 507.656 357.274 507.656H360.97ZM386.554 525.08C386.482 524.288 386.458 523.664 386.458 522.416V516.08C386.458 515.408 386.434 515.12 386.362 514.448C386.554 514.568 386.626 514.592 387.178 514.856C391.186 516.704 393.682 518.072 395.674 519.44L397.354 516.608C393.514 514.448 389.746 512.696 386.458 511.544V507.08C386.458 505.592 386.458 505.28 386.554 504.56H383.266C383.362 505.208 383.41 505.832 383.41 507.008V522.392C383.41 523.664 383.386 524.312 383.266 525.08H386.554ZM403.834 508.592C406.066 509.84 408.034 511.424 409.954 513.464L412.018 510.848C410.17 509.096 408.682 507.992 405.826 506.216L403.834 508.592ZM404.674 524.432C405.226 524.24 405.298 524.216 406.258 524.024C409.978 523.232 412.954 522.056 415.402 520.424C418.69 518.24 420.97 515.408 423.01 511.016C421.786 510.152 421.402 509.792 420.466 508.664C419.746 510.608 419.074 511.928 418.018 513.464C416.122 516.2 413.89 518.048 410.89 519.344C408.706 520.304 405.85 521 403.786 521.12L404.674 524.432Z" fill="#444444"/>
<path d="M240.084 473.884C240.084 474.244 240.084 474.496 240.048 475H236.448C234.936 475 234.108 474.964 233.208 474.856V478.384C234.18 478.24 235.08 478.204 236.556 478.204H239.76C239.436 479.788 238.716 480.94 237.456 481.84C236.124 482.812 234.756 483.28 231.66 483.748C232.776 485.152 233.172 485.764 233.748 487.132C236.952 486.304 238.932 485.44 240.444 484.144C242.136 482.704 242.964 481.012 243.432 478.204H247.248V483.388C247.248 486.016 248.22 486.556 252.936 486.556C255.816 486.556 257.076 486.304 257.76 485.584C258.588 484.756 258.948 483.424 259.164 480.436C257.76 480.256 256.932 480.04 255.708 479.5C255.708 481.12 255.6 482.02 255.456 482.488C255.204 483.1 254.844 483.208 253.116 483.208C251.136 483.208 250.92 483.1 250.92 482.236V478.204H255.528C257.004 478.204 257.868 478.24 258.876 478.384V474.856C257.976 474.964 257.328 475 255.6 475H250.92V472.264C251.82 472.264 252.468 472.3 253.188 472.408V470.86C254.88 471.796 255.816 472.228 258.156 473.092C258.696 471.832 259.272 470.752 260.064 469.6C257.616 468.808 256.644 468.448 255.24 467.764C256.68 466.648 257.868 465.568 259.092 464.2L256.248 462.616C255.204 464.092 254.304 464.992 252.648 466.288C251.892 465.784 251.712 465.676 250.884 465.028C252.144 464.056 253.548 462.688 254.664 461.392L251.928 459.88C251.208 460.996 250.308 461.932 248.688 463.192C247.788 462.328 247.32 461.716 246.96 460.816C246.168 460.888 245.556 460.924 244.08 460.924H239.832C238.608 460.924 237.888 460.888 237.096 460.78V464.092C237.852 463.984 238.608 463.948 239.832 463.948H242.136C241.308 464.92 240.732 465.424 239.436 466.396C237.996 464.992 237.24 464.38 234.9 462.832L232.704 464.884C234.324 465.82 235.8 467.008 236.772 468.052C234.972 469.024 234.252 469.348 232.272 469.996C232.416 463.444 232.416 463.444 232.416 461.68V459.592H255.204C256.716 459.592 257.832 459.664 259.128 459.772V455.992C258.012 456.136 256.392 456.208 254.952 456.208H245.772V455.704C245.772 454.804 245.808 454.192 245.952 453.58H241.668C241.776 454.228 241.848 454.84 241.848 455.632V456.208H232.992C230.652 456.208 229.68 456.172 228.42 456.028C228.528 457.036 228.564 457.792 228.6 459.232C228.6 459.736 228.6 460.312 228.6 460.708C228.6 467.944 228.42 473.092 228.096 475.756C227.628 479.212 227.016 481.156 225.54 483.604C226.872 484.828 227.376 485.404 228.528 486.952C229.356 485.548 229.716 484.9 230.076 484C230.58 482.704 231.192 480.652 231.48 479.068C231.876 476.944 232.164 473.56 232.236 470.356C233.1 471.256 233.568 472.012 234.072 473.236C236.412 472.156 237.24 471.76 238.644 470.896V472.408C239.148 472.336 239.364 472.336 240.084 472.3V473.884ZM243.72 472.264H247.248V475H243.72C243.72 474.568 243.72 474.352 243.72 474.1V472.264ZM241.236 469.168C243.144 467.728 244.296 466.576 245.628 464.776C247.5 466.792 248.436 467.62 250.596 469.168H241.776H241.236ZM280.692 466.468C280.692 465.496 280.692 465.208 280.8 464.632H276.768C276.876 465.46 276.876 465.712 276.876 466.468H271.224C271.224 465.82 271.26 465.244 271.296 464.92H267.408C267.516 465.496 267.516 465.784 267.516 466.468H266.292C264.528 466.468 263.7 466.432 262.512 466.252V469.78C263.664 469.6 264.312 469.564 266.292 469.564H267.516V471.796C267.516 472.84 267.48 473.488 267.444 473.74C267.444 473.848 267.444 473.992 267.408 474.208C268.704 474.136 269.46 474.1 270.252 474.1H276.876V475.648H266.904C264.78 475.648 263.772 475.612 262.872 475.468V478.888C264.348 478.78 264.924 478.744 266.796 478.744H274.428C271.152 480.868 266.94 482.416 262.224 483.28C263.34 484.756 263.52 485.044 264.24 486.7C266.94 485.944 268.596 485.368 270.864 484.36C273.06 483.352 274.32 482.596 276.984 480.652C276.912 481.588 276.876 482.74 276.876 483.28V484.648C276.876 485.908 276.84 486.304 276.66 487.312H280.908C280.764 486.736 280.692 485.8 280.692 484.612V483.316C280.62 481.696 280.584 480.796 280.584 480.616C284.976 483.748 288.072 485.152 294.048 486.7C294.588 485.332 294.912 484.72 295.992 483.136C293.904 482.848 291.6 482.308 289.404 481.588C287.316 480.868 285.372 479.968 283.356 478.744H291.276C293.148 478.744 293.76 478.78 295.272 478.888V475.468C294.156 475.612 293.616 475.648 291.312 475.648H280.692V474.1H287.424C288.18 474.1 288.9 474.136 290.232 474.208C290.16 473.452 290.124 472.876 290.124 471.796V469.564H291.708C293.112 469.564 294.444 469.636 295.452 469.78V466.252C294.336 466.432 293.508 466.468 291.708 466.468H290.124C290.124 466.288 290.124 466.252 290.16 465.928C290.16 465.82 290.16 465.676 290.16 465.532C290.16 465.28 290.196 465.208 290.196 464.992C290.556 465.316 290.556 465.316 291.024 465.748L293.688 463.372C290.916 461.356 289.908 460.708 287.568 459.232H291.312C293.184 459.232 293.544 459.232 295.056 459.412V455.812C293.976 455.956 292.968 456.028 291.348 456.028H280.62V455.776C280.62 454.804 280.656 454.3 280.8 453.436H276.48C276.624 454.228 276.66 454.84 276.66 455.812V456.028H266.724C264.996 456.028 263.844 455.956 262.872 455.812V459.412C263.52 459.304 265.032 459.232 266.58 459.232H273.024C272.592 459.772 271.908 460.456 271.044 461.176C270.18 461.212 268.884 461.212 267.192 461.212C266.256 461.212 265.788 461.212 264.564 461.14L264.924 464.344C267.012 464.272 267.12 464.236 268.056 464.236C280.044 463.876 280.044 463.876 288.252 463.336C289.08 464.02 289.476 464.344 290.124 464.92H286.344C286.38 465.316 286.416 465.964 286.416 466.468H280.692ZM276.876 471.292H271.224V469.564H276.876V471.292ZM280.692 471.292V469.564H286.416V471.292H280.692ZM282.456 459.232C283.572 459.952 283.824 460.132 284.76 460.78C281.664 460.96 278.676 461.104 275.616 461.14C276.3 460.564 276.912 459.988 277.632 459.232H282.456ZM301.752 465.496C302.292 465.424 302.436 465.424 303.336 465.388C307.62 465.316 312.948 464.956 316.116 464.524C318.492 468.952 318.528 469.06 320.004 471.076C318.204 470.356 316.116 469.996 313.776 469.996C309.672 469.996 306.684 470.824 304.596 472.588C302.94 473.992 302.004 475.9 302.004 477.952C302.004 479.752 302.76 481.516 304.128 482.812C305.964 484.576 309.528 485.548 314.136 485.548C317.736 485.548 321.084 484.972 325.548 483.604L324.972 478.996C322.164 480.472 317.952 481.408 314.136 481.408C309.24 481.408 306.576 480.112 306.576 477.772C306.576 475.216 309.456 473.74 314.352 473.74C316.512 473.74 318.42 474.028 320.04 474.568C321.048 474.928 321.624 475.288 322.524 476.116L326.7 474.208C325.44 472.516 323.856 470.176 322.884 468.52C322.524 467.872 321.696 466.36 320.4 463.948C323.388 463.372 325.152 463.012 325.692 462.868C326.916 462.616 327.312 462.508 328.248 462.364L327.744 458.08C325.836 458.8 322.632 459.556 318.924 460.204C317.808 457.576 317.16 455.668 316.944 454.444L312.3 455.056C312.48 455.344 314.028 459.16 314.64 460.744C312.408 461.032 307.62 461.356 304.92 461.356C303.444 461.356 302.508 461.32 301.428 461.176L301.752 465.496ZM344.916 467.044C344.952 466.612 344.988 466.396 344.988 466.396L345.06 464.272C345.276 463.984 345.348 463.912 345.492 463.696C345.816 463.228 345.816 463.228 345.996 463.048C346.536 462.4 346.68 462.256 347.04 461.968L345.708 460.456C345.456 460.528 345.312 460.6 345.276 460.6C345.348 458.404 345.384 458.116 345.42 457.396C345.492 456.676 345.528 456.208 345.528 456.028C345.564 455.2 345.564 455.128 345.672 454.696L341.1 454.624C341.208 455.452 341.208 455.704 341.208 456.64C341.208 457.468 341.172 458.584 341.172 459.592C341.136 460.42 341.136 460.42 341.1 460.96C339.408 461.068 337.428 461.176 336.744 461.176C336.24 461.176 335.916 461.176 335.268 461.104L335.484 465.172C336.456 464.992 337.176 464.92 340.992 464.668C340.992 465.64 340.956 465.712 340.956 466.54C340.884 467.944 340.884 468.34 340.848 470.068C340.164 470.824 340.164 470.824 336.78 474.172C335.844 475.108 335.268 475.648 334.44 476.224L336.528 480.508C336.888 479.968 337.392 479.356 338.184 478.456C340.02 476.404 340.416 475.936 340.74 475.432L340.812 475.396C340.74 476.368 340.74 476.368 340.74 480.22C340.704 484.468 340.704 484.468 340.488 485.944H345.132C344.988 484.612 344.988 484.504 344.952 480.004C344.916 476.008 344.916 476.008 344.916 475.72C344.916 474.712 344.916 473.704 344.988 472.084C346.356 470.428 348.912 468.16 351.54 466.216C353.304 464.956 354.852 464.272 356.004 464.272C356.976 464.272 357.48 464.74 357.48 465.604C357.48 466.432 357.264 467.836 356.724 470.14C355.392 476.116 355.248 477.088 355.248 479.176C355.248 481.372 355.824 482.704 357.12 483.712C357.912 484.288 359.028 484.648 360.216 484.648C362.196 484.648 363.96 483.82 365.544 482.056C366.48 481.048 366.984 480.364 368.064 478.492C366.876 476.836 366.444 476.08 365.652 474.172C365.22 475.468 364.428 477.016 363.564 478.276C362.808 479.392 361.836 480.112 361.044 480.112C360.108 480.112 359.568 479.464 359.568 478.312C359.568 477.16 359.856 475.648 361.08 470.212C361.728 467.44 361.98 465.892 361.98 464.704C361.98 461.824 359.964 459.916 356.94 459.916C354.744 459.916 352.476 460.924 349.344 463.3C346.752 465.244 345.996 465.892 344.952 467.044H344.916ZM372.348 464.272C372.672 464.236 372.852 464.236 373.032 464.236C373.32 464.236 373.824 464.236 374.472 464.272C375.084 464.308 375.444 464.308 375.624 464.308H377.712C377.784 464.308 377.928 464.308 378.18 464.272C376.992 470.68 374.22 479.068 371.736 483.64L376.272 485.404C378.648 479.032 379.26 477.232 380.304 473.488C381.24 470.212 382.14 466.396 382.536 464.164C383.724 464.128 386.604 463.768 388.44 463.408C389.304 463.264 389.304 463.264 389.592 463.228L389.412 459.088C387.612 459.628 385.92 459.916 383.256 460.168C383.4 459.34 383.436 459.124 383.616 458.116C384.048 455.488 384.048 455.488 384.3 454.66L379.548 454.228C379.584 454.516 379.584 454.732 379.584 454.876C379.584 455.884 379.224 458.656 378.9 460.384C378.072 460.42 377.676 460.42 377.244 460.42C375.156 460.42 373.716 460.312 372.42 460.096L372.348 464.272ZM400.896 465.064C398.628 465.028 398.304 465.028 397.332 465.028C393.444 465.028 391.716 465.208 386.604 466.18L386.928 470.14C390.492 469.348 392.868 469.096 396.432 469.096C398.232 469.096 399.24 469.168 400.968 469.348L400.896 465.064ZM386.712 472.624C384.732 475.324 384.048 476.944 384.048 478.852C384.048 480.652 385.056 482.38 386.604 483.28C388.332 484.252 390.636 484.72 393.84 484.72C395.964 484.72 397.548 484.576 400.536 484.144C401.364 484 401.652 483.964 402.3 483.892L401.976 479.464C399.888 480.22 396.432 480.796 393.804 480.796C390.204 480.796 388.404 479.86 388.404 478.024C388.404 476.764 388.836 475.864 390.276 474.064L386.712 472.624ZM419.868 476.116C421.344 478.528 422.748 480.112 425.124 481.984C428.292 484.504 432.072 486.052 437.724 487.168C438.192 485.8 438.66 484.756 439.56 483.172C436.212 482.812 433.944 482.308 431.388 481.336C433.548 479.896 435.528 478.384 437.796 476.368L434.16 474.424C433.836 474.784 433.764 474.892 433.476 475.216C433.44 474.64 433.44 474.316 433.44 473.596V466.108C433.44 465.604 433.44 465.388 433.44 464.812C435.024 465.64 436.248 466.216 438.192 466.936C438.696 465.352 439.236 464.164 439.992 462.94C436.896 462.076 433.908 460.78 431.244 459.16C428.544 457.54 426.672 455.956 424.836 453.796H420.588C417.42 457.72 412.128 461.068 405.9 463.048C406.836 464.704 407.016 465.1 407.664 466.972C409.68 466.144 410.472 465.784 412.164 464.92C412.2 465.856 412.2 466.108 412.2 466.54V482.776C410.76 482.956 408.6 483.136 408.132 483.136C408.096 483.136 408.024 483.136 407.952 483.136H407.592L408.276 487.276C408.996 487.096 409.464 487.024 409.932 486.916C416.376 485.836 419.184 485.296 423 484.396V480.94C419.724 481.66 419.436 481.696 415.98 482.236V476.116H419.868ZM430.308 476.116C431.1 476.116 431.712 476.116 432.504 476.152C430.884 477.628 429.804 478.42 427.896 479.608C426.312 478.6 425.16 477.52 424.152 476.116H430.308ZM415.656 462.832C418.572 460.96 420.732 459.124 422.748 456.82C424.8 459.088 426.996 460.924 430.056 462.832H424.512V461.788C424.512 460.78 424.548 460.276 424.656 459.628H420.696C420.84 460.204 420.876 460.78 420.876 461.788V462.832H415.656ZM415.98 466.072H429.66V467.872H415.98V466.072ZM415.98 470.932H429.66V472.948H415.98V470.932ZM448.308 464.596C448.308 465.928 448.272 466.9 448.164 467.908C449.244 467.8 450.036 467.764 451.908 467.764H466.164C468.072 467.764 468.792 467.8 469.908 467.908C469.8 466.936 469.764 466.036 469.764 464.56V457.9C469.764 456.532 469.8 455.632 469.908 454.732C468.972 454.876 467.82 454.912 465.804 454.912H452.232C450.288 454.912 449.244 454.876 448.164 454.732C448.272 455.668 448.308 456.64 448.308 457.936V464.596ZM452.16 458.512H465.876V464.272H452.16V458.512ZM443.52 483.064C443.52 484.936 443.484 485.908 443.34 486.952H447.336V485.08H453.6V486.376H457.488C457.38 485.584 457.344 484.612 457.344 483.136V473.524C457.344 471.688 457.344 471.148 457.452 470.392C456.588 470.464 455.796 470.5 454.752 470.5H446.868C445.392 470.5 444.456 470.464 443.376 470.356C443.484 471.4 443.52 472.516 443.52 473.812V483.064ZM447.3 473.992H453.6V481.588H447.3V473.992ZM462.672 470.5C461.592 470.5 460.836 470.464 460.008 470.392C460.08 471.148 460.08 471.724 460.08 473.344V483.748C460.08 485.224 460.044 485.944 459.972 486.952H463.824V485.08H470.664V486.952H474.696C474.552 485.98 474.516 485.044 474.516 483.1V473.812C474.516 472.336 474.552 471.364 474.66 470.356C473.76 470.464 472.932 470.5 471.456 470.5H462.672ZM463.824 473.992H470.7V481.588H463.824V473.992Z" fill="#444444"/>
<path d="M304.923 781.096C304.395 779.848 304.035 779.296 303.411 778.648C302.259 777.448 300.555 776.824 298.491 776.824C295.971 776.824 294.051 777.76 292.635 779.68C291.411 781.312 290.667 784.144 290.667 787.096C290.667 790.72 291.675 793.6 293.451 795.136C294.627 796.144 296.403 796.72 298.323 796.72C302.403 796.72 305.283 794.032 305.283 790.24C305.283 788.824 304.995 787.576 304.419 786.64C303.363 784.84 301.299 783.784 298.851 783.784C296.427 783.784 295.011 784.432 293.715 786.184C293.835 784.336 294.099 783.184 294.699 781.936C295.515 780.28 296.763 779.44 298.467 779.44C300.171 779.44 301.059 780.112 301.683 781.864L304.923 781.096ZM298.299 786.4C300.675 786.4 302.091 787.792 302.091 790.168C302.091 791.008 301.899 791.8 301.539 792.352C300.867 793.408 299.643 794.032 298.251 794.032C295.899 794.032 294.195 792.424 294.195 790.24C294.195 788.032 295.947 786.4 298.299 786.4ZM322.969 788.944C322.081 789.064 321.505 789.112 320.545 789.112H319.705V781.24C319.705 779.416 319.729 778.576 319.873 777.184H316.633C316.081 778.048 315.697 778.552 314.641 779.824L308.953 786.784C308.113 787.792 307.849 788.104 307.033 788.992V791.944C307.849 791.872 308.617 791.848 310.033 791.848H316.681V793.504C316.681 794.704 316.633 795.448 316.489 796.288H319.897C319.753 795.4 319.705 794.776 319.705 793.552V791.848H320.569C321.577 791.872 322.081 791.896 322.969 792.016V788.944ZM316.705 789.136H310.585L315.193 783.424C316.057 782.368 316.345 781.984 316.825 781.288C316.729 782.272 316.705 783.04 316.705 784.168V789.136ZM324.527 791.752C324.959 793.144 325.271 793.768 325.871 794.44C327.239 796 329.159 796.72 331.967 796.72C334.535 796.72 336.551 796.048 337.871 794.776C338.759 793.888 339.311 792.568 339.311 791.272C339.311 789.856 338.951 788.848 338.159 787.96C337.319 787.024 336.431 786.616 334.727 786.352C335.999 786.016 336.527 785.824 337.055 785.416C338.087 784.648 338.711 783.328 338.711 781.888C338.711 778.768 336.119 776.752 332.111 776.752C330.191 776.752 328.631 777.184 327.407 778.072C326.279 778.888 325.727 779.728 325.127 781.504L328.559 782.08C328.847 781.096 329.087 780.688 329.567 780.232C330.143 779.752 331.007 779.488 332.183 779.488C334.223 779.488 335.351 780.424 335.351 782.08C335.351 783.928 333.935 785.032 331.535 785.032C330.503 785.032 329.975 785.008 329.207 784.912V787.888C330.023 787.792 330.719 787.768 331.775 787.768C332.831 787.768 333.959 788.008 334.535 788.344C335.399 788.848 335.879 789.76 335.879 790.864C335.879 792.76 334.367 793.984 331.991 793.984C330.839 793.984 329.879 793.672 329.087 793.048C328.487 792.568 328.271 792.184 327.959 791.08L324.527 791.752ZM348.693 779.656C348.621 782.608 348.597 782.848 348.357 784.432C347.877 787.624 346.845 790.168 345.165 792.352C344.109 793.72 343.221 794.512 341.469 795.64C342.333 796.336 342.933 797.032 343.485 797.944C345.645 796.408 346.917 795.088 348.189 793.072C349.557 790.864 350.349 788.752 350.853 785.896H358.317C358.149 790.072 357.813 793 357.333 794.176C357.069 794.848 356.637 795.04 355.461 795.04C354.525 795.04 353.085 794.848 351.693 794.56C352.077 795.52 352.221 796.216 352.341 797.296C354.453 797.464 354.957 797.488 355.749 797.488C358.125 797.488 359.181 796.96 359.781 795.472C360.381 794.008 360.861 790.192 361.029 785.968C361.101 783.832 361.101 783.808 361.173 783.256C360.453 783.352 359.517 783.376 358.101 783.376H351.213C351.357 782.056 351.381 781.528 351.429 779.656H360.429C361.509 779.656 362.541 779.704 363.477 779.8V776.968C362.541 777.064 361.557 777.112 360.405 777.112H344.973C343.797 777.112 342.789 777.064 341.901 776.968V779.8C342.885 779.704 343.893 779.656 344.997 779.656H348.693ZM374.277 797.08C374.205 796.288 374.181 795.664 374.181 794.416V788.08C374.181 787.408 374.157 787.12 374.085 786.448C374.277 786.568 374.349 786.592 374.901 786.856C378.909 788.704 381.405 790.072 383.397 791.44L385.077 788.608C381.237 786.448 377.469 784.696 374.181 783.544V779.08C374.181 777.592 374.181 777.28 374.277 776.56H370.989C371.085 777.208 371.133 777.832 371.133 779.008V794.392C371.133 795.664 371.109 796.312 370.989 797.08H374.277ZM391.557 780.592C393.789 781.84 395.757 783.424 397.677 785.464L399.741 782.848C397.893 781.096 396.405 779.992 393.549 778.216L391.557 780.592ZM392.397 796.432C392.949 796.24 393.021 796.216 393.981 796.024C397.701 795.232 400.677 794.056 403.125 792.424C406.413 790.24 408.693 787.408 410.733 783.016C409.509 782.152 409.125 781.792 408.189 780.664C407.469 782.608 406.797 783.928 405.741 785.464C403.845 788.2 401.613 790.048 398.613 791.344C396.429 792.304 393.573 793 391.509 793.12L392.397 796.432Z" fill="#444444"/>
<path d="M293.868 748.116C295.344 750.528 296.748 752.112 299.124 753.984C302.292 756.504 306.072 758.052 311.724 759.168C312.192 757.8 312.66 756.756 313.56 755.172C310.212 754.812 307.944 754.308 305.388 753.336C307.548 751.896 309.528 750.384 311.796 748.368L308.16 746.424C307.836 746.784 307.764 746.892 307.476 747.216C307.44 746.64 307.44 746.316 307.44 745.596V738.108C307.44 737.604 307.44 737.388 307.44 736.812C309.024 737.64 310.248 738.216 312.192 738.936C312.696 737.352 313.236 736.164 313.992 734.94C310.896 734.076 307.908 732.78 305.244 731.16C302.544 729.54 300.672 727.956 298.836 725.796H294.588C291.42 729.72 286.128 733.068 279.9 735.048C280.836 736.704 281.016 737.1 281.664 738.972C283.68 738.144 284.472 737.784 286.164 736.92C286.2 737.856 286.2 738.108 286.2 738.54V754.776C284.76 754.956 282.6 755.136 282.132 755.136C282.096 755.136 282.024 755.136 281.952 755.136H281.592L282.276 759.276C282.996 759.096 283.464 759.024 283.932 758.916C290.376 757.836 293.184 757.296 297 756.396V752.94C293.724 753.66 293.436 753.696 289.98 754.236V748.116H293.868ZM304.308 748.116C305.1 748.116 305.712 748.116 306.504 748.152C304.884 749.628 303.804 750.42 301.896 751.608C300.312 750.6 299.16 749.52 298.152 748.116H304.308ZM289.656 734.832C292.572 732.96 294.732 731.124 296.748 728.82C298.8 731.088 300.996 732.924 304.056 734.832H298.512V733.788C298.512 732.78 298.548 732.276 298.656 731.628H294.696C294.84 732.204 294.876 732.78 294.876 733.788V734.832H289.656ZM289.98 738.072H303.66V739.872H289.98V738.072ZM289.98 742.932H303.66V744.948H289.98V742.932ZM322.308 736.596C322.308 737.928 322.272 738.9 322.164 739.908C323.244 739.8 324.036 739.764 325.908 739.764H340.164C342.072 739.764 342.792 739.8 343.908 739.908C343.8 738.936 343.764 738.036 343.764 736.56V729.9C343.764 728.532 343.8 727.632 343.908 726.732C342.972 726.876 341.82 726.912 339.804 726.912H326.232C324.288 726.912 323.244 726.876 322.164 726.732C322.272 727.668 322.308 728.64 322.308 729.936V736.596ZM326.16 730.512H339.876V736.272H326.16V730.512ZM317.52 755.064C317.52 756.936 317.484 757.908 317.34 758.952H321.336V757.08H327.6V758.376H331.488C331.38 757.584 331.344 756.612 331.344 755.136V745.524C331.344 743.688 331.344 743.148 331.452 742.392C330.588 742.464 329.796 742.5 328.752 742.5H320.868C319.392 742.5 318.456 742.464 317.376 742.356C317.484 743.4 317.52 744.516 317.52 745.812V755.064ZM321.3 745.992H327.6V753.588H321.3V745.992ZM336.672 742.5C335.592 742.5 334.836 742.464 334.008 742.392C334.08 743.148 334.08 743.724 334.08 745.344V755.748C334.08 757.224 334.044 757.944 333.972 758.952H337.824V757.08H344.664V758.952H348.696C348.552 757.98 348.516 757.044 348.516 755.1V745.812C348.516 744.336 348.552 743.364 348.66 742.356C347.76 742.464 346.932 742.5 345.456 742.5H336.672ZM337.824 745.992H344.7V753.588H337.824V745.992ZM377.676 753.912V756.396H382.32C382.212 755.568 382.176 754.596 382.176 753.264V732.672C382.176 731.34 382.212 730.62 382.284 729.684C381.456 729.756 380.808 729.792 379.26 729.792H358.812C357.372 729.792 356.616 729.756 355.752 729.684C355.86 730.656 355.896 731.34 355.896 732.708V753.336C355.896 754.704 355.86 755.568 355.752 756.432H360.396V753.912H377.676ZM377.676 749.808H360.396V733.86H377.676V749.808ZM420.588 753.444C416.232 749.232 416.232 749.232 415.332 748.44C412.884 746.244 410.94 744.732 408.672 743.22C410.868 740.268 412.632 737.136 414.288 733.284C414.684 732.384 414.972 731.88 415.44 731.34L413.064 728.892C412.164 729.216 411.876 729.252 409.86 729.288L397.188 729.468C396.756 729.468 396.468 729.468 396.324 729.468C394.848 729.468 394.164 729.432 393.156 729.252L393.3 733.86C394.524 733.68 395.496 733.608 397.224 733.572C408.564 733.392 408.564 733.392 409.14 733.356L408.744 734.292C406.404 739.908 402.084 745.128 396.648 748.944C393.948 750.852 392.22 751.824 389.448 752.904C390.924 754.452 391.356 755.028 392.364 756.9C397.872 754.2 402.012 751.032 406.08 746.496C410.004 749.484 414.144 753.516 417.132 757.188L420.588 753.444Z" fill="#444444"/>
<path d="M201.448 5.396C200.332 5.684 199.612 5.756 197.596 5.756H181.072C178.624 5.756 177.868 5.72 176.464 5.504V10.184C177.76 10.004 178.588 9.968 181 9.968H198.136C196.372 16.952 192.844 22.028 187.228 25.664C184.564 27.392 182.512 28.328 179.344 29.336C181.036 30.992 181.504 31.676 182.512 33.62C188.524 31.028 192.376 28.4 195.904 24.44C199.36 20.552 201.484 16.232 203.284 9.356C203.464 8.6 203.572 8.348 203.896 7.736L201.448 5.396ZM210.556 20.696C211.996 20.516 212.392 20.516 216.424 20.516H235.54C239.572 20.516 239.968 20.516 241.408 20.696V15.692C239.824 15.908 239.14 15.944 235.576 15.944H216.388C212.824 15.944 212.14 15.908 210.556 15.692V20.696ZM257.86 33.62C257.752 32.576 257.716 31.568 257.716 29.624V20.12C257.716 19.292 257.68 18.68 257.572 17.672C257.86 17.852 257.968 17.888 258.796 18.284C263.908 20.588 269.02 23.36 271.54 25.16L274.06 20.912C268.372 17.708 261.892 14.684 257.716 13.316V6.62C257.716 4.496 257.752 3.812 257.86 2.84H252.928C253.072 3.704 253.108 4.424 253.144 6.512V29.588C253.144 31.64 253.072 32.612 252.928 33.62H257.86ZM265.24 5.972C266.824 7.7 267.832 9.14 269.02 11.336L271.54 10.004C270.316 7.772 269.344 6.404 267.76 4.712L265.24 5.972ZM275.824 7.664C274.708 5.612 273.7 4.244 272.08 2.588L269.668 3.848C271.072 5.396 272.26 7.088 273.34 9.068L275.824 7.664ZM306.676 29.912V32.396H311.32C311.212 31.568 311.176 30.596 311.176 29.264V8.672C311.176 7.34 311.212 6.62 311.284 5.684C310.456 5.756 309.808 5.792 308.26 5.792H287.812C286.372 5.792 285.616 5.756 284.752 5.684C284.86 6.656 284.896 7.34 284.896 8.708V29.336C284.896 30.704 284.86 31.568 284.752 32.432H289.396V29.912H306.676ZM306.676 25.808H289.396V9.86H306.676V25.808ZM349.588 29.444C345.232 25.232 345.232 25.232 344.332 24.44C341.884 22.244 339.94 20.732 337.672 19.22C339.868 16.268 341.632 13.136 343.288 9.284C343.684 8.384 343.972 7.88 344.44 7.34L342.064 4.892C341.164 5.216 340.876 5.252 338.86 5.288L326.188 5.468C325.756 5.468 325.468 5.468 325.324 5.468C323.848 5.468 323.164 5.432 322.156 5.252L322.3 9.86C323.524 9.68 324.496 9.608 326.224 9.572C337.564 9.392 337.564 9.392 338.14 9.356L337.744 10.292C335.404 15.908 331.084 21.128 325.648 24.944C322.948 26.852 321.22 27.824 318.448 28.904C319.924 30.452 320.356 31.028 321.364 32.9C326.872 30.2 331.012 27.032 335.08 22.496C339.004 25.484 343.144 29.516 346.132 33.188L349.588 29.444ZM372.808 8.924C374.392 9.068 375.328 9.356 376.444 10.004C379.324 11.732 380.872 14.54 380.872 17.996C380.872 21.848 379 25.268 375.868 26.996C374.176 27.968 372.016 28.544 368.704 28.976C369.856 30.488 370.288 31.28 370.9 33.188C373.42 32.756 374.824 32.396 376.552 31.676C382.06 29.444 385.3 24.476 385.3 18.248C385.3 10.148 379.684 4.892 371.044 4.892C365.932 4.892 361.684 6.62 358.66 9.932C356.104 12.74 354.7 16.448 354.7 20.408C354.7 26.204 357.652 30.38 361.756 30.38C364.708 30.38 367.012 28.256 369.064 23.612C370.864 19.544 372.124 14.576 372.808 8.924ZM368.416 8.96C367.984 13.028 366.796 17.888 365.428 21.128C364.132 24.224 362.908 25.736 361.72 25.736C360.136 25.736 358.876 23.396 358.876 20.444C358.876 16.592 360.748 12.884 363.772 10.724C365.248 9.68 366.544 9.176 368.416 8.96ZM417.448 5.396C416.332 5.684 415.612 5.756 413.596 5.756H397.072C394.624 5.756 393.868 5.72 392.464 5.504V10.184C393.76 10.004 394.588 9.968 397 9.968H414.136C412.372 16.952 408.844 22.028 403.228 25.664C400.564 27.392 398.512 28.328 395.344 29.336C397.036 30.992 397.504 31.676 398.512 33.62C404.524 31.028 408.376 28.4 411.904 24.44C415.36 20.552 417.484 16.232 419.284 9.356C419.464 8.6 419.572 8.348 419.896 7.736L417.448 5.396ZM438.688 15.98C438.76 16.556 438.76 16.736 438.76 17.312C438.76 20.768 438.328 23.324 437.392 25.088C436.06 27.608 433.612 29.3 429.688 30.452C431.056 31.856 431.452 32.396 432.28 34.124C437.032 32.252 439.624 30.2 441.208 26.888C442.18 24.98 442.684 22.856 442.828 19.94C444.088 20.912 444.52 21.344 445.6 22.748C447.364 21.74 448.264 21.128 449.38 20.084C451.108 18.536 452.656 16.484 453.736 14.252C454.384 12.884 454.384 12.884 454.816 12.308L452.8 9.86C451.936 10.112 451.612 10.148 449.704 10.148L434.404 10.184C432.712 10.184 431.704 10.112 430.552 9.932L430.588 14.036C431.776 13.892 432.46 13.856 434.404 13.856L448.66 13.784C448.984 13.784 449.38 13.784 449.668 13.712L449.704 13.748C449.632 13.892 449.596 13.928 449.524 14.036C449.452 14.144 449.416 14.216 449.416 14.252C447.868 16.808 445.924 18.392 442.828 19.76C442.864 19.4 442.864 19.112 442.9 18.464C442.972 16.88 443.008 16.592 443.116 15.98H438.688ZM480.052 34.304C479.872 33.26 479.872 32.684 479.872 31.1V23.18C479.872 22.856 479.836 21.848 479.8 21.416C480.16 21.596 480.232 21.596 480.7 21.812C485.2 23.72 488.008 25.196 491.68 27.572L494.056 23.792C489.772 21.272 485.848 19.508 481.492 18.14C484.948 15.44 486.82 13.748 488.836 11.408C489.772 10.364 489.808 10.328 490.42 9.86L488.332 7.412C487.648 7.628 486.964 7.736 485.884 7.736H479.8V4.748C479.8 3.56 479.836 2.912 479.98 2.228H475.156C475.3 2.984 475.3 3.488 475.336 4.82V7.772H469.324C467.776 7.772 466.408 7.664 465.472 7.448V11.804C466.804 11.66 467.2 11.624 469.288 11.624C482.248 11.552 482.248 11.552 482.464 11.516C482.932 11.516 482.932 11.516 483.22 11.516C480.124 14.612 476.236 17.24 472.06 19.148C468.424 20.804 465.616 21.74 462.052 22.496C463.168 24.08 463.492 24.692 464.176 26.42C468.568 25.052 471.628 23.828 474.328 22.388C474.796 22.136 475.048 21.992 475.408 21.704C475.408 22.676 475.408 23.288 475.408 23.54V31.1C475.408 32.288 475.336 33.332 475.192 34.304H480.052ZM504.388 3.848C504.532 4.82 504.532 5.144 504.532 7.124C504.532 17.204 503.704 21.848 501.112 25.988C500.032 27.716 499.168 28.688 497.404 30.128C499.096 31.28 499.636 31.82 501.04 33.62C503.416 31.28 504.784 29.444 506.008 26.96C507.88 23.252 508.672 19.184 508.924 12.164C509.14 5.108 509.14 5.108 509.284 4.1L504.388 3.848ZM513.928 3.596C514.036 4.28 514.072 5.072 514.072 5.972V7.052L513.892 27.356C513.856 29.336 513.82 30.128 513.568 31.172L515.872 33.62C516.34 33.404 516.628 33.26 517.42 32.972C521.164 31.496 523.036 30.416 525.088 28.652C527.464 26.528 529.336 23.828 530.812 20.264C529.156 18.968 528.688 18.5 527.428 16.88C526.6 19.544 525.556 21.524 523.9 23.468C522.352 25.304 520.912 26.384 518.392 27.572L518.572 7.088C518.608 5.324 518.644 4.712 518.824 3.668L513.928 3.596Z" fill="#444444"/>
</g>
<defs>
<clipPath id="clip0_126_5652">
<rect width="743.92" height="886.37" fill="white"/>
</clipPath>
</defs>
</svg>
