<svg id="Layer_1" data-name="Layer 1" xmlns="http://www.w3.org/2000/svg" viewBox="0 0 607.84 604.28"><defs><style>.cls-1{fill:#fe6666;}.cls-1,.cls-2,.cls-3,.cls-4,.cls-5,.cls-6{stroke:#fff;}.cls-1,.cls-12,.cls-2,.cls-3,.cls-4,.cls-5,.cls-6{stroke-miterlimit:10;}.cls-1,.cls-4{stroke-width:3px;}.cls-2{fill:#a7d967;}.cls-2,.cls-3,.cls-5,.cls-6{fill-rule:evenodd;}.cls-3{fill:#f6ad3b;}.cls-4,.cls-9{fill:#ca2417;}.cls-10,.cls-5{fill:#29978e;}.cls-6{fill:#ccc;}.cls-7{fill:#fff;}.cls-8{fill:#444;}.cls-11,.cls-12{fill:none;}.cls-12{stroke:#000444;stroke-width:2px;}.cls-13{fill:#000444;}</style></defs><path class="cls-1" d="M1041.56,636.17l-19.64-224.48c6.7-.59,12.92-.86,19.64-.86Z" transform="translate(-659.56 -257.72)"/><path class="cls-2" d="M1041.56,636.17,817.91,608.71a224.7,224.7,0,0,1,204-197Z" transform="translate(-659.56 -257.72)"/><path class="cls-3" d="M1041.56,636.17V410.83c124.45,0,225.34,100.89,225.34,225.34S1166,861.51,1041.56,861.51,816.23,760.62,816.23,636.17a190.94,190.94,0,0,1,1.68-27.46Z" transform="translate(-659.56 -257.72)"/><path class="cls-4" d="M1040.56,636.17,931.32,439.08c34.61-19.18,69.67-28.25,109.24-28.25Z" transform="translate(-659.56 -257.72)"/><path class="cls-5" d="M1040.56,636.17l-189,122.73C783.8,654.52,813.46,515,917.84,447.18c4.8-3.11,8.47-5.32,13.48-8.1Z" transform="translate(-659.56 -257.72)"/><path class="cls-6" d="M1040.56,636.17V410.83c124.45,0,225.34,100.89,225.34,225.34S1165,861.51,1040.56,861.51c-79,0-145.94-36.34-189-102.61Z" transform="translate(-659.56 -257.72)"/><circle class="cls-7" cx="381.49" cy="376.61" r="150"/><path class="cls-8" d="M950.52,678.6A12.9,12.9,0,0,1,944,677a11.39,11.39,0,0,1-4.41-4.56,14,14,0,0,1-1.59-6.78,10.61,10.61,0,0,1,1.65-5.79,11.17,11.17,0,0,1,4-3.93,11.27,11.27,0,0,1-3.36-3.57,9.75,9.75,0,0,1-1.32-5.13,12.67,12.67,0,0,1,1.47-6.21,10.62,10.62,0,0,1,4.08-4.17,11.76,11.76,0,0,1,6-1.5,11.89,11.89,0,0,1,6,1.5,10.62,10.62,0,0,1,4.08,4.17,12.67,12.67,0,0,1,1.47,6.21,9.58,9.58,0,0,1-1.35,5.13,12.23,12.23,0,0,1-3.27,3.57,10.94,10.94,0,0,1,4,3.93,10.76,10.76,0,0,1,1.62,5.79,13.78,13.78,0,0,1-1.62,6.81,11.65,11.65,0,0,1-4.44,4.53A12.9,12.9,0,0,1,950.52,678.6Zm0-6.12a6,6,0,0,0,4.59-1.71,7.4,7.4,0,0,0,1.59-5.19,7.72,7.72,0,0,0-1.59-5.13,5.66,5.66,0,0,0-4.59-1.89,5.59,5.59,0,0,0-4.53,1.89,7.72,7.72,0,0,0-1.59,5.13Q944.4,672.48,950.52,672.48Zm0-19a4.58,4.58,0,0,0,3.81-1.62,7.15,7.15,0,0,0,1.29-4.56,6,6,0,0,0-1.44-4.38,5.37,5.37,0,0,0-7.32,0,6,6,0,0,0-1.44,4.38,7.15,7.15,0,0,0,1.29,4.56A4.58,4.58,0,0,0,950.52,653.46Z" transform="translate(-659.56 -257.72)"/><path class="cls-8" d="M971.82,688.14l-1.86-3.3a9.44,9.44,0,0,0,4.8-2.79,6.28,6.28,0,0,0,1.8-4.23q0-.36,0-.66a3.79,3.79,0,0,0-.09-.54,5.32,5.32,0,0,1-1.5,1.32,3.57,3.57,0,0,1-1.86.54,4.2,4.2,0,0,1-2.91-1.11,3.88,3.88,0,0,1-1.23-3,3.49,3.49,0,0,1,1.41-3,5.73,5.73,0,0,1,3.33-1.11,6.09,6.09,0,0,1,4.89,2.13,8.21,8.21,0,0,1,1.95,5.67,8.62,8.62,0,0,1-2.4,6.18A15.8,15.8,0,0,1,971.82,688.14Z" transform="translate(-659.56 -257.72)"/><path class="cls-8" d="M998.82,678.6q-4.8,0-7.5-2.4a13.35,13.35,0,0,1-3.81-7.2,65.58,65.58,0,0,1,0-24,13.37,13.37,0,0,1,3.81-7.23q2.7-2.4,7.5-2.4t7.47,2.4a13.48,13.48,0,0,1,3.78,7.23,65.58,65.58,0,0,1,0,24,13.46,13.46,0,0,1-3.78,7.2Q1003.62,678.6,998.82,678.6Zm0-6.12a4.52,4.52,0,0,0,3.51-1.41,9.63,9.63,0,0,0,1.89-4.77,72.84,72.84,0,0,0,0-18.66,9.63,9.63,0,0,0-1.89-4.77,4.52,4.52,0,0,0-3.51-1.41,4.62,4.62,0,0,0-3.54,1.41,9.27,9.27,0,0,0-1.89,4.77,76.64,76.64,0,0,0,0,18.66,9.27,9.27,0,0,0,1.89,4.77A4.62,4.62,0,0,0,998.82,672.48Z" transform="translate(-659.56 -257.72)"/><path class="cls-8" d="M1029.06,678.6a12.9,12.9,0,0,1-6.54-1.62,11.39,11.39,0,0,1-4.41-4.56,14,14,0,0,1-1.59-6.78,10.61,10.61,0,0,1,1.65-5.79,11.17,11.17,0,0,1,4.05-3.93,11.27,11.27,0,0,1-3.36-3.57,9.75,9.75,0,0,1-1.32-5.13A12.67,12.67,0,0,1,1019,641a10.62,10.62,0,0,1,4.08-4.17,11.76,11.76,0,0,1,6-1.5,11.89,11.89,0,0,1,6,1.5,10.62,10.62,0,0,1,4.08,4.17,12.67,12.67,0,0,1,1.47,6.21,9.58,9.58,0,0,1-1.35,5.13,12.23,12.23,0,0,1-3.27,3.57,10.94,10.94,0,0,1,4,3.93,10.76,10.76,0,0,1,1.62,5.79,13.78,13.78,0,0,1-1.62,6.81,11.65,11.65,0,0,1-4.44,4.53A12.9,12.9,0,0,1,1029.06,678.6Zm0-6.12a6,6,0,0,0,4.59-1.71,7.4,7.4,0,0,0,1.59-5.19,7.72,7.72,0,0,0-1.59-5.13,5.66,5.66,0,0,0-4.59-1.89,5.59,5.59,0,0,0-4.53,1.89,7.72,7.72,0,0,0-1.59,5.13Q1022.94,672.48,1029.06,672.48Zm0-19a4.58,4.58,0,0,0,3.81-1.62,7.15,7.15,0,0,0,1.29-4.56,6,6,0,0,0-1.44-4.38,5.37,5.37,0,0,0-7.32,0,6,6,0,0,0-1.44,4.38,7.15,7.15,0,0,0,1.29,4.56A4.58,4.58,0,0,0,1029.06,653.46Z" transform="translate(-659.56 -257.72)"/><path class="cls-8" d="M1059.54,678.6A12.9,12.9,0,0,1,1053,677a11.39,11.39,0,0,1-4.41-4.56,14,14,0,0,1-1.59-6.78,10.61,10.61,0,0,1,1.65-5.79,11.17,11.17,0,0,1,4-3.93,11.27,11.27,0,0,1-3.36-3.57,9.75,9.75,0,0,1-1.32-5.13,12.67,12.67,0,0,1,1.47-6.21,10.62,10.62,0,0,1,4.08-4.17,11.76,11.76,0,0,1,6-1.5,11.89,11.89,0,0,1,6,1.5,10.62,10.62,0,0,1,4.08,4.17,12.67,12.67,0,0,1,1.47,6.21,9.58,9.58,0,0,1-1.35,5.13,12.23,12.23,0,0,1-3.27,3.57,10.94,10.94,0,0,1,4,3.93,10.76,10.76,0,0,1,1.62,5.79,13.78,13.78,0,0,1-1.62,6.81,11.65,11.65,0,0,1-4.44,4.53A12.9,12.9,0,0,1,1059.54,678.6Zm0-6.12a6,6,0,0,0,4.59-1.71,7.4,7.4,0,0,0,1.59-5.19,7.72,7.72,0,0,0-1.59-5.13,5.66,5.66,0,0,0-4.59-1.89,5.59,5.59,0,0,0-4.53,1.89,7.72,7.72,0,0,0-1.59,5.13Q1053.42,672.48,1059.54,672.48Zm0-19a4.58,4.58,0,0,0,3.81-1.62,7.15,7.15,0,0,0,1.29-4.56,6,6,0,0,0-1.44-4.38,5.37,5.37,0,0,0-7.32,0,6,6,0,0,0-1.44,4.38,7.15,7.15,0,0,0,1.29,4.56A4.58,4.58,0,0,0,1059.54,653.46Z" transform="translate(-659.56 -257.72)"/><path class="cls-8" d="M1077.42,679.34a9.1,9.1,0,0,0-.67-1,5.74,5.74,0,0,0-.82-.89,14.45,14.45,0,0,0,4.33-2.92,11.22,11.22,0,0,0,2.62-4.3,19,19,0,0,0,.87-6.1v-2.3h-7.58v-2h21.26v2h-11.37v2.3c0,.28,0,.54,0,.81s0,.52,0,.78h8.66c0,.69-.05,1.5-.1,2.43s-.13,1.9-.22,2.9-.2,1.93-.32,2.82a21.18,21.18,0,0,1-.44,2.24,3.72,3.72,0,0,1-1.4,2.34,5,5,0,0,1-2.8.66H1087q0-.48-.18-1.2a7.39,7.39,0,0,0-.28-1.13H1089a2.64,2.64,0,0,0,1.6-.37,2.6,2.6,0,0,0,.75-1.31,13.37,13.37,0,0,0,.31-1.56c.1-.62.19-1.29.27-2s.14-1.39.18-2,.06-1.18.06-1.61h-6.39a14.68,14.68,0,0,1-2.73,6.89A16.29,16.29,0,0,1,1077.42,679.34Z" transform="translate(-659.56 -257.72)"/><path class="cls-8" d="M1108.4,678.55v-19h2.26v7.2l1-1.39c.39.28.89.62,1.5,1s1.28.78,2,1.19,1.39.78,2.05,1.12,1.24.59,1.72.77a3.16,3.16,0,0,0-.48.57c-.19.27-.37.55-.54.82s-.29.49-.37.65c-.43-.21-1-.49-1.56-.83s-1.25-.72-1.91-1.12-1.29-.79-1.88-1.19-1.09-.74-1.49-1v11.21Z" transform="translate(-659.56 -257.72)"/><path class="cls-8" d="M1131.08,666.45a7.87,7.87,0,0,0-.83-.75q-.55-.48-1.23-1c-.45-.33-.89-.64-1.31-.92a7.58,7.58,0,0,0-1.07-.61l1.49-1.87c.29.16.64.38,1.07.67l1.31.91c.44.32.86.64,1.24.94s.68.55.89.74Zm-2.85,10.66-1.25-2.23a21.75,21.75,0,0,0,3.57-1.24,33.62,33.62,0,0,0,3.71-1.93,41.6,41.6,0,0,0,3.52-2.37,34.93,34.93,0,0,0,3-2.53,17.19,17.19,0,0,0,2.22-2.45,7.44,7.44,0,0,0,.27.74c.13.31.26.61.41.91s.25.51.33.66a22.55,22.55,0,0,1-2.93,3,38.5,38.5,0,0,1-3.91,3,42.6,42.6,0,0,1-4.44,2.6A30.21,30.21,0,0,1,1128.23,677.11Z" transform="translate(-659.56 -257.72)"/><path class="cls-8" d="M952.72,585.58a4.31,4.31,0,0,0-.32-.56l-.53-.75a4.16,4.16,0,0,0-.41-.53,33.71,33.71,0,0,0,4.66-2.08,50.86,50.86,0,0,0,4.72-2.88,43.56,43.56,0,0,0,4.14-3.26,17.8,17.8,0,0,0,2.9-3.26l2.12.4a18,18,0,0,0,3.22,3.38,37,37,0,0,0,4.34,3.08,44.12,44.12,0,0,0,4.68,2.48,33,33,0,0,0,4.28,1.64l-.43.59c-.19.28-.37.56-.54.83l-.36.59a42.3,42.3,0,0,1-4.26-1.83,51.45,51.45,0,0,1-4.56-2.52,36.8,36.8,0,0,1-4.21-3,23.25,23.25,0,0,1-3.31-3.37,31.71,31.71,0,0,1-4.48,4.25,49.35,49.35,0,0,1-5.66,3.85A47.08,47.08,0,0,1,952.72,585.58Zm1.69,19.66-.54-2.16c.7-.08,1.61-.2,2.74-.38s2.34-.39,3.63-.63V582.23h7.42v-3.71H970v3.71h7.6v12.64h-8a21.55,21.55,0,0,0,1.75,1.82,20.43,20.43,0,0,0,1.92,1.56c.84-.43,1.75-.94,2.72-1.53s1.9-1.17,2.79-1.76a21.21,21.21,0,0,0,2.13-1.57l1.58,1.59a25,25,0,0,1-2.18,1.52q-1.28.81-2.64,1.59c-.92.52-1.77,1-2.56,1.39a29,29,0,0,0,4.75,2.19,43.64,43.64,0,0,0,5.33,1.51c-.07.1-.2.29-.38.58s-.34.57-.48.85a2.32,2.32,0,0,0-.26.63,31.31,31.31,0,0,1-6.48-2.09,28.82,28.82,0,0,1-5.95-3.55,19.44,19.44,0,0,1-4.45-4.73h-4.61v6.8l4.61-1c1.44-.31,2.51-.58,3.2-.79V602c-.6.19-1.42.42-2.46.68s-2.2.54-3.46.81-2.52.54-3.78.78-2.43.45-3.53.63S955.11,605.16,954.41,605.24Zm8.1-17.65h12.78v-3.38H962.51Zm0,5.33h12.78v-3.49H962.51Z" transform="translate(-659.56 -257.72)"/><path class="cls-8" d="M990.52,603.62v-13.4h12.31v13.4Zm2.27-2.13h7.81v-9.14h-7.81Zm4-14.79V574.35h16.41V586.7Zm2.3-2.09h11.81v-8.14H999.05Zm8.07,19v-13.4h12.49v13.4Zm2.23-2.13h8v-9.14h-8Z" transform="translate(-659.56 -257.72)"/><path class="cls-8" d="M1026.92,603.4V591h2.34v10.11h10.58V588h-11.7V575.82h2.38v10h9.32V573h2.38v12.81h9.21v-10h2.41V588h-11.62v13.1h10.47V591h2.38V603.4Z" transform="translate(-659.56 -257.72)"/><path class="cls-8" d="M1066.23,605.16V589.72c-.67,1-1.38,1.88-2.11,2.77s-1.48,1.72-2.25,2.49a3.41,3.41,0,0,0-.45-.47c-.23-.22-.47-.43-.72-.65a2.4,2.4,0,0,0-.56-.4,20.45,20.45,0,0,0,2.65-2.79,36.68,36.68,0,0,0,2.47-3.47c.76-1.22,1.44-2.42,2-3.58a18.51,18.51,0,0,0,1.26-3.12l2.2.72a34.58,34.58,0,0,1-2.34,5v18.93Zm4.89-24.66V578h-9.75v-2h9.75v-3.31h2.27V576h7.24v-3.31h2.3V576h9.72v2h-9.72v2.55h-2.3V578h-7.24v2.55Zm11.38,24.7a6.35,6.35,0,0,0-.22-1.19,8.47,8.47,0,0,0-.32-1h3.64a1.71,1.71,0,0,0,1.08-.27,1.26,1.26,0,0,0,.32-1v-16.6h-15.44v-1.94h21.67v1.94h-4v17.14c0,2-1.1,3-3.28,3Zm-9.94-6.48v-9.61h9.94v9.61Zm2.16-2h5.62v-5.58h-5.62Z" transform="translate(-659.56 -257.72)"/><path class="cls-8" d="M1096.9,604.41v-1.87h15v-2h-11.67v-1.77h11.67v-2.16H1101.8v-8.85h22.53v8.85h-10.15v2.16h11.66v1.77h-11.66v2h15v1.87Zm.5-18.54V584h31.25v1.84Zm4.4-3.75v-8.85h22.53v8.85ZM1104,577h18v-2h-18Zm0,3.52h18v-2h-18Zm0,10.84h7.85v-2H1104Zm0,3.64h7.85v-2.09H1104Zm10.15-3.64h7.88v-2h-7.88Zm0,3.64h7.88v-2.09h-7.88Z" transform="translate(-659.56 -257.72)"/><path class="cls-9" d="M1045.74,279.92l-.45-2c.4,0,1-.1,1.7-.21s1.55-.25,2.43-.41V264.52c-.76.46-1.52.89-2.28,1.28s-1.52.74-2.26,1a7.88,7.88,0,0,0-.53-.86,5.31,5.31,0,0,0-.65-.82,23.28,23.28,0,0,0,3.09-1.37c1.06-.56,2.1-1.17,3.11-1.84a25.43,25.43,0,0,0,2.71-2.1,11.31,11.31,0,0,0,1.87-2.13l2,.36a11.57,11.57,0,0,0,2.12,2.15,25.67,25.67,0,0,0,2.83,1.95,31.67,31.67,0,0,0,3.06,1.57,26.63,26.63,0,0,0,2.79,1.05,6.83,6.83,0,0,0-.69.92c-.25.38-.43.69-.56.93-.71-.25-1.45-.57-2.23-.93s-1.57-.78-2.36-1.23V273h-5a12.15,12.15,0,0,0,1,1,10.9,10.9,0,0,0,1.14.89c.55-.32,1.13-.68,1.74-1.09s1.19-.81,1.73-1.21a14.76,14.76,0,0,0,1.26-1l1.51,1.46c-.37.3-.8.63-1.31,1s-1,.7-1.58,1-1.08.65-1.57.94a18.63,18.63,0,0,0,2.82,1.19,21.35,21.35,0,0,0,3.08.78,3.11,3.11,0,0,0-.42.55c-.15.24-.29.49-.42.74a4,4,0,0,0-.26.65,19.59,19.59,0,0,1-4.25-1.36,18.36,18.36,0,0,1-3.91-2.37,12.4,12.4,0,0,1-2.88-3.16h-2.59v3.82c1-.17,1.91-.36,2.77-.54s1.5-.34,1.93-.47v1.9c-.4.13-1,.28-1.64.44s-1.47.35-2.31.53-1.68.36-2.53.53-1.63.31-2.34.43S1046.18,279.87,1045.74,279.92Zm3.84-15.5h4.71v-2.28h2.21v2.28h4.82a27.89,27.89,0,0,1-3.31-2.19,14.77,14.77,0,0,1-2.57-2.44,18.86,18.86,0,0,1-2.57,2.37A31.76,31.76,0,0,1,1049.58,264.42Zm2,3.5h7.7v-1.75h-7.7Zm0,3.41h7.7v-1.82h-7.7Z" transform="translate(-659.56 -257.72)"/><path class="cls-9" d="M1069.58,278.87V269.6h8.73v9.27Zm2.16-1.95h4.44V271.6h-4.44Zm2-9.4V259h11.55v8.5Zm2.24-1.9H1083v-4.68h-7.08Zm4.75,13.25V269.6h8.78v9.27Zm2.13-1.95h4.52V271.6h-4.52Z" transform="translate(-659.56 -257.72)"/><path class="cls-9" d="M1096.6,275.1V263h13.82v12.1Zm2.26-2.11h9.31v-7.88h-9.31Z" transform="translate(-659.56 -257.72)"/><path class="cls-9" d="M1119.64,277.33l-.66-1a4.11,4.11,0,0,0-.78-.9,23.75,23.75,0,0,0,3.7-2,28.56,28.56,0,0,0,3.52-2.75,26.57,26.57,0,0,0,3-3.24,20.45,20.45,0,0,0,2.26-3.46l-2.51.15-2.83.18-2.63.17-1.9.12-.26-2.33,1.75,0c.79,0,1.66,0,2.63-.08s1.94-.09,2.9-.15,1.84-.11,2.62-.17a15.45,15.45,0,0,0,1.72-.18l1.48,1a19,19,0,0,1-1.52,3.24,24.73,24.73,0,0,1-2.12,3.07c.54.44,1.12.93,1.75,1.47s1.24,1.11,1.85,1.69,1.17,1.15,1.7,1.68a18.47,18.47,0,0,1,1.3,1.45,8.87,8.87,0,0,0-1,.76,9.49,9.49,0,0,0-.9.9,17.73,17.73,0,0,0-1.21-1.5q-.73-.82-1.59-1.71c-.58-.58-1.16-1.14-1.73-1.69s-1.11-1-1.59-1.41a31.34,31.34,0,0,1-4.34,3.87A29.66,29.66,0,0,1,1119.64,277.33Z" transform="translate(-659.56 -257.72)"/><path class="cls-9" d="M1058.53,337.89a14.25,14.25,0,0,1-5-.87,10.12,10.12,0,0,1-4.23-3.06,15.33,15.33,0,0,1-2.88-6.18,39.62,39.62,0,0,1-.9-10.29q.18-11.88,3.84-17.37a12.22,12.22,0,0,1,16.44-3.78,13.89,13.89,0,0,1,4.56,4.23l-4.8,3.72a8.82,8.82,0,0,0-2.49-2.7,5.77,5.77,0,0,0-3.33-1,6.35,6.35,0,0,0-6,3.72q-2,3.72-2.07,11a6.91,6.91,0,0,1,2.91-2.37,9,9,0,0,1,3.81-.87,11.75,11.75,0,0,1,6,1.53,11,11,0,0,1,4.17,4.32,13.59,13.59,0,0,1,1.53,6.63,15.62,15.62,0,0,1-1.44,6.84,11.38,11.38,0,0,1-4,4.71A11,11,0,0,1,1058.53,337.89Zm-.42-6.12a4.83,4.83,0,0,0,4.11-2,8.44,8.44,0,0,0,1.47-5.16,7.48,7.48,0,0,0-1.47-4.83,4.72,4.72,0,0,0-3.87-1.83,5.33,5.33,0,0,0-4.32,1.86,6.86,6.86,0,0,0-1.44,4.86,8.85,8.85,0,0,0,1.56,5.25A4.76,4.76,0,0,0,1058.11,331.77Z" transform="translate(-659.56 -257.72)"/><path class="cls-9" d="M1089.67,337.29v-9.18h-16.44v-4.92l16.5-28.08h6v27.36h5.88v5.64h-5.88v9.18Zm-10-14.82h10V305.31Z" transform="translate(-659.56 -257.72)"/><path class="cls-9" d="M1115.29,337.89a12.15,12.15,0,0,1-7.35-2.25,12.55,12.55,0,0,1-4.47-6.63l5.88-2a11.52,11.52,0,0,0,1,2,6.36,6.36,0,0,0,1.86,1.95,5.11,5.11,0,0,0,3,.84,7.35,7.35,0,0,0,4.86-1.5q1.8-1.5,1.8-5a7.15,7.15,0,0,0-1.8-5.1,6.73,6.73,0,0,0-5.16-1.92h-3v-5.88h3a5.39,5.39,0,0,0,4.44-1.77,6.67,6.67,0,0,0,1.44-4.35q0-3-1.71-4.23a6.46,6.46,0,0,0-3.87-1.23,4.07,4.07,0,0,0-2.64.87,7.88,7.88,0,0,0-1.77,2,10.54,10.54,0,0,0-1,1.95l-5.82-2.34a13.76,13.76,0,0,1,4.59-6.33,11.05,11.05,0,0,1,6.75-2.25,13.74,13.74,0,0,1,6.39,1.41,10.51,10.51,0,0,1,4.26,3.93,11.22,11.22,0,0,1,1.53,5.94,9.93,9.93,0,0,1-1.65,5.61,9.81,9.81,0,0,1-4.17,3.63,10.23,10.23,0,0,1,4.89,3.9,11.09,11.09,0,0,1,1.89,6.42,12.06,12.06,0,0,1-3.45,9.06Q1121.53,337.89,1115.29,337.89Z" transform="translate(-659.56 -257.72)"/><path class="cls-9" d="M1133.83,338.64a7.43,7.43,0,0,0-.68-1,4.92,4.92,0,0,0-.81-.89,14.28,14.28,0,0,0,4.33-2.93,11.26,11.26,0,0,0,2.62-4.29,19,19,0,0,0,.87-6.1v-2.3h-7.58v-2h21.26v2h-11.37v2.3c0,.27,0,.54,0,.8s0,.53,0,.78h8.66c0,.69,0,1.5-.11,2.44s-.12,1.9-.21,2.89-.2,1.93-.33,2.82a18.92,18.92,0,0,1-.43,2.25,3.72,3.72,0,0,1-1.4,2.34,5.06,5.06,0,0,1-2.8.66h-2.37q-.06-.48-.18-1.2a7.39,7.39,0,0,0-.28-1.13h2.45a2.65,2.65,0,0,0,1.59-.37,2.58,2.58,0,0,0,.76-1.31,14.28,14.28,0,0,0,.31-1.56c.1-.63.19-1.29.27-2s.14-1.38.18-2,.06-1.18.06-1.61h-6.39a14.68,14.68,0,0,1-2.73,6.89A16.29,16.29,0,0,1,1133.83,338.64Z" transform="translate(-659.56 -257.72)"/><path class="cls-9" d="M1164.81,337.84v-19h2.26v7.2l1-1.39c.38.29.88.63,1.5,1s1.28.78,2,1.19,1.39.78,2,1.11a15.14,15.14,0,0,0,1.72.77,3.31,3.31,0,0,0-.48.58q-.28.4-.54.81c-.17.28-.29.49-.37.65-.44-.21-1-.48-1.56-.83s-1.25-.71-1.91-1.11-1.29-.8-1.89-1.19-1.08-.74-1.48-1v11.2Z" transform="translate(-659.56 -257.72)"/><path class="cls-9" d="M1187.49,325.75a8.87,8.87,0,0,0-.83-.76q-.56-.47-1.23-1c-.45-.33-.89-.63-1.31-.91a8.19,8.19,0,0,0-1.07-.61l1.49-1.87c.29.16.64.38,1.07.67l1.31.91c.44.32.86.63,1.24.94s.68.55.89.74Zm-2.86,10.65-1.24-2.23a21.07,21.07,0,0,0,3.57-1.23,33.72,33.72,0,0,0,3.71-1.94,40.74,40.74,0,0,0,3.52-2.36,34.93,34.93,0,0,0,3-2.53,17.75,17.75,0,0,0,2.22-2.45,6.61,6.61,0,0,0,.27.73,9.34,9.34,0,0,0,.41.91q.21.45.33.66a22.58,22.58,0,0,1-2.93,3,40,40,0,0,1-3.91,3,42.68,42.68,0,0,1-4.44,2.61A31.31,31.31,0,0,1,1184.63,336.4Z" transform="translate(-659.56 -257.72)"/><path class="cls-10" d="M661.6,383.09l-.45-2c.39,0,1-.11,1.7-.22s1.54-.25,2.42-.41V367.68c-.75.46-1.51.89-2.28,1.28s-1.52.74-2.25,1.05a8.52,8.52,0,0,0-.53-.87,5.82,5.82,0,0,0-.65-.81,25.32,25.32,0,0,0,3.09-1.37,34.72,34.72,0,0,0,3.1-1.85,22.4,22.4,0,0,0,2.72-2.1,11.6,11.6,0,0,0,1.87-2.12l2,.36a11.61,11.61,0,0,0,2.13,2.14,23.54,23.54,0,0,0,2.83,1.95,29.56,29.56,0,0,0,3.06,1.57,26.78,26.78,0,0,0,2.78,1.06,6.11,6.11,0,0,0-.68.91,9.87,9.87,0,0,0-.56.93c-.71-.25-1.45-.56-2.24-.93s-1.57-.78-2.35-1.23v8.55h-5a13.9,13.9,0,0,0,1,1,10.81,10.81,0,0,0,1.14.88c.54-.32,1.12-.68,1.74-1.09s1.19-.81,1.73-1.21a16.14,16.14,0,0,0,1.26-1l1.51,1.46c-.37.31-.8.63-1.31,1s-1,.69-1.58,1-1.08.65-1.57.93a19,19,0,0,0,2.81,1.19,21.82,21.82,0,0,0,3.09.78,3.11,3.11,0,0,0-.42.55q-.22.36-.42.75a3.48,3.48,0,0,0-.27.65,19.73,19.73,0,0,1-4.24-1.37,18.12,18.12,0,0,1-3.91-2.37A12.42,12.42,0,0,1,670,376.2h-2.59V380c1-.17,1.92-.35,2.78-.54s1.5-.34,1.93-.46v1.89q-.6.19-1.65.45l-2.3.52c-.84.19-1.69.36-2.53.53s-1.63.31-2.34.43S662,383,661.6,383.09Zm3.84-15.51h4.71V365.3h2.2v2.28h4.83a25.92,25.92,0,0,1-3.31-2.18A14.81,14.81,0,0,1,671.3,363a19.5,19.5,0,0,1-2.57,2.38A31.69,31.69,0,0,1,665.44,367.58Zm2,3.51h7.71v-1.76h-7.71Zm0,3.4h7.71v-1.82h-7.71Z" transform="translate(-659.56 -257.72)"/><path class="cls-10" d="M685.43,382v-9.26h8.74V382Zm2.16-1.94H692v-5.33h-4.44Zm2-9.41v-8.5H701.1v8.5Zm2.23-1.9h7.08V364.1h-7.08ZM696.54,382v-9.26h8.79V382Zm2.14-1.94h4.51v-5.33h-4.51Z" transform="translate(-659.56 -257.72)"/><path class="cls-10" d="M713.25,383.11a7.84,7.84,0,0,0-.42-1,7.13,7.13,0,0,0-.49-.86,12.57,12.57,0,0,0,2.6-.68,3.92,3.92,0,0,0,1.61-1.11,4.35,4.35,0,0,0,.85-1.81h-4.53v-1.83h4.77a5.74,5.74,0,0,0,0-.6v-1.53h-1.8V373a16.71,16.71,0,0,1-2.79,1.94,5.43,5.43,0,0,0-.48-.72,7.18,7.18,0,0,0-.62-.74,30.59,30.59,0,0,1-.72,5.15,13.3,13.3,0,0,1-1.8,4.21l-.58-.3-.71-.35a4.09,4.09,0,0,0-.54-.22,12.74,12.74,0,0,0,1.84-4.78,36.86,36.86,0,0,0,.56-6.81v-7.13h8.59v-2.16H721v2.16h9V365H712.05v5.21c0,1.07,0,2.08-.07,3a17.85,17.85,0,0,0,1.74-1.05,15.76,15.76,0,0,0,1.5-1.2q-.56-.48-1.2-1c-.44-.32-.82-.59-1.15-.79L714,368c.32.19.72.45,1.18.78s.89.65,1.3,1a10.75,10.75,0,0,0,1.32-1.94h-4.47v-1.61H720l.48.6a17.24,17.24,0,0,1-3.55,5.14H725a17.6,17.6,0,0,1-2.41-2.54,14.05,14.05,0,0,1-1.81-3l1.68-.72a13.32,13.32,0,0,0,1,1.8q.53-.4,1.08-.9c.36-.33.67-.62.91-.88l1.32,1.08c-.29.29-.65.62-1.09,1s-.86.69-1.26,1l.53.58c.17.19.36.37.55.55.36-.27.78-.61,1.23-1s.82-.77,1.1-1.07l1.36,1.1c-.3.31-.68.65-1.13,1s-.86.72-1.24,1a15.62,15.62,0,0,0,3.45,1.89,3.49,3.49,0,0,0-.68.78,7.57,7.57,0,0,0-.54.88,16.1,16.1,0,0,1-3.05-1.75v1h-2.25v2.13h5.13v1.83h-5.13v2.47a.59.59,0,0,0,.18.48,1.22,1.22,0,0,0,.7.14h1.49a3.21,3.21,0,0,0,1-.11.83.83,0,0,0,.5-.58,7,7,0,0,0,.26-1.54,9.4,9.4,0,0,0,.94.38c.4.15.73.26,1,.34a7.3,7.3,0,0,1-.57,2.29,1.73,1.73,0,0,1-1,.94,5.8,5.8,0,0,1-1.65.2H724a3.09,3.09,0,0,1-1.76-.37,1.47,1.47,0,0,1-.52-1.28v-3.36h-2.23a6.5,6.5,0,0,1-1,2.6,5.63,5.63,0,0,1-2,1.72A13.55,13.55,0,0,1,713.25,383.11Zm6.43-7.25h2v-2.13h-2v1.53A5.74,5.74,0,0,1,719.68,375.86Z" transform="translate(-659.56 -257.72)"/><path class="cls-10" d="M742.34,383v-4.61a17.67,17.67,0,0,1-2.61,1.75,29.21,29.21,0,0,1-3.13,1.52,22.82,22.82,0,0,1-3.19,1.05c0-.13-.13-.3-.24-.53s-.23-.44-.36-.67a3.24,3.24,0,0,0-.34-.5,23.17,23.17,0,0,0,2.79-.88,31.15,31.15,0,0,0,2.91-1.26,27.68,27.68,0,0,0,2.54-1.39h-7.88v-1.73h9.51v-1.2h-5.55v-3.31h-4v-1.68h4V368l-1.33,0-1.14,0-.24-1.68h1.66l2.28,0,.6-.87c.2-.32.4-.62.57-.93h-6.26v-1.65h9.26V361h2.28v1.92h9.32v1.65H748c.79.4,1.59.87,2.43,1.39s1.53,1,2.11,1.47a4.28,4.28,0,0,0-.43.43c-.18.19-.34.38-.5.58a5.08,5.08,0,0,0-.34.48c-.18-.16-.37-.33-.59-.51s-.45-.35-.71-.53v1.66h3.94v1.68h-3.94v3.31h-5.57v1.2h9.58v1.73H746a27.43,27.43,0,0,0,2.53,1.39c1,.47,1.93.89,2.92,1.26a22.62,22.62,0,0,0,2.79.88,3.24,3.24,0,0,0-.34.5c-.13.23-.25.45-.36.67s-.19.4-.24.53a21.67,21.67,0,0,1-3.22-1.07A27,27,0,0,1,747,380.1a18.51,18.51,0,0,1-2.61-1.77V383Zm-3.51-13.44h3.51v-1.7c-.59,0-1.19,0-1.78.06l-1.73.08Zm0,3.36h3.51v-1.68h-3.51Zm1.71-6.6,3.44-.11,3.13-.11c-.24-.12-.47-.25-.7-.38s-.47-.24-.69-.34l.75-.79h-4.83c-.16.29-.33.58-.53.88S740.73,366,740.54,366.31Zm3.81,3.24h3.56v-2l-1.7.09-1.86.1Zm0,3.36h3.56v-1.68h-3.56Z" transform="translate(-659.56 -257.72)"/><path class="cls-10" d="M760.72,382.92v-7.63l-2.35.84c-.74.25-1.27.43-1.58.52l-.53-2.25c.43-.1,1.06-.27,1.88-.53l2.58-.84v-4.9H758.9c-.15.64-.3,1.25-.47,1.82a13.58,13.58,0,0,1-.52,1.47,4.23,4.23,0,0,0-.55-.17c-.26-.06-.51-.12-.78-.16A3.7,3.7,0,0,0,756,371a17.66,17.66,0,0,0,1.12-3.61,23.78,23.78,0,0,0,.51-4l1.94.19a18.86,18.86,0,0,1-.26,2.6h1.46v-5h2.14v5H765v2h-2.16v4.16l1.39-.5c.42-.15.73-.27.94-.37v2.07c-.21.11-.52.25-.94.42l-1.39.56v8.45Zm9.89-.17a9.78,9.78,0,0,0-.2-1.16,6.64,6.64,0,0,0-.33-1.07h2.26a2.15,2.15,0,0,0,1.5-.48,3.6,3.6,0,0,0,.8-1.85c.08-.4.17-1,.28-1.69s.2-1.57.29-2.52.16-2,.24-3,.1-2.11.1-3.15h-1.2a23.73,23.73,0,0,1-1.54,6.19,15.5,15.5,0,0,1-2.88,4.53,20.39,20.39,0,0,1-4.39,3.51,3.18,3.18,0,0,0-.38-.6c-.18-.22-.36-.43-.55-.63a4.45,4.45,0,0,0-.48-.45,15.16,15.16,0,0,0,5.59-4.84,18,18,0,0,0,2.76-7.71H771a17.41,17.41,0,0,1-2.07,5.69,14.33,14.33,0,0,1-4,4.32,4.76,4.76,0,0,0-.67-.79,4.67,4.67,0,0,0-.79-.67,11.49,11.49,0,0,0,3.68-3.63,15.28,15.28,0,0,0,2-4.92h-1.37a18.16,18.16,0,0,1-2.21,3.72c-.22-.14-.53-.31-.91-.51a4.72,4.72,0,0,0-.86-.38,15.49,15.49,0,0,0,1.7-2.7,24.34,24.34,0,0,0,1.38-3.3,19.31,19.31,0,0,0,.83-3.31l2,.29a24,24,0,0,1-1.18,4.27h9.07c0,1.19,0,2.4-.07,3.64s-.11,2.43-.19,3.57-.17,2.19-.27,3.12-.19,1.7-.28,2.27a8.17,8.17,0,0,1-.78,2.64,2.77,2.77,0,0,1-1.37,1.26,5.83,5.83,0,0,1-2.17.35Z" transform="translate(-659.56 -257.72)"/><path class="cls-10" d="M800.78,383.57a16.59,16.59,0,0,1-3.72-5.08,15.52,15.52,0,0,1,0-12.84,16.59,16.59,0,0,1,3.72-5.08l1,1a16.81,16.81,0,0,0-3.41,4.77,14.25,14.25,0,0,0,0,11.54,16.81,16.81,0,0,0,3.41,4.77Z" transform="translate(-659.56 -257.72)"/><path class="cls-10" d="M805.6,383.09l-.45-2c.39,0,1-.11,1.7-.22s1.54-.25,2.42-.41V367.68c-.75.46-1.51.89-2.28,1.28s-1.52.74-2.25,1.05a8.52,8.52,0,0,0-.53-.87,5.82,5.82,0,0,0-.65-.81,25.32,25.32,0,0,0,3.09-1.37,34.72,34.72,0,0,0,3.1-1.85,22.4,22.4,0,0,0,2.72-2.1,11.6,11.6,0,0,0,1.87-2.12l2,.36a11.61,11.61,0,0,0,2.13,2.14,23.54,23.54,0,0,0,2.83,1.95,29.56,29.56,0,0,0,3.06,1.57,26.78,26.78,0,0,0,2.78,1.06,6.11,6.11,0,0,0-.68.91,9.87,9.87,0,0,0-.56.93c-.71-.25-1.45-.56-2.24-.93s-1.57-.78-2.35-1.23v8.55h-5a13.9,13.9,0,0,0,1,1,10.81,10.81,0,0,0,1.14.88c.54-.32,1.12-.68,1.74-1.09s1.19-.81,1.73-1.21a16.14,16.14,0,0,0,1.26-1l1.51,1.46c-.37.31-.8.63-1.31,1s-1,.69-1.58,1-1.08.65-1.57.93a19,19,0,0,0,2.81,1.19,21.82,21.82,0,0,0,3.09.78,3.11,3.11,0,0,0-.42.55q-.22.36-.42.75a3.48,3.48,0,0,0-.27.65,19.73,19.73,0,0,1-4.24-1.37,18.12,18.12,0,0,1-3.91-2.37A12.42,12.42,0,0,1,814,376.2h-2.59V380c1-.17,1.92-.35,2.78-.54s1.5-.34,1.93-.46v1.89q-.6.19-1.65.45l-2.3.52c-.84.19-1.69.36-2.53.53s-1.63.31-2.34.43S806,383,805.6,383.09Zm3.84-15.51h4.71V365.3h2.2v2.28h4.83a25.92,25.92,0,0,1-3.31-2.18A14.81,14.81,0,0,1,815.3,363a19.5,19.5,0,0,1-2.57,2.38A31.69,31.69,0,0,1,809.44,367.58Zm2,3.51h7.71v-1.76h-7.71Zm0,3.4h7.71v-1.82h-7.71Z" transform="translate(-659.56 -257.72)"/><path class="cls-10" d="M829.43,382v-9.26h8.74V382Zm2.16-1.94H836v-5.33h-4.44Zm2-9.41v-8.5H845.1v8.5Zm2.23-1.9h7.08V364.1h-7.08ZM840.54,382v-9.26h8.79V382Zm2.14-1.94h4.51v-5.33h-4.51Z" transform="translate(-659.56 -257.72)"/><path class="cls-10" d="M856.46,378.26V366.17h13.82v12.09Zm2.25-2.11H868v-7.87h-9.31Z" transform="translate(-659.56 -257.72)"/><path class="cls-10" d="M879.5,380.49l-.66-1a4.11,4.11,0,0,0-.78-.9,24,24,0,0,0,3.69-2,30.73,30.73,0,0,0,3.53-2.75,28.11,28.11,0,0,0,3.05-3.24,20.44,20.44,0,0,0,2.25-3.47l-2.5.16-2.83.18-2.63.16-1.9.12-.26-2.32,1.75,0c.78,0,1.66,0,2.63-.08s1.93-.09,2.9-.15l2.62-.16c.77-.06,1.35-.12,1.71-.18l1.49,1a20.65,20.65,0,0,1-1.52,3.24,25.59,25.59,0,0,1-2.13,3.07c.55.43,1.13.92,1.76,1.46s1.23,1.11,1.84,1.69l1.71,1.68a15,15,0,0,1,1.29,1.46,8.36,8.36,0,0,0-1,.75,9.49,9.49,0,0,0-.9.9,17.73,17.73,0,0,0-1.21-1.5c-.49-.55-1-1.12-1.6-1.7s-1.15-1.15-1.73-1.69-1.1-1-1.58-1.42a32,32,0,0,1-4.34,3.88A29.58,29.58,0,0,1,879.5,380.49Z" transform="translate(-659.56 -257.72)"/><path class="cls-10" d="M901.1,382.92v-21h6.62l.89.75c-.07.17-.2.48-.42.93s-.46,1-.73,1.53l-.82,1.68-.72,1.45-.43.84a11.93,11.93,0,0,1,1.32,1.41,7.65,7.65,0,0,1,1,1.72,5.1,5.1,0,0,1,.4,2,4,4,0,0,1-1,3,3.37,3.37,0,0,1-2.37.88h-1a9.18,9.18,0,0,0-.58-2.09h1.08a1.65,1.65,0,0,0,1.17-.43A2.4,2.4,0,0,0,906,374a4.69,4.69,0,0,0-.72-2.48,9.77,9.77,0,0,0-1.87-2.2l.32-.69c.17-.36.36-.78.58-1.27s.43-1,.65-1.46l.56-1.31c.16-.39.27-.64.31-.77h-2.71v19.13Zm10.46.05a6.9,6.9,0,0,0-.17-1.08,5.07,5.07,0,0,0-.29-1h1.71a1.11,1.11,0,0,0,.7-.17.76.76,0,0,0,.21-.62v-5.76h-5.18v-2h5.18V370H910v-1.73c-.35.28-.69.54-1,.78s-.66.47-1,.66c-.09-.12-.21-.3-.39-.51l-.53-.64a2.43,2.43,0,0,0-.43-.43,13.7,13.7,0,0,0,2.11-1.42,21.43,21.43,0,0,0,2.07-1.88c.65-.68,1.23-1.34,1.74-2a12,12,0,0,0,1.14-1.72l2.11.29a11.79,11.79,0,0,0,1.32,1.61,25.39,25.39,0,0,0,4.06,3.44,11,11,0,0,0,1.94,1.09,4.64,4.64,0,0,0-.48.53l-.54.71a5.78,5.78,0,0,0-.37.56,17.08,17.08,0,0,1-1.92-1.24c-.67-.5-1.33-1-2-1.6a24.42,24.42,0,0,1-1.78-1.72,12,12,0,0,1-1.28-1.58,19.18,19.18,0,0,1-2,2.46,31.41,31.41,0,0,1-2.6,2.46h9.26V370h-3.62v2.38h5.73v2h-5.73v6.46q0,2.16-2.52,2.16Zm-3.21-1.88a8.66,8.66,0,0,0-.76-.79,6.74,6.74,0,0,0-.83-.67,12.72,12.72,0,0,0,1.55-1.38c.52-.54,1-1.09,1.45-1.66a11.72,11.72,0,0,0,1.08-1.57l1.75,1.11a17,17,0,0,1-1.24,1.84,20,20,0,0,1-1.5,1.74A15.25,15.25,0,0,1,908.35,381.09Zm12.84,0a17.25,17.25,0,0,1-1.53-1.35,19.48,19.48,0,0,1-1.54-1.71,17,17,0,0,1-1.25-1.82l1.7-1.1a13.41,13.41,0,0,0,1.12,1.56,17.43,17.43,0,0,0,1.5,1.63,14.08,14.08,0,0,0,1.58,1.35,3.91,3.91,0,0,0-.83.66A8.35,8.35,0,0,0,921.19,381.05Z" transform="translate(-659.56 -257.72)"/><path class="cls-10" d="M938.06,382.87a21.13,21.13,0,0,0-1.14-1.91c-.48-.71-1-1.45-1.56-2.23s-1.15-1.53-1.74-2.27-1.16-1.41-1.71-2-1-1.12-1.41-1.52a1.54,1.54,0,0,1,0-2.71c.53-.48,1.15-1.09,1.84-1.81s1.4-1.51,2.11-2.33,1.37-1.64,2-2.44a14.47,14.47,0,0,0,1.34-2.11l2.07,1.42c-.36.51-.83,1.12-1.42,1.84s-1.23,1.46-1.93,2.22-1.37,1.49-2,2.19-1.23,1.27-1.73,1.74-.44.83,0,1.29.86.91,1.39,1.52,1.08,1.26,1.66,2,1.14,1.42,1.7,2.14,1.07,1.4,1.53,2,.84,1.17,1.11,1.6a7.3,7.3,0,0,0-.7.37c-.28.17-.56.35-.82.54A4.52,4.52,0,0,0,938.06,382.87Z" transform="translate(-659.56 -257.72)"/><path class="cls-10" d="M950,383.57l-1-1a16.27,16.27,0,0,0,3.42-4.77,14.36,14.36,0,0,0,0-11.54,16.27,16.27,0,0,0-3.42-4.77l1-1a16.76,16.76,0,0,1,3.72,5.08,15.52,15.52,0,0,1,0,12.84A16.76,16.76,0,0,1,950,383.57Z" transform="translate(-659.56 -257.72)"/><path class="cls-10" d="M662.49,441.44v-2a17.19,17.19,0,0,1,2.25-8.4,40.24,40.24,0,0,1,7.53-9.12q1.86-1.8,3.54-3.63a23.41,23.41,0,0,0,2.76-3.6,7,7,0,0,0,1.14-3.39,6.19,6.19,0,0,0-1.41-4.62,5.57,5.57,0,0,0-4.17-1.5,4.32,4.32,0,0,0-3.84,1.86,9.24,9.24,0,0,0-1.26,5.22h-6.36q0-6.24,3.18-9.72a10.69,10.69,0,0,1,8.28-3.48,13.11,13.11,0,0,1,6.21,1.44,10.45,10.45,0,0,1,4.29,4.2,12.8,12.8,0,0,1,1.44,6.78,11.6,11.6,0,0,1-1.32,5.22,22,22,0,0,1-3.33,4.65q-2.07,2.25-4.71,4.77-2.76,2.7-4.89,5.16a10.12,10.12,0,0,0-2.49,4.26h16v5.88Z" transform="translate(-659.56 -257.72)"/><path class="cls-10" d="M693.81,451.58l-1.86-3.3a9.44,9.44,0,0,0,4.8-2.79,6.28,6.28,0,0,0,1.8-4.23q0-.36,0-.66a3.79,3.79,0,0,0-.09-.54,5.32,5.32,0,0,1-1.5,1.32,3.57,3.57,0,0,1-1.86.54,4.2,4.2,0,0,1-2.91-1.11,3.88,3.88,0,0,1-1.23-3,3.49,3.49,0,0,1,1.41-3,5.73,5.73,0,0,1,3.33-1.11,6.09,6.09,0,0,1,4.89,2.13,8.21,8.21,0,0,1,2,5.67,8.62,8.62,0,0,1-2.4,6.18A15.8,15.8,0,0,1,693.81,451.58Z" transform="translate(-659.56 -257.72)"/><path class="cls-10" d="M716.55,441.44V407.6l-7.32,4.8-3.42-5.46,12.24-7.56H723v42.06Z" transform="translate(-659.56 -257.72)"/><path class="cls-10" d="M741.09,441.44V407.6l-7.32,4.8-3.42-5.46,12.24-7.56h4.92v42.06Z" transform="translate(-659.56 -257.72)"/><path class="cls-10" d="M770.43,442a14.25,14.25,0,0,1-4.95-.87,10.12,10.12,0,0,1-4.23-3.06,15.33,15.33,0,0,1-2.88-6.18,39.62,39.62,0,0,1-.9-10.29q.18-11.88,3.84-17.37a12.22,12.22,0,0,1,16.44-3.78,13.89,13.89,0,0,1,4.56,4.23l-4.8,3.72a8.82,8.82,0,0,0-2.49-2.7,5.77,5.77,0,0,0-3.33-1,6.35,6.35,0,0,0-6,3.72q-2,3.72-2.07,11a6.91,6.91,0,0,1,2.91-2.37,9,9,0,0,1,3.81-.87,11.75,11.75,0,0,1,6,1.53,11,11,0,0,1,4.17,4.32,13.59,13.59,0,0,1,1.53,6.63,15.62,15.62,0,0,1-1.44,6.84,11.38,11.38,0,0,1-4,4.71A11,11,0,0,1,770.43,442Zm-.42-6.12a4.83,4.83,0,0,0,4.11-2,8.44,8.44,0,0,0,1.47-5.16,7.48,7.48,0,0,0-1.47-4.83,4.72,4.72,0,0,0-3.87-1.83,5.33,5.33,0,0,0-4.32,1.86,6.86,6.86,0,0,0-1.44,4.86,8.85,8.85,0,0,0,1.56,5.25A4.76,4.76,0,0,0,770,435.92Z" transform="translate(-659.56 -257.72)"/><path class="cls-10" d="M787.17,442.78a6.92,6.92,0,0,0-.67-1,5.17,5.17,0,0,0-.81-.88A14.59,14.59,0,0,0,790,438a11.08,11.08,0,0,0,2.61-4.3,18.56,18.56,0,0,0,.88-6.09v-2.31h-7.58v-2h21.26v2H795.81v2.31c0,.27,0,.54,0,.8l0,.78h8.66c0,.69,0,1.5-.11,2.44s-.13,1.9-.22,2.89-.19,1.93-.32,2.82a20.45,20.45,0,0,1-.43,2.24,3.72,3.72,0,0,1-1.4,2.34,5.06,5.06,0,0,1-2.8.66h-2.38q0-.48-.18-1.2a8.84,8.84,0,0,0-.27-1.12h2.45a2,2,0,0,0,2.35-1.69c.11-.41.21-.93.31-1.55s.18-1.3.26-2,.14-1.39.18-2,.06-1.17.06-1.6h-6.38a14.75,14.75,0,0,1-2.74,6.88A16.11,16.11,0,0,1,787.17,442.78Z" transform="translate(-659.56 -257.72)"/><path class="cls-10" d="M818.16,442V423h2.25v7.2l1-1.39c.38.29.88.62,1.5,1s1.27.78,2,1.18,1.39.78,2,1.12a16.21,16.21,0,0,0,1.72.77,3.16,3.16,0,0,0-.48.57c-.2.28-.38.55-.55.82s-.29.49-.37.65c-.43-.21-1-.48-1.56-.83s-1.24-.71-1.9-1.11-1.3-.8-1.89-1.19-1.09-.74-1.49-1.05V442Z" transform="translate(-659.56 -257.72)"/><path class="cls-10" d="M840.84,429.9a8.77,8.77,0,0,0-.83-.76c-.38-.31-.79-.63-1.24-1s-.88-.63-1.3-.91a8.44,8.44,0,0,0-1.07-.62l1.49-1.87c.28.16.64.39,1.06.67s.86.6,1.31.92.86.63,1.25.93.68.55.89.75ZM838,440.55l-1.25-2.23a20.12,20.12,0,0,0,3.58-1.24,32.82,32.82,0,0,0,3.71-1.93,40.57,40.57,0,0,0,3.51-2.36,37,37,0,0,0,3-2.53,19.13,19.13,0,0,0,2.22-2.45,6.89,6.89,0,0,0,.26.73c.13.31.27.61.41.91s.26.52.34.66a23.89,23.89,0,0,1-2.93,3,40,40,0,0,1-3.91,3,44.78,44.78,0,0,1-4.44,2.6A30.31,30.31,0,0,1,838,440.55Z" transform="translate(-659.56 -257.72)"/><path class="cls-11" d="M1158.06,784.33" transform="translate(-659.56 -257.72)"/><line class="cls-12" x1="347.76" y1="181.62" x2="381.44" y2="96.94"/><path class="cls-13" d="M1010.88,440.56a3.76,3.76,0,1,1-2.1-4.89A3.76,3.76,0,0,1,1010.88,440.56Z" transform="translate(-659.56 -257.72)"/><line class="cls-12" x1="210.32" y1="299.09" x2="100.37" y2="195.61"/><path class="cls-13" d="M872.32,554a3.76,3.76,0,1,1-5.31.16A3.75,3.75,0,0,1,872.32,554Z" transform="translate(-659.56 -257.72)"/></svg>