<svg id="Layer_1" data-name="Layer 1" xmlns="http://www.w3.org/2000/svg" viewBox="0 0 629.15 601.41"><defs><style>.cls-1{fill:#fe6666;}.cls-1,.cls-2,.cls-3,.cls-4,.cls-5,.cls-6{stroke:#fff;}.cls-1,.cls-12,.cls-2,.cls-3,.cls-4,.cls-5,.cls-6{stroke-miterlimit:10;}.cls-1,.cls-4{stroke-width:3px;}.cls-2{fill:#a7d967;}.cls-2,.cls-3,.cls-5,.cls-6{fill-rule:evenodd;}.cls-3{fill:#f6ad3b;}.cls-4,.cls-9{fill:#ca2417;}.cls-10,.cls-5{fill:#29978e;}.cls-6{fill:#ccc;}.cls-7{fill:#fff;}.cls-8{fill:#444;}.cls-11,.cls-12{fill:none;}.cls-12{stroke:#000444;stroke-width:2px;}.cls-13{fill:#000444;}</style></defs><path class="cls-1" d="M1052.66,636.17,1033,411.69c6.7-.59,12.92-.86,19.64-.86Z" transform="translate(-649.35 -260.6)"/><path class="cls-2" d="M1052.66,636.17,829,608.71a224.7,224.7,0,0,1,204-197Z" transform="translate(-649.35 -260.6)"/><path class="cls-3" d="M1052.66,636.17V410.83c124.45,0,225.34,100.89,225.34,225.34s-100.89,225.34-225.34,225.34S827.33,760.62,827.33,636.17A190.94,190.94,0,0,1,829,608.71Z" transform="translate(-649.35 -260.6)"/><path class="cls-4" d="M1051.66,636.17,942.42,439.08c34.61-19.18,69.67-28.25,109.24-28.25Z" transform="translate(-649.35 -260.6)"/><path class="cls-5" d="M1051.66,636.17l-189,122.73C794.9,654.52,824.56,515,928.94,447.18c4.8-3.11,8.47-5.32,13.48-8.1Z" transform="translate(-649.35 -260.6)"/><path class="cls-6" d="M1051.66,636.17V410.83c124.45,0,225.34,100.89,225.34,225.34s-100.89,225.34-225.34,225.34c-79,0-145.94-36.34-189-102.61Z" transform="translate(-649.35 -260.6)"/><circle class="cls-7" cx="402.81" cy="373.74" r="150"/><path class="cls-8" d="M960.16,656.28a11.11,11.11,0,0,1,5.85,3.94,10.93,10.93,0,0,1,1.89,6.5,12.16,12.16,0,0,1-1.09,5.22,11.46,11.46,0,0,1-3.08,4,14.13,14.13,0,0,1-4.75,2.55,21.36,21.36,0,0,1-12.27,0,14.18,14.18,0,0,1-4.76-2.55,11.43,11.43,0,0,1-3.07-4,12.17,12.17,0,0,1-1.1-5.22,10.93,10.93,0,0,1,1.89-6.5,11.11,11.11,0,0,1,5.85-3.94,10,10,0,0,1-4.72-3.75,11.31,11.31,0,0,1-.57-10.44,11.27,11.27,0,0,1,2.8-3.71,13.09,13.09,0,0,1,4.31-2.46,17.66,17.66,0,0,1,11,0,13,13,0,0,1,4.3,2.46,11.3,11.3,0,0,1,2.81,3.71,11.39,11.39,0,0,1-.57,10.44A10.07,10.07,0,0,1,960.16,656.28Zm-7.32,17.31a9,9,0,0,0,3.21-.53,6.63,6.63,0,0,0,2.33-1.45,6,6,0,0,0,1.42-2.22,7.94,7.94,0,0,0,.48-2.79,7,7,0,0,0-2-5.4,9.06,9.06,0,0,0-10.92,0,7,7,0,0,0-2,5.4,7.94,7.94,0,0,0,.48,2.79,6,6,0,0,0,1.43,2.22,6.59,6.59,0,0,0,2.32,1.45A9,9,0,0,0,952.84,673.59Zm0-33a7.26,7.26,0,0,0-2.85.51,5.72,5.72,0,0,0-2,1.36,5.4,5.4,0,0,0-1.17,2,7.26,7.26,0,0,0-.38,2.34,9.9,9.9,0,0,0,.32,2.5,5.74,5.74,0,0,0,1.06,2.16,5.35,5.35,0,0,0,2,1.52,8.34,8.34,0,0,0,6.06,0,5.35,5.35,0,0,0,2-1.52,5.76,5.76,0,0,0,1.07-2.16,9.9,9.9,0,0,0,.31-2.5,7,7,0,0,0-.39-2.34,5.7,5.7,0,0,0-1.17-2,5.58,5.58,0,0,0-2-1.36A7.26,7.26,0,0,0,952.84,640.62Z" transform="translate(-649.35 -260.6)"/><path class="cls-8" d="M1003.54,657.21a35.52,35.52,0,0,1-1.21,9.85A20.22,20.22,0,0,1,999,674,13.57,13.57,0,0,1,993.9,678a15.05,15.05,0,0,1-6.32,1.34A14.81,14.81,0,0,1,981.3,678a13.53,13.53,0,0,1-5-4.06,20.19,20.19,0,0,1-3.33-6.92,41.11,41.11,0,0,1,0-19.72,20.17,20.17,0,0,1,3.33-6.9,13.56,13.56,0,0,1,5-4.07,14.8,14.8,0,0,1,6.28-1.33,15,15,0,0,1,6.32,1.33,13.6,13.6,0,0,1,5.07,4.07,20.2,20.2,0,0,1,3.36,6.9A35.52,35.52,0,0,1,1003.54,657.21Zm-7.65,0a36.68,36.68,0,0,0-.69-7.8,15.7,15.7,0,0,0-1.84-4.92,6.76,6.76,0,0,0-2.66-2.57,7,7,0,0,0-3.12-.73,6.83,6.83,0,0,0-3.07.73,6.7,6.7,0,0,0-2.63,2.57,15.73,15.73,0,0,0-1.81,4.92,45.08,45.08,0,0,0,0,15.6,15.73,15.73,0,0,0,1.81,4.92,6.67,6.67,0,0,0,2.63,2.56,6.84,6.84,0,0,0,3.07.74,7,7,0,0,0,3.12-.74,6.73,6.73,0,0,0,2.66-2.56A15.7,15.7,0,0,0,995.2,665,36.68,36.68,0,0,0,995.89,657.21Z" transform="translate(-649.35 -260.6)"/><path class="cls-8" d="M1007.62,674.82a4.62,4.62,0,0,1,.35-1.77,4.33,4.33,0,0,1,.94-1.44,4.59,4.59,0,0,1,3.24-1.32,4.44,4.44,0,0,1,1.79.36,4.78,4.78,0,0,1,1.44,1,4.55,4.55,0,0,1,1,5,4.47,4.47,0,0,1-1,1.43,4.54,4.54,0,0,1-1.44.94,4.61,4.61,0,0,1-1.79.35,4.69,4.69,0,0,1-1.8-.35,4.33,4.33,0,0,1-1.44-.94,4.39,4.39,0,0,1-.94-1.43A4.56,4.56,0,0,1,1007.62,674.82Z" transform="translate(-649.35 -260.6)"/><path class="cls-8" d="M1044,656.28a11.11,11.11,0,0,1,5.85,3.94,10.93,10.93,0,0,1,1.89,6.5,12.16,12.16,0,0,1-1.09,5.22,11.46,11.46,0,0,1-3.08,4,14.13,14.13,0,0,1-4.75,2.55,21.36,21.36,0,0,1-12.27,0,14.18,14.18,0,0,1-4.76-2.55,11.43,11.43,0,0,1-3.07-4,12.17,12.17,0,0,1-1.1-5.22,10.93,10.93,0,0,1,1.89-6.5,11.11,11.11,0,0,1,5.85-3.94,10,10,0,0,1-4.72-3.75,11.31,11.31,0,0,1-.57-10.44,11.27,11.27,0,0,1,2.8-3.71,13.09,13.09,0,0,1,4.31-2.46,17.66,17.66,0,0,1,11,0,13,13,0,0,1,4.3,2.46,11.3,11.3,0,0,1,2.81,3.71,11.39,11.39,0,0,1-.57,10.44A10.07,10.07,0,0,1,1044,656.28Zm-7.32,17.31a9,9,0,0,0,3.21-.53,6.63,6.63,0,0,0,2.33-1.45,6,6,0,0,0,1.42-2.22,7.94,7.94,0,0,0,.48-2.79,7,7,0,0,0-2-5.4,9.06,9.06,0,0,0-10.92,0,7,7,0,0,0-2,5.4,7.94,7.94,0,0,0,.48,2.79,6,6,0,0,0,1.43,2.22,6.59,6.59,0,0,0,2.32,1.45A9,9,0,0,0,1036.69,673.59Zm0-33a7.26,7.26,0,0,0-2.85.51,5.72,5.72,0,0,0-2,1.36,5.4,5.4,0,0,0-1.17,2,7.26,7.26,0,0,0-.38,2.34,9.9,9.9,0,0,0,.32,2.5,5.74,5.74,0,0,0,1.06,2.16,5.35,5.35,0,0,0,2,1.52,8.34,8.34,0,0,0,6.06,0,5.35,5.35,0,0,0,2-1.52,5.76,5.76,0,0,0,1.07-2.16,9.9,9.9,0,0,0,.31-2.5,7,7,0,0,0-.39-2.34,5.7,5.7,0,0,0-1.17-2,5.58,5.58,0,0,0-2-1.36A7.26,7.26,0,0,0,1036.69,640.62Z" transform="translate(-649.35 -260.6)"/><path class="cls-8" d="M1078.81,656.28a11.11,11.11,0,0,1,5.85,3.94,10.93,10.93,0,0,1,1.89,6.5,12.16,12.16,0,0,1-1.09,5.22,11.46,11.46,0,0,1-3.08,4,14.13,14.13,0,0,1-4.75,2.55,21.36,21.36,0,0,1-12.27,0,14.18,14.18,0,0,1-4.76-2.55,11.43,11.43,0,0,1-3.07-4,12,12,0,0,1-1.1-5.22,10.93,10.93,0,0,1,1.89-6.5,11.11,11.11,0,0,1,5.85-3.94,10,10,0,0,1-4.72-3.75,11.31,11.31,0,0,1-.57-10.44,11.27,11.27,0,0,1,2.8-3.71,13.09,13.09,0,0,1,4.31-2.46,17.66,17.66,0,0,1,11,0,13,13,0,0,1,4.3,2.46,11.3,11.3,0,0,1,2.81,3.71,11.39,11.39,0,0,1-.57,10.44A10.07,10.07,0,0,1,1078.81,656.28Zm-7.32,17.31a9,9,0,0,0,3.21-.53,6.63,6.63,0,0,0,2.33-1.45,6,6,0,0,0,1.42-2.22,7.94,7.94,0,0,0,.48-2.79,7,7,0,0,0-2-5.4,9.06,9.06,0,0,0-10.92,0,7,7,0,0,0-2,5.4,7.94,7.94,0,0,0,.48,2.79,6,6,0,0,0,1.43,2.22,6.59,6.59,0,0,0,2.32,1.45A9,9,0,0,0,1071.49,673.59Zm0-33a7.26,7.26,0,0,0-2.85.51,5.72,5.72,0,0,0-2,1.36,5.4,5.4,0,0,0-1.17,2,7.26,7.26,0,0,0-.38,2.34,9.9,9.9,0,0,0,.32,2.5,5.74,5.74,0,0,0,1.06,2.16,5.35,5.35,0,0,0,2,1.52,8.34,8.34,0,0,0,6.06,0,5.35,5.35,0,0,0,2-1.52,5.76,5.76,0,0,0,1.07-2.16,9.9,9.9,0,0,0,.31-2.5,7,7,0,0,0-.39-2.34,5.7,5.7,0,0,0-1.17-2,5.58,5.58,0,0,0-2-1.36A7.26,7.26,0,0,0,1071.49,640.62Z" transform="translate(-649.35 -260.6)"/><path class="cls-8" d="M1096.19,678.9V666.58H1098a.72.72,0,0,1,.75.54l.2.92a6.94,6.94,0,0,1,.67-.66,4.14,4.14,0,0,1,1.62-.86,3.65,3.65,0,0,1,1-.13,2.87,2.87,0,0,1,1.91.63,3.72,3.72,0,0,1,1.12,1.68,3.85,3.85,0,0,1,1.67-1.77,4.69,4.69,0,0,1,1.1-.41,5.82,5.82,0,0,1,1.17-.13,5.08,5.08,0,0,1,1.81.31,3.49,3.49,0,0,1,1.33.92,4,4,0,0,1,.83,1.46,6.66,6.66,0,0,1,.28,2v7.84h-3v-7.84a2.67,2.67,0,0,0-.51-1.77,1.89,1.89,0,0,0-1.51-.59,2.34,2.34,0,0,0-.85.15,2,2,0,0,0-1.15,1.19,3,3,0,0,0-.16,1v7.84h-3v-7.84a2.71,2.71,0,0,0-.5-1.8,1.83,1.83,0,0,0-1.46-.56,2.39,2.39,0,0,0-1.2.31,4.42,4.42,0,0,0-1,.87v9Z" transform="translate(-649.35 -260.6)"/><path class="cls-8" d="M1119.77,663a1.8,1.8,0,0,1-.16.72,1.85,1.85,0,0,1-.41.58,2.11,2.11,0,0,1-.61.41,1.85,1.85,0,0,1-.74.15,1.82,1.82,0,0,1-1.32-.56,1.85,1.85,0,0,1-.41-.58,1.79,1.79,0,0,1-.15-.72,1.86,1.86,0,0,1,.15-.75,1.94,1.94,0,0,1,.41-.6,1.76,1.76,0,0,1,.59-.4,1.8,1.8,0,0,1,.73-.15,1.85,1.85,0,0,1,.74.15,2.08,2.08,0,0,1,.61.4,1.94,1.94,0,0,1,.41.6A1.87,1.87,0,0,1,1119.77,663Zm-.41,3.58V678.9h-3V666.58Z" transform="translate(-649.35 -260.6)"/><path class="cls-8" d="M1125.38,661.06V678.9h-3V661.06Z" transform="translate(-649.35 -260.6)"/><path class="cls-8" d="M1138.28,679.09a3.2,3.2,0,0,1-2.46-.91,3.45,3.45,0,0,1-.86-2.5V668.8h-1.26a.59.59,0,0,1-.41-.15.63.63,0,0,1-.17-.47V667l2-.32.63-3.36a.66.66,0,0,1,.22-.37.69.69,0,0,1,.43-.13h1.54v3.87h3.29v2.11h-3.29v6.68a1.38,1.38,0,0,0,.28.9,1,1,0,0,0,.78.32,1.24,1.24,0,0,0,.46-.07l.32-.13.25-.14a.36.36,0,0,1,.22-.07.31.31,0,0,1,.21.07.72.72,0,0,1,.18.2l.89,1.44a4.39,4.39,0,0,1-1.49.81A5.37,5.37,0,0,1,1138.28,679.09Z" transform="translate(-649.35 -260.6)"/><path class="cls-8" d="M1148.46,666.39a6.65,6.65,0,0,1,2.49.45,5.26,5.26,0,0,1,1.92,1.26,5.49,5.49,0,0,1,1.23,2,7.76,7.76,0,0,1,.43,2.63,7.86,7.86,0,0,1-.43,2.64,5.71,5.71,0,0,1-1.23,2,5.29,5.29,0,0,1-1.92,1.27,6.65,6.65,0,0,1-2.49.45,6.72,6.72,0,0,1-2.51-.45,5.32,5.32,0,0,1-1.93-1.27,5.71,5.71,0,0,1-1.23-2,7.61,7.61,0,0,1-.44-2.64,7.52,7.52,0,0,1,.44-2.63,5.49,5.49,0,0,1,1.23-2,5.3,5.3,0,0,1,1.93-1.26A6.72,6.72,0,0,1,1148.46,666.39Zm0,10.41a2.6,2.6,0,0,0,2.27-1,5.15,5.15,0,0,0,.74-3,5.27,5.27,0,0,0-.74-3,2.6,2.6,0,0,0-2.27-1,2.65,2.65,0,0,0-2.31,1.05,5.17,5.17,0,0,0-.75,3,5.12,5.12,0,0,0,.75,3A2.67,2.67,0,0,0,1148.46,676.8Z" transform="translate(-649.35 -260.6)"/><path class="cls-8" d="M1159.57,668.1a7.36,7.36,0,0,1,.79-.69,3.94,3.94,0,0,1,.87-.54,4.87,4.87,0,0,1,2.14-.48,4.57,4.57,0,0,1,1.79.34,3.5,3.5,0,0,1,1.3,1,4.31,4.31,0,0,1,.8,1.48,6.25,6.25,0,0,1,.27,1.89v7.84h-3v-7.84a2.65,2.65,0,0,0-.52-1.75,1.92,1.92,0,0,0-1.57-.61,3.12,3.12,0,0,0-1.44.34,5.54,5.54,0,0,0-1.27,1v8.91h-3V666.58h1.81a.74.74,0,0,1,.76.54Z" transform="translate(-649.35 -260.6)"/><path class="cls-8" d="M952.5,579.86v9h10.6v2.85H952.5v11.08H949V577H964.9v2.84Z" transform="translate(-649.35 -260.6)"/><path class="cls-8" d="M974.73,584.29a9.2,9.2,0,0,1,3.6.67,7.65,7.65,0,0,1,2.74,1.89,8.35,8.35,0,0,1,1.73,3,12.68,12.68,0,0,1,0,7.77,8.4,8.4,0,0,1-1.73,2.95,7.75,7.75,0,0,1-2.74,1.88,9.39,9.39,0,0,1-3.6.66,9.54,9.54,0,0,1-3.63-.66,7.66,7.66,0,0,1-2.74-1.88,8.27,8.27,0,0,1-1.74-2.95,12.88,12.88,0,0,1,0-7.77,8.23,8.23,0,0,1,1.74-3A7.56,7.56,0,0,1,971.1,585,9.36,9.36,0,0,1,974.73,584.29Zm0,16.27a4.69,4.69,0,0,0,4-1.8,10.31,10.31,0,0,0,0-10.13,4.68,4.68,0,0,0-4-1.82,5.72,5.72,0,0,0-2.39.47,4.45,4.45,0,0,0-1.69,1.35,6.14,6.14,0,0,0-1,2.17,11.76,11.76,0,0,0-.33,2.91,8.37,8.37,0,0,0,1.34,5A4.77,4.77,0,0,0,974.73,600.56Z" transform="translate(-649.35 -260.6)"/><path class="cls-8" d="M995.14,584.29a9.2,9.2,0,0,1,3.6.67,7.65,7.65,0,0,1,2.74,1.89,8.35,8.35,0,0,1,1.73,3,12.68,12.68,0,0,1,0,7.77,8.4,8.4,0,0,1-1.73,2.95,7.75,7.75,0,0,1-2.74,1.88,9.39,9.39,0,0,1-3.6.66,9.54,9.54,0,0,1-3.63-.66,7.75,7.75,0,0,1-2.74-1.88,8.27,8.27,0,0,1-1.74-2.95,12.88,12.88,0,0,1,0-7.77,8.23,8.23,0,0,1,1.74-3,7.65,7.65,0,0,1,2.74-1.89A9.36,9.36,0,0,1,995.14,584.29Zm0,16.27a4.68,4.68,0,0,0,4-1.8,10.31,10.31,0,0,0,0-10.13,4.66,4.66,0,0,0-4-1.82,5.64,5.64,0,0,0-2.38.47,4.4,4.4,0,0,0-1.7,1.35,6,6,0,0,0-1,2.17,11.29,11.29,0,0,0-.34,2.91,8.37,8.37,0,0,0,1.34,5A4.77,4.77,0,0,0,995.14,600.56Z" transform="translate(-649.35 -260.6)"/><path class="cls-8" d="M1023,576.3v26.51H1021a.82.82,0,0,1-.86-.66l-.29-2.22a9.83,9.83,0,0,1-2.66,2.27,6.76,6.76,0,0,1-3.46.87,6.46,6.46,0,0,1-2.84-.61,5.81,5.81,0,0,1-2.18-1.77,8.53,8.53,0,0,1-1.39-2.92,15.15,15.15,0,0,1-.48-4,12.59,12.59,0,0,1,.54-3.75,9.26,9.26,0,0,1,1.54-3,7.19,7.19,0,0,1,2.48-2,7.27,7.27,0,0,1,3.3-.73,6.74,6.74,0,0,1,2.87.56,7.12,7.12,0,0,1,2.14,1.58V576.3Zm-3.2,12.62a5,5,0,0,0-2-1.68,5.5,5.5,0,0,0-2.34-.48,4.57,4.57,0,0,0-3.9,1.82,8.43,8.43,0,0,0-1.37,5.18,12.79,12.79,0,0,0,.31,3,5.91,5.91,0,0,0,.89,2.09,3.65,3.65,0,0,0,1.46,1.2,4.89,4.89,0,0,0,2,.37,5.22,5.22,0,0,0,2.77-.72,7.92,7.92,0,0,0,2.17-2Z" transform="translate(-649.35 -260.6)"/><path class="cls-8" d="M1047.86,587.59a.7.7,0,0,1-.66.39,1.21,1.21,0,0,1-.62-.2c-.22-.13-.5-.27-.83-.44a8.63,8.63,0,0,0-1.18-.45,6,6,0,0,0-1.62-.2,5.05,5.05,0,0,0-1.46.2,3.63,3.63,0,0,0-1.11.57,2.54,2.54,0,0,0-.7.84,2.26,2.26,0,0,0-.24,1,1.71,1.71,0,0,0,.4,1.17,3.55,3.55,0,0,0,1.08.81,9.3,9.3,0,0,0,1.51.61l1.73.55q.9.3,1.74.66a6.29,6.29,0,0,1,1.51.9,3.92,3.92,0,0,1,1.48,3.2,6,6,0,0,1-.45,2.34,5.18,5.18,0,0,1-1.33,1.85,6.49,6.49,0,0,1-2.16,1.23,8.92,8.92,0,0,1-3,.45,9.08,9.08,0,0,1-3.46-.62,8.67,8.67,0,0,1-2.63-1.59l.76-1.23a1.18,1.18,0,0,1,.34-.36,1,1,0,0,1,.5-.12,1.2,1.2,0,0,1,.69.25c.24.17.53.35.87.56a7,7,0,0,0,1.25.56,6,6,0,0,0,1.84.25,5,5,0,0,0,1.63-.24,3.65,3.65,0,0,0,1.17-.66,2.58,2.58,0,0,0,.7-1,2.94,2.94,0,0,0,.22-1.15,1.91,1.91,0,0,0-.4-1.25,3.39,3.39,0,0,0-1.07-.84,8.91,8.91,0,0,0-1.52-.62c-.57-.17-1.16-.35-1.75-.55s-1.18-.41-1.75-.65a6.44,6.44,0,0,1-1.52-.93,4.2,4.2,0,0,1-1.07-1.38,4.44,4.44,0,0,1-.4-2,4.8,4.8,0,0,1,.43-2,4.93,4.93,0,0,1,1.26-1.69,6.19,6.19,0,0,1,2-1.17,8.37,8.37,0,0,1,2.76-.43,8.69,8.69,0,0,1,3.23.57,7.64,7.64,0,0,1,2.47,1.56Z" transform="translate(-649.35 -260.6)"/><path class="cls-8" d="M1056.05,587a9.71,9.71,0,0,1,2.59-2,7,7,0,0,1,3.28-.74,6.58,6.58,0,0,1,2.64.5,5.18,5.18,0,0,1,1.91,1.4,6.37,6.37,0,0,1,1.16,2.19,9.61,9.61,0,0,1,.39,2.82v11.61h-3.22V591.2a4.89,4.89,0,0,0-.94-3.21,3.53,3.53,0,0,0-2.88-1.14,5.44,5.44,0,0,0-2.65.68,9,9,0,0,0-2.28,1.86v13.42h-3.22V576.3h3.22Z" transform="translate(-649.35 -260.6)"/><path class="cls-8" d="M1077,578.86a2.13,2.13,0,0,1-.19.87,2.61,2.61,0,0,1-.51.72,2.3,2.3,0,0,1-1.62.67,2.13,2.13,0,0,1-.88-.18,2.2,2.2,0,0,1-.71-.49,2.55,2.55,0,0,1-.49-.72,2.11,2.11,0,0,1-.17-.87,2.21,2.21,0,0,1,.17-.89,2.39,2.39,0,0,1,.49-.74,2.23,2.23,0,0,1,.71-.5,2.13,2.13,0,0,1,.88-.18,2.28,2.28,0,0,1,.89.18,2.31,2.31,0,0,1,.73.5,2.44,2.44,0,0,1,.51.74A2.22,2.22,0,0,1,1077,578.86Zm-.69,5.72v18.23h-3.2V584.58Z" transform="translate(-649.35 -260.6)"/><path class="cls-8" d="M1084.62,587.41a9.48,9.48,0,0,1,2.66-2.29,6.81,6.81,0,0,1,3.46-.86,6.66,6.66,0,0,1,2.86.6,5.92,5.92,0,0,1,2.18,1.78,8.48,8.48,0,0,1,1.38,2.93,14.72,14.72,0,0,1,.49,4,12.54,12.54,0,0,1-.54,3.75,9.05,9.05,0,0,1-1.56,3,7.21,7.21,0,0,1-2.48,2,7.41,7.41,0,0,1-3.3.73,6.32,6.32,0,0,1-5-2.15V609h-3.22V584.58h1.92a.79.79,0,0,1,.85.67Zm.16,11a5.26,5.26,0,0,0,1.93,1.68,5.5,5.5,0,0,0,2.34.48,4.59,4.59,0,0,0,3.92-1.82,8.5,8.5,0,0,0,1.37-5.18,12.89,12.89,0,0,0-.32-3.06,6,6,0,0,0-.91-2.1,3.53,3.53,0,0,0-1.45-1.19,4.74,4.74,0,0,0-2-.38,5.16,5.16,0,0,0-2.74.72,7.93,7.93,0,0,0-2.17,2Z" transform="translate(-649.35 -260.6)"/><path class="cls-8" d="M1104.8,587.41a9.34,9.34,0,0,1,2.66-2.29,6.81,6.81,0,0,1,3.46-.86,6.66,6.66,0,0,1,2.86.6,5.92,5.92,0,0,1,2.18,1.78,8.48,8.48,0,0,1,1.38,2.93,14.72,14.72,0,0,1,.49,4,12.54,12.54,0,0,1-.54,3.75,9.05,9.05,0,0,1-1.56,3,7.19,7.19,0,0,1-5.79,2.73,6.28,6.28,0,0,1-5-2.15V609h-3.22V584.58h1.92a.79.79,0,0,1,.85.67Zm.16,11a5.32,5.32,0,0,0,1.92,1.68,5.56,5.56,0,0,0,2.34.48,4.6,4.6,0,0,0,3.93-1.82,8.5,8.5,0,0,0,1.37-5.18,12.89,12.89,0,0,0-.32-3.06,6,6,0,0,0-.91-2.1,3.49,3.49,0,0,0-1.46-1.19,4.7,4.7,0,0,0-2-.38,5.14,5.14,0,0,0-2.74.72,7.93,7.93,0,0,0-2.17,2Z" transform="translate(-649.35 -260.6)"/><path class="cls-8" d="M1136.71,600.26a6.1,6.1,0,0,1-1.42,1.25,9.18,9.18,0,0,1-1.78.87,11.67,11.67,0,0,1-2,.52,12.37,12.37,0,0,1-2,.17,9.37,9.37,0,0,1-3.48-.64,7.68,7.68,0,0,1-2.75-1.87,8.51,8.51,0,0,1-1.81-3.06,12.42,12.42,0,0,1-.65-4.17,10.45,10.45,0,0,1,.59-3.57,8.3,8.3,0,0,1,1.68-2.87,7.64,7.64,0,0,1,2.68-1.9,8.67,8.67,0,0,1,3.56-.7,8.34,8.34,0,0,1,3,.55,6.94,6.94,0,0,1,2.41,1.59,7.18,7.18,0,0,1,1.59,2.55,9.64,9.64,0,0,1,.58,3.47,2.15,2.15,0,0,1-.16,1,.69.69,0,0,1-.62.26H1124a10.49,10.49,0,0,0,.47,3,6.29,6.29,0,0,0,1.18,2.14,4.81,4.81,0,0,0,1.8,1.27,6.06,6.06,0,0,0,2.34.43,7,7,0,0,0,2.08-.28,9.64,9.64,0,0,0,1.51-.61,9.31,9.31,0,0,0,1-.6,1.43,1.43,0,0,1,.73-.28.69.69,0,0,1,.61.31Zm-2.59-8.55a6.24,6.24,0,0,0-.32-2,4.49,4.49,0,0,0-.92-1.61,4.14,4.14,0,0,0-1.46-1,5.55,5.55,0,0,0-5.61,1,6.28,6.28,0,0,0-1.66,3.72Z" transform="translate(-649.35 -260.6)"/><path class="cls-8" d="M1156,576.3v26.51h-1.91a.82.82,0,0,1-.87-.66l-.28-2.22a9.72,9.72,0,0,1-2.67,2.27,6.72,6.72,0,0,1-3.45.87,6.47,6.47,0,0,1-2.85-.61,5.89,5.89,0,0,1-2.18-1.77,8.34,8.34,0,0,1-1.38-2.92,14.72,14.72,0,0,1-.49-4,12.59,12.59,0,0,1,.54-3.75,9.27,9.27,0,0,1,1.55-3,7.16,7.16,0,0,1,2.47-2,7.29,7.29,0,0,1,3.31-.73,6.8,6.8,0,0,1,2.87.56,7,7,0,0,1,2.13,1.58V576.3Zm-3.21,12.62a5.08,5.08,0,0,0-1.94-1.68,5.56,5.56,0,0,0-2.34-.48,4.58,4.58,0,0,0-3.91,1.82,8.5,8.5,0,0,0-1.37,5.18,13.33,13.33,0,0,0,.31,3,5.74,5.74,0,0,0,.9,2.09,3.58,3.58,0,0,0,1.46,1.2,4.86,4.86,0,0,0,2,.37,5.16,5.16,0,0,0,2.76-.72,7.78,7.78,0,0,0,2.17-2Z" transform="translate(-649.35 -260.6)"/><path class="cls-9" d="M1039.34,263v6h7.07v1.9h-7.07v7.39H1037V261.08h10.6V263Z" transform="translate(-649.35 -260.6)"/><path class="cls-9" d="M1054.16,265.93a6.11,6.11,0,0,1,2.4.44,5.08,5.08,0,0,1,1.82,1.26,5.44,5.44,0,0,1,1.16,2,7.86,7.86,0,0,1,.4,2.59,7.78,7.78,0,0,1-.4,2.59,5.53,5.53,0,0,1-1.16,2,5.06,5.06,0,0,1-1.82,1.25,6.3,6.3,0,0,1-2.4.44,6.4,6.4,0,0,1-2.42-.44,5.19,5.19,0,0,1-1.83-1.25,5.68,5.68,0,0,1-1.16-2,8,8,0,0,1-.4-2.59,8.13,8.13,0,0,1,.4-2.59,5.59,5.59,0,0,1,1.16-2,5.21,5.21,0,0,1,1.83-1.26A6.21,6.21,0,0,1,1054.16,265.93Zm0,10.84a3.13,3.13,0,0,0,2.69-1.2,6.84,6.84,0,0,0,0-6.75,3.12,3.12,0,0,0-2.69-1.22,3.73,3.73,0,0,0-1.59.32,3,3,0,0,0-1.13.9,4,4,0,0,0-.67,1.44,7.72,7.72,0,0,0-.22,1.94,5.62,5.62,0,0,0,.89,3.37A3.17,3.17,0,0,0,1054.16,276.77Z" transform="translate(-649.35 -260.6)"/><path class="cls-9" d="M1067.77,265.93a6.11,6.11,0,0,1,2.4.44,5.08,5.08,0,0,1,1.82,1.26,5.44,5.44,0,0,1,1.16,2,7.86,7.86,0,0,1,.4,2.59,7.78,7.78,0,0,1-.4,2.59,5.53,5.53,0,0,1-1.16,2,5.06,5.06,0,0,1-1.82,1.25,6.3,6.3,0,0,1-2.4.44,6.4,6.4,0,0,1-2.42-.44,5,5,0,0,1-1.83-1.25,5.68,5.68,0,0,1-1.16-2,7.78,7.78,0,0,1-.4-2.59,7.86,7.86,0,0,1,.4-2.59,5.59,5.59,0,0,1,1.16-2,5,5,0,0,1,1.83-1.26A6.21,6.21,0,0,1,1067.77,265.93Zm0,10.84a3.14,3.14,0,0,0,2.69-1.2,6.91,6.91,0,0,0,0-6.75,3.13,3.13,0,0,0-2.69-1.22,3.73,3.73,0,0,0-1.59.32,3,3,0,0,0-1.13.9,4,4,0,0,0-.67,1.44,7.72,7.72,0,0,0-.22,1.94,5.55,5.55,0,0,0,.89,3.37A3.17,3.17,0,0,0,1067.77,276.77Z" transform="translate(-649.35 -260.6)"/><path class="cls-9" d="M1086.31,260.6v17.67H1085a.54.54,0,0,1-.58-.44l-.19-1.48a6.51,6.51,0,0,1-1.78,1.51,4.44,4.44,0,0,1-2.3.58,4.37,4.37,0,0,1-1.9-.4,3.92,3.92,0,0,1-1.45-1.18,5.52,5.52,0,0,1-.92-1.95,9.8,9.8,0,0,1-.33-2.67,8.46,8.46,0,0,1,.36-2.51,6.2,6.2,0,0,1,1-2,4.76,4.76,0,0,1,1.65-1.34,4.84,4.84,0,0,1,2.2-.49,4.47,4.47,0,0,1,1.92.38,4.64,4.64,0,0,1,1.42,1.05V260.6Zm-2.14,8.41a3.41,3.41,0,0,0-1.29-1.12,3.8,3.8,0,0,0-1.57-.32,3.06,3.06,0,0,0-2.6,1.21,5.66,5.66,0,0,0-.91,3.46,9.1,9.1,0,0,0,.2,2,4.05,4.05,0,0,0,.6,1.39,2.35,2.35,0,0,0,1,.8,3.14,3.14,0,0,0,1.3.25,3.43,3.43,0,0,0,1.84-.48,5.24,5.24,0,0,0,1.45-1.35Z" transform="translate(-649.35 -260.6)"/><path class="cls-9" d="M1098,260.6v17.67h-2.13V260.6Z" transform="translate(-649.35 -260.6)"/><path class="cls-9" d="M1106.62,265.93a6.11,6.11,0,0,1,2.4.44,5.21,5.21,0,0,1,1.83,1.26,5.42,5.42,0,0,1,1.15,2,7.86,7.86,0,0,1,.41,2.59,7.78,7.78,0,0,1-.41,2.59,5.51,5.51,0,0,1-1.15,2A5.19,5.19,0,0,1,1109,278a6.79,6.79,0,0,1-4.81,0,5,5,0,0,1-1.83-1.25,5.39,5.39,0,0,1-1.16-2,7.78,7.78,0,0,1-.41-2.59,7.86,7.86,0,0,1,.41-2.59,5.3,5.3,0,0,1,1.16-2,5,5,0,0,1,1.83-1.26A6.16,6.16,0,0,1,1106.62,265.93Zm0,10.84a3.13,3.13,0,0,0,2.69-1.2,6.84,6.84,0,0,0,0-6.75,3.12,3.12,0,0,0-2.69-1.22,3.73,3.73,0,0,0-1.59.32,3,3,0,0,0-1.12.9,3.85,3.85,0,0,0-.68,1.44,7.72,7.72,0,0,0-.22,1.94,5.55,5.55,0,0,0,.9,3.37A3.15,3.15,0,0,0,1106.62,276.77Z" transform="translate(-649.35 -260.6)"/><path class="cls-9" d="M1122.19,268.12a.48.48,0,0,1-.45.27.87.87,0,0,1-.41-.14c-.15-.09-.33-.18-.55-.29a5,5,0,0,0-.79-.3,3.78,3.78,0,0,0-1.08-.14,3.24,3.24,0,0,0-1,.14,2.25,2.25,0,0,0-.74.38,1.68,1.68,0,0,0-.47.56,1.45,1.45,0,0,0-.16.68,1.12,1.12,0,0,0,.27.78,2.34,2.34,0,0,0,.71.54,6.25,6.25,0,0,0,1,.41c.38.11.76.24,1.16.37s.78.28,1.16.44a4.42,4.42,0,0,1,1,.6,2.78,2.78,0,0,1,.71.88,2.68,2.68,0,0,1,.27,1.25,4,4,0,0,1-.3,1.56,3.47,3.47,0,0,1-.89,1.23,4.05,4.05,0,0,1-1.44.82,5.9,5.9,0,0,1-2,.31,6.08,6.08,0,0,1-2.3-.42,5.92,5.92,0,0,1-1.75-1.06l.5-.82a.88.88,0,0,1,.23-.24.68.68,0,0,1,.34-.08.75.75,0,0,1,.45.17l.58.37a4.78,4.78,0,0,0,.84.37,3.86,3.86,0,0,0,1.22.17,3.53,3.53,0,0,0,1.09-.16,2.24,2.24,0,0,0,.78-.44,1.72,1.72,0,0,0,.47-.64,1.94,1.94,0,0,0,.15-.76,1.28,1.28,0,0,0-.27-.84,2.17,2.17,0,0,0-.72-.56,5,5,0,0,0-1-.41l-1.17-.37a10.21,10.21,0,0,1-1.16-.44,4.05,4.05,0,0,1-1-.61,2.83,2.83,0,0,1-.72-.92,3,3,0,0,1-.27-1.33,3.3,3.3,0,0,1,.29-1.34,3.24,3.24,0,0,1,.84-1.12,4,4,0,0,1,1.36-.78,5.41,5.41,0,0,1,1.83-.28,5.9,5.9,0,0,1,2.16.37,5.38,5.38,0,0,1,1.65,1Z" transform="translate(-649.35 -260.6)"/><path class="cls-9" d="M1129.23,278.47a2.9,2.9,0,0,1-2.21-.81,3.18,3.18,0,0,1-.78-2.31V267.9h-1.46a.43.43,0,0,1-.32-.11.42.42,0,0,1-.14-.35v-.86l2-.25.5-3.75a.49.49,0,0,1,.16-.3.49.49,0,0,1,.33-.11h1.08v4.19h3.51v1.54h-3.51v7.3a1.55,1.55,0,0,0,.37,1.14,1.3,1.3,0,0,0,1,.37,1.68,1.68,0,0,0,.58-.09,2.5,2.5,0,0,0,.43-.19l.3-.2a.42.42,0,0,1,.23-.09.36.36,0,0,1,.3.2l.62,1a4,4,0,0,1-1.33.81A4.46,4.46,0,0,1,1129.23,278.47Z" transform="translate(-649.35 -260.6)"/><path class="cls-9" d="M1050.48,310.56l-1.5,1.86a12.44,12.44,0,0,1,2.71-1,13.6,13.6,0,0,1,3.14-.35,14.46,14.46,0,0,1,4.78.81,11.7,11.7,0,0,1,4.1,2.45,12.46,12.46,0,0,1,2.85,4.06,13.86,13.86,0,0,1,1.07,5.67,14.79,14.79,0,0,1-1.1,5.69,14,14,0,0,1-3.12,4.63,14.56,14.56,0,0,1-4.85,3.12,17.9,17.9,0,0,1-12.49,0,13.47,13.47,0,0,1-4.71-3.1,13.28,13.28,0,0,1-3-4.8,17.9,17.9,0,0,1-1-6.23,17.38,17.38,0,0,1,1.25-6.28,28.41,28.41,0,0,1,3.86-6.71l10.35-13.89a4.27,4.27,0,0,1,1.57-1.23,5.32,5.32,0,0,1,2.39-.51h6.59Zm1.68,22.05a8.62,8.62,0,0,0,3.25-.6,7.46,7.46,0,0,0,2.55-1.68,7.77,7.77,0,0,0,1.66-2.53,8.07,8.07,0,0,0,.61-3.17,9.25,9.25,0,0,0-.57-3.34,6.85,6.85,0,0,0-4.14-4.1,9.33,9.33,0,0,0-3.24-.54,8.24,8.24,0,0,0-3.21.6,7.2,7.2,0,0,0-2.46,1.67,7.31,7.31,0,0,0-1.59,2.52,8.29,8.29,0,0,0-.57,3.13,10.37,10.37,0,0,0,.49,3.29,6.83,6.83,0,0,0,1.47,2.53,6.69,6.69,0,0,0,2.42,1.64A8.8,8.8,0,0,0,1052.16,332.61Z" transform="translate(-649.35 -260.6)"/><path class="cls-9" d="M1072.19,334.11a4.62,4.62,0,0,1,.35-1.77,4.33,4.33,0,0,1,.94-1.44,4.59,4.59,0,0,1,3.24-1.32,4.44,4.44,0,0,1,1.79.36,4.78,4.78,0,0,1,1.44,1,4.51,4.51,0,0,1,0,6.42,4.51,4.51,0,0,1-3.23,1.29,4.69,4.69,0,0,1-1.8-.34,4.28,4.28,0,0,1-2.38-2.37A4.61,4.61,0,0,1,1072.19,334.11Z" transform="translate(-649.35 -260.6)"/><path class="cls-9" d="M1117.13,321.84v4.29a1.51,1.51,0,0,1-.39,1,1.41,1.41,0,0,1-1.11.43h-4v10.59h-6.45V327.6h-18.3a2.07,2.07,0,0,1-2-1.62l-.78-3.75,20.55-27.45h7v27.06Zm-11.91,0V307.65a40.48,40.48,0,0,1,.27-4.44L1092,321.84Z" transform="translate(-649.35 -260.6)"/><path class="cls-9" d="M1121.9,306.9a16.06,16.06,0,0,1,1.74-5.47,13.14,13.14,0,0,1,3.23-3.93,13.36,13.36,0,0,1,4.44-2.37,17.67,17.67,0,0,1,5.38-.8,16.18,16.18,0,0,1,5.42.86,12.33,12.33,0,0,1,4.12,2.37,10.38,10.38,0,0,1,2.63,3.55,10.65,10.65,0,0,1,.91,4.41,13,13,0,0,1-.46,3.65,8.65,8.65,0,0,1-1.34,2.74,7.88,7.88,0,0,1-2.16,2,13.44,13.44,0,0,1-2.91,1.35,11.33,11.33,0,0,1,5.82,3.75,10.14,10.14,0,0,1,1.92,6.33,13,13,0,0,1-1.2,5.73,12.33,12.33,0,0,1-3.24,4.19,14.08,14.08,0,0,1-4.72,2.56,18.36,18.36,0,0,1-5.69.87,19.4,19.4,0,0,1-5.7-.75,12.38,12.38,0,0,1-4.23-2.22,13.41,13.41,0,0,1-3.06-3.6,24.29,24.29,0,0,1-2.16-4.92l3.27-1.35a3.94,3.94,0,0,1,2.42-.28,2.33,2.33,0,0,1,1.63,1.21c.36.7.76,1.39,1.19,2.07a8.4,8.4,0,0,0,1.54,1.82,7.38,7.38,0,0,0,2.12,1.29,7.63,7.63,0,0,0,2.89.49,8.2,8.2,0,0,0,3.3-.61,7.2,7.2,0,0,0,2.36-1.61,6.56,6.56,0,0,0,1.41-2.2,6.81,6.81,0,0,0,.46-2.45,11.27,11.27,0,0,0-.33-2.83,4.22,4.22,0,0,0-1.38-2.18,7.47,7.47,0,0,0-3-1.41,21.79,21.79,0,0,0-5.27-.51v-5.28a18.75,18.75,0,0,0,4.53-.51,7.74,7.74,0,0,0,2.87-1.33,4.53,4.53,0,0,0,1.48-2.06,7.94,7.94,0,0,0,.42-2.64,6,6,0,0,0-1.71-4.65,6.43,6.43,0,0,0-4.56-1.59,7.55,7.55,0,0,0-2.43.38,6.88,6.88,0,0,0-2,1.05,6.52,6.52,0,0,0-1.49,1.57,6.85,6.85,0,0,0-.9,2,3.25,3.25,0,0,1-1.33,1.83,3.69,3.69,0,0,1-2.33.21Z" transform="translate(-649.35 -260.6)"/><path class="cls-9" d="M1160.76,338.19V325.88h1.81a.73.73,0,0,1,.76.54l.19.91a6,6,0,0,1,.68-.66,3.82,3.82,0,0,1,.75-.51,4.17,4.17,0,0,1,.87-.35,3.94,3.94,0,0,1,1-.12,2.9,2.9,0,0,1,1.92.63,3.86,3.86,0,0,1,1.12,1.67,3.62,3.62,0,0,1,.72-1.05,3.8,3.8,0,0,1,1-.71,4.09,4.09,0,0,1,1.09-.41,5.18,5.18,0,0,1,1.17-.13,4.84,4.84,0,0,1,1.81.31,3.51,3.51,0,0,1,1.34.91,4,4,0,0,1,.82,1.47,6.27,6.27,0,0,1,.28,2v7.83h-3v-7.83a2.63,2.63,0,0,0-.52-1.78,1.91,1.91,0,0,0-1.51-.59,2.15,2.15,0,0,0-.85.16,1.84,1.84,0,0,0-.68.45,1.94,1.94,0,0,0-.46.73,2.75,2.75,0,0,0-.17,1v7.83h-3v-7.83a2.62,2.62,0,0,0-.5-1.8A1.81,1.81,0,0,0,1166,328a2.43,2.43,0,0,0-1.21.32,4,4,0,0,0-1,.87v9Z" transform="translate(-649.35 -260.6)"/><path class="cls-9" d="M1184.34,322.29a1.58,1.58,0,0,1-.16.72,1.89,1.89,0,0,1-.41.59,2,2,0,0,1-.61.4,1.85,1.85,0,0,1-.74.15,1.8,1.8,0,0,1-.73-.15,1.89,1.89,0,0,1-1-1,1.72,1.72,0,0,1-.15-.72,1.85,1.85,0,0,1,.15-.74,1.91,1.91,0,0,1,.4-.6,2.08,2.08,0,0,1,.59-.41,2,2,0,0,1,.73-.14,2,2,0,0,1,.74.14,2.18,2.18,0,0,1,.61.41,1.94,1.94,0,0,1,.41.6A1.7,1.7,0,0,1,1184.34,322.29Zm-.41,3.59v12.31h-3V325.88Z" transform="translate(-649.35 -260.6)"/><path class="cls-9" d="M1190,320.36v17.83h-3V320.36Z" transform="translate(-649.35 -260.6)"/><path class="cls-9" d="M1202.85,338.38a3.23,3.23,0,0,1-2.46-.9,3.51,3.51,0,0,1-.86-2.5V328.1h-1.26a.56.56,0,0,1-.41-.16.6.6,0,0,1-.17-.46V326.3l2-.32.63-3.36a.65.65,0,0,1,.23-.38.71.71,0,0,1,.43-.13h1.53V326h3.29v2.11h-3.29v6.67a1.3,1.3,0,0,0,.29.9.94.94,0,0,0,.77.33,1.48,1.48,0,0,0,.46-.07,2,2,0,0,0,.33-.14l.24-.14a.46.46,0,0,1,.22-.06.33.33,0,0,1,.21.06.9.9,0,0,1,.18.2l.89,1.44a4.6,4.6,0,0,1-1.49.82A5.65,5.65,0,0,1,1202.85,338.38Z" transform="translate(-649.35 -260.6)"/><path class="cls-9" d="M1213,325.69a6.85,6.85,0,0,1,2.49.44,5.53,5.53,0,0,1,1.92,1.26,5.67,5.67,0,0,1,1.23,2,8.29,8.29,0,0,1,0,5.27,5.76,5.76,0,0,1-1.23,2,5.42,5.42,0,0,1-1.92,1.27,6.85,6.85,0,0,1-2.49.44,6.92,6.92,0,0,1-2.51-.44,5.42,5.42,0,0,1-1.92-1.27,5.63,5.63,0,0,1-1.24-2,8.11,8.11,0,0,1,0-5.27,5.4,5.4,0,0,1,3.16-3.25A6.92,6.92,0,0,1,1213,325.69Zm0,10.4a2.6,2.6,0,0,0,2.27-1,5.12,5.12,0,0,0,.74-3,5.19,5.19,0,0,0-.74-3,2.58,2.58,0,0,0-2.27-1,2.65,2.65,0,0,0-2.31,1.05,5.17,5.17,0,0,0-.75,3,5.08,5.08,0,0,0,.75,3A2.64,2.64,0,0,0,1213,336.09Z" transform="translate(-649.35 -260.6)"/><path class="cls-9" d="M1224.14,327.39a7.36,7.36,0,0,1,.79-.69,4.73,4.73,0,0,1,3-1,4.35,4.35,0,0,1,1.78.34,3.62,3.62,0,0,1,1.31,1,4.28,4.28,0,0,1,.79,1.48,6.25,6.25,0,0,1,.27,1.89v7.83h-3v-7.83a2.67,2.67,0,0,0-.51-1.75,2,2,0,0,0-1.57-.62,3.07,3.07,0,0,0-1.44.35,5.12,5.12,0,0,0-1.28,1v8.9h-3V325.88h1.81a.73.73,0,0,1,.76.54Z" transform="translate(-649.35 -260.6)"/><path class="cls-10" d="M652.79,340.19v6h7.07v1.89h-7.07v7.4h-2.32v-17.2h10.59v1.9Z" transform="translate(-649.35 -260.6)"/><path class="cls-10" d="M667.61,343.14a6.3,6.3,0,0,1,2.4.44,5.25,5.25,0,0,1,1.83,1.26,5.63,5.63,0,0,1,1.16,2,8.55,8.55,0,0,1,0,5.17,5.59,5.59,0,0,1-1.16,2,5.12,5.12,0,0,1-1.83,1.26,6.94,6.94,0,0,1-4.81,0,5,5,0,0,1-1.83-1.26,5.44,5.44,0,0,1-1.16-2,8.55,8.55,0,0,1,0-5.17,5.49,5.49,0,0,1,1.16-2,5.16,5.16,0,0,1,1.83-1.26A6.35,6.35,0,0,1,667.61,343.14Zm0,10.85a3.13,3.13,0,0,0,2.69-1.21,6.84,6.84,0,0,0,0-6.75,3.11,3.11,0,0,0-2.69-1.21,3.79,3.79,0,0,0-1.59.31,3,3,0,0,0-1.12.9,4,4,0,0,0-.68,1.45,8.07,8.07,0,0,0-.22,1.93,5.53,5.53,0,0,0,.9,3.37A3.16,3.16,0,0,0,667.61,354Z" transform="translate(-649.35 -260.6)"/><path class="cls-10" d="M681.22,343.14a6.3,6.3,0,0,1,2.4.44,5.21,5.21,0,0,1,1.82,1.26,5.49,5.49,0,0,1,1.16,2,8.55,8.55,0,0,1,0,5.17,5.44,5.44,0,0,1-1.16,2,5.08,5.08,0,0,1-1.82,1.26,6.3,6.3,0,0,1-2.4.43,6.4,6.4,0,0,1-2.42-.43A5.21,5.21,0,0,1,677,354a5.59,5.59,0,0,1-1.16-2,8.55,8.55,0,0,1,0-5.17,5.63,5.63,0,0,1,1.16-2,5.35,5.35,0,0,1,1.83-1.26A6.4,6.4,0,0,1,681.22,343.14Zm0,10.85a3.13,3.13,0,0,0,2.69-1.21,6.84,6.84,0,0,0,0-6.75,3.11,3.11,0,0,0-2.69-1.21,3.73,3.73,0,0,0-1.59.31,3,3,0,0,0-1.13.9,4,4,0,0,0-.67,1.45,7.59,7.59,0,0,0-.22,1.93,5.6,5.6,0,0,0,.89,3.37A3.18,3.18,0,0,0,681.22,354Z" transform="translate(-649.35 -260.6)"/><path class="cls-10" d="M699.76,337.81v17.68h-1.27a.55.55,0,0,1-.58-.45l-.19-1.47a6.72,6.72,0,0,1-1.78,1.51,4.54,4.54,0,0,1-2.3.57,4.37,4.37,0,0,1-1.9-.4,4,4,0,0,1-1.45-1.18,5.55,5.55,0,0,1-.92-1.94,9.88,9.88,0,0,1-.33-2.68,8.35,8.35,0,0,1,.36-2.5,6.18,6.18,0,0,1,1-2,4.59,4.59,0,0,1,1.65-1.34,4.91,4.91,0,0,1,2.2-.49,4.46,4.46,0,0,1,1.91.38,4.52,4.52,0,0,1,1.42,1.05v-6.73Zm-2.14,8.41a3.5,3.5,0,0,0-1.29-1.12,3.78,3.78,0,0,0-1.56-.32,3.09,3.09,0,0,0-2.61,1.21,5.72,5.72,0,0,0-.91,3.46,8.5,8.5,0,0,0,.21,2,3.75,3.75,0,0,0,.6,1.4,2.24,2.24,0,0,0,1,.79,3.19,3.19,0,0,0,1.31.26,3.48,3.48,0,0,0,1.84-.48,5.4,5.4,0,0,0,1.44-1.36Z" transform="translate(-649.35 -260.6)"/><path class="cls-10" d="M719.34,337.81v17.68h-1.27a.54.54,0,0,1-.57-.45l-.2-1.47a6.84,6.84,0,0,1-1.77,1.51,4.57,4.57,0,0,1-2.31.57,4.36,4.36,0,0,1-1.89-.4,3.92,3.92,0,0,1-1.45-1.18,5.74,5.74,0,0,1-.93-1.94,10.31,10.31,0,0,1-.32-2.68A8.35,8.35,0,0,1,709,347a6.16,6.16,0,0,1,1-2,4.76,4.76,0,0,1,1.65-1.34,4.94,4.94,0,0,1,2.2-.49,4.5,4.5,0,0,1,1.92.38,4.64,4.64,0,0,1,1.42,1.05v-6.73Zm-2.13,8.41a3.45,3.45,0,0,0-1.3-1.12,3.72,3.72,0,0,0-1.56-.32,3.08,3.08,0,0,0-2.6,1.21,5.66,5.66,0,0,0-.91,3.46,8.55,8.55,0,0,0,.2,2,4.11,4.11,0,0,0,.6,1.4,2.3,2.3,0,0,0,1,.79,3.22,3.22,0,0,0,1.31.26,3.46,3.46,0,0,0,1.84-.48,5.28,5.28,0,0,0,1.45-1.36Z" transform="translate(-649.35 -260.6)"/><path class="cls-10" d="M725.44,339.51a1.31,1.31,0,0,1-.13.59,1.58,1.58,0,0,1-.33.48,1.63,1.63,0,0,1-.49.33,1.53,1.53,0,0,1-.6.12,1.4,1.4,0,0,1-.58-.12,1.43,1.43,0,0,1-.47-.33,1.58,1.58,0,0,1-.33-.48,1.45,1.45,0,0,1-.12-.59,1.53,1.53,0,0,1,.45-1.08,1.43,1.43,0,0,1,.47-.33,1.4,1.4,0,0,1,.58-.12,1.53,1.53,0,0,1,.6.12,1.63,1.63,0,0,1,.49.33,1.51,1.51,0,0,1,.33.49A1.37,1.37,0,0,1,725.44,339.51Zm-.46,3.82v12.16h-2.13V343.33Z" transform="translate(-649.35 -260.6)"/><path class="cls-10" d="M735.57,345.33a.48.48,0,0,1-.45.27.89.89,0,0,1-.4-.13l-.56-.3a4.69,4.69,0,0,0-.79-.3,3.78,3.78,0,0,0-1.08-.14,3.24,3.24,0,0,0-1,.14,2.35,2.35,0,0,0-.74.38,1.78,1.78,0,0,0-.47.56,1.59,1.59,0,0,0-.16.69,1.16,1.16,0,0,0,.27.78,2.27,2.27,0,0,0,.72.54,6.71,6.71,0,0,0,1,.4l1.16.37c.4.13.78.28,1.16.44a4.22,4.22,0,0,1,1,.6,2.78,2.78,0,0,1,.71.88,2.73,2.73,0,0,1,.27,1.26,4,4,0,0,1-.3,1.55,3.3,3.3,0,0,1-.89,1.24,4.38,4.38,0,0,1-1.44.82,5.85,5.85,0,0,1-2,.3,6.09,6.09,0,0,1-2.31-.42,5.72,5.72,0,0,1-1.75-1.06l.5-.81a.67.67,0,0,1,.23-.24.59.59,0,0,1,.34-.09.82.82,0,0,1,.45.17c.16.11.36.24.59.37a3.81,3.81,0,0,0,.83.37,3.63,3.63,0,0,0,1.22.17,3.35,3.35,0,0,0,1.1-.16,2.27,2.27,0,0,0,.78-.44,1.77,1.77,0,0,0,.46-.63,2,2,0,0,0,.15-.77,1.28,1.28,0,0,0-.27-.84,2.31,2.31,0,0,0-.72-.56,5.59,5.59,0,0,0-1-.41l-1.16-.36c-.4-.13-.79-.28-1.17-.44a4.08,4.08,0,0,1-1-.62,2.73,2.73,0,0,1-.72-.92,2.93,2.93,0,0,1-.27-1.32,3.26,3.26,0,0,1,.29-1.34,3.18,3.18,0,0,1,.84-1.13,4.17,4.17,0,0,1,1.36-.77,5.21,5.21,0,0,1,1.83-.29,5.69,5.69,0,0,1,2.16.38,5.17,5.17,0,0,1,1.65,1Z" transform="translate(-649.35 -260.6)"/><path class="cls-10" d="M740.92,345.21a6.13,6.13,0,0,1,1.78-1.52,4.59,4.59,0,0,1,2.3-.58,4.42,4.42,0,0,1,1.91.41,3.83,3.83,0,0,1,1.45,1.18,5.69,5.69,0,0,1,.92,1.95,9.88,9.88,0,0,1,.33,2.68,8.35,8.35,0,0,1-.36,2.5,6.18,6.18,0,0,1-1,2,4.8,4.8,0,0,1-3.86,1.81,4.46,4.46,0,0,1-1.91-.37,4.81,4.81,0,0,1-1.41-1v5.37h-2.15V343.33h1.28a.53.53,0,0,1,.57.44Zm.11,7.35a3.37,3.37,0,0,0,1.28,1.11,3.63,3.63,0,0,0,1.56.33,3.1,3.1,0,0,0,2.62-1.21,5.66,5.66,0,0,0,.91-3.46,8.65,8.65,0,0,0-.21-2,3.93,3.93,0,0,0-.61-1.4,2.34,2.34,0,0,0-1-.8,3.36,3.36,0,0,0-1.31-.25,3.47,3.47,0,0,0-1.83.48,5.24,5.24,0,0,0-1.44,1.36Z" transform="translate(-649.35 -260.6)"/><path class="cls-10" d="M757.46,343.14a6.37,6.37,0,0,1,2.4.44,5.21,5.21,0,0,1,1.82,1.26,5.63,5.63,0,0,1,1.16,2,8.55,8.55,0,0,1,0,5.17,5.59,5.59,0,0,1-1.16,2,5.08,5.08,0,0,1-1.82,1.26,7,7,0,0,1-4.82,0,5,5,0,0,1-1.83-1.26,5.44,5.44,0,0,1-1.16-2,8.55,8.55,0,0,1,0-5.17,5.49,5.49,0,0,1,1.16-2,5.16,5.16,0,0,1,1.83-1.26A6.37,6.37,0,0,1,757.46,343.14Zm0,10.85a3.12,3.12,0,0,0,2.68-1.21,6.84,6.84,0,0,0,0-6.75,3.09,3.09,0,0,0-2.68-1.21,3.73,3.73,0,0,0-1.59.31,2.94,2.94,0,0,0-1.13.9,3.81,3.81,0,0,0-.67,1.45,7.57,7.57,0,0,0-.23,1.93,5.53,5.53,0,0,0,.9,3.37A3.17,3.17,0,0,0,757.46,354Z" transform="translate(-649.35 -260.6)"/><path class="cls-10" d="M773,345.33a.47.47,0,0,1-.44.27.92.92,0,0,1-.41-.13l-.56-.3a4.69,4.69,0,0,0-.79-.3,3.78,3.78,0,0,0-1.08-.14,3.24,3.24,0,0,0-1,.14,2.35,2.35,0,0,0-.74.38,1.63,1.63,0,0,0-.46.56,1.47,1.47,0,0,0-.17.69,1.16,1.16,0,0,0,.27.78,2.27,2.27,0,0,0,.72.54,6.44,6.44,0,0,0,1,.4l1.15.37c.4.13.79.28,1.16.44a4.22,4.22,0,0,1,1,.6,2.65,2.65,0,0,1,.71.88,2.73,2.73,0,0,1,.27,1.26,4,4,0,0,1-.3,1.55,3.39,3.39,0,0,1-.88,1.24,4.59,4.59,0,0,1-1.44.82,6,6,0,0,1-2,.3,6.09,6.09,0,0,1-2.31-.42,5.84,5.84,0,0,1-1.75-1.06l.51-.81a.65.65,0,0,1,.22-.24.59.59,0,0,1,.34-.09.84.84,0,0,1,.46.17c.16.11.35.24.58.37a4,4,0,0,0,.83.37,3.65,3.65,0,0,0,1.23.17,3.29,3.29,0,0,0,1.09-.16,2.27,2.27,0,0,0,.78-.44,1.66,1.66,0,0,0,.46-.63,2,2,0,0,0,.15-.77,1.28,1.28,0,0,0-.27-.84,2.38,2.38,0,0,0-.71-.56,6,6,0,0,0-1-.41l-1.16-.36c-.4-.13-.79-.28-1.17-.44a4.27,4.27,0,0,1-1-.62,2.71,2.71,0,0,1-.71-.92,2.93,2.93,0,0,1-.27-1.32,3.25,3.25,0,0,1,.28-1.34,3.44,3.44,0,0,1,.84-1.13,4.17,4.17,0,0,1,1.36-.77,5.27,5.27,0,0,1,1.84-.29,5.64,5.64,0,0,1,2.15.38,5,5,0,0,1,1.65,1Z" transform="translate(-649.35 -260.6)"/><path class="cls-10" d="M786.2,353.78a4.27,4.27,0,0,1-1,.84,6.16,6.16,0,0,1-1.18.58,8.12,8.12,0,0,1-1.31.34,7.46,7.46,0,0,1-1.33.11,6.26,6.26,0,0,1-2.32-.42,5.19,5.19,0,0,1-1.84-1.25,5.91,5.91,0,0,1-1.2-2,8.26,8.26,0,0,1-.43-2.79,7,7,0,0,1,.39-2.37,5.55,5.55,0,0,1,1.12-1.92,5.16,5.16,0,0,1,1.79-1.27,5.79,5.79,0,0,1,2.37-.46,5.54,5.54,0,0,1,2,.36,4.66,4.66,0,0,1,1.61,1.06,4.81,4.81,0,0,1,1.06,1.7,6.43,6.43,0,0,1,.39,2.31,1.46,1.46,0,0,1-.11.68.45.45,0,0,1-.41.16h-8.12a6.94,6.94,0,0,0,.32,2,4,4,0,0,0,.78,1.42,3.25,3.25,0,0,0,1.2.85,4.13,4.13,0,0,0,1.56.28,4.74,4.74,0,0,0,1.39-.18,6.33,6.33,0,0,0,1.7-.81,1,1,0,0,1,.49-.18.5.5,0,0,1,.41.2Zm-1.73-5.7a4.22,4.22,0,0,0-.21-1.36,3.21,3.21,0,0,0-.61-1.07,2.73,2.73,0,0,0-1-.69,3.22,3.22,0,0,0-1.31-.25,3.32,3.32,0,0,0-2.43.89,4.17,4.17,0,0,0-1.11,2.48Z" transform="translate(-649.35 -260.6)"/><path class="cls-10" d="M799.06,337.81v17.68h-1.27a.55.55,0,0,1-.58-.45l-.19-1.47a6.72,6.72,0,0,1-1.78,1.51,4.54,4.54,0,0,1-2.3.57,4.37,4.37,0,0,1-1.9-.4,4,4,0,0,1-1.45-1.18,5.55,5.55,0,0,1-.92-1.94,9.88,9.88,0,0,1-.33-2.68,8.35,8.35,0,0,1,.36-2.5,6.18,6.18,0,0,1,1-2,4.59,4.59,0,0,1,1.65-1.34,4.91,4.91,0,0,1,2.2-.49,4.46,4.46,0,0,1,1.91.38,4.52,4.52,0,0,1,1.42,1.05v-6.73Zm-2.14,8.41a3.5,3.5,0,0,0-1.29-1.12,3.78,3.78,0,0,0-1.56-.32,3.09,3.09,0,0,0-2.61,1.21,5.72,5.72,0,0,0-.91,3.46,8.5,8.5,0,0,0,.21,2,3.75,3.75,0,0,0,.6,1.4,2.24,2.24,0,0,0,1,.79,3.19,3.19,0,0,0,1.31.26,3.48,3.48,0,0,0,1.84-.48,5.4,5.4,0,0,0,1.44-1.36Z" transform="translate(-649.35 -260.6)"/><path class="cls-10" d="M651.21,376.74a19,19,0,0,0,2.57,9.6.63.63,0,0,1,.09.57.76.76,0,0,1-.27.32l-1,.57a22.18,22.18,0,0,1-1.53-2.73,18.7,18.7,0,0,1-1.59-5.48,22.65,22.65,0,0,1,0-5.7,18.52,18.52,0,0,1,1.59-5.47,23.14,23.14,0,0,1,1.53-2.75l1,.59a.76.76,0,0,1,.27.32.61.61,0,0,1-.09.56,19,19,0,0,0-2.57,9.6Z" transform="translate(-649.35 -260.6)"/><path class="cls-10" d="M665.51,382.58a4.22,4.22,0,0,1-.94.84,6.24,6.24,0,0,1-1.19.58,8,8,0,0,1-1.3.34,7.54,7.54,0,0,1-1.33.11,6.26,6.26,0,0,1-2.32-.42,5.19,5.19,0,0,1-1.84-1.25,5.76,5.76,0,0,1-1.2-2A8.25,8.25,0,0,1,655,378a7,7,0,0,1,.39-2.37,5.58,5.58,0,0,1,1.13-1.92,5.12,5.12,0,0,1,1.78-1.27,5.88,5.88,0,0,1,2.38-.46,5.54,5.54,0,0,1,2,.36,4.66,4.66,0,0,1,1.61,1.06,4.81,4.81,0,0,1,1.06,1.7,6.43,6.43,0,0,1,.39,2.31,1.46,1.46,0,0,1-.11.68.45.45,0,0,1-.41.16h-8.12a7.32,7.32,0,0,0,.31,2,4,4,0,0,0,.79,1.42,3.25,3.25,0,0,0,1.2.85,4.05,4.05,0,0,0,1.56.28,4.74,4.74,0,0,0,1.39-.18,8.31,8.31,0,0,0,1-.4,7.73,7.73,0,0,0,.7-.41,1,1,0,0,1,.49-.18.47.47,0,0,1,.4.2Zm-1.72-5.7a4.22,4.22,0,0,0-.21-1.36,3.07,3.07,0,0,0-.62-1.07,2.61,2.61,0,0,0-1-.69,3.22,3.22,0,0,0-1.31-.25,3.29,3.29,0,0,0-2.43.89,4.17,4.17,0,0,0-1.11,2.48Z" transform="translate(-649.35 -260.6)"/><path class="cls-10" d="M678.15,384.29h-2a.61.61,0,0,1-.42-.14,1.18,1.18,0,0,1-.24-.31l-3.06-4.76c0,.11-.07.22-.1.33a1.32,1.32,0,0,1-.15.29l-2.84,4.14a2.6,2.6,0,0,1-.25.31.54.54,0,0,1-.38.14h-1.91l4.26-6.24-4.09-5.92H669a.72.72,0,0,1,.38.08.85.85,0,0,1,.22.24l3,4.56a2.34,2.34,0,0,1,.3-.67l2.61-3.84a1.28,1.28,0,0,1,.24-.27.44.44,0,0,1,.3-.1h2l-4.09,5.81Z" transform="translate(-649.35 -260.6)"/><path class="cls-10" d="M688,374.29a.93.93,0,0,1-.19.2.46.46,0,0,1-.27.08.69.69,0,0,1-.39-.15l-.54-.33a4.15,4.15,0,0,0-.78-.33,3.68,3.68,0,0,0-1.13-.15,3.79,3.79,0,0,0-1.59.31,3.1,3.1,0,0,0-1.14.92,4.26,4.26,0,0,0-.7,1.45,7.52,7.52,0,0,0-.23,1.91,6.86,6.86,0,0,0,.25,2,4.22,4.22,0,0,0,.71,1.44,3,3,0,0,0,1.12.89,3.34,3.34,0,0,0,1.47.31,3.56,3.56,0,0,0,1.28-.19,3.65,3.65,0,0,0,.84-.41,6,6,0,0,0,.55-.42.7.7,0,0,1,.44-.18.5.5,0,0,1,.41.2l.6.78a4.45,4.45,0,0,1-.9.84,5.42,5.42,0,0,1-1.09.58,6.12,6.12,0,0,1-1.22.35,7.84,7.84,0,0,1-1.29.1,5.31,5.31,0,0,1-2.12-.42,4.86,4.86,0,0,1-1.7-1.21,5.75,5.75,0,0,1-1.13-2,8,8,0,0,1-.41-2.65,8.1,8.1,0,0,1,.38-2.51,5.56,5.56,0,0,1,1.11-2,4.94,4.94,0,0,1,1.78-1.3,6.53,6.53,0,0,1,4.71-.06,5.51,5.51,0,0,1,1.73,1.17Z" transform="translate(-649.35 -260.6)"/><path class="cls-10" d="M693.25,366.61v17.68h-2.14V366.61Z" transform="translate(-649.35 -260.6)"/><path class="cls-10" d="M706.7,372.13v12.16h-1.28a.54.54,0,0,1-.57-.45l-.17-1.31a6.44,6.44,0,0,1-1.78,1.41,4.57,4.57,0,0,1-2.25.54,4.39,4.39,0,0,1-1.76-.33,3.53,3.53,0,0,1-1.28-.93,4,4,0,0,1-.77-1.45,6.59,6.59,0,0,1-.26-1.89v-7.75h2.14v7.75a3.27,3.27,0,0,0,.63,2.14,2.37,2.37,0,0,0,1.92.75,3.64,3.64,0,0,0,1.77-.45,5.5,5.5,0,0,0,1.52-1.24v-8.95Z" transform="translate(-649.35 -260.6)"/><path class="cls-10" d="M720.14,366.61v17.68h-1.28a.54.54,0,0,1-.57-.45l-.19-1.47a6.88,6.88,0,0,1-1.78,1.51,4.54,4.54,0,0,1-2.3.57,4.37,4.37,0,0,1-1.9-.4,3.92,3.92,0,0,1-1.45-1.18,5.74,5.74,0,0,1-.93-1.94,10.31,10.31,0,0,1-.32-2.68,8.35,8.35,0,0,1,.36-2.5,6.16,6.16,0,0,1,1-2,4.76,4.76,0,0,1,1.65-1.34,4.94,4.94,0,0,1,2.2-.49,4.47,4.47,0,0,1,1.92.38,4.64,4.64,0,0,1,1.42,1v-6.73ZM718,375a3.45,3.45,0,0,0-1.3-1.12,3.72,3.72,0,0,0-1.56-.32,3.09,3.09,0,0,0-2.6,1.21,5.66,5.66,0,0,0-.91,3.46,9.1,9.1,0,0,0,.2,2,4.11,4.11,0,0,0,.6,1.4,2.36,2.36,0,0,0,1,.79,3.22,3.22,0,0,0,1.31.26,3.43,3.43,0,0,0,1.84-.48,5.28,5.28,0,0,0,1.45-1.36Z" transform="translate(-649.35 -260.6)"/><path class="cls-10" d="M726.23,368.31a1.45,1.45,0,0,1-.12.59,1.82,1.82,0,0,1-.34.48,1.51,1.51,0,0,1-.49.33,1.53,1.53,0,0,1-.6.12,1.44,1.44,0,0,1-1-.45,1.58,1.58,0,0,1-.33-.48,1.45,1.45,0,0,1-.12-.59,1.53,1.53,0,0,1,.45-1.08,1.44,1.44,0,0,1,1-.45,1.53,1.53,0,0,1,.6.12,1.51,1.51,0,0,1,.49.33,1.72,1.72,0,0,1,.34.49A1.52,1.52,0,0,1,726.23,368.31Zm-.45,3.82v12.16h-2.14V372.13Z" transform="translate(-649.35 -260.6)"/><path class="cls-10" d="M731.3,373.89a7,7,0,0,1,.84-.8,5.27,5.27,0,0,1,.94-.62,4.87,4.87,0,0,1,2.26-.53,4.42,4.42,0,0,1,1.76.33,3.41,3.41,0,0,1,1.27.93,4.08,4.08,0,0,1,.77,1.46,6.25,6.25,0,0,1,.27,1.89v7.74h-2.15v-7.74a3.3,3.3,0,0,0-.63-2.15,2.36,2.36,0,0,0-1.91-.76,3.49,3.49,0,0,0-1.77.46,5.64,5.64,0,0,0-1.52,1.23v9h-2.15V372.13h1.28a.53.53,0,0,1,.57.44Z" transform="translate(-649.35 -260.6)"/><path class="cls-10" d="M752.93,372.61v.79c0,.27-.17.43-.5.51l-1.38.18a3.76,3.76,0,0,1,.41,1.75,3.69,3.69,0,0,1-.35,1.61,3.49,3.49,0,0,1-.94,1.24,4.2,4.2,0,0,1-1.44.8,5.93,5.93,0,0,1-1.82.27,6.4,6.4,0,0,1-1.61-.2,2.17,2.17,0,0,0-.59.51.93.93,0,0,0-.2.54.74.74,0,0,0,.35.66,2.67,2.67,0,0,0,.93.32,11.73,11.73,0,0,0,1.32.12c.49,0,1,0,1.51.07a14.83,14.83,0,0,1,1.51.19,4.58,4.58,0,0,1,1.31.43,2.41,2.41,0,0,1,.93.83,2.38,2.38,0,0,1,.36,1.37,3.18,3.18,0,0,1-.39,1.51,4.16,4.16,0,0,1-1.12,1.3,5.64,5.64,0,0,1-1.8.91,7.7,7.7,0,0,1-2.39.35,8.93,8.93,0,0,1-2.33-.27,5.29,5.29,0,0,1-1.66-.71,3,3,0,0,1-1-1,2.46,2.46,0,0,1-.33-1.22,2.16,2.16,0,0,1,.57-1.52,3.82,3.82,0,0,1,1.55-1,2.18,2.18,0,0,1-.86-.64,1.72,1.72,0,0,1-.32-1.09,1.51,1.51,0,0,1,.1-.54,2.19,2.19,0,0,1,.29-.57,2.68,2.68,0,0,1,.49-.53,3,3,0,0,1,.67-.45,3.83,3.83,0,0,1-1.57-4.89,3.6,3.6,0,0,1,1-1.23,4.4,4.4,0,0,1,1.45-.79,6.15,6.15,0,0,1,1.86-.27,5.7,5.7,0,0,1,1.47.17,4.82,4.82,0,0,1,1.25.51ZM750.76,385a1,1,0,0,0-.25-.72,1.74,1.74,0,0,0-.68-.44,4.86,4.86,0,0,0-1-.22c-.38,0-.77-.08-1.19-.1l-1.28-.07c-.43,0-.85-.07-1.25-.12a3.51,3.51,0,0,0-1.1.78,1.64,1.64,0,0,0-.42,1.11,1.49,1.49,0,0,0,.21.77,1.8,1.8,0,0,0,.64.61,3.87,3.87,0,0,0,1.08.41,7,7,0,0,0,1.55.15,7.14,7.14,0,0,0,1.54-.16,3.75,3.75,0,0,0,1.16-.44,2.21,2.21,0,0,0,.73-.69A1.55,1.55,0,0,0,750.76,385Zm-3.85-6.6a3.33,3.33,0,0,0,1.14-.18,2.32,2.32,0,0,0,.83-.51,2,2,0,0,0,.5-.77,2.86,2.86,0,0,0,.17-1,2.37,2.37,0,0,0-.68-1.78,2.7,2.7,0,0,0-2-.66,2.74,2.74,0,0,0-2,.66,2.37,2.37,0,0,0-.67,1.78,2.64,2.64,0,0,0,.17,1,2.16,2.16,0,0,0,.51.77,2.24,2.24,0,0,0,.83.51A3.33,3.33,0,0,0,746.91,378.35Z" transform="translate(-649.35 -260.6)"/><path class="cls-10" d="M762.09,384.29V374l-1.35-.15a1,1,0,0,1-.41-.19.41.41,0,0,1-.16-.36v-.88h1.92v-1.18a5.57,5.57,0,0,1,.29-1.85,3.86,3.86,0,0,1,.84-1.37,3.55,3.55,0,0,1,1.32-.84,4.67,4.67,0,0,1,1.72-.29,4.45,4.45,0,0,1,1.5.24l0,1.07a.32.32,0,0,1-.32.31l-.79,0a3.13,3.13,0,0,0-1,.15,1.83,1.83,0,0,0-.77.46,2,2,0,0,0-.5.86,4,4,0,0,0-.18,1.3v1.12h3.51v1.55h-3.43v10.37Z" transform="translate(-649.35 -260.6)"/><path class="cls-10" d="M774.44,371.94a6.37,6.37,0,0,1,2.4.44,5.21,5.21,0,0,1,1.82,1.26,5.63,5.63,0,0,1,1.16,2,8.55,8.55,0,0,1,0,5.17,5.59,5.59,0,0,1-1.16,2,5.08,5.08,0,0,1-1.82,1.26,7,7,0,0,1-4.82,0,5,5,0,0,1-1.83-1.26,5.44,5.44,0,0,1-1.16-2,8.55,8.55,0,0,1,0-5.17,5.49,5.49,0,0,1,1.16-2,5.16,5.16,0,0,1,1.83-1.26A6.37,6.37,0,0,1,774.44,371.94Zm0,10.85a3.12,3.12,0,0,0,2.68-1.21,6.84,6.84,0,0,0,0-6.75,3.09,3.09,0,0,0-2.68-1.21,3.73,3.73,0,0,0-1.59.31,2.94,2.94,0,0,0-1.13.9,3.81,3.81,0,0,0-.67,1.45,7.57,7.57,0,0,0-.23,1.93,5.53,5.53,0,0,0,.9,3.37A3.17,3.17,0,0,0,774.44,382.79Z" transform="translate(-649.35 -260.6)"/><path class="cls-10" d="M788,371.94a6.3,6.3,0,0,1,2.4.44,5.35,5.35,0,0,1,1.83,1.26,5.63,5.63,0,0,1,1.16,2,8.55,8.55,0,0,1,0,5.17,5.59,5.59,0,0,1-1.16,2,5.21,5.21,0,0,1-1.83,1.26,6.3,6.3,0,0,1-2.4.43,6.44,6.44,0,0,1-2.42-.43,5.21,5.21,0,0,1-1.83-1.26,5.42,5.42,0,0,1-1.15-2,8.35,8.35,0,0,1,0-5.17,5.47,5.47,0,0,1,1.15-2,5.35,5.35,0,0,1,1.83-1.26A6.44,6.44,0,0,1,788,371.94Zm0,10.85a3.13,3.13,0,0,0,2.69-1.21,6.84,6.84,0,0,0,0-6.75,3.11,3.11,0,0,0-2.69-1.21,3.76,3.76,0,0,0-1.59.31,2.91,2.91,0,0,0-1.12.9,3.82,3.82,0,0,0-.68,1.45,7.59,7.59,0,0,0-.22,1.93,5.53,5.53,0,0,0,.9,3.37A3.16,3.16,0,0,0,788,382.79Z" transform="translate(-649.35 -260.6)"/><path class="cls-10" d="M806.58,366.61v17.68h-1.27a.55.55,0,0,1-.58-.45l-.19-1.47a6.84,6.84,0,0,1-1.77,1.51,4.6,4.6,0,0,1-2.31.57,4.33,4.33,0,0,1-1.89-.4,4,4,0,0,1-1.46-1.18,5.73,5.73,0,0,1-.92-1.94,9.9,9.9,0,0,1-.32-2.68,8.35,8.35,0,0,1,.36-2.5,6.16,6.16,0,0,1,1-2,4.76,4.76,0,0,1,1.65-1.34,4.91,4.91,0,0,1,2.2-.49,4.46,4.46,0,0,1,1.91.38,4.56,4.56,0,0,1,1.43,1v-6.73ZM804.45,375a3.52,3.52,0,0,0-1.3-1.12,3.72,3.72,0,0,0-1.56-.32,3.06,3.06,0,0,0-2.6,1.21,5.66,5.66,0,0,0-.92,3.46,8.5,8.5,0,0,0,.21,2,3.75,3.75,0,0,0,.6,1.4,2.3,2.3,0,0,0,1,.79,3.19,3.19,0,0,0,1.31.26,3.46,3.46,0,0,0,1.84-.48,5.43,5.43,0,0,0,1.45-1.36Z" transform="translate(-649.35 -260.6)"/><path class="cls-10" d="M818.32,366.61v17.68h-2.14V366.61Z" transform="translate(-649.35 -260.6)"/><path class="cls-10" d="M826.9,371.94a6.3,6.3,0,0,1,2.4.44,5.21,5.21,0,0,1,1.82,1.26,5.49,5.49,0,0,1,1.16,2,8.55,8.55,0,0,1,0,5.17,5.44,5.44,0,0,1-1.16,2A5.08,5.08,0,0,1,829.3,384a6.3,6.3,0,0,1-2.4.43,6.4,6.4,0,0,1-2.42-.43,5,5,0,0,1-1.83-1.26,5.59,5.59,0,0,1-1.16-2,8.55,8.55,0,0,1,0-5.17,5.63,5.63,0,0,1,1.16-2,5.16,5.16,0,0,1,1.83-1.26A6.4,6.4,0,0,1,826.9,371.94Zm0,10.85a3.15,3.15,0,0,0,2.69-1.21,6.91,6.91,0,0,0,0-6.75,3.12,3.12,0,0,0-2.69-1.21,3.73,3.73,0,0,0-1.59.31,3,3,0,0,0-1.13.9,4,4,0,0,0-.67,1.45,7.59,7.59,0,0,0-.22,1.93,5.53,5.53,0,0,0,.89,3.37A3.18,3.18,0,0,0,826.9,382.79Z" transform="translate(-649.35 -260.6)"/><path class="cls-10" d="M842.46,374.13a.46.46,0,0,1-.44.27.92.92,0,0,1-.41-.13l-.56-.3a4.9,4.9,0,0,0-.78-.3,3.88,3.88,0,0,0-1.08-.14,3.31,3.31,0,0,0-1,.14,2.3,2.3,0,0,0-.73.38,1.66,1.66,0,0,0-.47.56,1.46,1.46,0,0,0-.16.69,1.16,1.16,0,0,0,.27.78,2.22,2.22,0,0,0,.71.54,6.86,6.86,0,0,0,1,.4l1.16.37c.39.13.78.28,1.15.44a4,4,0,0,1,1,.6,2.68,2.68,0,0,1,.72.88,2.73,2.73,0,0,1,.27,1.26,4,4,0,0,1-.3,1.55,3.42,3.42,0,0,1-.89,1.24,4.38,4.38,0,0,1-1.44.82,6.56,6.56,0,0,1-4.27-.12,5.77,5.77,0,0,1-1.76-1.06l.51-.81a.59.59,0,0,1,.23-.24.56.56,0,0,1,.33-.09.82.82,0,0,1,.46.17c.16.11.35.24.58.37a4.3,4.3,0,0,0,.83.37,3.65,3.65,0,0,0,1.23.17,3.29,3.29,0,0,0,1.09-.16,2.27,2.27,0,0,0,.78-.44,1.66,1.66,0,0,0,.46-.63,2,2,0,0,0,.15-.77,1.28,1.28,0,0,0-.27-.84,2.38,2.38,0,0,0-.71-.56,6,6,0,0,0-1-.41l-1.16-.36c-.4-.13-.78-.28-1.16-.44a4.34,4.34,0,0,1-1-.62,2.84,2.84,0,0,1-.71-.92,2.93,2.93,0,0,1-.27-1.32,3.11,3.11,0,0,1,.29-1.34A3.18,3.18,0,0,1,836,373a4.11,4.11,0,0,1,1.35-.77,5.27,5.27,0,0,1,1.84-.29,5.61,5.61,0,0,1,2.15.38,5,5,0,0,1,1.65,1Z" transform="translate(-649.35 -260.6)"/><path class="cls-10" d="M849.51,384.48a2.94,2.94,0,0,1-2.22-.81,3.2,3.2,0,0,1-.77-2.31v-7.44h-1.47a.47.47,0,0,1-.32-.12.42.42,0,0,1-.13-.35v-.85l2-.25.49-3.76a.55.55,0,0,1,.16-.29.48.48,0,0,1,.33-.12h1.08v4.19h3.52v1.55h-3.52v7.29a1.52,1.52,0,0,0,.38,1.14,1.27,1.27,0,0,0,1,.38,1.72,1.72,0,0,0,.58-.09,2.75,2.75,0,0,0,.42-.2l.31-.2a.4.4,0,0,1,.22-.09.38.38,0,0,1,.3.2l.63,1a3.85,3.85,0,0,1-1.34.81A4.41,4.41,0,0,1,849.51,384.48Z" transform="translate(-649.35 -260.6)"/><path class="cls-10" d="M856.15,376.74a18.87,18.87,0,0,0-.65-5,19.18,19.18,0,0,0-1.91-4.61.85.85,0,0,1-.12-.32.39.39,0,0,1,0-.24.42.42,0,0,1,.11-.18.86.86,0,0,1,.18-.14l.94-.59a23.14,23.14,0,0,1,1.53,2.75,18.52,18.52,0,0,1,1.59,5.47,22.65,22.65,0,0,1,0,5.7,18.7,18.7,0,0,1-1.59,5.48,22.18,22.18,0,0,1-1.53,2.73l-.94-.57a.86.86,0,0,1-.18-.14.46.46,0,0,1-.12-.43.85.85,0,0,1,.12-.32,19.35,19.35,0,0,0,1.91-4.61A18.93,18.93,0,0,0,856.15,376.74Z" transform="translate(-649.35 -260.6)"/><path class="cls-10" d="M679.35,435.44a2.62,2.62,0,0,1,1.9.67,2.37,2.37,0,0,1,.71,1.79v4.44H652.2v-2.46a4.43,4.43,0,0,1,.31-1.58,4,4,0,0,1,1-1.48l13.17-13.2q1.65-1.68,2.95-3.21a20.77,20.77,0,0,0,2.18-3,14.27,14.27,0,0,0,1.33-3.05,11.2,11.2,0,0,0,.47-3.25,7.73,7.73,0,0,0-.45-2.75,5.46,5.46,0,0,0-1.28-2,5.29,5.29,0,0,0-2-1.22,8.44,8.44,0,0,0-5,0,6.59,6.59,0,0,0-3.46,2.63,6.85,6.85,0,0,0-.9,2,3.28,3.28,0,0,1-1.32,1.83,3.7,3.7,0,0,1-2.34.21l-3.9-.69a16.19,16.19,0,0,1,1.74-5.48,13.11,13.11,0,0,1,3.22-3.93,13.36,13.36,0,0,1,4.44-2.37,17.74,17.74,0,0,1,5.39-.79,16.3,16.3,0,0,1,5.49.88,12.36,12.36,0,0,1,4.26,2.51,11.34,11.34,0,0,1,2.76,3.9,12.6,12.6,0,0,1,1,5.07,13.51,13.51,0,0,1-.71,4.44,18.46,18.46,0,0,1-1.89,3.9,26.22,26.22,0,0,1-2.77,3.6q-1.59,1.74-3.33,3.54l-9.78,10a22.17,22.17,0,0,1,2.8-.65,16.73,16.73,0,0,1,2.66-.22Z" transform="translate(-649.35 -260.6)"/><path class="cls-10" d="M715.77,436.79v5.55h-24v-5.55h8.79V411.5q0-1.5.09-3.09l-6.24,5.22a2.58,2.58,0,0,1-1.07.52,2.4,2.4,0,0,1-1.81-.3,1.73,1.73,0,0,1-.54-.49l-2.34-3.21,13.23-11.25H708v37.89Z" transform="translate(-649.35 -260.6)"/><path class="cls-10" d="M722.09,438.26a4.62,4.62,0,0,1,.35-1.77,4.33,4.33,0,0,1,.94-1.44,4.59,4.59,0,0,1,3.24-1.32,4.44,4.44,0,0,1,1.79.36,4.78,4.78,0,0,1,1.44,1,4.55,4.55,0,0,1,1,5,4.47,4.47,0,0,1-1,1.43,4.38,4.38,0,0,1-1.44.94,4.61,4.61,0,0,1-1.79.35,4.69,4.69,0,0,1-1.8-.35,4.18,4.18,0,0,1-1.44-.94,4.39,4.39,0,0,1-.94-1.43A4.56,4.56,0,0,1,722.09,438.26Z" transform="translate(-649.35 -260.6)"/><path class="cls-10" d="M764.81,436.79v5.55h-24v-5.55h8.79V411.5q0-1.5.09-3.09l-6.24,5.22a2.55,2.55,0,0,1-1.06.52,2.37,2.37,0,0,1-1,0,2.44,2.44,0,0,1-.83-.32,1.73,1.73,0,0,1-.54-.49l-2.34-3.21,13.23-11.25H757v37.89Z" transform="translate(-649.35 -260.6)"/><path class="cls-10" d="M784.22,414.71l-1.5,1.86a12.54,12.54,0,0,1,2.72-1,13.53,13.53,0,0,1,3.13-.34,14.47,14.47,0,0,1,4.79.81,11.55,11.55,0,0,1,4.09,2.44,12.21,12.21,0,0,1,2.85,4.07,13.85,13.85,0,0,1,1.08,5.67,14.56,14.56,0,0,1-1.11,5.68,14.05,14.05,0,0,1-3.12,4.64,14.52,14.52,0,0,1-4.84,3.12,17.92,17.92,0,0,1-12.5,0,13.19,13.19,0,0,1-7.69-7.91,17.84,17.84,0,0,1-1-6.22,17.43,17.43,0,0,1,1.25-6.29,28.49,28.49,0,0,1,3.85-6.7l10.35-13.89a4.31,4.31,0,0,1,1.58-1.23,5.31,5.31,0,0,1,2.38-.51h6.6Zm1.68,22.05a8.64,8.64,0,0,0,3.26-.6,7.46,7.46,0,0,0,2.55-1.68,7.82,7.82,0,0,0,1.66-2.54,8.2,8.2,0,0,0,.6-3.16,9.3,9.3,0,0,0-.57-3.35,7,7,0,0,0-1.62-2.52,6.94,6.94,0,0,0-2.52-1.57,9.33,9.33,0,0,0-3.24-.54,8.27,8.27,0,0,0-3.21.6,7.17,7.17,0,0,0-2.46,1.66,7.61,7.61,0,0,0-1.59,2.52,8.54,8.54,0,0,0-.57,3.14,10.31,10.31,0,0,0,.5,3.28,6.87,6.87,0,0,0,1.47,2.54,6.63,6.63,0,0,0,2.41,1.63A8.8,8.8,0,0,0,785.9,436.76Z" transform="translate(-649.35 -260.6)"/><path class="cls-10" d="M819.41,442.34V430h1.81a.72.72,0,0,1,.75.54l.2.91a6.94,6.94,0,0,1,.67-.66,4.87,4.87,0,0,1,.76-.52,5,5,0,0,1,.86-.34,4.08,4.08,0,0,1,1-.12,2.87,2.87,0,0,1,1.91.63,3.69,3.69,0,0,1,1.12,1.67,4.06,4.06,0,0,1,.72-1.05,4,4,0,0,1,.95-.71,4.29,4.29,0,0,1,1.1-.41,5.18,5.18,0,0,1,1.17-.13,4.87,4.87,0,0,1,1.81.31,3.47,3.47,0,0,1,1.33.91,4.1,4.1,0,0,1,.83,1.46,6.66,6.66,0,0,1,.28,2v7.84h-3V434.5a2.67,2.67,0,0,0-.51-1.77,1.92,1.92,0,0,0-1.51-.59,2.15,2.15,0,0,0-.85.16,1.84,1.84,0,0,0-.68.45,2.09,2.09,0,0,0-.47.73,3,3,0,0,0-.16,1v7.84h-3V434.5a2.71,2.71,0,0,0-.5-1.8,1.86,1.86,0,0,0-1.46-.56,2.4,2.4,0,0,0-1.2.32,4,4,0,0,0-1,.87v9Z" transform="translate(-649.35 -260.6)"/><path class="cls-10" d="M843,426.44a1.73,1.73,0,0,1-.16.72,2,2,0,0,1-.41.59,2.08,2.08,0,0,1-.61.4,1.85,1.85,0,0,1-.74.15,1.8,1.8,0,0,1-.73-.15,1.76,1.76,0,0,1-.59-.4,2,2,0,0,1-.41-.59,1.72,1.72,0,0,1-.15-.72,1.85,1.85,0,0,1,.15-.74,1.73,1.73,0,0,1,.41-.6,1.82,1.82,0,0,1,1.32-.56,1.85,1.85,0,0,1,.74.15,2.11,2.11,0,0,1,.61.41,1.73,1.73,0,0,1,.41.6A1.86,1.86,0,0,1,843,426.44Zm-.41,3.59v12.31h-3V430Z" transform="translate(-649.35 -260.6)"/><path class="cls-10" d="M848.6,424.51v17.83h-3V424.51Z" transform="translate(-649.35 -260.6)"/><path class="cls-10" d="M861.5,442.53a3.23,3.23,0,0,1-2.46-.9,3.48,3.48,0,0,1-.86-2.51v-6.87h-1.26a.56.56,0,0,1-.41-.16.61.61,0,0,1-.17-.47v-1.17l2-.33.63-3.36a.66.66,0,0,1,.22-.37.7.7,0,0,1,.44-.13h1.53v3.88h3.29v2.11h-3.29v6.67a1.38,1.38,0,0,0,.28.9,1,1,0,0,0,.78.32,1.51,1.51,0,0,0,.46-.06,3.37,3.37,0,0,0,.32-.14,1.86,1.86,0,0,0,.25-.14.43.43,0,0,1,.22-.06.35.35,0,0,1,.21.06.9.9,0,0,1,.18.2l.89,1.44a4.6,4.6,0,0,1-1.49.82A5.65,5.65,0,0,1,861.5,442.53Z" transform="translate(-649.35 -260.6)"/><path class="cls-10" d="M871.68,429.84a6.65,6.65,0,0,1,2.49.44,5.35,5.35,0,0,1,3.15,3.25,8.29,8.29,0,0,1,0,5.27,5.71,5.71,0,0,1-1.23,2,5.44,5.44,0,0,1-1.92,1.28,6.85,6.85,0,0,1-2.49.44,6.92,6.92,0,0,1-2.51-.44,5.57,5.57,0,0,1-1.93-1.28,5.71,5.71,0,0,1-1.23-2,8.11,8.11,0,0,1,0-5.27,5.58,5.58,0,0,1,1.23-2,5.67,5.67,0,0,1,1.93-1.26A6.72,6.72,0,0,1,871.68,429.84Zm0,10.4a2.6,2.6,0,0,0,2.27-1,6.57,6.57,0,0,0,0-6.06,2.58,2.58,0,0,0-2.27-1,2.65,2.65,0,0,0-2.31,1,5.17,5.17,0,0,0-.75,3,5.12,5.12,0,0,0,.75,3A2.67,2.67,0,0,0,871.68,440.24Z" transform="translate(-649.35 -260.6)"/><path class="cls-10" d="M882.79,431.54a7.36,7.36,0,0,1,.79-.69,4.86,4.86,0,0,1,.87-.54,5.27,5.27,0,0,1,1-.35,5.2,5.2,0,0,1,1.15-.12,4.36,4.36,0,0,1,1.79.34,3.5,3.5,0,0,1,1.3,1,4.17,4.17,0,0,1,.8,1.47,6.3,6.3,0,0,1,.27,1.89v7.84h-3V434.5a2.65,2.65,0,0,0-.51-1.74,2,2,0,0,0-1.58-.62,3.12,3.12,0,0,0-1.44.35,5.26,5.26,0,0,0-1.27.95v8.9h-3V430h1.81a.74.74,0,0,1,.76.54Z" transform="translate(-649.35 -260.6)"/><path class="cls-11" d="M1169.16,784.33" transform="translate(-649.35 -260.6)"/><line class="cls-12" x1="369.07" y1="178.74" x2="402.75" y2="94.06"/><path class="cls-13" d="M1022,440.56a3.76,3.76,0,1,1-2.1-4.89A3.76,3.76,0,0,1,1022,440.56Z" transform="translate(-649.35 -260.6)"/><line class="cls-12" x1="231.63" y1="296.22" x2="121.68" y2="192.74"/><path class="cls-13" d="M883.42,554a3.76,3.76,0,1,1-5.31.16A3.75,3.75,0,0,1,883.42,554Z" transform="translate(-649.35 -260.6)"/></svg>