<svg id="Layer_1" data-name="Layer 1" xmlns="http://www.w3.org/2000/svg" viewBox="0 0 743.92 886.37"><defs><style>.cls-1{fill:#58b7b1;}.cls-2{fill:#29978e;}.cls-3{fill:#b5dfdd;}.cls-4{fill:#fff;}.cls-5{fill:#444;}.cls-6{fill:none;stroke:#444;stroke-miterlimit:10;stroke-width:4px;}</style></defs><polygon class="cls-1" points="582.75 361.71 120.43 361.71 231.6 614.04 471.58 614.04 582.75 361.71"/><polygon class="cls-2" points="591.56 341.71 703.18 88.38 0 88.38 111.62 341.71 591.56 341.71"/><polygon class="cls-3" points="240.41 634.04 351.59 886.38 462.76 634.04 240.41 634.04"/><path class="cls-4" d="M354.86,304.2v7.7h9.76v3.87h-9.76v10.6H350v-26h16.42v3.85Z" transform="translate(-94.82 -105.63)"/><path class="cls-4" d="M376.23,307.62a10.11,10.11,0,0,1,3.73.66,8,8,0,0,1,4.73,4.88,12.33,12.33,0,0,1,0,7.9,8.44,8.44,0,0,1-1.85,3A8.16,8.16,0,0,1,380,326a10.11,10.11,0,0,1-3.73.66,10.23,10.23,0,0,1-3.76-.66,8.11,8.11,0,0,1-2.89-1.91,8.6,8.6,0,0,1-1.86-3,12.33,12.33,0,0,1,0-7.9,8.51,8.51,0,0,1,1.86-3,8.34,8.34,0,0,1,2.89-1.89A10.23,10.23,0,0,1,376.23,307.62Zm0,15.6a3.9,3.9,0,0,0,3.41-1.55,7.72,7.72,0,0,0,1.11-4.53,7.87,7.87,0,0,0-1.11-4.56,3.91,3.91,0,0,0-3.41-1.56,4,4,0,0,0-3.47,1.57,7.78,7.78,0,0,0-1.12,4.55,7.69,7.69,0,0,0,1.12,4.53A4,4,0,0,0,376.23,323.22Z" transform="translate(-94.82 -105.63)"/><path class="cls-4" d="M396.91,307.62a10.11,10.11,0,0,1,3.73.66,8.2,8.2,0,0,1,2.88,1.89,8.35,8.35,0,0,1,1.85,3,12.33,12.33,0,0,1,0,7.9,8.44,8.44,0,0,1-1.85,3,8,8,0,0,1-2.88,1.91,10.11,10.11,0,0,1-3.73.66,10.27,10.27,0,0,1-3.76-.66,8.11,8.11,0,0,1-2.89-1.91,8.6,8.6,0,0,1-1.86-3,12.33,12.33,0,0,1,0-7.9,8.51,8.51,0,0,1,1.86-3,8.34,8.34,0,0,1,2.89-1.89A10.27,10.27,0,0,1,396.91,307.62Zm0,15.6a3.89,3.89,0,0,0,3.41-1.55,7.72,7.72,0,0,0,1.11-4.53,7.87,7.87,0,0,0-1.11-4.56,3.89,3.89,0,0,0-3.41-1.56,4,4,0,0,0-3.47,1.57,7.78,7.78,0,0,0-1.12,4.55,7.69,7.69,0,0,0,1.12,4.53A4,4,0,0,0,396.91,323.22Z" transform="translate(-94.82 -105.63)"/><path class="cls-4" d="M425.46,299.62v26.75h-2.72a1.05,1.05,0,0,1-1.12-.81l-.37-1.78a9.45,9.45,0,0,1-2.57,2.07,6.91,6.91,0,0,1-3.37.79,6.14,6.14,0,0,1-2.78-.63,6.28,6.28,0,0,1-2.17-1.82,8.94,8.94,0,0,1-1.4-3,15,15,0,0,1-.49-4,12.62,12.62,0,0,1,.55-3.81,9.47,9.47,0,0,1,1.6-3.06,7.55,7.55,0,0,1,2.51-2,7.28,7.28,0,0,1,3.27-.73,6.56,6.56,0,0,1,2.65.49,6.67,6.67,0,0,1,2,1.31v-9.74Zm-4.45,13a4.29,4.29,0,0,0-1.65-1.29,4.69,4.69,0,0,0-1.91-.38,4.12,4.12,0,0,0-1.82.38,3.69,3.69,0,0,0-1.39,1.14,5.52,5.52,0,0,0-.88,1.94,11.38,11.38,0,0,0-.3,2.78,12,12,0,0,0,.26,2.75,5.34,5.34,0,0,0,.74,1.83,2.84,2.84,0,0,0,1.19,1,3.8,3.8,0,0,0,1.57.32,4.61,4.61,0,0,0,2.36-.58A6.92,6.92,0,0,0,421,320.9Z" transform="translate(-94.82 -105.63)"/><path class="cls-4" d="M449.86,311.5a1.16,1.16,0,0,1-.37.41,1,1,0,0,1-.51.12,1.61,1.61,0,0,1-.69-.18l-.85-.41a8.38,8.38,0,0,0-1.11-.4,5.38,5.38,0,0,0-1.47-.18,3.32,3.32,0,0,0-2.06.56,1.72,1.72,0,0,0-.75,1.45,1.38,1.38,0,0,0,.39,1,3.4,3.4,0,0,0,1,.71,9,9,0,0,0,1.45.55c.54.16,1.08.34,1.64.53a16.69,16.69,0,0,1,1.65.66,5.92,5.92,0,0,1,1.45.94,4.16,4.16,0,0,1,1.41,3.26,6.2,6.2,0,0,1-.48,2.46,5.19,5.19,0,0,1-1.41,1.94,6.44,6.44,0,0,1-2.31,1.28,10,10,0,0,1-3.18.46,10.29,10.29,0,0,1-1.86-.17,10,10,0,0,1-1.75-.48,9.18,9.18,0,0,1-1.55-.72,7,7,0,0,1-1.25-.9l1-1.69a1.5,1.5,0,0,1,.47-.47,1.27,1.27,0,0,1,.68-.16,1.38,1.38,0,0,1,.78.24c.25.15.53.32.86.5a6.82,6.82,0,0,0,1.14.5,4.92,4.92,0,0,0,1.67.24,4.55,4.55,0,0,0,1.36-.19,2.83,2.83,0,0,0,.93-.5,1.75,1.75,0,0,0,.54-.71,2,2,0,0,0,.17-.84,1.53,1.53,0,0,0-.38-1.06,3.61,3.61,0,0,0-1-.72A11.51,11.51,0,0,0,444,319c-.54-.16-1.1-.33-1.67-.53a15.07,15.07,0,0,1-1.68-.67,5.87,5.87,0,0,1-1.45-1,4.43,4.43,0,0,1-1-1.46,5.06,5.06,0,0,1-.39-2.09,5.33,5.33,0,0,1,.45-2.16,5,5,0,0,1,1.33-1.79,6.4,6.4,0,0,1,2.17-1.22,9,9,0,0,1,3-.46,9.2,9.2,0,0,1,3.47.63,7.78,7.78,0,0,1,2.61,1.65Z" transform="translate(-94.82 -105.63)"/><path class="cls-4" d="M458.86,309.89a9.54,9.54,0,0,1,2.38-1.64,6.88,6.88,0,0,1,3-.63,6.64,6.64,0,0,1,2.68.51,5.26,5.26,0,0,1,2,1.44,6.44,6.44,0,0,1,1.19,2.21,9.46,9.46,0,0,1,.4,2.84v11.75h-4.45V314.62a4,4,0,0,0-.77-2.62,2.9,2.9,0,0,0-2.36-.93,4.6,4.6,0,0,0-2.16.53,7.58,7.58,0,0,0-1.91,1.42v13.35h-4.44V299.62h4.44Z" transform="translate(-94.82 -105.63)"/><path class="cls-4" d="M479.94,302.52a2.58,2.58,0,0,1-.23,1.08,2.92,2.92,0,0,1-.62.88,2.85,2.85,0,0,1-.91.61,2.8,2.8,0,0,1-1.12.22,2.72,2.72,0,0,1-1.09-.22,2.77,2.77,0,0,1-.89-.61,2.86,2.86,0,0,1-.6-.88,2.58,2.58,0,0,1-.23-1.08,2.79,2.79,0,0,1,.23-1.11,2.84,2.84,0,0,1,.6-.9,2.77,2.77,0,0,1,.89-.61,2.72,2.72,0,0,1,1.09-.22,2.8,2.8,0,0,1,1.12.22,2.85,2.85,0,0,1,.91.61,2.89,2.89,0,0,1,.62.9A2.79,2.79,0,0,1,479.94,302.52Zm-.61,5.39v18.46h-4.46V307.91Z" transform="translate(-94.82 -105.63)"/><path class="cls-4" d="M488.08,310.42a9.6,9.6,0,0,1,2.57-2.07,7,7,0,0,1,3.39-.79,6.05,6.05,0,0,1,2.76.63A6.26,6.26,0,0,1,499,310a8.69,8.69,0,0,1,1.4,3,14.86,14.86,0,0,1,.5,4,12.71,12.71,0,0,1-.56,3.83,9.36,9.36,0,0,1-1.59,3.06,7.39,7.39,0,0,1-2.5,2,7.26,7.26,0,0,1-3.29.73,6.82,6.82,0,0,1-2.65-.47,6.48,6.48,0,0,1-2-1.33v7.56h-4.44V307.91h2.71a1.09,1.09,0,0,1,1.14.8Zm.23,11.16a4.37,4.37,0,0,0,1.65,1.3,4.92,4.92,0,0,0,1.93.38,4.26,4.26,0,0,0,1.82-.38,3.53,3.53,0,0,0,1.38-1.15,5.65,5.65,0,0,0,.87-2,10.93,10.93,0,0,0,.31-2.78,12.64,12.64,0,0,0-.26-2.75,5.54,5.54,0,0,0-.75-1.83,2.94,2.94,0,0,0-1.18-1,3.62,3.62,0,0,0-1.57-.33,4.49,4.49,0,0,0-2.36.59,7.18,7.18,0,0,0-1.84,1.65Z" transform="translate(-94.82 -105.63)"/><path class="cls-4" d="M508.53,310.42a9.6,9.6,0,0,1,2.57-2.07,7,7,0,0,1,3.38-.79,6.1,6.1,0,0,1,2.77.63,6.26,6.26,0,0,1,2.16,1.83,8.88,8.88,0,0,1,1.4,3,14.86,14.86,0,0,1,.5,4,12.71,12.71,0,0,1-.56,3.83,9.36,9.36,0,0,1-1.59,3.06,7.43,7.43,0,0,1-2.51,2,7.22,7.22,0,0,1-3.28.73,6.79,6.79,0,0,1-2.65-.47,6.48,6.48,0,0,1-2-1.33v7.56h-4.45V307.91H507a1.09,1.09,0,0,1,1.14.8Zm.23,11.16a4.23,4.23,0,0,0,1.65,1.3,4.92,4.92,0,0,0,1.93.38,4.29,4.29,0,0,0,1.82-.38,3.53,3.53,0,0,0,1.38-1.15,5.65,5.65,0,0,0,.87-2,11.4,11.4,0,0,0,.31-2.78,12.64,12.64,0,0,0-.26-2.75,5.54,5.54,0,0,0-.75-1.83,3,3,0,0,0-1.18-1,3.63,3.63,0,0,0-1.58-.33,4.45,4.45,0,0,0-2.35.59,7.18,7.18,0,0,0-1.84,1.65Z" transform="translate(-94.82 -105.63)"/><path class="cls-4" d="M528.18,317.7a8.4,8.4,0,0,0,.51,2.45,5,5,0,0,0,1,1.71,4,4,0,0,0,1.54,1,5.61,5.61,0,0,0,2,.34,6,6,0,0,0,1.86-.26,8.48,8.48,0,0,0,1.37-.55l1-.56a1.7,1.7,0,0,1,.85-.26.92.92,0,0,1,.83.42l1.28,1.62a7.59,7.59,0,0,1-1.66,1.45,9,9,0,0,1-1.92.93,10.21,10.21,0,0,1-2,.5,15.57,15.57,0,0,1-2,.14,9.81,9.81,0,0,1-3.58-.64,7.93,7.93,0,0,1-2.88-1.89,8.76,8.76,0,0,1-1.92-3.09,12,12,0,0,1-.71-4.28,10.15,10.15,0,0,1,.62-3.55,8.43,8.43,0,0,1,1.75-2.9,8.24,8.24,0,0,1,2.79-2,9.21,9.21,0,0,1,3.72-.72,9.07,9.07,0,0,1,3.22.55,7.25,7.25,0,0,1,2.54,1.63,7.52,7.52,0,0,1,1.66,2.63,9.87,9.87,0,0,1,.61,3.56,3,3,0,0,1-.22,1.36.9.9,0,0,1-.83.35Zm8.48-2.68a5.4,5.4,0,0,0-.24-1.63,4.19,4.19,0,0,0-.73-1.35,3.5,3.5,0,0,0-1.23-.9,4.69,4.69,0,0,0-4.77.76,5.41,5.41,0,0,0-1.42,3.12Z" transform="translate(-94.82 -105.63)"/><path class="cls-4" d="M560,299.62v26.75h-2.71a1.05,1.05,0,0,1-1.12-.81l-.38-1.78a9.4,9.4,0,0,1-2.56,2.07,6.92,6.92,0,0,1-3.38.79,6.1,6.1,0,0,1-2.77-.63,6.28,6.28,0,0,1-2.17-1.82,8.75,8.75,0,0,1-1.4-3,15,15,0,0,1-.5-4,12.62,12.62,0,0,1,.56-3.81,9.28,9.28,0,0,1,1.6-3.06,7.52,7.52,0,0,1,2.5-2,7.35,7.35,0,0,1,3.28-.73,6.63,6.63,0,0,1,2.65.49,6.8,6.8,0,0,1,2,1.31v-9.74Zm-4.44,13a4.44,4.44,0,0,0-1.65-1.29A4.7,4.7,0,0,0,552,311a4.1,4.1,0,0,0-1.81.38,3.62,3.62,0,0,0-1.39,1.14,5.52,5.52,0,0,0-.88,1.94,10.87,10.87,0,0,0-.31,2.78,12.64,12.64,0,0,0,.26,2.75,5.54,5.54,0,0,0,.75,1.83,2.79,2.79,0,0,0,1.19,1,3.78,3.78,0,0,0,1.56.32,4.59,4.59,0,0,0,2.36-.58,7,7,0,0,0,1.84-1.64Z" transform="translate(-94.82 -105.63)"/><path class="cls-5" d="M307.16,110.2v7.7h9.76v3.87h-9.76v10.6H302.3v-26h16.42v3.85Z" transform="translate(-94.82 -105.63)"/><path class="cls-5" d="M328.53,113.62a10.11,10.11,0,0,1,3.73.66,8.2,8.2,0,0,1,2.88,1.89,8.35,8.35,0,0,1,1.85,3,12.33,12.33,0,0,1,0,7.9,8.44,8.44,0,0,1-1.85,3,8,8,0,0,1-2.88,1.91,10.11,10.11,0,0,1-3.73.66,10.27,10.27,0,0,1-3.76-.66,8.11,8.11,0,0,1-2.89-1.91,8.6,8.6,0,0,1-1.86-3,12.33,12.33,0,0,1,0-7.9,8.51,8.51,0,0,1,1.86-3,8.34,8.34,0,0,1,2.89-1.89A10.27,10.27,0,0,1,328.53,113.62Zm0,15.6a3.9,3.9,0,0,0,3.41-1.55,7.72,7.72,0,0,0,1.11-4.53,7.87,7.87,0,0,0-1.11-4.56,3.91,3.91,0,0,0-3.41-1.56,4,4,0,0,0-3.47,1.57,7.78,7.78,0,0,0-1.12,4.55,7.69,7.69,0,0,0,1.12,4.53A4,4,0,0,0,328.53,129.22Z" transform="translate(-94.82 -105.63)"/><path class="cls-5" d="M349.21,113.62a10.2,10.2,0,0,1,3.74.66,8,8,0,0,1,4.72,4.88,12.33,12.33,0,0,1,0,7.9,8.56,8.56,0,0,1-1.84,3A8.16,8.16,0,0,1,353,132a11,11,0,0,1-7.5,0,8.11,8.11,0,0,1-2.89-1.91,8.44,8.44,0,0,1-1.85-3,12.15,12.15,0,0,1,0-7.9,8,8,0,0,1,4.74-4.88A10.27,10.27,0,0,1,349.21,113.62Zm0,15.6a3.89,3.89,0,0,0,3.41-1.55,7.72,7.72,0,0,0,1.11-4.53,7.87,7.87,0,0,0-1.11-4.56,3.89,3.89,0,0,0-3.41-1.56,4,4,0,0,0-3.46,1.57,7.78,7.78,0,0,0-1.13,4.55,7.69,7.69,0,0,0,1.13,4.53A4,4,0,0,0,349.21,129.22Z" transform="translate(-94.82 -105.63)"/><path class="cls-5" d="M377.76,105.62v26.75H375a1.05,1.05,0,0,1-1.12-.81l-.37-1.78a9.45,9.45,0,0,1-2.57,2.07,6.88,6.88,0,0,1-3.37.79,6,6,0,0,1-4.94-2.45,8.76,8.76,0,0,1-1.41-3,15,15,0,0,1-.49-4,12.62,12.62,0,0,1,.55-3.81,9.29,9.29,0,0,1,1.61-3.06,7.42,7.42,0,0,1,2.5-2,7.28,7.28,0,0,1,3.27-.73,6.56,6.56,0,0,1,2.65.49,6.67,6.67,0,0,1,2,1.31v-9.74Zm-4.45,13a4.34,4.34,0,0,0-1.64-1.29,4.77,4.77,0,0,0-1.92-.38,4.15,4.15,0,0,0-1.82.38,3.69,3.69,0,0,0-1.39,1.14,5.71,5.71,0,0,0-.88,1.94,11.38,11.38,0,0,0-.3,2.78,12,12,0,0,0,.26,2.75,5.34,5.34,0,0,0,.74,1.83,2.84,2.84,0,0,0,1.19,1,3.8,3.8,0,0,0,1.57.32,4.61,4.61,0,0,0,2.36-.58,6.92,6.92,0,0,0,1.83-1.64Z" transform="translate(-94.82 -105.63)"/><path class="cls-5" d="M416.53,113.91l-5.87,18.46H407.1c-.41,0-.69-.26-.85-.79l-3.31-10.67c-.11-.36-.21-.72-.3-1.07s-.16-.72-.22-1.07c-.07.35-.15.72-.24,1.08s-.19.73-.3,1.09l-3.37,10.64a.92.92,0,0,1-.95.79h-3.42l-5.85-18.46h3.54a1.4,1.4,0,0,1,.83.23,1,1,0,0,1,.45.59l2.65,9.87c.13.54.25,1.07.35,1.58s.19,1,.26,1.55c.13-.52.27-1,.42-1.55s.31-1,.48-1.58l3.06-9.9a1.14,1.14,0,0,1,.42-.6,1.3,1.3,0,0,1,.77-.23h2a1.4,1.4,0,0,1,.8.23,1.13,1.13,0,0,1,.44.6l3,9.9c.16.54.31,1.07.44,1.59s.28,1,.41,1.56a27.79,27.79,0,0,1,.67-3.15l2.71-9.87a1.25,1.25,0,0,1,.45-.59,1.28,1.28,0,0,1,.78-.23Z" transform="translate(-94.82 -105.63)"/><path class="cls-5" d="M418.38,116.48a11,11,0,0,1,7.67-2.92,7.57,7.57,0,0,1,2.9.53,6.25,6.25,0,0,1,2.16,1.48,6.17,6.17,0,0,1,1.34,2.26,8.61,8.61,0,0,1,.46,2.88v11.66h-2a2,2,0,0,1-1-.19,1.27,1.27,0,0,1-.54-.76l-.39-1.33a15.35,15.35,0,0,1-1.37,1.1,8.52,8.52,0,0,1-1.39.81,7.49,7.49,0,0,1-1.54.49,9.13,9.13,0,0,1-1.81.17,7.09,7.09,0,0,1-2.16-.31,4.76,4.76,0,0,1-1.71-.95,4.15,4.15,0,0,1-1.11-1.57,5.42,5.42,0,0,1-.4-2.17,4.25,4.25,0,0,1,.24-1.4,4,4,0,0,1,.76-1.32,6.34,6.34,0,0,1,1.38-1.19,9.17,9.17,0,0,1,2.08-1,18.14,18.14,0,0,1,2.87-.68,30.18,30.18,0,0,1,3.74-.31v-1.08a4,4,0,0,0-.79-2.75,2.92,2.92,0,0,0-2.29-.89,5.38,5.38,0,0,0-1.79.26,6.91,6.91,0,0,0-1.25.56l-1,.57a1.91,1.91,0,0,1-1,.25,1.28,1.28,0,0,1-.79-.24,1.88,1.88,0,0,1-.52-.57Zm10.19,8a25.08,25.08,0,0,0-3.24.33,8.56,8.56,0,0,0-2.1.62,2.75,2.75,0,0,0-1.14.89,1.87,1.87,0,0,0-.34,1.09,2,2,0,0,0,.69,1.68,3.07,3.07,0,0,0,1.81.5,5.31,5.31,0,0,0,2.37-.49,6.77,6.77,0,0,0,1.95-1.51Z" transform="translate(-94.82 -105.63)"/><path class="cls-5" d="M448.35,117.5a1.16,1.16,0,0,1-.37.41,1,1,0,0,1-.51.12,1.58,1.58,0,0,1-.69-.18l-.86-.41a7.74,7.74,0,0,0-1.1-.4,5.38,5.38,0,0,0-1.47-.18,3.32,3.32,0,0,0-2.06.56,1.72,1.72,0,0,0-.75,1.45,1.38,1.38,0,0,0,.39,1,3.4,3.4,0,0,0,1,.71,8.85,8.85,0,0,0,1.44.55c.54.16,1.09.34,1.65.53a16.69,16.69,0,0,1,1.65.66,5.92,5.92,0,0,1,1.45.94,4.16,4.16,0,0,1,1.41,3.26,6.2,6.2,0,0,1-.48,2.46,5.19,5.19,0,0,1-1.41,1.94,6.53,6.53,0,0,1-2.31,1.28,10,10,0,0,1-3.18.46,10.29,10.29,0,0,1-1.86-.17,10,10,0,0,1-1.75-.48,9.18,9.18,0,0,1-1.55-.72,7,7,0,0,1-1.25-.9l1-1.69a1.5,1.5,0,0,1,.47-.47,1.27,1.27,0,0,1,.68-.16,1.38,1.38,0,0,1,.78.24c.25.15.53.32.86.5a6.82,6.82,0,0,0,1.14.5,4.92,4.92,0,0,0,1.67.24,4.55,4.55,0,0,0,1.36-.19,2.94,2.94,0,0,0,.93-.5,1.75,1.75,0,0,0,.54-.71,2,2,0,0,0,.17-.84,1.53,1.53,0,0,0-.38-1.06,3.61,3.61,0,0,0-1-.72,11.51,11.51,0,0,0-1.46-.55c-.55-.16-1.1-.33-1.67-.53a15.07,15.07,0,0,1-1.68-.67,5.87,5.87,0,0,1-1.45-1,4.43,4.43,0,0,1-1-1.46,5.06,5.06,0,0,1-.39-2.09,5.33,5.33,0,0,1,.45-2.16,5.11,5.11,0,0,1,1.32-1.79,6.55,6.55,0,0,1,2.18-1.22,9,9,0,0,1,3-.46,9.2,9.2,0,0,1,3.47.63,7.78,7.78,0,0,1,2.61,1.65Z" transform="translate(-94.82 -105.63)"/><path class="cls-5" d="M459.06,132.66a4.85,4.85,0,0,1-3.7-1.36,5.25,5.25,0,0,1-1.28-3.75V117.23h-1.89a.83.83,0,0,1-.61-.23.9.9,0,0,1-.26-.7v-1.76l3-.49.94-5a1,1,0,0,1,.34-.56,1,1,0,0,1,.65-.2h2.3v5.82h4.94v3.16h-4.94v10a2,2,0,0,0,.43,1.35,1.44,1.44,0,0,0,1.16.49,2,2,0,0,0,.69-.1,3.27,3.27,0,0,0,.49-.21l.37-.2a.55.55,0,0,1,.32-.1.47.47,0,0,1,.32.1,1.1,1.1,0,0,1,.27.29l1.34,2.16a6.88,6.88,0,0,1-2.24,1.23A8.48,8.48,0,0,1,459.06,132.66Z" transform="translate(-94.82 -105.63)"/><path class="cls-5" d="M469.58,123.7a8.76,8.76,0,0,0,.5,2.45,5,5,0,0,0,1,1.71,4.17,4.17,0,0,0,1.54,1,5.66,5.66,0,0,0,2,.34,6.07,6.07,0,0,0,1.87-.26,8,8,0,0,0,1.36-.55c.39-.21.74-.39,1-.56a1.74,1.74,0,0,1,.86-.26.9.9,0,0,1,.82.42l1.28,1.62a7.54,7.54,0,0,1-1.65,1.45,9.43,9.43,0,0,1-1.92.93,10.38,10.38,0,0,1-2,.5,15.69,15.69,0,0,1-2,.14,9.73,9.73,0,0,1-3.58-.64,7.77,7.77,0,0,1-2.88-1.89,8.78,8.78,0,0,1-1.93-3.09,12,12,0,0,1-.7-4.28,10.15,10.15,0,0,1,.61-3.55,8.46,8.46,0,0,1,1.76-2.9,8.24,8.24,0,0,1,2.79-2,9.13,9.13,0,0,1,3.71-.72,9,9,0,0,1,3.22.55,7.16,7.16,0,0,1,2.54,1.63,7.69,7.69,0,0,1,1.67,2.63,9.88,9.88,0,0,1,.6,3.56,2.82,2.82,0,0,1-.22,1.36.89.89,0,0,1-.82.35Zm8.47-2.68a5.4,5.4,0,0,0-.24-1.63,3.84,3.84,0,0,0-.73-1.35,3.33,3.33,0,0,0-1.23-.9,4.69,4.69,0,0,0-4.77.76,5.34,5.34,0,0,0-1.41,3.12Z" transform="translate(-94.82 -105.63)"/><path class="cls-5" d="M495.42,132.37V117.25l-1.6-.25a1.72,1.72,0,0,1-.83-.37.88.88,0,0,1-.32-.74v-1.82h2.75V112.7a8,8,0,0,1,.48-2.85,6.1,6.1,0,0,1,1.37-2.14,6,6,0,0,1,2.17-1.35,8.37,8.37,0,0,1,2.88-.46,7.85,7.85,0,0,1,2.37.34l-.09,2.23a.68.68,0,0,1-.14.4.75.75,0,0,1-.33.24,2.12,2.12,0,0,1-.48.11l-.58,0a5.56,5.56,0,0,0-1.41.17,2.49,2.49,0,0,0-1.05.6,2.65,2.65,0,0,0-.66,1.11,5.71,5.71,0,0,0-.22,1.72v1.23h4.8v3.16h-4.66v15.14Z" transform="translate(-94.82 -105.63)"/><path class="cls-5" d="M523,113.91v18.46h-2.72a1.05,1.05,0,0,1-1.12-.81l-.3-1.47A10,10,0,0,1,516.3,132a6.92,6.92,0,0,1-3.22.71,6.56,6.56,0,0,1-2.67-.51,5.25,5.25,0,0,1-2-1.45,6.34,6.34,0,0,1-1.2-2.22,9.46,9.46,0,0,1-.41-2.84V113.91h4.45v11.73a4,4,0,0,0,.78,2.62,2.9,2.9,0,0,0,2.35.93,4.59,4.59,0,0,0,2.16-.52,7.53,7.53,0,0,0,1.91-1.41V113.91Z" transform="translate(-94.82 -105.63)"/><path class="cls-5" d="M531.5,116.17a12.68,12.68,0,0,1,1.17-1,7.55,7.55,0,0,1,1.32-.81,7.2,7.2,0,0,1,1.48-.52,7.28,7.28,0,0,1,1.73-.19,6.64,6.64,0,0,1,2.68.51,5.35,5.35,0,0,1,2,1.44,6.42,6.42,0,0,1,1.18,2.21,9.46,9.46,0,0,1,.41,2.84v11.75H539V120.62a4,4,0,0,0-.77-2.62,2.9,2.9,0,0,0-2.36-.93,4.6,4.6,0,0,0-2.16.53,7.58,7.58,0,0,0-1.91,1.42v13.35h-4.44V113.91h2.72a1.08,1.08,0,0,1,1.13.8Z" transform="translate(-94.82 -105.63)"/><path class="cls-5" d="M551.8,116.17a11.6,11.6,0,0,1,1.18-1,7.17,7.17,0,0,1,2.8-1.33,7.22,7.22,0,0,1,1.73-.19,6.67,6.67,0,0,1,2.68.51,5.23,5.23,0,0,1,1.95,1.44,6.44,6.44,0,0,1,1.19,2.21,9.46,9.46,0,0,1,.4,2.84v11.75h-4.44V120.62a4,4,0,0,0-.78-2.62,2.88,2.88,0,0,0-2.35-.93,4.6,4.6,0,0,0-2.16.53,7.41,7.41,0,0,0-1.91,1.42v13.35h-4.45V113.91h2.72a1.08,1.08,0,0,1,1.13.8Z" transform="translate(-94.82 -105.63)"/><path class="cls-5" d="M571.37,123.7a8.42,8.42,0,0,0,.5,2.45,5,5,0,0,0,1,1.71,4.17,4.17,0,0,0,1.54,1,5.66,5.66,0,0,0,2,.34,6.12,6.12,0,0,0,1.87-.26,8.35,8.35,0,0,0,1.36-.55c.39-.21.74-.39,1-.56a1.71,1.71,0,0,1,.86-.26.9.9,0,0,1,.82.42l1.28,1.62a7.37,7.37,0,0,1-1.66,1.45,9.11,9.11,0,0,1-1.91.93,10.47,10.47,0,0,1-2,.5,15.54,15.54,0,0,1-2,.14,9.82,9.82,0,0,1-3.59-.64,7.93,7.93,0,0,1-2.88-1.89,8.91,8.91,0,0,1-1.92-3.09,12,12,0,0,1-.7-4.28,10.15,10.15,0,0,1,.61-3.55,8.59,8.59,0,0,1,1.75-2.9,8.44,8.44,0,0,1,2.79-2,9.21,9.21,0,0,1,3.72-.72,9.07,9.07,0,0,1,3.22.55,7.16,7.16,0,0,1,2.54,1.63,7.69,7.69,0,0,1,1.67,2.63,9.88,9.88,0,0,1,.6,3.56,2.82,2.82,0,0,1-.22,1.36.9.9,0,0,1-.83.35Zm8.47-2.68a5.4,5.4,0,0,0-.24-1.63,4,4,0,0,0-.73-1.35,3.33,3.33,0,0,0-1.23-.9,4.69,4.69,0,0,0-4.77.76,5.34,5.34,0,0,0-1.41,3.12Z" transform="translate(-94.82 -105.63)"/><path class="cls-5" d="M591.67,105.62v26.75h-4.45V105.62Z" transform="translate(-94.82 -105.63)"/><path class="cls-5" d="M770.81,477.6a9.64,9.64,0,0,1,1.05-3.29,7.82,7.82,0,0,1,1.93-2.35,8.08,8.08,0,0,1,2.67-1.43,10.87,10.87,0,0,1,3.23-.47,9.76,9.76,0,0,1,3.25.51,7.48,7.48,0,0,1,2.47,1.42,6.3,6.3,0,0,1,1.58,2.13,6.51,6.51,0,0,1,.55,2.65,8,8,0,0,1-.28,2.19,5.33,5.33,0,0,1-.8,1.64,4.63,4.63,0,0,1-1.3,1.19,7.61,7.61,0,0,1-1.75.81,6.93,6.93,0,0,1,3.5,2.25,6.15,6.15,0,0,1,1.15,3.8,7.84,7.84,0,0,1-.72,3.44,7.33,7.33,0,0,1-2,2.51,8.43,8.43,0,0,1-2.83,1.54,11,11,0,0,1-3.41.52,11.62,11.62,0,0,1-3.42-.45,7.41,7.41,0,0,1-2.54-1.33,8.23,8.23,0,0,1-1.84-2.16,14.88,14.88,0,0,1-1.29-3l2-.81a2.28,2.28,0,0,1,1.45-.17,1.37,1.37,0,0,1,1,.73c.22.42.45.83.71,1.24a5.11,5.11,0,0,0,.93,1.09,4.58,4.58,0,0,0,1.27.77,4.5,4.5,0,0,0,1.73.3,5,5,0,0,0,2-.37,4.31,4.31,0,0,0,1.42-1,3.85,3.85,0,0,0,.84-1.32,4,4,0,0,0,.28-1.47,6.45,6.45,0,0,0-.2-1.7,2.48,2.48,0,0,0-.82-1.3,4.63,4.63,0,0,0-1.81-.85,13.33,13.33,0,0,0-3.16-.3v-3.17a11.26,11.26,0,0,0,2.72-.31,4.54,4.54,0,0,0,1.71-.8,2.7,2.7,0,0,0,.9-1.23,5,5,0,0,0,.25-1.59,3.62,3.62,0,0,0-1-2.79,3.86,3.86,0,0,0-2.73-.95A4.52,4.52,0,0,0,778,474a4,4,0,0,0-1.2.63,4,4,0,0,0-.89.94,4.14,4.14,0,0,0-.54,1.19,1.94,1.94,0,0,1-.8,1.1,2.2,2.2,0,0,1-1.4.12Z" transform="translate(-94.82 -105.63)"/><path class="cls-5" d="M791.69,477.6a9.64,9.64,0,0,1,1-3.29,7.82,7.82,0,0,1,1.93-2.35,8.08,8.08,0,0,1,2.67-1.43,10.87,10.87,0,0,1,3.23-.47,9.76,9.76,0,0,1,3.25.51,7.48,7.48,0,0,1,2.47,1.42,6.3,6.3,0,0,1,1.58,2.13,6.51,6.51,0,0,1,.55,2.65,8,8,0,0,1-.28,2.19,5.13,5.13,0,0,1-.81,1.64,4.59,4.59,0,0,1-1.29,1.19,7.61,7.61,0,0,1-1.75.81,6.93,6.93,0,0,1,3.5,2.25,6.15,6.15,0,0,1,1.15,3.8,7.84,7.84,0,0,1-.72,3.44,7.33,7.33,0,0,1-2,2.51,8.43,8.43,0,0,1-2.83,1.54,11,11,0,0,1-3.41.52,11.62,11.62,0,0,1-3.42-.45,7.41,7.41,0,0,1-2.54-1.33,8.23,8.23,0,0,1-1.84-2.16,14.88,14.88,0,0,1-1.29-3l2-.81a2.28,2.28,0,0,1,1.45-.17,1.39,1.39,0,0,1,1,.73,14.08,14.08,0,0,0,.71,1.24,5.11,5.11,0,0,0,.93,1.09,4.58,4.58,0,0,0,1.27.77,4.5,4.5,0,0,0,1.73.3,5,5,0,0,0,2-.37,4.31,4.31,0,0,0,1.42-1,3.85,3.85,0,0,0,.84-1.32,4,4,0,0,0,.28-1.47,6.89,6.89,0,0,0-.2-1.7,2.5,2.5,0,0,0-.83-1.3,4.58,4.58,0,0,0-1.8-.85,13.33,13.33,0,0,0-3.16-.3v-3.17a11.11,11.11,0,0,0,2.71-.31,4.51,4.51,0,0,0,1.72-.8,2.7,2.7,0,0,0,.9-1.23,5,5,0,0,0,.25-1.59,3.65,3.65,0,0,0-1-2.79,3.87,3.87,0,0,0-2.74-.95,4.5,4.5,0,0,0-1.45.23,4,4,0,0,0-1.2.63,4,4,0,0,0-.89.94,4.14,4.14,0,0,0-.54,1.19,2,2,0,0,1-.8,1.1,2.2,2.2,0,0,1-1.4.12Z" transform="translate(-94.82 -105.63)"/><path class="cls-5" d="M824,476.65a6.85,6.85,0,0,1-.5,2.66,6.21,6.21,0,0,1-1.32,2,5.64,5.64,0,0,1-1.93,1.29,5.94,5.94,0,0,1-2.28.45,6.29,6.29,0,0,1-2.4-.45,5.39,5.39,0,0,1-1.89-1.29,5.77,5.77,0,0,1-1.26-2,7.46,7.46,0,0,1-.45-2.66,7.91,7.91,0,0,1,.45-2.74,5.81,5.81,0,0,1,1.26-2.07,5.44,5.44,0,0,1,1.89-1.31,6.63,6.63,0,0,1,4.8,0,5.56,5.56,0,0,1,1.92,1.31,5.81,5.81,0,0,1,1.26,2.07A7.91,7.91,0,0,1,824,476.65Zm8.66-5.6a2.91,2.91,0,0,1,.55-.49,1.58,1.58,0,0,1,.89-.21h3.24L818,495.71a1.91,1.91,0,0,1-.55.47,1.53,1.53,0,0,1-.8.19h-3.31Zm-12.08,5.6a6.2,6.2,0,0,0-.21-1.75,3.06,3.06,0,0,0-.56-1.13,2.06,2.06,0,0,0-.82-.63,2.88,2.88,0,0,0-1-.18,2.79,2.79,0,0,0-1,.18,1.94,1.94,0,0,0-.8.63,3.21,3.21,0,0,0-.53,1.13,6.63,6.63,0,0,0-.2,1.75,6.13,6.13,0,0,0,.2,1.68,3.17,3.17,0,0,0,.53,1.09,1.92,1.92,0,0,0,.8.59,2.79,2.79,0,0,0,1,.18,2.88,2.88,0,0,0,1-.18,2.05,2.05,0,0,0,.82-.59,3,3,0,0,0,.56-1.09A5.73,5.73,0,0,0,820.62,476.65Zm18.12,13.6a6.9,6.9,0,0,1-.49,2.67,6.32,6.32,0,0,1-1.32,2,6,6,0,0,1-1.93,1.3,6,6,0,0,1-2.29.46,6.24,6.24,0,0,1-2.39-.46,5.69,5.69,0,0,1-1.9-1.3,6,6,0,0,1-1.25-2,7.51,7.51,0,0,1-.45-2.67,7.86,7.86,0,0,1,.45-2.73,5.94,5.94,0,0,1,1.25-2.07,5.58,5.58,0,0,1,1.9-1.31,6.24,6.24,0,0,1,2.39-.46,6.35,6.35,0,0,1,2.41.46,5.52,5.52,0,0,1,1.91,1.31,6.11,6.11,0,0,1,1.26,2.07A7.86,7.86,0,0,1,838.74,490.25Zm-3.43,0a6.61,6.61,0,0,0-.2-1.74,3.19,3.19,0,0,0-.55-1.14,2,2,0,0,0-.83-.62,2.89,2.89,0,0,0-1-.19,2.74,2.74,0,0,0-1,.19,1.88,1.88,0,0,0-.81.62,3,3,0,0,0-.53,1.14,6.65,6.65,0,0,0-.19,1.74,6.2,6.2,0,0,0,.19,1.69,2.76,2.76,0,0,0,.53,1.1,1.84,1.84,0,0,0,.81.6,2.73,2.73,0,0,0,1,.18,2.88,2.88,0,0,0,1-.18,2,2,0,0,0,.83-.6,2.91,2.91,0,0,0,.55-1.1A6.16,6.16,0,0,0,835.31,490.25Z" transform="translate(-94.82 -105.63)"/><path class="cls-5" d="M677.53,769.23a1.58,1.58,0,0,1,1.14.41,1.42,1.42,0,0,1,.42,1.07v2.66H661.24V771.9a2.59,2.59,0,0,1,.19-.95,2.34,2.34,0,0,1,.6-.89l7.9-7.92c.66-.67,1.25-1.31,1.77-1.93A11.9,11.9,0,0,0,673,758.4a8.63,8.63,0,0,0,.8-1.83,6.62,6.62,0,0,0,.28-2,4.6,4.6,0,0,0-.27-1.65,3.39,3.39,0,0,0-.77-1.2,3.31,3.31,0,0,0-1.18-.73,4.77,4.77,0,0,0-1.56-.24,4.62,4.62,0,0,0-1.47.23,3.86,3.86,0,0,0-1.19.63,4,4,0,0,0-.89.94,4.14,4.14,0,0,0-.54,1.19,1.93,1.93,0,0,1-.79,1.1,2.18,2.18,0,0,1-1.4.12l-2.34-.41a9.86,9.86,0,0,1,1-3.29,7.85,7.85,0,0,1,1.94-2.35,8,8,0,0,1,2.66-1.43,10.87,10.87,0,0,1,3.23-.47,9.68,9.68,0,0,1,3.3.53,7.36,7.36,0,0,1,2.55,1.5,6.88,6.88,0,0,1,1.66,2.34,7.67,7.67,0,0,1,.59,3,8.21,8.21,0,0,1-.42,2.67,11,11,0,0,1-1.14,2.34,15.57,15.57,0,0,1-1.66,2.16c-.64.69-1.3,1.4-2,2.12l-5.87,6a15.14,15.14,0,0,1,1.69-.38,10,10,0,0,1,1.59-.14Z" transform="translate(-94.82 -105.63)"/><path class="cls-5" d="M682.69,754.6a9.64,9.64,0,0,1,1-3.29,7.82,7.82,0,0,1,1.93-2.35,8.08,8.08,0,0,1,2.67-1.43,10.87,10.87,0,0,1,3.23-.47,9.76,9.76,0,0,1,3.25.51,7.48,7.48,0,0,1,2.47,1.42,6.3,6.3,0,0,1,1.58,2.13,6.51,6.51,0,0,1,.55,2.65,8,8,0,0,1-.28,2.19,5.29,5.29,0,0,1-.81,1.65,4.71,4.71,0,0,1-1.29,1.18,7.61,7.61,0,0,1-1.75.81,6.93,6.93,0,0,1,3.5,2.25,6.15,6.15,0,0,1,1.15,3.8,7.84,7.84,0,0,1-.72,3.44,7.33,7.33,0,0,1-2,2.51,8.43,8.43,0,0,1-2.83,1.54,11,11,0,0,1-3.41.52,11.62,11.62,0,0,1-3.42-.45,7.41,7.41,0,0,1-2.54-1.33,8.23,8.23,0,0,1-1.84-2.16,14.88,14.88,0,0,1-1.29-3l2-.81a2.28,2.28,0,0,1,1.45-.17,1.39,1.39,0,0,1,1,.73,14.08,14.08,0,0,0,.71,1.24,5.11,5.11,0,0,0,.93,1.09,4.58,4.58,0,0,0,1.27.77,4.5,4.5,0,0,0,1.73.3,5,5,0,0,0,2-.37,4.31,4.31,0,0,0,1.42-1,3.85,3.85,0,0,0,.84-1.32,4,4,0,0,0,.28-1.47,6.89,6.89,0,0,0-.2-1.7,2.5,2.5,0,0,0-.83-1.3,4.58,4.58,0,0,0-1.8-.85,13.33,13.33,0,0,0-3.16-.3v-3.17a10.63,10.63,0,0,0,2.71-.31,4.51,4.51,0,0,0,1.72-.8,2.7,2.7,0,0,0,.9-1.23,5,5,0,0,0,.25-1.59,3.65,3.65,0,0,0-1-2.79,3.87,3.87,0,0,0-2.74-1,4.5,4.5,0,0,0-1.45.23,4,4,0,0,0-1.2.63,4,4,0,0,0-.89.94,4.14,4.14,0,0,0-.54,1.19,2,2,0,0,1-.8,1.1,2.2,2.2,0,0,1-1.4.12Z" transform="translate(-94.82 -105.63)"/><path class="cls-5" d="M715,753.64a6.87,6.87,0,0,1-.5,2.67,6.21,6.21,0,0,1-1.32,2,5.64,5.64,0,0,1-1.93,1.29,5.94,5.94,0,0,1-2.28.45,6.29,6.29,0,0,1-2.4-.45,5.39,5.39,0,0,1-1.89-1.29,5.77,5.77,0,0,1-1.26-2,7.48,7.48,0,0,1-.45-2.67,7.86,7.86,0,0,1,.45-2.73,5.81,5.81,0,0,1,1.26-2.07,5.58,5.58,0,0,1,1.89-1.31,6.63,6.63,0,0,1,4.8,0,5.7,5.7,0,0,1,1.92,1.31,5.81,5.81,0,0,1,1.26,2.07A7.86,7.86,0,0,1,715,753.64Zm8.66-5.59a2.91,2.91,0,0,1,.55-.49,1.58,1.58,0,0,1,.89-.21h3.24L709,772.71a1.91,1.91,0,0,1-.55.47,1.53,1.53,0,0,1-.8.19h-3.31Zm-12.08,5.59a6.18,6.18,0,0,0-.21-1.74,3.06,3.06,0,0,0-.56-1.13,2.06,2.06,0,0,0-.82-.63,2.88,2.88,0,0,0-1-.18,2.79,2.79,0,0,0-1,.18,1.94,1.94,0,0,0-.8.63,3.21,3.21,0,0,0-.53,1.13,6.61,6.61,0,0,0-.2,1.74,6.16,6.16,0,0,0,.2,1.69,3.17,3.17,0,0,0,.53,1.09,1.92,1.92,0,0,0,.8.59,2.79,2.79,0,0,0,1,.18,2.88,2.88,0,0,0,1-.18,2.05,2.05,0,0,0,.82-.59,3,3,0,0,0,.56-1.09A5.76,5.76,0,0,0,711.62,753.64Zm18.12,13.61a6.9,6.9,0,0,1-.49,2.67,6.32,6.32,0,0,1-1.32,2,6,6,0,0,1-1.93,1.3,6,6,0,0,1-2.29.46,6.24,6.24,0,0,1-2.39-.46,5.69,5.69,0,0,1-1.9-1.3,6,6,0,0,1-1.25-2,7.51,7.51,0,0,1-.45-2.67,7.86,7.86,0,0,1,.45-2.73,5.94,5.94,0,0,1,1.25-2.07,5.58,5.58,0,0,1,1.9-1.31,6.24,6.24,0,0,1,2.39-.46,6.35,6.35,0,0,1,2.41.46,5.52,5.52,0,0,1,1.91,1.31,6.11,6.11,0,0,1,1.26,2.07A7.86,7.86,0,0,1,729.74,767.25Zm-3.43,0a6.55,6.55,0,0,0-.2-1.74,3.19,3.19,0,0,0-.55-1.14,2,2,0,0,0-.83-.62,2.89,2.89,0,0,0-1-.19,2.74,2.74,0,0,0-1,.19,1.88,1.88,0,0,0-.81.62,3,3,0,0,0-.53,1.14,6.6,6.6,0,0,0-.19,1.74,6.33,6.33,0,0,0,.19,1.7,2.78,2.78,0,0,0,.53,1.09,1.84,1.84,0,0,0,.81.6,2.73,2.73,0,0,0,1,.18,2.88,2.88,0,0,0,1-.18,2,2,0,0,0,.83-.6,2.93,2.93,0,0,0,.55-1.09A6.29,6.29,0,0,0,726.31,767.25Z" transform="translate(-94.82 -105.63)"/><path class="cls-5" d="M338.77,584.2v7.7h9.76v3.87h-9.76v10.6h-4.86v-26h16.42v3.85Z" transform="translate(-94.82 -105.63)"/><path class="cls-5" d="M360.14,587.62a10.15,10.15,0,0,1,3.73.66,8,8,0,0,1,4.73,4.88,12.33,12.33,0,0,1,0,7.9,8.44,8.44,0,0,1-1.85,3,8.16,8.16,0,0,1-2.88,1.91,11,11,0,0,1-7.49,0,8,8,0,0,1-2.89-1.91,8.6,8.6,0,0,1-1.86-3,12.33,12.33,0,0,1,0-7.9,8.51,8.51,0,0,1,1.86-3,8.24,8.24,0,0,1,2.89-1.89A10.23,10.23,0,0,1,360.14,587.62Zm0,15.6a3.9,3.9,0,0,0,3.41-1.55,7.72,7.72,0,0,0,1.11-4.53,7.87,7.87,0,0,0-1.11-4.56,3.91,3.91,0,0,0-3.41-1.56,4,4,0,0,0-3.47,1.57,7.78,7.78,0,0,0-1.12,4.55,7.69,7.69,0,0,0,1.12,4.53A4,4,0,0,0,360.14,603.22Z" transform="translate(-94.82 -105.63)"/><path class="cls-5" d="M380.82,587.62a10.11,10.11,0,0,1,3.73.66,8.2,8.2,0,0,1,2.88,1.89,8.35,8.35,0,0,1,1.85,3,12.33,12.33,0,0,1,0,7.9,8.44,8.44,0,0,1-1.85,3,8,8,0,0,1-2.88,1.91,10.11,10.11,0,0,1-3.73.66,10.23,10.23,0,0,1-3.76-.66,8.11,8.11,0,0,1-2.89-1.91,8.6,8.6,0,0,1-1.86-3,12.33,12.33,0,0,1,0-7.9,8.51,8.51,0,0,1,1.86-3,8.34,8.34,0,0,1,2.89-1.89A10.23,10.23,0,0,1,380.82,587.62Zm0,15.6a3.9,3.9,0,0,0,3.41-1.55,7.72,7.72,0,0,0,1.11-4.53,7.87,7.87,0,0,0-1.11-4.56,3.91,3.91,0,0,0-3.41-1.56,4,4,0,0,0-3.47,1.57,7.78,7.78,0,0,0-1.12,4.55,7.69,7.69,0,0,0,1.12,4.53A4,4,0,0,0,380.82,603.22Z" transform="translate(-94.82 -105.63)"/><path class="cls-5" d="M409.37,579.62v26.75h-2.72a1.05,1.05,0,0,1-1.12-.81l-.38-1.78a9.26,9.26,0,0,1-2.56,2.07,6.92,6.92,0,0,1-3.38.79,6.13,6.13,0,0,1-2.77-.63,6.28,6.28,0,0,1-2.17-1.82,8.9,8.9,0,0,1-1.4-3,14.86,14.86,0,0,1-.5-4,12.62,12.62,0,0,1,.56-3.81,9.28,9.28,0,0,1,1.6-3.06,7.45,7.45,0,0,1,2.51-2,7.28,7.28,0,0,1,3.27-.73,6.43,6.43,0,0,1,2.65.49,6.8,6.8,0,0,1,2,1.31v-9.74Zm-4.45,13a4.29,4.29,0,0,0-1.65-1.29,4.69,4.69,0,0,0-1.91-.38,4.12,4.12,0,0,0-1.82.38,3.69,3.69,0,0,0-1.39,1.14,5.52,5.52,0,0,0-.88,1.94,11.34,11.34,0,0,0-.31,2.78,12,12,0,0,0,.27,2.75,5.34,5.34,0,0,0,.74,1.83,2.84,2.84,0,0,0,1.19,1,3.8,3.8,0,0,0,1.57.32,4.55,4.55,0,0,0,2.35-.58,7,7,0,0,0,1.84-1.64Z" transform="translate(-94.82 -105.63)"/><path class="cls-5" d="M438.54,579.62v26.75h-2.71a1.05,1.05,0,0,1-1.12-.81l-.38-1.78a9.4,9.4,0,0,1-2.56,2.07,6.92,6.92,0,0,1-3.38.79,6.1,6.1,0,0,1-2.77-.63,6.28,6.28,0,0,1-2.17-1.82,8.71,8.71,0,0,1-1.4-3,14.86,14.86,0,0,1-.5-4,12.62,12.62,0,0,1,.56-3.81,9.28,9.28,0,0,1,1.6-3.06,7.52,7.52,0,0,1,2.5-2,7.35,7.35,0,0,1,3.28-.73,6.46,6.46,0,0,1,2.65.49,6.8,6.8,0,0,1,2,1.31v-9.74Zm-4.44,13a4.44,4.44,0,0,0-1.65-1.29,4.7,4.7,0,0,0-1.92-.38,4.1,4.1,0,0,0-1.81.38,3.62,3.62,0,0,0-1.39,1.14,5.52,5.52,0,0,0-.88,1.94,10.87,10.87,0,0,0-.31,2.78,12.64,12.64,0,0,0,.26,2.75,5.54,5.54,0,0,0,.75,1.83,2.79,2.79,0,0,0,1.19,1,3.78,3.78,0,0,0,1.56.32,4.59,4.59,0,0,0,2.36-.58,7,7,0,0,0,1.84-1.64Z" transform="translate(-94.82 -105.63)"/><path class="cls-5" d="M448.16,582.52a2.44,2.44,0,0,1-.24,1.08,2.75,2.75,0,0,1-.62.88,2.85,2.85,0,0,1-.91.61,2.78,2.78,0,0,1-1.11.22,2.75,2.75,0,0,1-2-.83,2.72,2.72,0,0,1-.61-.88,2.58,2.58,0,0,1-.22-1.08,2.78,2.78,0,0,1,.22-1.11,2.7,2.7,0,0,1,.61-.9,2.75,2.75,0,0,1,2-.83,2.78,2.78,0,0,1,1.11.22,2.85,2.85,0,0,1,.91.61,2.73,2.73,0,0,1,.62.9A2.64,2.64,0,0,1,448.16,582.52Zm-.62,5.39v18.46h-4.46V587.91Z" transform="translate(-94.82 -105.63)"/><path class="cls-5" d="M463.35,591.5a1.17,1.17,0,0,1-.38.41,1,1,0,0,1-.5.12,1.62,1.62,0,0,1-.7-.18l-.85-.41a8.38,8.38,0,0,0-1.11-.4,5.27,5.27,0,0,0-1.47-.18,3.34,3.34,0,0,0-2.06.56,1.71,1.71,0,0,0-.74,1.45,1.37,1.37,0,0,0,.38,1,3.4,3.4,0,0,0,1,.71,9,9,0,0,0,1.45.55c.54.16,1.09.34,1.64.53s1.11.41,1.65.66a5.92,5.92,0,0,1,1.45.94,4.22,4.22,0,0,1,1,1.36,4.38,4.38,0,0,1,.38,1.9,6.38,6.38,0,0,1-.47,2.46,5.22,5.22,0,0,1-1.42,1.94,6.44,6.44,0,0,1-2.31,1.28,10,10,0,0,1-3.18.46,10.46,10.46,0,0,1-1.86-.17,10,10,0,0,1-1.75-.48,9.08,9.08,0,0,1-1.54-.72,6.67,6.67,0,0,1-1.25-.9l1-1.69a1.5,1.5,0,0,1,.47-.47,1.29,1.29,0,0,1,.68-.16,1.51,1.51,0,0,1,.79.23c.24.16.53.33.85.51a7.63,7.63,0,0,0,1.14.5,5,5,0,0,0,1.67.24,4.51,4.51,0,0,0,1.36-.19,2.73,2.73,0,0,0,.93-.5,1.75,1.75,0,0,0,.54-.71,2,2,0,0,0,.18-.84,1.49,1.49,0,0,0-.39-1.06,3.61,3.61,0,0,0-1-.72,11,11,0,0,0-1.46-.55c-.54-.16-1.1-.34-1.67-.53a14.19,14.19,0,0,1-1.67-.67,5.75,5.75,0,0,1-1.46-1,4.43,4.43,0,0,1-1-1.46,5.07,5.07,0,0,1-.38-2.09,5.36,5.36,0,0,1,.45-2.16,5.11,5.11,0,0,1,1.32-1.79,6.45,6.45,0,0,1,2.18-1.22,8.94,8.94,0,0,1,3-.46,9.29,9.29,0,0,1,3.48.63,8,8,0,0,1,2.61,1.65Z" transform="translate(-94.82 -105.63)"/><path class="cls-5" d="M472.11,590.42a9.57,9.57,0,0,1,2.58-2.06,6.89,6.89,0,0,1,3.38-.8A6,6,0,0,1,483,590a8.7,8.7,0,0,1,1.41,3,14.88,14.88,0,0,1,.49,4,12.71,12.71,0,0,1-.55,3.83,9.47,9.47,0,0,1-1.6,3.06,7.3,7.3,0,0,1-2.5,2,7.22,7.22,0,0,1-3.28.73,6.75,6.75,0,0,1-2.65-.47,6.36,6.36,0,0,1-2-1.33v7.56H467.9V587.91h2.72a1.08,1.08,0,0,1,1.13.8Zm.24,11.16a4.27,4.27,0,0,0,1.64,1.3,5,5,0,0,0,1.94.38,4.29,4.29,0,0,0,1.82-.38,3.43,3.43,0,0,0,1.37-1.15,5.85,5.85,0,0,0,.88-2,11.43,11.43,0,0,0,.3-2.78,12,12,0,0,0-.26-2.75,5.34,5.34,0,0,0-.74-1.83,3,3,0,0,0-1.18-1,3.66,3.66,0,0,0-1.58-.33,4.52,4.52,0,0,0-2.36.59,7.29,7.29,0,0,0-1.83,1.64Z" transform="translate(-94.82 -105.63)"/><path class="cls-5" d="M496.52,587.62a10.2,10.2,0,0,1,3.74.66,8,8,0,0,1,4.72,4.88,12.33,12.33,0,0,1,0,7.9,8.56,8.56,0,0,1-1.84,3,8.16,8.16,0,0,1-2.88,1.91,11,11,0,0,1-7.5,0,8.11,8.11,0,0,1-2.89-1.91,8.44,8.44,0,0,1-1.85-3,12.15,12.15,0,0,1,0-7.9,8,8,0,0,1,4.74-4.88A10.27,10.27,0,0,1,496.52,587.62Zm0,15.6a3.89,3.89,0,0,0,3.41-1.55,7.72,7.72,0,0,0,1.11-4.53,7.87,7.87,0,0,0-1.11-4.56,3.89,3.89,0,0,0-3.41-1.56,4,4,0,0,0-3.46,1.57,7.78,7.78,0,0,0-1.13,4.55,7.69,7.69,0,0,0,1.13,4.53A4,4,0,0,0,496.52,603.22Z" transform="translate(-94.82 -105.63)"/><path class="cls-5" d="M520.3,591.5a1.17,1.17,0,0,1-.38.41,1,1,0,0,1-.5.12,1.62,1.62,0,0,1-.7-.18l-.85-.41a7.89,7.89,0,0,0-1.11-.4,5.27,5.27,0,0,0-1.47-.18,3.34,3.34,0,0,0-2.06.56,1.73,1.73,0,0,0-.74,1.45,1.41,1.41,0,0,0,.38,1,3.4,3.4,0,0,0,1,.71,9.35,9.35,0,0,0,1.45.55c.54.16,1.09.34,1.65.53s1.1.41,1.64.66a5.74,5.74,0,0,1,1.45.94,4.08,4.08,0,0,1,1.41,3.26A6.2,6.2,0,0,1,521,603a5.22,5.22,0,0,1-1.42,1.94,6.44,6.44,0,0,1-2.31,1.28,10,10,0,0,1-3.18.46,10.46,10.46,0,0,1-1.86-.17,9.92,9.92,0,0,1-1.74-.48,8.83,8.83,0,0,1-1.55-.72,6.67,6.67,0,0,1-1.25-.9l1-1.69a1.62,1.62,0,0,1,.47-.47,1.31,1.31,0,0,1,.69-.16,1.5,1.5,0,0,1,.78.23c.24.16.53.33.85.51a7.34,7.34,0,0,0,1.15.5,4.86,4.86,0,0,0,1.66.24,4.51,4.51,0,0,0,1.36-.19,2.89,2.89,0,0,0,.94-.5,2,2,0,0,0,.54-.71,2.21,2.21,0,0,0,.17-.84,1.49,1.49,0,0,0-.39-1.06,3.61,3.61,0,0,0-1-.72,11.34,11.34,0,0,0-1.45-.55c-.55-.16-1.11-.34-1.68-.53a14.19,14.19,0,0,1-1.67-.67,5.93,5.93,0,0,1-1.46-1,4.43,4.43,0,0,1-1-1.46,5.24,5.24,0,0,1-.38-2.09,5.36,5.36,0,0,1,.45-2.16A5.11,5.11,0,0,1,510,589.3a6.45,6.45,0,0,1,2.18-1.22,8.94,8.94,0,0,1,3-.46,9.29,9.29,0,0,1,3.48.63,8,8,0,0,1,2.61,1.65Z" transform="translate(-94.82 -105.63)"/><path class="cls-5" d="M528.27,597.7a8.48,8.48,0,0,0,.51,2.45,5,5,0,0,0,1,1.71,4.09,4.09,0,0,0,1.54,1,5.61,5.61,0,0,0,2,.34,6,6,0,0,0,1.86-.26,7.35,7.35,0,0,0,1.37-.56l1-.55a1.7,1.7,0,0,1,.85-.26.92.92,0,0,1,.83.42l1.28,1.62a7.33,7.33,0,0,1-1.66,1.45A9.11,9.11,0,0,1,537,606a10.47,10.47,0,0,1-2,.5,15.57,15.57,0,0,1-2,.14,9.81,9.81,0,0,1-3.58-.64,7.93,7.93,0,0,1-2.88-1.89,8.76,8.76,0,0,1-1.92-3.09,12,12,0,0,1-.71-4.28,10.15,10.15,0,0,1,.62-3.55,8.43,8.43,0,0,1,1.75-2.9,8.24,8.24,0,0,1,2.79-1.95,9.21,9.21,0,0,1,3.72-.72,9.07,9.07,0,0,1,3.22.55,7.25,7.25,0,0,1,2.54,1.63,7.52,7.52,0,0,1,1.66,2.63,9.66,9.66,0,0,1,.61,3.56,3,3,0,0,1-.22,1.36.9.9,0,0,1-.83.35Zm8.48-2.68a5.4,5.4,0,0,0-.24-1.63,4,4,0,0,0-.73-1.35,3.5,3.5,0,0,0-1.23-.9,4.69,4.69,0,0,0-4.77.76,5.41,5.41,0,0,0-1.42,3.12Z" transform="translate(-94.82 -105.63)"/><path class="cls-5" d="M560.11,579.62v26.75H557.4a1.05,1.05,0,0,1-1.12-.81l-.38-1.78a9.4,9.4,0,0,1-2.56,2.07,6.92,6.92,0,0,1-3.38.79,6.13,6.13,0,0,1-2.77-.63,6.28,6.28,0,0,1-2.17-1.82,8.9,8.9,0,0,1-1.4-3,14.86,14.86,0,0,1-.5-4,12.62,12.62,0,0,1,.56-3.81,9.28,9.28,0,0,1,1.6-3.06,7.52,7.52,0,0,1,2.5-2,7.35,7.35,0,0,1,3.28-.73,6.46,6.46,0,0,1,2.65.49,6.8,6.8,0,0,1,2,1.31v-9.74Zm-4.44,13a4.29,4.29,0,0,0-1.65-1.29,4.7,4.7,0,0,0-1.92-.38,4.1,4.1,0,0,0-1.81.38,3.62,3.62,0,0,0-1.39,1.14,5.52,5.52,0,0,0-.88,1.94,10.87,10.87,0,0,0-.31,2.78,12.64,12.64,0,0,0,.26,2.75,5.54,5.54,0,0,0,.75,1.83,2.79,2.79,0,0,0,1.19,1,3.8,3.8,0,0,0,1.57.32,4.55,4.55,0,0,0,2.35-.58,7,7,0,0,0,1.84-1.64Z" transform="translate(-94.82 -105.63)"/><path class="cls-5" d="M380.35,840.2v7.7h9.76v3.87h-9.76v10.6h-4.86v-26h16.42v3.85Z" transform="translate(-94.82 -105.63)"/><path class="cls-5" d="M401.72,843.62a10.15,10.15,0,0,1,3.73.66,8.39,8.39,0,0,1,2.88,1.89,8.49,8.49,0,0,1,1.85,3,12.51,12.51,0,0,1,0,7.9,8.58,8.58,0,0,1-1.85,3,8.16,8.16,0,0,1-2.88,1.91,10.15,10.15,0,0,1-3.73.66A10.32,10.32,0,0,1,398,862a8.07,8.07,0,0,1-2.88-1.91,8.6,8.6,0,0,1-1.86-3,12.15,12.15,0,0,1,0-7.9,8.51,8.51,0,0,1,1.86-3,8.29,8.29,0,0,1,2.88-1.89A10.32,10.32,0,0,1,401.72,843.62Zm0,15.6a3.9,3.9,0,0,0,3.41-1.55,7.73,7.73,0,0,0,1.1-4.53,7.88,7.88,0,0,0-1.1-4.56,3.91,3.91,0,0,0-3.41-1.56,4,4,0,0,0-3.47,1.57,7.78,7.78,0,0,0-1.12,4.55,7.69,7.69,0,0,0,1.12,4.53A4,4,0,0,0,401.72,859.22Z" transform="translate(-94.82 -105.63)"/><path class="cls-5" d="M422.4,843.62a10.11,10.11,0,0,1,3.73.66,8,8,0,0,1,4.73,4.88,12.33,12.33,0,0,1,0,7.9,8.44,8.44,0,0,1-1.85,3,8.07,8.07,0,0,1-2.88,1.91,10.11,10.11,0,0,1-3.73.66,10.23,10.23,0,0,1-3.76-.66,8.11,8.11,0,0,1-2.89-1.91,8.6,8.6,0,0,1-1.86-3,12.33,12.33,0,0,1,0-7.9,8.51,8.51,0,0,1,1.86-3,8.34,8.34,0,0,1,2.89-1.89A10.23,10.23,0,0,1,422.4,843.62Zm0,15.6a3.9,3.9,0,0,0,3.41-1.55,7.72,7.72,0,0,0,1.11-4.53,7.87,7.87,0,0,0-1.11-4.56A3.91,3.91,0,0,0,422.4,847a4,4,0,0,0-3.47,1.57,7.78,7.78,0,0,0-1.12,4.55,7.69,7.69,0,0,0,1.12,4.53A4,4,0,0,0,422.4,859.22Z" transform="translate(-94.82 -105.63)"/><path class="cls-5" d="M451,835.62v26.75h-2.72a1.05,1.05,0,0,1-1.12-.81l-.38-1.78a9.4,9.4,0,0,1-2.56,2.07,6.92,6.92,0,0,1-3.38.79A6.13,6.13,0,0,1,438,862a6.28,6.28,0,0,1-2.17-1.82,8.9,8.9,0,0,1-1.4-3,14.86,14.86,0,0,1-.5-4,12.62,12.62,0,0,1,.56-3.81,9.28,9.28,0,0,1,1.6-3.06,7.45,7.45,0,0,1,2.51-2,7.28,7.28,0,0,1,3.27-.73,6.43,6.43,0,0,1,2.65.49,6.8,6.8,0,0,1,2,1.31v-9.74Zm-4.45,13a4.29,4.29,0,0,0-1.65-1.29,4.69,4.69,0,0,0-1.91-.38,4.12,4.12,0,0,0-1.82.38,3.69,3.69,0,0,0-1.39,1.14,5.52,5.52,0,0,0-.88,1.94,11.34,11.34,0,0,0-.31,2.78,12.64,12.64,0,0,0,.26,2.75,5.54,5.54,0,0,0,.75,1.83,2.84,2.84,0,0,0,1.19,1,3.8,3.8,0,0,0,1.57.32,4.55,4.55,0,0,0,2.35-.58,7,7,0,0,0,1.84-1.64Z" transform="translate(-94.82 -105.63)"/><path class="cls-5" d="M468.59,835.62v26.75h-4.45V835.62Z" transform="translate(-94.82 -105.63)"/><path class="cls-5" d="M481.2,843.62a10.16,10.16,0,0,1,3.74.66,8,8,0,0,1,4.72,4.88,12.33,12.33,0,0,1,0,7.9,8.42,8.42,0,0,1-1.84,3,8.16,8.16,0,0,1-2.88,1.91,10.16,10.16,0,0,1-3.74.66,10.27,10.27,0,0,1-3.76-.66,8.11,8.11,0,0,1-2.89-1.91,8.58,8.58,0,0,1-1.85-3,12.15,12.15,0,0,1,0-7.9,8.49,8.49,0,0,1,1.85-3,8.34,8.34,0,0,1,2.89-1.89A10.27,10.27,0,0,1,481.2,843.62Zm0,15.6a3.88,3.88,0,0,0,3.41-1.55,7.72,7.72,0,0,0,1.11-4.53,7.87,7.87,0,0,0-1.11-4.56A3.88,3.88,0,0,0,481.2,847a4,4,0,0,0-3.46,1.57,7.78,7.78,0,0,0-1.13,4.55,7.69,7.69,0,0,0,1.13,4.53A4,4,0,0,0,481.2,859.22Z" transform="translate(-94.82 -105.63)"/><path class="cls-5" d="M505,847.5a1.17,1.17,0,0,1-.38.41,1,1,0,0,1-.5.12,1.54,1.54,0,0,1-.69-.18l-.86-.41a7.46,7.46,0,0,0-1.11-.4,5.25,5.25,0,0,0-1.46-.18,3.3,3.3,0,0,0-2.06.56,1.72,1.72,0,0,0-.75,1.45,1.38,1.38,0,0,0,.39,1,3.35,3.35,0,0,0,1,.71,9.35,9.35,0,0,0,1.45.55c.54.16,1.09.34,1.65.53s1.11.41,1.65.66a5.68,5.68,0,0,1,1.44.94,4.12,4.12,0,0,1,1.42,3.26,6.2,6.2,0,0,1-.48,2.46,5.3,5.3,0,0,1-1.41,1.94A6.58,6.58,0,0,1,502,862.2a9.85,9.85,0,0,1-3.17.46,10.49,10.49,0,0,1-1.87-.17,10.17,10.17,0,0,1-1.74-.48,8.83,8.83,0,0,1-1.55-.72,7,7,0,0,1-1.25-.9l1-1.69a1.48,1.48,0,0,1,.46-.47,1.31,1.31,0,0,1,.69-.16,1.5,1.5,0,0,1,.78.23c.25.16.53.33.86.51a6.82,6.82,0,0,0,1.14.5,4.9,4.9,0,0,0,1.66.24,4.51,4.51,0,0,0,1.36-.19,2.89,2.89,0,0,0,.94-.5,2,2,0,0,0,.54-.71,2.21,2.21,0,0,0,.17-.84,1.49,1.49,0,0,0-.39-1.06,3.69,3.69,0,0,0-1-.72,12.13,12.13,0,0,0-1.46-.55c-.55-.16-1.11-.34-1.68-.53a14.92,14.92,0,0,1-1.67-.67,5.93,5.93,0,0,1-1.46-1,4.4,4.4,0,0,1-1-1.46,5.06,5.06,0,0,1-.39-2.09,5.36,5.36,0,0,1,.45-2.16,5.11,5.11,0,0,1,1.32-1.79,6.45,6.45,0,0,1,2.18-1.22,9,9,0,0,1,3-.46,9.24,9.24,0,0,1,3.47.63A8,8,0,0,1,506,845.9Z" transform="translate(-94.82 -105.63)"/><path class="cls-5" d="M515.69,862.66a4.84,4.84,0,0,1-3.7-1.36,5.22,5.22,0,0,1-1.28-3.75V847.23h-1.9a.84.84,0,0,1-.61-.23.89.89,0,0,1-.25-.7v-1.76l3-.49.94-5a1,1,0,0,1,.34-.56,1,1,0,0,1,.65-.2h2.3v5.82h4.93v3.16h-4.93v10a2,2,0,0,0,.42,1.35,1.45,1.45,0,0,0,1.16.49,2,2,0,0,0,.7-.1,3.13,3.13,0,0,0,.48-.21l.37-.2a.6.6,0,0,1,.33-.1.47.47,0,0,1,.32.1,1.57,1.57,0,0,1,.27.29l1.33,2.16a6.83,6.83,0,0,1-2.23,1.23A8.48,8.48,0,0,1,515.69,862.66Z" transform="translate(-94.82 -105.63)"/><path class="cls-6" d="M736.54,408.48c21.54,21.83,26.49,55,12.51,81.19-14.49,27.18-46.36,41.39-77.11,34.28" transform="translate(-94.82 -105.63)"/><polygon class="cls-5" points="593.17 404.3 595.33 407.67 578.7 418.28 590.5 434.09 587.29 436.48 572.92 417.22 593.17 404.3"/><path class="cls-6" d="M626.54,681.48c21.54,21.83,26.49,55,12.51,81.19-14.49,27.18-46.36,41.39-77.11,34.28" transform="translate(-94.82 -105.63)"/><polygon class="cls-5" points="483.17 677.3 485.33 680.67 468.7 691.28 480.5 707.09 477.29 709.48 462.93 690.22 483.17 677.3"/></svg>