<svg width="900" height="120" viewBox="0 0 900 120" fill="none" xmlns="http://www.w3.org/2000/svg">
<path d="M400 0L450 60L400 120H0V0.000247073L400 0Z" fill="#E67F3B"/>
<path d="M850 0L900 60L850 120H450L500 60L450 0.000247073L850 0Z" fill="#F6AD3B"/>
<path d="M195.462 34.22C194.842 34.38 194.442 34.42 193.322 34.42H184.142C182.782 34.42 182.362 34.4 181.582 34.28V36.88C182.302 36.78 182.762 36.76 184.102 36.76H193.622C192.642 40.64 190.682 43.46 187.562 45.48C186.082 46.44 184.942 46.96 183.182 47.52C184.122 48.44 184.382 48.82 184.942 49.9C188.282 48.46 190.422 47 192.382 44.8C194.302 42.64 195.482 40.24 196.482 36.42C196.582 36 196.642 35.86 196.822 35.52L195.462 34.22ZM208.682 40.78H211.542C212.522 40.78 212.822 40.8 213.362 40.86V38.6C212.802 38.7 212.362 38.74 211.522 38.74H203.662C202.862 38.74 202.382 38.7 201.842 38.6V40.9C202.522 40.8 202.942 40.78 203.682 40.78H206.362V47.22H202.442C201.522 47.22 201.162 47.2 200.602 47.1V49.34C201.162 49.28 201.562 49.26 202.462 49.26H212.762C213.642 49.26 214.042 49.28 214.622 49.34V47.1C214.062 47.2 213.702 47.22 212.762 47.22H208.682V40.78ZM217.522 42.72C218.322 42.62 218.542 42.62 220.782 42.62H231.402C233.642 42.62 233.862 42.62 234.662 42.72V39.94C233.782 40.06 233.402 40.08 231.422 40.08H220.762C218.782 40.08 218.402 40.06 217.522 39.94V42.72ZM251.2 48.08C247.9 44.88 246.8 43.94 244.58 42.42C245.64 41.04 246.74 39.14 247.5 37.32C247.68 36.88 247.94 36.46 248.14 36.24L246.66 34.46C246.16 34.64 246 34.66 244.88 34.68L238.2 34.78C237.96 34.78 237.78 34.78 237.72 34.78C236.9 34.78 236.52 34.76 235.96 34.66L236.04 37.2C236.64 37.12 237.14 37.08 238.22 37.06L244.22 36.96L244.4 36.94C244.56 36.94 244.62 36.94 244.84 36.92C244.8 37.02 244.78 37.06 244.78 37.1L244.72 37.24L244.62 37.46C243.64 39.7 242.26 41.72 240.46 43.48C238.58 45.34 235.96 47.06 233.9 47.8C234.7 48.6 234.98 49 235.52 50.02C238.44 48.6 241.14 46.56 243.14 44.24C245.12 45.72 247.9 48.42 249.28 50.18L251.2 48.08ZM247.18 33.28C248.06 34.24 248.62 35.04 249.28 36.26L250.62 35.52C249.94 34.28 249.4 33.52 248.52 32.58L247.18 33.28ZM252.92 34.28C252.3 33.14 251.74 32.38 250.84 31.46L249.58 32.1C250.36 32.96 251.02 33.9 251.62 35L252.92 34.28ZM265.62 49.24C265.5 48.42 265.46 47.7 265.46 46.64V36.52C265.46 35.32 265.5 34.4 265.62 33.22C264.9 33.3 264.6 33.32 263.58 33.32H261.74C260.8 33.32 260.36 33.3 259.74 33.2V35.74C260.48 35.66 261.06 35.62 261.8 35.62H262.76V46.64C262.76 47.68 262.72 48.46 262.6 49.24H265.62ZM106.002 72.256C107.082 72.256 107.802 72.28 108.594 72.352V70.144C107.946 70.24 107.37 70.264 106.242 70.264H101.874C102.042 69.568 102.138 69.208 102.162 69.136L99.546 68.848C99.474 69.472 99.45 69.688 99.306 70.264H96.138C95.154 70.264 94.578 70.24 93.882 70.144V72.352C94.554 72.28 95.202 72.256 96.33 72.256H98.178C96.954 73.312 95.106 73.864 92.106 74.128C92.538 74.632 92.778 75.04 93.018 75.664C91.794 75.664 91.074 75.616 90.402 75.52V77.992C91.146 77.896 91.914 77.848 93.018 77.848H106.482V83.968C106.482 84.376 106.218 84.52 105.45 84.52C105.162 84.52 104.562 84.496 104.034 84.472C104.01 84.208 103.986 83.464 103.986 83.08V80.8C103.986 79.984 104.01 79.432 104.082 78.904C103.554 78.952 103.17 78.976 102.09 78.976H95.322C94.506 78.976 93.954 78.952 93.378 78.904C93.45 79.456 93.474 79.936 93.474 80.752V84.016C93.474 84.856 93.45 85.408 93.354 86.08H95.994V84.808H102.33C102.546 85.432 102.666 85.936 102.786 86.752C103.794 86.824 104.85 86.872 105.498 86.872C108.306 86.872 109.074 86.32 109.074 84.304V77.848H109.65C110.61 77.848 111.426 77.896 112.242 77.992V75.52C111.474 75.616 110.682 75.664 109.65 75.664H109.362C109.554 75.112 109.722 74.776 110.202 74.032C106.698 73.792 104.898 73.312 103.53 72.256H106.002ZM95.994 75.664C98.37 75.016 99.882 74.056 100.89 72.568C102.378 74.296 103.794 75.16 106.002 75.664H95.994ZM95.97 80.944H101.538V82.84H95.97V80.944ZM99.762 66.496H93.45C92.322 66.496 91.65 66.472 90.81 66.376C90.882 66.928 90.906 67.384 90.906 68.152V69.688C90.906 70.432 90.882 70.888 90.786 71.488H93.378V68.704H109.098V71.488H111.69C111.618 70.912 111.594 70.456 111.594 69.688V68.152C111.594 67.36 111.618 66.904 111.69 66.376C110.85 66.472 110.154 66.496 109.05 66.496H102.402V66.304C102.402 65.632 102.426 65.248 102.522 64.768H99.642C99.738 65.272 99.762 65.656 99.762 66.328V66.496ZM128.958 70.072H122.31C121.206 70.072 120.342 70.024 119.598 69.928V72.616C120.39 72.52 121.446 72.472 122.43 72.472H128.958V83.32C128.958 83.848 128.766 83.92 127.422 83.92C126.582 83.92 125.838 83.848 124.47 83.68C124.926 84.712 125.094 85.336 125.238 86.392C126.27 86.464 126.918 86.488 127.782 86.488C129.558 86.488 130.206 86.392 130.734 86.032C131.286 85.672 131.55 84.928 131.55 83.68V72.472H132.318C133.158 72.472 133.926 72.52 134.574 72.568V69.928C133.95 70.024 133.302 70.072 132.246 70.072H131.55V67.96C131.55 66.76 131.598 65.896 131.694 64.984H128.79C128.91 65.824 128.958 66.808 128.958 67.96V70.072ZM118.518 70.432C119.19 69.088 119.862 67.576 120.15 66.784C120.39 66.16 120.558 65.752 120.726 65.392L117.966 64.624C117.822 65.488 117.558 66.304 116.982 67.624C115.83 70.312 114.414 72.424 112.542 74.296C113.166 75.232 113.526 75.976 113.886 77.032C114.75 76.144 115.134 75.64 115.95 74.296C115.902 75.256 115.902 75.808 115.902 76.984V84.064C115.902 85.264 115.854 86.08 115.758 86.944H118.638C118.566 86.032 118.518 85.144 118.518 84.064V70.432ZM120.702 75.424C122.262 77.344 123.102 78.712 124.254 81.256L126.486 79.672C125.358 77.488 124.446 76.096 122.79 74.08L120.702 75.424ZM140.202 80.944C140.802 81.592 141.09 82 141.618 82.912C142.818 81.856 143.202 81.448 144.138 80.296V82.552C144.642 82.48 145.17 82.456 145.842 82.456H147.522V84.376C147.522 85.264 147.474 86.104 147.354 86.992H150.21C150.09 86.128 150.042 85.312 150.042 84.376V82.456H151.842C152.586 82.456 153.09 82.48 153.594 82.552V80.272C154.434 81.304 155.01 81.88 156.282 83.056C156.906 81.904 157.29 81.328 157.938 80.584C156.138 79.216 154.842 77.944 153.858 76.576C152.49 74.728 151.842 73.6 151.05 71.752H154.578C155.49 71.752 156.45 71.8 157.266 71.896V69.184C156.498 69.28 155.562 69.328 154.506 69.328H150.066V67.168C150.066 66.328 150.114 65.632 150.21 64.888H147.354C147.474 65.608 147.522 66.352 147.522 67.144V69.328H144.018C143.082 69.328 142.146 69.28 141.402 69.208V71.896C142.194 71.8 143.13 71.752 143.946 71.752H146.514C145.17 75.232 142.818 78.448 140.202 80.44V71.032C141.018 69.304 141.594 67.888 142.458 65.416L139.794 64.696C139.074 68.344 137.394 71.632 134.754 74.512C135.21 75.424 135.498 76.24 135.81 77.416C136.578 76.576 137.034 75.952 137.682 74.848C137.634 75.904 137.634 76.288 137.634 77.56V84.184C137.634 85.408 137.586 86.08 137.49 86.992H140.322C140.226 86.248 140.202 85.456 140.202 84.208V80.944ZM150.042 80.104V77.104C150.042 76.144 150.042 75.568 149.994 74.224C151.026 76.576 152.034 78.256 153.402 80.032C152.85 80.08 152.49 80.104 151.794 80.104H150.042ZM147.522 80.104H145.938C145.242 80.104 144.834 80.08 144.354 80.032C145.77 78.208 146.49 76.912 147.57 74.296C147.522 75.424 147.522 75.928 147.522 77.176V80.104ZM175.926 72.208C176.598 72.208 177.03 72.232 177.606 72.304V71.104C178.158 71.464 178.47 71.632 179.358 72.088C179.598 71.152 179.91 70.456 180.438 69.616C178.566 68.752 177.702 68.224 176.502 67.192C175.59 66.424 175.086 65.848 174.534 64.984H171.99C171.414 66.016 170.742 66.808 169.71 67.744C168.702 68.656 167.982 69.16 166.878 69.808V69.16C166.35 69.232 165.918 69.256 165.27 69.256H164.79V67.696H165.582C166.422 67.696 166.83 67.72 167.406 67.816V65.488C166.734 65.584 166.278 65.608 165.15 65.608H160.95C159.846 65.608 159.222 65.584 158.526 65.488C158.598 66.184 158.622 66.76 158.622 67.96V76.264C158.622 77.08 158.598 77.728 158.526 78.304C159.054 78.256 159.726 78.232 160.47 78.232H165.342C165.342 79.624 165.294 80.272 165.198 81.544C165.006 80.416 164.886 79.96 164.454 78.664L163.542 78.952C163.806 79.792 164.118 81.256 164.19 82.216L165.174 81.808C164.934 84.352 164.766 84.64 163.758 84.64C163.254 84.64 162.822 84.568 162.126 84.424C162.39 85.192 162.51 85.84 162.51 86.8C163.062 86.848 163.326 86.872 163.854 86.872C165.726 86.872 166.254 86.56 166.71 85.144C167.286 85.72 167.718 86.344 168.126 87.184C170.718 85.96 172.422 84.28 173.502 81.88C174.702 84.184 176.574 85.936 179.166 87.184C179.502 86.176 179.838 85.48 180.414 84.664C178.734 83.944 177.966 83.488 177.102 82.768C176.238 82.048 175.614 81.28 175.038 80.2H177.198C177.87 80.2 178.35 80.224 179.046 80.272C178.998 79.792 178.974 79.456 178.974 78.544V75.304C178.974 74.728 178.998 74.128 179.07 73.6C178.542 73.648 178.11 73.672 177.126 73.672H174.606C174.606 73.216 174.606 73.096 174.582 72.208H175.926ZM172.302 72.208V73.672H169.95C168.99 73.672 168.534 73.648 168.054 73.6C168.102 74.224 168.126 74.512 168.126 75.304V78.544C168.126 79.312 168.102 79.744 168.03 80.296C168.654 80.224 169.158 80.2 169.926 80.2H171.63C170.814 82.264 169.182 83.824 166.806 84.856C167.166 83.2 167.406 80.584 167.454 78.016C167.478 76.984 167.502 76.456 167.55 76.024C167.07 76.096 166.638 76.12 165.63 76.12H164.79V74.512H165.246C165.846 74.512 166.326 74.536 166.854 74.608V72.568C166.326 72.64 166.014 72.664 165.246 72.664H164.79V71.104H165.27C165.918 71.104 166.35 71.128 166.878 71.2V70.264C167.43 71.032 167.646 71.464 167.886 72.16C168.654 71.68 168.918 71.488 169.398 71.152V72.304C169.878 72.232 170.382 72.208 171.03 72.208H172.302ZM172.278 75.64C172.254 76.72 172.206 77.344 172.11 78.184H170.358V75.64H172.278ZM176.718 75.64V78.184H174.414C174.486 77.464 174.51 77.056 174.558 75.64H176.718ZM162.702 74.512V76.12H160.926V74.512H162.702ZM162.702 72.664H160.926V71.104H162.702V72.664ZM162.702 69.256H160.926V67.696H162.702V69.256ZM171.054 70.096H170.694C171.87 69.016 172.35 68.464 173.262 67.192C174.318 68.512 174.918 69.112 176.166 70.096H171.054ZM158.454 78.88C158.358 81.256 158.022 83.224 157.374 85.048L159.102 85.888C159.654 83.8 159.87 82.36 160.062 79.24L158.454 78.88ZM160.35 79.24C160.422 80.2 160.446 80.488 160.446 81.64C160.446 83.272 160.422 83.728 160.35 84.952L161.934 84.712C161.934 84.184 161.934 83.8 161.934 83.536C161.934 82.072 161.862 80.824 161.694 79.024L160.35 79.24ZM162.054 79.168C162.366 80.728 162.438 81.448 162.534 83.968L163.83 83.584C163.71 81.76 163.518 80.32 163.158 78.88L162.054 79.168ZM193.122 69.616C194.178 69.712 194.802 69.904 195.546 70.336C197.466 71.488 198.498 73.36 198.498 75.664C198.498 78.232 197.25 80.512 195.162 81.664C194.034 82.312 192.594 82.696 190.386 82.984C191.154 83.992 191.442 84.52 191.85 85.792C193.53 85.504 194.466 85.264 195.618 84.784C199.29 83.296 201.45 79.984 201.45 75.832C201.45 70.432 197.706 66.928 191.946 66.928C188.538 66.928 185.706 68.08 183.69 70.288C181.986 72.16 181.05 74.632 181.05 77.272C181.05 81.136 183.018 83.92 185.754 83.92C187.722 83.92 189.258 82.504 190.626 79.408C191.826 76.696 192.666 73.384 193.122 69.616ZM190.194 69.64C189.906 72.352 189.114 75.592 188.202 77.752C187.338 79.816 186.522 80.824 185.73 80.824C184.674 80.824 183.834 79.264 183.834 77.296C183.834 74.728 185.082 72.256 187.098 70.816C188.082 70.12 188.946 69.784 190.194 69.64ZM216.15 83.872H211.854C210.606 83.872 210.078 83.848 209.43 83.752V86.32C210.246 86.224 210.87 86.2 212.142 86.2H222.246C223.542 86.2 224.19 86.224 224.958 86.32V83.752C224.31 83.848 223.686 83.872 222.414 83.872H218.55V81.4H221.646C222.87 81.4 223.47 81.424 224.166 81.52V79.048C223.47 79.144 222.942 79.168 221.622 79.168H218.55V77.2H221.31C222.75 77.2 223.134 77.2 223.926 77.272C223.854 76.576 223.83 75.736 223.83 74.056V68.944C223.83 67.48 223.854 66.352 223.926 65.656C223.326 65.752 222.606 65.776 220.83 65.776H214.206C212.646 65.776 211.878 65.752 210.966 65.656C211.062 66.448 211.086 67.24 211.086 68.872V74.296C211.038 76.72 211.038 76.72 210.99 77.272C211.71 77.224 212.262 77.2 213.87 77.2H216.15V79.168H213.462C212.07 79.168 211.59 79.144 210.99 79.048V81.496C211.614 81.424 212.118 81.4 213.486 81.4H216.15V83.872ZM216.15 68.104V70.504H213.486V68.104H216.15ZM218.55 68.104H221.334V70.504H218.55V68.104ZM216.15 72.52V74.944H213.486V72.52H216.15ZM218.55 72.52H221.334V74.944H218.55V72.52ZM205.47 68.344V73.024H204.726C203.982 73.024 203.622 73 203.046 72.904V75.376C203.598 75.28 203.982 75.256 204.678 75.256H205.47V80.968C203.838 81.544 203.334 81.712 202.518 81.88L203.166 84.592C203.406 84.496 203.526 84.448 203.646 84.4C207.366 82.888 208.302 82.48 210.39 81.448L210.318 78.904C209.262 79.432 208.974 79.552 207.966 79.984V75.256H208.518C209.07 75.256 209.55 75.28 210.03 75.352V72.904C209.502 73 209.142 73.024 208.518 73.024H207.966V68.344H208.686C209.358 68.344 209.862 68.368 210.462 68.44V65.872C209.862 65.992 209.286 66.016 208.326 66.016H204.942C203.958 66.016 203.334 65.968 202.758 65.872V68.464C203.358 68.368 203.79 68.344 204.558 68.344H205.47ZM233.922 66.208C233.61 66.28 233.37 66.304 232.674 66.304H230.514C230.898 65.272 230.898 65.272 231.018 65.008L228.474 64.528C228.33 65.368 228.09 66.088 227.586 67.12C226.818 68.776 226.002 69.88 224.874 70.84C225.762 71.584 226.098 71.944 226.458 72.472C226.458 72.76 226.458 73.216 226.458 73.792C226.458 80.752 226.194 82.888 225.018 84.976C225.81 85.528 226.074 85.792 227.01 86.848C227.898 84.952 228.162 83.896 228.45 80.968H233.37V83.896C233.37 84.28 233.154 84.4 232.362 84.4C231.978 84.4 231.354 84.352 230.346 84.232C230.682 85.096 230.802 85.696 230.898 86.632C231.714 86.656 232.122 86.656 232.386 86.656C234.834 86.656 235.506 86.2 235.506 84.496V72.424C235.506 72.232 235.506 72.232 235.506 71.8C236.274 72.568 236.682 73.12 237.018 73.792L237.282 73.624C237.306 73.648 237.306 73.696 237.306 73.696C237.306 73.936 237.162 74.728 237.042 75.28C236.754 76.504 236.49 77.2 235.77 78.448C236.418 78.664 236.874 78.904 237.906 79.552C238.314 78.688 238.458 78.352 238.674 77.704H240.618V79.864H238.242C237.258 79.864 236.754 79.84 236.058 79.744V82.312C236.754 82.216 237.258 82.192 238.218 82.192H240.618V84.592C240.618 85.624 240.57 86.2 240.474 86.944H243.258C243.138 86.224 243.114 85.648 243.114 84.592V82.192H245.01C246.114 82.192 246.642 82.216 247.266 82.288V79.744C246.57 79.84 245.994 79.864 244.962 79.864H243.114V77.704H244.602C245.538 77.704 246.186 77.728 246.738 77.8V75.28C246.258 75.376 245.682 75.424 244.602 75.424H243.114V75.232C243.114 74.608 243.138 74.08 243.186 73.48H240.474C240.57 74.032 240.618 74.536 240.618 75.232V75.424H239.322C239.394 75.064 239.394 75.064 239.61 74.08L237.378 73.6C238.506 72.952 239.322 72.256 240.018 71.296C240.762 70.288 241.026 69.592 241.386 67.912H243.93C243.834 69.016 243.714 69.832 243.57 70.312C243.45 70.672 243.21 70.792 242.586 70.792C242.178 70.792 241.578 70.72 240.738 70.552C241.098 71.416 241.194 71.8 241.29 72.928C242.658 72.976 242.658 72.976 243.042 72.976C244.53 72.976 245.082 72.784 245.49 72.184C245.898 71.584 246.21 70.12 246.378 68.152C246.474 66.784 246.522 66.088 246.594 65.56C245.994 65.632 245.37 65.656 244.458 65.656H238.554C237.402 65.656 236.754 65.632 236.034 65.512V68.032C236.562 67.96 237.186 67.912 238.17 67.912H238.842C238.626 68.968 238.362 69.52 237.81 70.096C237.21 70.744 236.658 71.128 235.506 71.68C235.53 71.008 235.53 70.864 235.578 70.456C234.93 70.528 234.402 70.552 233.298 70.552C233.658 69.976 234.066 69.232 234.306 68.8C234.738 67.936 234.81 67.792 235.026 67.456L233.922 66.208ZM228.906 70.552C228.546 70.552 228.546 70.552 228.354 70.552C228.834 69.832 229.218 69.208 229.602 68.44H231.954C231.618 69.208 231.306 69.784 230.85 70.552H228.906ZM228.594 78.88C228.594 78.496 228.594 78.352 228.618 77.656C228.618 77.464 228.618 77.128 228.618 76.72H230.034V78.88H228.594ZM233.37 78.88H231.978V76.72H233.37V78.88ZM233.37 74.728H231.978V72.688H233.37V74.728ZM230.034 72.688V74.728H228.666V72.688H230.034ZM258.75 73.024C257.166 73.024 255.894 74.296 255.894 75.88C255.894 77.464 257.166 78.736 258.75 78.736C260.334 78.736 261.606 77.464 261.606 75.88C261.606 74.296 260.334 73.024 258.75 73.024ZM280.218 83.008C278.514 82.264 277.53 81.376 276.57 79.672C276.93 78.544 277.074 77.992 277.194 77.512C277.41 76.528 277.41 76.504 277.53 76.096L274.866 75.592C274.842 76.12 274.65 77.2 274.386 78.184C273.618 80.896 272.226 83.2 270.258 84.976C271.362 85.744 271.698 86.056 272.322 86.944C273.93 85.216 274.842 83.896 275.61 82.24C277.578 85.144 280.722 86.368 286.338 86.368C288.234 86.368 289.482 86.344 291.45 86.296C291.57 85.192 291.738 84.544 292.122 83.56C289.674 83.776 288.042 83.848 286.65 83.848C285.234 83.848 283.914 83.776 282.738 83.608V79.48H287.274C288.33 79.48 288.906 79.504 289.626 79.6V77.032C288.978 77.152 288.378 77.176 287.274 77.176H282.738V74.104H285.882C286.986 74.104 287.682 74.128 288.354 74.224V71.68C287.706 71.776 287.01 71.8 285.882 71.8H276.69C275.586 71.8 274.89 71.776 274.266 71.68V74.224C274.962 74.128 275.634 74.104 276.69 74.104H280.218V83.008ZM279.81 67.288H273.546C272.586 67.288 271.77 67.264 270.906 67.192C270.954 67.744 271.002 68.344 271.002 68.968V70.816C271.002 71.656 270.978 72.136 270.882 72.712H273.546V69.712H289.05V72.712H291.642C291.57 72.088 291.546 71.536 291.546 70.84V68.968C291.546 68.272 291.57 67.744 291.642 67.192C290.754 67.264 289.938 67.288 288.978 67.288H282.498V66.376C282.498 65.752 282.522 65.368 282.618 64.864H279.666C279.762 65.392 279.81 65.8 279.81 66.4V67.288ZM310.542 79.552C310.206 80.128 309.486 80.824 308.406 81.592C307.95 80.872 307.71 80.368 307.398 79.504L312.078 79.456H313.566C314.094 79.456 314.19 79.456 314.622 79.528L314.646 77.368C313.998 77.488 313.47 77.512 312.078 77.536H311.166L312.294 76.432C311.286 75.592 310.542 75.088 309.222 74.368L307.686 75.664C308.526 76.144 309.51 76.84 310.35 77.56L306.942 77.584C306.822 76.696 306.75 75.928 306.75 75.304C306.75 75.112 306.75 75.064 306.774 74.896H304.206C304.278 75.184 304.302 75.4 304.35 76.096C304.398 76.624 304.422 76.792 304.542 77.608L300.294 77.656V76.6C301.35 76.456 301.374 76.456 303.678 76.024L301.95 74.416C301.398 74.584 300.942 74.704 300.534 74.8C298.926 75.136 296.19 75.376 293.574 75.376C294.006 75.808 294.198 76.168 294.51 77.08C296.886 76.936 296.886 76.936 297.846 76.864V77.68L295.11 77.704C294.966 77.704 294.846 77.704 294.702 77.704C293.934 77.704 293.454 77.68 292.782 77.584V79.768C293.478 79.672 294.03 79.624 295.11 79.624L297.846 79.6V80.968C295.59 81.136 294.678 81.184 293.838 81.184C293.694 81.184 293.478 81.184 293.07 81.16L293.502 83.488C293.694 83.44 293.814 83.416 293.958 83.392C294.342 83.368 294.342 83.368 294.678 83.32C294.918 83.296 295.59 83.224 296.55 83.152C297.03 83.104 297.27 83.08 297.846 83.008V84.448C297.846 84.88 297.75 84.928 297.054 84.928C296.43 84.928 295.566 84.856 294.534 84.712C294.894 85.528 295.062 86.104 295.158 86.872C296.43 86.944 296.646 86.944 297.246 86.944C299.694 86.944 300.294 86.536 300.294 84.832V82.72C301.638 82.552 302.502 82.408 303.894 82.144V80.176C302.19 80.464 302.046 80.488 300.294 80.728V79.576L304.926 79.528C305.31 80.896 305.694 81.736 306.39 82.864C304.854 83.68 303.15 84.28 301.374 84.64C301.974 85.312 302.358 85.912 302.718 86.728C304.614 86.104 305.958 85.504 307.71 84.496C309.342 86.104 310.782 86.872 312.198 86.872C313.638 86.872 314.334 85.96 315.126 83.056C314.454 82.72 313.854 82.24 313.278 81.592C312.822 83.824 312.51 84.472 311.934 84.472C311.478 84.472 310.542 83.92 309.726 83.152C310.518 82.552 311.022 82.096 311.718 81.424C312.15 80.968 312.15 80.968 312.366 80.824L310.542 79.552ZM296.526 66.808C295.278 66.808 294.726 66.784 294.03 66.664V68.848C294.846 68.752 295.398 68.728 296.526 68.728H302.214V69.64H297.726C296.454 69.64 295.95 69.616 295.35 69.544V71.536C296.022 71.464 296.478 71.44 297.726 71.44H302.214V72.376H295.326C294.15 72.376 293.502 72.352 292.806 72.232V74.464C293.454 74.368 294.078 74.344 295.326 74.344H312.15C313.398 74.344 313.974 74.368 314.67 74.488V72.232C314.022 72.328 313.35 72.376 312.15 72.376H304.71V71.44H309.654C310.902 71.44 311.334 71.464 312.03 71.536V69.544C311.454 69.616 310.926 69.64 309.654 69.64H304.71V68.728H310.926C312.078 68.728 312.654 68.752 313.398 68.848V66.664C312.774 66.784 312.246 66.808 310.926 66.808H308.07C308.502 66.376 308.934 65.824 309.39 65.176L306.75 64.6C306.294 65.512 305.862 66.184 305.334 66.808H301.926C301.398 66.016 301.398 66.016 300.222 64.624L297.87 65.248C298.518 65.944 298.806 66.28 299.19 66.808H296.526ZM331.458 70.072H324.81C323.706 70.072 322.842 70.024 322.098 69.928V72.616C322.89 72.52 323.946 72.472 324.93 72.472H331.458V83.32C331.458 83.848 331.266 83.92 329.922 83.92C329.082 83.92 328.338 83.848 326.97 83.68C327.426 84.712 327.594 85.336 327.738 86.392C328.77 86.464 329.418 86.488 330.282 86.488C332.058 86.488 332.706 86.392 333.234 86.032C333.786 85.672 334.05 84.928 334.05 83.68V72.472H334.818C335.658 72.472 336.426 72.52 337.074 72.568V69.928C336.45 70.024 335.802 70.072 334.746 70.072H334.05V67.96C334.05 66.76 334.098 65.896 334.194 64.984H331.29C331.41 65.824 331.458 66.808 331.458 67.96V70.072ZM321.018 70.432C321.69 69.088 322.362 67.576 322.65 66.784C322.89 66.16 323.058 65.752 323.226 65.392L320.466 64.624C320.322 65.488 320.058 66.304 319.482 67.624C318.33 70.312 316.914 72.424 315.042 74.296C315.666 75.232 316.026 75.976 316.386 77.032C317.25 76.144 317.634 75.64 318.45 74.296C318.402 75.256 318.402 75.808 318.402 76.984V84.064C318.402 85.264 318.354 86.08 318.258 86.944H321.138C321.066 86.032 321.018 85.144 321.018 84.064V70.432ZM323.202 75.424C324.762 77.344 325.602 78.712 326.754 81.256L328.986 79.672C327.858 77.488 326.946 76.096 325.29 74.08L323.202 75.424ZM345.582 73.432C345.726 73.432 345.846 73.432 345.942 73.432C346.23 73.432 346.326 73.432 347.022 73.48C347.646 73.504 348.534 73.528 349.206 73.528C350.406 73.528 351.654 73.504 352.47 73.432C352.494 74.224 352.494 74.44 352.494 74.944C352.494 78.496 352.062 80.176 350.814 81.688C349.902 82.768 348.774 83.56 347.142 84.304C348.246 85.12 348.63 85.48 349.47 86.56C350.694 85.84 351.342 85.384 352.086 84.736C353.43 83.536 354.294 82.072 354.822 80.08C355.158 78.88 355.326 76.888 355.326 74.344C355.326 73.912 355.326 73.696 355.302 73.192C356.334 73.072 356.55 73.024 357.63 72.784C358.422 72.616 358.566 72.592 358.974 72.544L358.806 69.688C357.99 70.072 356.934 70.336 355.23 70.6C355.182 69.064 355.134 68.152 355.134 67.888C355.086 66.808 355.086 66.592 355.086 66.352C355.086 66.064 355.086 65.92 355.134 65.536L352.086 65.584C352.23 66.448 352.254 66.664 352.398 70.888C351.15 70.96 350.766 70.984 349.854 70.984C347.91 70.984 346.638 70.888 345.582 70.672V73.432ZM344.046 76.528C343.47 77.608 342.87 79.168 342.462 80.488C342.462 80.104 342.438 79.96 342.414 79.576C342.414 79.48 342.414 79.336 342.414 79.144C342.39 77.968 342.39 77.56 342.39 77.296C342.366 76.912 342.366 76.624 342.366 76.552C342.366 76.096 342.414 75.4 342.534 73.816C342.678 71.8 342.774 71.128 343.158 69.088C343.422 67.672 343.566 67.12 343.854 66.16L340.686 65.848C340.686 66.352 340.662 66.616 340.518 67.624C339.774 72.592 339.63 74.008 339.63 76.72C339.63 79.432 339.894 81.808 340.494 84.52C340.614 84.976 340.638 85.096 340.662 85.432L343.446 85.288C343.494 83.56 344.598 80.488 346.182 77.584L344.046 76.528Z" fill="white"/>
<path d="M645.462 34.22C644.842 34.38 644.442 34.42 643.322 34.42H634.142C632.782 34.42 632.362 34.4 631.582 34.28V36.88C632.302 36.78 632.762 36.76 634.102 36.76H643.622C642.642 40.64 640.682 43.46 637.562 45.48C636.082 46.44 634.942 46.96 633.182 47.52C634.122 48.44 634.382 48.82 634.942 49.9C638.282 48.46 640.422 47 642.382 44.8C644.302 42.64 645.482 40.24 646.482 36.42C646.582 36 646.642 35.86 646.822 35.52L645.462 34.22ZM658.682 40.78H661.542C662.522 40.78 662.822 40.8 663.362 40.86V38.6C662.802 38.7 662.362 38.74 661.522 38.74H653.662C652.862 38.74 652.382 38.7 651.842 38.6V40.9C652.522 40.8 652.942 40.78 653.682 40.78H656.362V47.22H652.442C651.522 47.22 651.162 47.2 650.602 47.1V49.34C651.162 49.28 651.562 49.26 652.462 49.26H662.762C663.642 49.26 664.042 49.28 664.622 49.34V47.1C664.062 47.2 663.702 47.22 662.762 47.22H658.682V40.78ZM667.522 42.72C668.322 42.62 668.542 42.62 670.782 42.62H681.402C683.642 42.62 683.862 42.62 684.662 42.72V39.94C683.782 40.06 683.402 40.08 681.422 40.08H670.762C668.782 40.08 668.402 40.06 667.522 39.94V42.72ZM701.2 48.08C697.9 44.88 696.8 43.94 694.58 42.42C695.64 41.04 696.74 39.14 697.5 37.32C697.68 36.88 697.94 36.46 698.14 36.24L696.66 34.46C696.16 34.64 696 34.66 694.88 34.68L688.2 34.78C687.96 34.78 687.78 34.78 687.72 34.78C686.9 34.78 686.52 34.76 685.96 34.66L686.04 37.2C686.64 37.12 687.14 37.08 688.22 37.06L694.22 36.96L694.4 36.94C694.56 36.94 694.62 36.94 694.84 36.92C694.8 37.02 694.78 37.06 694.78 37.1L694.72 37.24L694.62 37.46C693.64 39.7 692.26 41.72 690.46 43.48C688.58 45.34 685.96 47.06 683.9 47.8C684.7 48.6 684.98 49 685.52 50.02C688.44 48.6 691.14 46.56 693.14 44.24C695.12 45.72 697.9 48.42 699.28 50.18L701.2 48.08ZM697.18 33.28C698.06 34.24 698.62 35.04 699.28 36.26L700.62 35.52C699.94 34.28 699.4 33.52 698.52 32.58L697.18 33.28ZM702.92 34.28C702.3 33.14 701.74 32.38 700.84 31.46L699.58 32.1C700.36 32.96 701.02 33.9 701.62 35L702.92 34.28ZM716.74 49.24C718.02 49.24 718.82 49.28 719.76 49.36V46.72C719.1 46.82 718.1 46.88 716.84 46.88H711.24C711.54 46.12 711.78 45.72 712.38 45.08C712.88 44.54 713.88 43.7 714.76 43.08C717.36 41.3 717.56 41.14 718.12 40.62C719.1 39.7 719.54 38.74 719.54 37.42C719.54 34.68 717.38 33 713.88 33C711.88 33 710.3 33.62 709.3 34.78C708.56 35.64 708.2 36.46 707.92 37.98L710.78 38.32C710.92 37.4 711.06 36.96 711.4 36.48C711.9 35.7 712.78 35.3 713.94 35.3C715.64 35.3 716.7 36.14 716.7 37.5C716.7 38.52 716.14 39.18 714.3 40.44C712.3 41.78 711.7 42.24 711 42.86C709.7 44.04 708.8 45.32 708.26 46.78C708 47.5 707.86 48.2 707.74 49.34C708.44 49.26 708.76 49.24 710.32 49.24H716.74ZM537.366 68.968C536.79 69.16 536.79 69.16 535.014 69.16H530.694V67.096C530.694 66.424 530.742 65.776 530.814 65.368H527.478C527.574 65.92 527.598 66.352 527.598 67.12V69.184H522.894C521.574 69.184 521.142 69.16 520.302 69.064C520.374 69.712 520.398 70.336 520.398 71.344V74.824C520.398 75.496 520.35 76.24 520.278 76.84H523.494C523.446 76.312 523.422 75.664 523.422 74.92V71.824H535.134C534.678 76.24 532.854 79.288 529.374 81.448C527.862 82.384 526.542 82.888 524.262 83.44C525.342 84.64 525.63 85.072 526.182 86.296C528.27 85.576 529.518 85.024 530.958 84.136C533.79 82.408 535.71 80.272 536.886 77.512C537.63 75.808 537.99 74.464 538.398 71.704C538.518 70.984 538.542 70.84 538.758 70.384L537.366 68.968ZM553.026 75.136H556.458C557.634 75.136 557.994 75.16 558.642 75.232V72.52C557.97 72.64 557.442 72.688 556.434 72.688H547.002C546.042 72.688 545.466 72.64 544.818 72.52V75.28C545.634 75.16 546.138 75.136 547.026 75.136H550.242V82.864H545.538C544.434 82.864 544.002 82.84 543.33 82.72V85.408C544.002 85.336 544.482 85.312 545.562 85.312H557.922C558.978 85.312 559.458 85.336 560.154 85.408V82.72C559.482 82.84 559.05 82.864 557.922 82.864H553.026V75.136ZM582.102 69.184L583.062 68.8C582.414 67.216 581.862 66.232 580.926 65.008L579.174 65.656C579.798 66.496 580.254 67.216 580.662 68.08C580.206 68.128 579.798 68.152 578.934 68.152H567.918C566.286 68.152 565.71 68.128 564.846 67.984V71.104C565.638 70.984 566.094 70.96 567.87 70.96H579.294C577.758 77.344 573.414 81.808 566.766 83.872C567.846 84.928 568.254 85.48 568.878 86.728C576.342 83.632 580.662 78.712 582.534 71.152C582.678 70.648 582.75 70.432 582.942 70.072L582.102 69.184ZM586.134 67.648C585.582 66.232 585.006 65.272 584.022 64L582.294 64.648C583.11 65.728 583.782 66.952 584.358 68.368L586.134 67.648ZM593.586 70.216V67.744C593.586 66.52 593.586 66.472 593.682 65.68H590.538C590.634 66.304 590.658 66.808 590.658 67.816V70.216H589.242C587.538 70.216 587.058 70.192 586.122 70.048V72.976C586.962 72.88 587.61 72.856 589.194 72.856H590.658V76.408C590.658 77.296 590.634 77.944 590.562 78.472H593.682C593.61 77.848 593.586 77.464 593.586 76.456V72.856H599.802C599.754 74.512 599.754 75.088 599.706 75.64C599.49 78.4 598.794 79.984 597.162 81.4C596.01 82.408 594.858 82.984 592.578 83.68C593.61 84.736 593.922 85.192 594.378 86.224C596.586 85.432 597.762 84.808 599.058 83.704C601.146 81.928 602.178 79.888 602.514 76.816C602.634 75.904 602.634 75.736 602.682 72.856H604.29C605.874 72.856 606.522 72.88 607.362 72.976V70.048C606.426 70.192 605.946 70.216 604.242 70.216H602.706C602.73 68.776 602.73 68.776 602.73 67.312C602.73 66.376 602.754 66.256 602.826 65.704H599.73C599.826 66.256 599.85 66.784 599.85 68.368V69.136L599.826 70.216H593.586ZM625.566 65.512C624.87 66.688 623.238 68.344 621.102 70C617.286 72.952 613.254 74.944 608.502 76.24C609.342 77.32 609.606 77.728 610.11 78.976C614.526 77.392 615.87 76.768 618.678 75.088V83.536C618.678 84.952 618.654 85.432 618.534 86.128H621.894C621.798 85.48 621.774 84.784 621.774 83.464V73.216C623.838 71.704 625.638 70.144 627.438 68.272C627.798 67.888 627.918 67.792 628.326 67.432L625.566 65.512ZM639.378 86.08C639.306 85.288 639.282 84.664 639.282 83.416V77.08C639.282 76.408 639.258 76.12 639.186 75.448C639.378 75.568 639.45 75.592 640.002 75.856C644.01 77.704 646.506 79.072 648.498 80.44L650.178 77.608C646.338 75.448 642.57 73.696 639.282 72.544V68.08C639.282 66.592 639.282 66.28 639.378 65.56H636.09C636.186 66.208 636.234 66.832 636.234 68.008V83.392C636.234 84.664 636.21 85.312 636.09 86.08H639.378ZM666.102 69.616C667.158 69.712 667.782 69.904 668.526 70.336C670.446 71.488 671.478 73.36 671.478 75.664C671.478 78.232 670.23 80.512 668.142 81.664C667.014 82.312 665.574 82.696 663.366 82.984C664.134 83.992 664.422 84.52 664.83 85.792C666.51 85.504 667.446 85.264 668.598 84.784C672.27 83.296 674.43 79.984 674.43 75.832C674.43 70.432 670.686 66.928 664.926 66.928C661.518 66.928 658.686 68.08 656.67 70.288C654.966 72.16 654.03 74.632 654.03 77.272C654.03 81.136 655.998 83.92 658.734 83.92C660.702 83.92 662.238 82.504 663.606 79.408C664.806 76.696 665.646 73.384 666.102 69.616ZM663.174 69.64C662.886 72.352 662.094 75.592 661.182 77.752C660.318 79.816 659.502 80.824 658.71 80.824C657.654 80.824 656.814 79.264 656.814 77.296C656.814 74.728 658.062 72.256 660.078 70.816C661.062 70.12 661.926 69.784 663.174 69.64ZM692.058 66.496C691.266 66.64 690.786 66.664 688.962 66.664H681.906C680.106 66.664 679.626 66.64 678.81 66.496V69.424C679.578 69.328 679.89 69.304 681.858 69.304H689.01C690.978 69.304 691.314 69.328 692.058 69.424V66.496ZM693.57 75.304C695.442 75.304 695.802 75.328 696.618 75.424V72.568C695.778 72.712 695.298 72.736 693.522 72.736H679.482C677.706 72.736 677.226 72.712 676.386 72.568V75.424C677.202 75.328 677.562 75.304 679.434 75.304H685.266C685.098 79.96 683.226 82.336 678.522 83.824C679.506 84.76 679.914 85.288 680.49 86.488C685.914 84.4 688.17 81.232 688.434 75.304H693.57ZM698.658 67.648C698.082 66.232 697.506 65.272 696.546 64L694.818 64.624C695.634 65.752 696.33 66.976 696.882 68.344L698.658 67.648ZM691.674 65.56C692.562 66.808 693.114 67.792 693.786 69.4L695.586 68.728C694.914 67.144 694.362 66.184 693.45 64.936L691.674 65.56ZM705.846 70.384V67.888C705.846 66.736 705.846 66.64 705.942 65.848H702.798C702.894 66.448 702.918 66.76 702.918 67.984V70.384H701.502C699.702 70.384 699.246 70.36 698.382 70.216V73.144C699.198 73.048 699.534 73.024 701.454 73.024H702.918V76.552C702.894 77.848 702.894 78.112 702.822 78.616H705.942C705.87 78.04 705.846 77.68 705.846 76.6V73.024H712.062C712.014 76.408 711.87 77.584 711.294 79.024C710.262 81.352 708.246 82.864 704.838 83.824C705.822 84.832 706.23 85.408 706.638 86.368C710.094 85.216 712.446 83.368 713.766 80.776C714.654 78.88 714.894 77.344 714.942 73.024H716.526C718.47 73.024 718.806 73.048 719.622 73.144V70.216C718.758 70.36 718.302 70.384 716.478 70.384H714.966C714.966 69.424 714.99 68.488 714.99 67.6C714.99 66.76 714.99 66.592 715.062 66.016H711.99C712.062 66.568 712.086 67.12 712.086 68.392C712.086 68.44 712.086 68.68 712.086 68.968C712.086 69.184 712.086 69.76 712.086 70.384H705.846ZM715.038 65.08C715.71 66.136 716.214 67.312 716.67 68.848L718.326 68.368C717.918 66.952 717.39 65.8 716.67 64.624L715.038 65.08ZM721.158 67.552C720.678 66.088 720.174 64.96 719.526 63.952L717.99 64.432C718.71 65.608 719.262 66.832 719.622 68.056L721.158 67.552ZM737.106 65.512C736.41 66.688 734.778 68.344 732.642 70C728.826 72.952 724.794 74.944 720.042 76.24C720.882 77.32 721.146 77.728 721.65 78.976C726.066 77.392 727.41 76.768 730.218 75.088V83.536C730.218 84.952 730.194 85.432 730.074 86.128H733.434C733.338 85.48 733.314 84.784 733.314 83.464V73.216C735.378 71.704 737.178 70.144 738.978 68.272C739.338 67.888 739.458 67.792 739.866 67.432L737.106 65.512ZM744.198 69.592C746.43 70.84 748.398 72.424 750.318 74.464L752.382 71.848C750.534 70.096 749.046 68.992 746.19 67.216L744.198 69.592ZM745.038 85.432C745.59 85.24 745.662 85.216 746.622 85.024C750.342 84.232 753.318 83.056 755.766 81.424C759.054 79.24 761.334 76.408 763.374 72.016C762.15 71.152 761.766 70.792 760.83 69.664C760.11 71.608 759.438 72.928 758.382 74.464C756.486 77.2 754.254 79.048 751.254 80.344C749.07 81.304 746.214 82 744.15 82.12L745.038 85.432ZM770.922 65.776C771.042 66.136 771.066 66.184 771.306 67.336C771.906 70.288 772.314 71.896 772.914 73.84C771.354 74.632 770.586 75.112 769.65 75.904C768.282 77.056 767.514 78.592 767.514 80.2C767.514 81.928 768.282 83.416 769.602 84.208C771.138 85.12 773.226 85.528 776.562 85.528C778.242 85.528 779.586 85.432 782.178 85.168C783.474 85.024 783.594 85 784.122 85L783.858 81.712C782.058 82.336 779.106 82.696 776.106 82.696C772.242 82.696 770.61 81.952 770.61 80.2C770.61 78.472 772.362 76.936 775.866 75.64C778.554 74.656 781.698 73.744 783.786 73.336L782.754 70.312C782.394 70.48 782.274 70.528 781.842 70.672C777.186 72.208 777.186 72.208 775.626 72.784C774.858 70.336 774.138 66.88 774.042 65.272L770.922 65.776ZM801.414 68.008V76.576H798.558C797.334 76.576 796.758 76.552 796.158 76.456V79.12C796.902 79.024 797.55 78.976 798.582 78.976H801.414V83.896C801.414 85.216 801.366 85.984 801.246 86.872H804.174C804.054 85.984 804.006 85.288 804.006 83.92V78.976H807.078C808.062 78.976 808.806 79.024 809.574 79.12V76.456C808.878 76.552 808.278 76.576 807.15 76.576H804.006V68.008H806.694C807.534 68.008 808.35 68.056 809.142 68.128V65.488C808.518 65.584 807.702 65.632 806.622 65.632H799.11C798.006 65.632 797.214 65.584 796.542 65.488V68.128C797.334 68.056 798.15 68.008 798.99 68.008H801.414ZM788.166 67.72C788.742 67.648 789.27 67.624 790.182 67.624H793.566C794.478 67.624 794.982 67.648 795.582 67.72V65.416C794.958 65.488 794.55 65.512 793.566 65.512H790.182C789.198 65.512 788.766 65.488 788.166 65.416V67.72ZM787.278 71.224C787.854 71.152 788.358 71.128 789.198 71.128H794.046C795.054 71.128 795.366 71.152 795.87 71.224V68.8C795.294 68.872 794.934 68.896 793.95 68.896H789.198C788.31 68.896 787.854 68.872 787.278 68.776V71.224ZM788.238 74.632C788.694 74.584 789.078 74.56 789.822 74.56H794.07C794.79 74.56 795.078 74.584 795.606 74.632V72.4C795.174 72.448 794.862 72.472 794.07 72.472H789.822C789.03 72.472 788.718 72.448 788.238 72.4V74.632ZM788.238 77.992C788.694 77.944 789.078 77.92 789.798 77.92H794.022C794.79 77.92 795.078 77.944 795.606 77.992V75.76C795.174 75.808 794.862 75.832 794.07 75.832H789.822C789.03 75.832 788.718 75.808 788.238 75.76V77.992ZM790.542 86.992V85.84H793.302V86.656H795.726C795.63 85.96 795.606 85.384 795.606 84.424V80.944C795.606 80.104 795.63 79.672 795.678 79.216C795.246 79.288 794.982 79.288 794.046 79.288H789.966C789.27 79.288 788.694 79.264 788.142 79.192C788.214 79.864 788.238 80.32 788.238 81.088V84.664C788.238 85.504 788.19 86.296 788.118 86.992H790.542ZM790.542 81.352H793.302V83.728H790.542V81.352ZM796.494 69.832C797.382 71.776 797.814 73.144 798.462 75.856L800.598 75.064C800.022 72.688 799.662 71.56 798.582 68.968L796.494 69.832ZM806.91 68.968C806.382 71.224 805.782 72.904 804.678 75.064L806.718 75.856C807.774 73.72 808.398 72.208 809.19 69.856L806.91 68.968ZM826.65 71.776V68.536H829.146C830.322 68.536 831.282 68.584 831.978 68.656V65.992C831.258 66.088 830.394 66.136 829.05 66.136H819.018C817.722 66.136 816.882 66.088 816.186 65.992V68.656C816.954 68.584 817.842 68.536 819.018 68.536H820.194V71.776H817.938C816.954 71.776 816.402 71.752 815.73 71.68C815.826 72.376 815.85 73.12 815.85 73.984V84.256C815.85 85.144 815.802 86.08 815.706 86.896H818.394V85.576H828.57V86.896H831.306C831.21 85.912 831.162 85.096 831.162 83.896V73.936C831.162 72.952 831.186 72.328 831.258 71.68C830.682 71.752 830.01 71.776 829.098 71.776H826.65ZM824.346 71.776H822.498V68.536H824.346V71.776ZM820.194 74.08V83.248H818.274V74.08H820.194ZM822.498 74.08H824.346V83.248H822.498V74.08ZM826.65 74.08H828.666V83.248H826.65V74.08ZM811.674 84.232C811.674 85.36 811.626 86.08 811.53 87.04H814.29C814.194 86.32 814.17 85.576 814.17 84.256V70.864C815.226 68.416 815.226 68.416 815.73 66.904C815.922 66.352 815.994 66.136 816.186 65.584L813.594 64.528C813.45 65.584 813.234 66.424 812.706 67.84C811.746 70.456 810.618 72.424 809.106 74.08C809.586 75.112 809.826 75.76 810.138 76.936C810.762 76.144 811.314 75.304 811.746 74.464C811.674 75.664 811.674 76.096 811.674 77.08V84.232Z" fill="white"/>
</svg>
