<svg width="900" height="120" viewBox="0 0 900 120" fill="none" xmlns="http://www.w3.org/2000/svg">
<path d="M400 0L450 60L400 120H0V0.000247073L400 0Z" fill="#E67F3B"/>
<path d="M850 0L900 60L850 120H450L500 60L450 0.000247073L850 0Z" fill="#F6AD3B"/>
<path d="M201.012 30.94C201.532 30.94 201.989 30.8733 202.382 30.74C202.782 30.6067 203.112 30.42 203.372 30.18C203.639 29.9333 203.839 29.6367 203.972 29.29C204.106 28.9433 204.172 28.5567 204.172 28.13C204.172 27.71 204.106 27.3333 203.972 27C203.846 26.6667 203.652 26.3833 203.392 26.15C203.132 25.9167 202.802 25.74 202.402 25.62C202.009 25.4933 201.546 25.43 201.012 25.43H198.872V30.94H201.012ZM201.012 23.6C201.952 23.6 202.766 23.71 203.452 23.93C204.146 24.15 204.716 24.46 205.162 24.86C205.616 25.2533 205.952 25.73 206.172 26.29C206.392 26.8433 206.502 27.4567 206.502 28.13C206.502 28.8167 206.386 29.4467 206.152 30.02C205.919 30.5867 205.572 31.0767 205.112 31.49C204.652 31.8967 204.079 32.2167 203.392 32.45C202.712 32.6767 201.919 32.79 201.012 32.79H198.872V38H196.532V23.6H201.012ZM208.931 29.01C209.351 28.5967 209.811 28.2667 210.311 28.02C210.811 27.7667 211.394 27.64 212.061 27.64C212.621 27.64 213.111 27.7333 213.531 27.92C213.957 28.1067 214.314 28.37 214.601 28.71C214.894 29.05 215.114 29.46 215.261 29.94C215.407 30.4133 215.481 30.9367 215.481 31.51V38H213.341V31.51C213.341 30.8233 213.181 30.29 212.861 29.91C212.547 29.53 212.067 29.34 211.421 29.34C210.941 29.34 210.494 29.45 210.081 29.67C209.674 29.89 209.291 30.19 208.931 30.57V38H206.781V23.2H208.931V29.01ZM221.942 33.54C221.175 33.5667 220.528 33.63 220.002 33.73C219.475 33.8233 219.048 33.9467 218.722 34.1C218.395 34.2467 218.158 34.4233 218.012 34.63C217.872 34.8367 217.802 35.0633 217.802 35.31C217.802 35.55 217.838 35.7567 217.912 35.93C217.992 36.0967 218.098 36.2367 218.232 36.35C218.372 36.4567 218.532 36.5367 218.712 36.59C218.898 36.6367 219.102 36.66 219.322 36.66C219.882 36.66 220.362 36.5567 220.762 36.35C221.168 36.1367 221.562 35.83 221.942 35.43V33.54ZM216.242 29.22C217.395 28.1467 218.768 27.61 220.362 27.61C220.948 27.61 221.468 27.7067 221.922 27.9C222.382 28.0867 222.765 28.3533 223.072 28.7C223.385 29.0467 223.622 29.46 223.782 29.94C223.948 30.4133 224.032 30.94 224.032 31.52V38H223.072C222.865 38 222.708 37.97 222.602 37.91C222.495 37.8433 222.405 37.7133 222.332 37.52L222.122 36.69C221.862 36.9233 221.605 37.1333 221.352 37.32C221.098 37.5 220.835 37.6533 220.562 37.78C220.295 37.9067 220.005 38 219.692 38.06C219.385 38.1267 219.045 38.16 218.672 38.16C218.258 38.16 217.872 38.1033 217.512 37.99C217.158 37.8767 216.852 37.7067 216.592 37.48C216.332 37.2467 216.125 36.96 215.972 36.62C215.825 36.28 215.752 35.88 215.752 35.42C215.752 35.0267 215.855 34.6433 216.062 34.27C216.275 33.8967 216.622 33.5633 217.102 33.27C217.588 32.97 218.225 32.7233 219.012 32.53C219.805 32.3367 220.782 32.2267 221.942 32.2V31.52C221.942 30.7867 221.785 30.24 221.472 29.88C221.158 29.52 220.698 29.34 220.092 29.34C219.678 29.34 219.332 29.3933 219.052 29.5C218.772 29.6 218.528 29.71 218.322 29.83C218.115 29.95 217.932 30.0633 217.772 30.17C217.612 30.27 217.442 30.32 217.262 30.32C217.115 30.32 216.988 30.2833 216.882 30.21C216.782 30.13 216.698 30.0333 216.632 29.92L216.242 29.22ZM231.14 29.65C231.087 29.7433 231.027 29.81 230.96 29.85C230.894 29.89 230.81 29.91 230.71 29.91C230.597 29.91 230.474 29.8767 230.34 29.81C230.207 29.7367 230.05 29.6567 229.87 29.57C229.69 29.4833 229.477 29.4067 229.23 29.34C228.99 29.2667 228.707 29.23 228.38 29.23C228.114 29.23 227.87 29.2633 227.65 29.33C227.437 29.39 227.254 29.48 227.1 29.6C226.954 29.7133 226.84 29.85 226.76 30.01C226.68 30.1633 226.64 30.33 226.64 30.51C226.64 30.75 226.714 30.95 226.86 31.11C227.007 31.27 227.2 31.41 227.44 31.53C227.68 31.6433 227.954 31.7467 228.26 31.84C228.567 31.9333 228.88 32.0333 229.2 32.14C229.52 32.2467 229.834 32.37 230.14 32.51C230.447 32.65 230.72 32.8233 230.96 33.03C231.2 33.23 231.394 33.4767 231.54 33.77C231.687 34.0567 231.76 34.4067 231.76 34.82C231.76 35.3 231.674 35.7433 231.5 36.15C231.327 36.5567 231.074 36.91 230.74 37.21C230.407 37.51 229.99 37.7433 229.49 37.91C228.997 38.0767 228.43 38.16 227.79 38.16C227.437 38.16 227.094 38.1267 226.76 38.06C226.434 38 226.12 37.9167 225.82 37.81C225.527 37.6967 225.25 37.5633 224.99 37.41C224.737 37.2567 224.51 37.09 224.31 36.91L224.81 36.09C224.87 35.99 224.944 35.9133 225.03 35.86C225.124 35.8 225.237 35.77 225.37 35.77C225.51 35.77 225.647 35.8167 225.78 35.91C225.92 35.9967 226.08 36.0933 226.26 36.2C226.447 36.3067 226.67 36.4067 226.93 36.5C227.19 36.5867 227.514 36.63 227.9 36.63C228.22 36.63 228.497 36.5933 228.73 36.52C228.964 36.44 229.157 36.3333 229.31 36.2C229.464 36.0667 229.577 35.9167 229.65 35.75C229.724 35.5767 229.76 35.3933 229.76 35.2C229.76 34.94 229.687 34.7267 229.54 34.56C229.394 34.3933 229.197 34.25 228.95 34.13C228.71 34.01 228.434 33.9033 228.12 33.81C227.814 33.7167 227.5 33.6167 227.18 33.51C226.86 33.4033 226.544 33.28 226.23 33.14C225.924 33 225.647 32.8233 225.4 32.61C225.16 32.39 224.967 32.1267 224.82 31.82C224.674 31.5067 224.6 31.1267 224.6 30.68C224.6 30.2733 224.68 29.8867 224.84 29.52C225.007 29.1533 225.247 28.83 225.56 28.55C225.88 28.27 226.27 28.05 226.73 27.89C227.197 27.7233 227.734 27.64 228.34 27.64C229.027 27.64 229.65 27.75 230.21 27.97C230.77 28.19 231.24 28.49 231.62 28.87L231.14 29.65ZM238.971 31.75C238.971 31.39 238.917 31.0567 238.811 30.75C238.711 30.4367 238.561 30.1667 238.361 29.94C238.161 29.7067 237.911 29.5267 237.611 29.4C237.317 29.2667 236.977 29.2 236.591 29.2C235.811 29.2 235.197 29.4233 234.751 29.87C234.304 30.3167 234.021 30.9433 233.901 31.75H238.971ZM233.841 33.07C233.867 33.65 233.957 34.1533 234.111 34.58C234.264 35 234.467 35.35 234.721 35.63C234.981 35.91 235.287 36.12 235.641 36.26C236.001 36.3933 236.401 36.46 236.841 36.46C237.261 36.46 237.624 36.4133 237.931 36.32C238.237 36.22 238.504 36.1133 238.731 36C238.957 35.88 239.151 35.7733 239.311 35.68C239.471 35.58 239.617 35.53 239.751 35.53C239.924 35.53 240.057 35.5967 240.151 35.73L240.761 36.52C240.507 36.82 240.221 37.0733 239.901 37.28C239.581 37.4867 239.241 37.6567 238.881 37.79C238.521 37.9167 238.151 38.0067 237.771 38.06C237.391 38.12 237.021 38.15 236.661 38.15C235.954 38.15 235.297 38.0333 234.691 37.8C234.091 37.56 233.567 37.21 233.121 36.75C232.681 36.29 232.334 35.72 232.081 35.04C231.834 34.36 231.711 33.5767 231.711 32.69C231.711 31.9833 231.821 31.3233 232.041 30.71C232.267 30.0967 232.587 29.5633 233.001 29.11C233.421 28.6567 233.927 28.3 234.521 28.04C235.121 27.7733 235.797 27.64 236.551 27.64C237.177 27.64 237.757 27.7433 238.291 27.95C238.824 28.15 239.284 28.4467 239.671 28.84C240.057 29.2333 240.357 29.7167 240.571 30.29C240.791 30.8567 240.901 31.5033 240.901 32.23C240.901 32.5633 240.864 32.7867 240.791 32.9C240.717 33.0133 240.584 33.07 240.391 33.07H233.841ZM253.846 36.37V38H245.996V36.37H248.996V27.35C248.996 27.03 249.006 26.7033 249.026 26.37L246.716 28.32C246.616 28.4 246.513 28.4533 246.406 28.48C246.306 28.5 246.21 28.5 246.116 28.48C246.03 28.46 245.95 28.43 245.876 28.39C245.81 28.3433 245.756 28.2933 245.716 28.24L245.046 27.3L249.386 23.57H251.136V36.37H253.846ZM134.458 64.732C135.122 64.732 135.714 64.62 136.234 64.396C136.762 64.172 137.206 63.86 137.566 63.46C137.934 63.06 138.214 62.58 138.406 62.02C138.598 61.452 138.694 60.824 138.694 60.136V49.72H141.49V60.136C141.49 61.152 141.326 62.092 140.998 62.956C140.678 63.82 140.214 64.568 139.606 65.2C138.998 65.824 138.258 66.316 137.386 66.676C136.522 67.028 135.546 67.204 134.458 67.204C133.37 67.204 132.39 67.028 131.518 66.676C130.654 66.316 129.918 65.824 129.31 65.2C128.702 64.568 128.234 63.82 127.906 62.956C127.586 62.092 127.426 61.152 127.426 60.136V49.72H130.234V60.124C130.234 60.812 130.33 61.44 130.522 62.008C130.714 62.568 130.99 63.052 131.35 63.46C131.71 63.86 132.15 64.172 132.67 64.396C133.198 64.62 133.794 64.732 134.458 64.732ZM145.441 56.38C145.705 56.108 145.977 55.864 146.257 55.648C146.545 55.424 146.849 55.232 147.169 55.072C147.489 54.912 147.829 54.788 148.189 54.7C148.549 54.612 148.941 54.568 149.365 54.568C150.037 54.568 150.625 54.68 151.129 54.904C151.641 55.128 152.069 55.444 152.413 55.852C152.765 56.26 153.029 56.752 153.205 57.328C153.381 57.896 153.469 58.524 153.469 59.212V67H150.901V59.212C150.901 58.388 150.709 57.748 150.325 57.292C149.949 56.836 149.373 56.608 148.597 56.608C148.021 56.608 147.485 56.74 146.989 57.004C146.501 57.268 146.041 57.628 145.609 58.084V67H143.029V54.76H144.589C144.941 54.76 145.165 54.924 145.261 55.252L145.441 56.38ZM162.794 57.772C162.434 57.308 162.038 56.984 161.606 56.8C161.174 56.616 160.706 56.524 160.202 56.524C159.194 56.524 158.406 56.896 157.838 57.64C157.27 58.376 156.986 59.468 156.986 60.916C156.986 61.668 157.05 62.312 157.178 62.848C157.306 63.376 157.49 63.808 157.73 64.144C157.97 64.48 158.262 64.724 158.606 64.876C158.95 65.028 159.338 65.104 159.77 65.104C160.426 65.104 160.99 64.964 161.462 64.684C161.942 64.396 162.386 63.992 162.794 63.472V57.772ZM165.374 49.24V67H163.814C163.47 67 163.25 66.836 163.154 66.508L162.926 65.176C162.414 65.776 161.83 66.26 161.174 66.628C160.526 66.996 159.77 67.18 158.906 67.18C158.218 67.18 157.594 67.044 157.034 66.772C156.474 66.492 155.994 66.088 155.594 65.56C155.194 65.032 154.882 64.38 154.658 63.604C154.442 62.82 154.334 61.924 154.334 60.916C154.334 60.004 154.454 59.16 154.694 58.384C154.942 57.608 155.294 56.936 155.75 56.368C156.206 55.792 156.758 55.344 157.406 55.024C158.062 54.696 158.794 54.532 159.602 54.532C160.322 54.532 160.934 54.648 161.438 54.88C161.942 55.104 162.394 55.42 162.794 55.828V49.24H165.374ZM175.057 59.5C175.057 59.068 174.993 58.668 174.865 58.3C174.745 57.924 174.565 57.6 174.325 57.328C174.085 57.048 173.785 56.832 173.425 56.68C173.073 56.52 172.665 56.44 172.201 56.44C171.265 56.44 170.529 56.708 169.993 57.244C169.457 57.78 169.117 58.532 168.973 59.5H175.057ZM168.901 61.084C168.933 61.78 169.041 62.384 169.225 62.896C169.409 63.4 169.653 63.82 169.957 64.156C170.269 64.492 170.637 64.744 171.061 64.912C171.493 65.072 171.973 65.152 172.501 65.152C173.005 65.152 173.441 65.096 173.809 64.984C174.177 64.864 174.497 64.736 174.769 64.6C175.041 64.456 175.273 64.328 175.465 64.216C175.657 64.096 175.833 64.036 175.993 64.036C176.201 64.036 176.361 64.116 176.473 64.276L177.205 65.224C176.901 65.584 176.557 65.888 176.173 66.136C175.789 66.384 175.381 66.588 174.949 66.748C174.517 66.9 174.073 67.008 173.617 67.072C173.161 67.144 172.717 67.18 172.285 67.18C171.437 67.18 170.649 67.04 169.921 66.76C169.201 66.472 168.573 66.052 168.037 65.5C167.509 64.948 167.093 64.264 166.789 63.448C166.493 62.632 166.345 61.692 166.345 60.628C166.345 59.78 166.477 58.988 166.741 58.252C167.013 57.516 167.397 56.876 167.893 56.332C168.397 55.788 169.005 55.36 169.717 55.048C170.437 54.728 171.249 54.568 172.153 54.568C172.905 54.568 173.601 54.692 174.241 54.94C174.881 55.18 175.433 55.536 175.897 56.008C176.361 56.48 176.721 57.06 176.977 57.748C177.241 58.428 177.373 59.204 177.373 60.076C177.373 60.476 177.329 60.744 177.241 60.88C177.153 61.016 176.993 61.084 176.761 61.084H168.901ZM180.715 57.028C181.099 56.252 181.563 55.644 182.107 55.204C182.651 54.756 183.303 54.532 184.063 54.532C184.327 54.532 184.575 54.564 184.807 54.628C185.039 54.684 185.247 54.772 185.431 54.892L185.251 56.836C185.219 56.972 185.167 57.068 185.095 57.124C185.031 57.172 184.943 57.196 184.831 57.196C184.711 57.196 184.539 57.176 184.315 57.136C184.091 57.088 183.855 57.064 183.607 57.064C183.247 57.064 182.927 57.116 182.647 57.22C182.375 57.324 182.127 57.476 181.903 57.676C181.687 57.876 181.495 58.12 181.327 58.408C181.159 58.696 181.003 59.024 180.859 59.392V67H178.279V54.76H179.779C180.051 54.76 180.239 54.812 180.343 54.916C180.447 55.012 180.519 55.184 180.559 55.432L180.715 57.028ZM192.876 56.98C192.812 57.092 192.74 57.172 192.66 57.22C192.58 57.268 192.48 57.292 192.36 57.292C192.224 57.292 192.076 57.252 191.916 57.172C191.756 57.084 191.568 56.988 191.352 56.884C191.136 56.78 190.88 56.688 190.584 56.608C190.296 56.52 189.956 56.476 189.564 56.476C189.244 56.476 188.952 56.516 188.688 56.596C188.432 56.668 188.212 56.776 188.028 56.92C187.852 57.056 187.716 57.22 187.62 57.412C187.524 57.596 187.476 57.796 187.476 58.012C187.476 58.3 187.564 58.54 187.74 58.732C187.916 58.924 188.148 59.092 188.436 59.236C188.724 59.372 189.052 59.496 189.42 59.608C189.788 59.72 190.164 59.84 190.548 59.968C190.932 60.096 191.308 60.244 191.676 60.412C192.044 60.58 192.372 60.788 192.66 61.036C192.948 61.276 193.18 61.572 193.356 61.924C193.532 62.268 193.62 62.688 193.62 63.184C193.62 63.76 193.516 64.292 193.308 64.78C193.1 65.268 192.796 65.692 192.396 66.052C191.996 66.412 191.496 66.692 190.896 66.892C190.304 67.092 189.624 67.192 188.856 67.192C188.432 67.192 188.02 67.152 187.62 67.072C187.228 67 186.852 66.9 186.492 66.772C186.14 66.636 185.808 66.476 185.496 66.292C185.192 66.108 184.92 65.908 184.68 65.692L185.28 64.708C185.352 64.588 185.44 64.496 185.544 64.432C185.656 64.36 185.792 64.324 185.952 64.324C186.12 64.324 186.284 64.38 186.444 64.492C186.612 64.596 186.804 64.712 187.02 64.84C187.244 64.968 187.512 65.088 187.824 65.2C188.136 65.304 188.524 65.356 188.988 65.356C189.372 65.356 189.704 65.312 189.984 65.224C190.264 65.128 190.496 65 190.68 64.84C190.864 64.68 191 64.5 191.088 64.3C191.176 64.092 191.22 63.872 191.22 63.64C191.22 63.328 191.132 63.072 190.956 62.872C190.78 62.672 190.544 62.5 190.248 62.356C189.96 62.212 189.628 62.084 189.252 61.972C188.884 61.86 188.508 61.74 188.124 61.612C187.74 61.484 187.36 61.336 186.984 61.168C186.616 61 186.284 60.788 185.988 60.532C185.7 60.268 185.468 59.952 185.292 59.584C185.116 59.208 185.028 58.752 185.028 58.216C185.028 57.728 185.124 57.264 185.316 56.824C185.516 56.384 185.804 55.996 186.18 55.66C186.564 55.324 187.032 55.06 187.584 54.868C188.144 54.668 188.788 54.568 189.516 54.568C190.34 54.568 191.088 54.7 191.76 54.964C192.432 55.228 192.996 55.588 193.452 56.044L192.876 56.98ZM198.469 67.192C197.453 67.192 196.669 66.908 196.117 66.34C195.573 65.764 195.301 64.956 195.301 63.916V56.788H193.957C193.813 56.788 193.689 56.744 193.585 56.656C193.481 56.56 193.429 56.42 193.429 56.236V55.192L195.409 54.904L195.973 51.364C196.013 51.228 196.081 51.12 196.177 51.04C196.273 50.952 196.401 50.908 196.561 50.908H197.881V54.928H201.277V56.788H197.881V63.736C197.881 64.176 197.989 64.512 198.205 64.744C198.421 64.976 198.709 65.092 199.069 65.092C199.269 65.092 199.441 65.068 199.585 65.02C199.729 64.964 199.853 64.908 199.957 64.852C200.061 64.788 200.149 64.732 200.221 64.684C200.301 64.628 200.377 64.6 200.449 64.6C200.593 64.6 200.709 64.68 200.797 64.84L201.565 66.1C201.165 66.452 200.693 66.724 200.149 66.916C199.605 67.1 199.045 67.192 198.469 67.192ZM208.35 61.648C207.43 61.68 206.654 61.756 206.022 61.876C205.39 61.988 204.878 62.136 204.486 62.32C204.094 62.496 203.81 62.708 203.634 62.956C203.466 63.204 203.382 63.476 203.382 63.772C203.382 64.06 203.426 64.308 203.514 64.516C203.61 64.716 203.738 64.884 203.898 65.02C204.066 65.148 204.258 65.244 204.474 65.308C204.698 65.364 204.942 65.392 205.206 65.392C205.878 65.392 206.454 65.268 206.934 65.02C207.422 64.764 207.894 64.396 208.35 63.916V61.648ZM201.51 56.464C202.894 55.176 204.542 54.532 206.454 54.532C207.158 54.532 207.782 54.648 208.326 54.88C208.878 55.104 209.338 55.424 209.706 55.84C210.082 56.256 210.366 56.752 210.558 57.328C210.758 57.896 210.858 58.528 210.858 59.224V67H209.706C209.458 67 209.27 66.964 209.142 66.892C209.014 66.812 208.906 66.656 208.818 66.424L208.566 65.428C208.254 65.708 207.946 65.96 207.642 66.184C207.338 66.4 207.022 66.584 206.694 66.736C206.374 66.888 206.026 67 205.65 67.072C205.282 67.152 204.874 67.192 204.426 67.192C203.93 67.192 203.466 67.124 203.034 66.988C202.61 66.852 202.242 66.648 201.93 66.376C201.618 66.096 201.37 65.752 201.186 65.344C201.01 64.936 200.922 64.456 200.922 63.904C200.922 63.432 201.046 62.972 201.294 62.524C201.55 62.076 201.966 61.676 202.542 61.324C203.126 60.964 203.89 60.668 204.834 60.436C205.786 60.204 206.958 60.072 208.35 60.04V59.224C208.35 58.344 208.162 57.688 207.786 57.256C207.41 56.824 206.858 56.608 206.13 56.608C205.634 56.608 205.218 56.672 204.882 56.8C204.546 56.92 204.254 57.052 204.006 57.196C203.758 57.34 203.538 57.476 203.346 57.604C203.154 57.724 202.95 57.784 202.734 57.784C202.558 57.784 202.406 57.74 202.278 57.652C202.158 57.556 202.058 57.44 201.978 57.304L201.51 56.464ZM214.793 56.38C215.057 56.108 215.329 55.864 215.609 55.648C215.897 55.424 216.201 55.232 216.521 55.072C216.841 54.912 217.181 54.788 217.541 54.7C217.901 54.612 218.293 54.568 218.717 54.568C219.389 54.568 219.977 54.68 220.481 54.904C220.993 55.128 221.421 55.444 221.765 55.852C222.117 56.26 222.381 56.752 222.557 57.328C222.733 57.896 222.821 58.524 222.821 59.212V67H220.253V59.212C220.253 58.388 220.061 57.748 219.677 57.292C219.301 56.836 218.725 56.608 217.949 56.608C217.373 56.608 216.837 56.74 216.341 57.004C215.853 57.268 215.393 57.628 214.961 58.084V67H212.381V54.76H213.941C214.293 54.76 214.517 54.924 214.613 55.252L214.793 56.38ZM232.146 57.772C231.786 57.308 231.39 56.984 230.958 56.8C230.526 56.616 230.058 56.524 229.554 56.524C228.546 56.524 227.758 56.896 227.19 57.64C226.622 58.376 226.338 59.468 226.338 60.916C226.338 61.668 226.402 62.312 226.53 62.848C226.658 63.376 226.842 63.808 227.082 64.144C227.322 64.48 227.614 64.724 227.958 64.876C228.302 65.028 228.69 65.104 229.122 65.104C229.778 65.104 230.342 64.964 230.814 64.684C231.294 64.396 231.738 63.992 232.146 63.472V57.772ZM234.726 49.24V67H233.166C232.822 67 232.602 66.836 232.506 66.508L232.278 65.176C231.766 65.776 231.182 66.26 230.526 66.628C229.878 66.996 229.122 67.18 228.258 67.18C227.57 67.18 226.946 67.044 226.386 66.772C225.826 66.492 225.346 66.088 224.946 65.56C224.546 65.032 224.234 64.38 224.01 63.604C223.794 62.82 223.686 61.924 223.686 60.916C223.686 60.004 223.806 59.16 224.046 58.384C224.294 57.608 224.646 56.936 225.102 56.368C225.558 55.792 226.11 55.344 226.758 55.024C227.414 54.696 228.146 54.532 228.954 54.532C229.674 54.532 230.286 54.648 230.79 54.88C231.294 55.104 231.746 55.42 232.146 55.828V49.24H234.726ZM245.033 58.72C244.297 59.152 243.753 59.656 243.401 60.232C243.049 60.808 242.873 61.432 242.873 62.104C242.873 62.576 242.957 63 243.125 63.376C243.301 63.744 243.529 64.056 243.809 64.312C244.097 64.568 244.425 64.764 244.793 64.9C245.169 65.036 245.557 65.104 245.957 65.104C246.749 65.104 247.469 64.972 248.117 64.708C248.765 64.436 249.341 64.072 249.845 63.616L245.033 58.72ZM256.385 67H253.877C253.741 67 253.617 66.992 253.505 66.976C253.401 66.96 253.301 66.936 253.205 66.904C253.117 66.864 253.029 66.812 252.941 66.748C252.861 66.684 252.773 66.6 252.677 66.496L251.237 65.032C250.477 65.704 249.613 66.232 248.645 66.616C247.685 67 246.641 67.192 245.513 67.192C244.857 67.192 244.213 67.08 243.581 66.856C242.957 66.632 242.397 66.312 241.901 65.896C241.405 65.472 241.005 64.96 240.701 64.36C240.397 63.752 240.245 63.068 240.245 62.308C240.245 61.756 240.333 61.236 240.509 60.748C240.693 60.26 240.945 59.808 241.265 59.392C241.593 58.968 241.977 58.588 242.417 58.252C242.857 57.916 243.341 57.628 243.869 57.388C243.413 56.78 243.081 56.188 242.873 55.612C242.665 55.036 242.561 54.452 242.561 53.86C242.561 53.268 242.669 52.708 242.885 52.18C243.101 51.652 243.413 51.192 243.821 50.8C244.237 50.408 244.737 50.1 245.321 49.876C245.913 49.644 246.581 49.528 247.325 49.528C247.997 49.528 248.601 49.632 249.137 49.84C249.681 50.048 250.145 50.328 250.529 50.68C250.921 51.032 251.225 51.436 251.441 51.892C251.665 52.348 251.797 52.82 251.837 53.308L250.205 53.644C250.061 53.676 249.925 53.656 249.797 53.584C249.677 53.512 249.585 53.392 249.521 53.224C249.457 53.016 249.365 52.812 249.245 52.612C249.125 52.404 248.977 52.22 248.801 52.06C248.625 51.9 248.413 51.772 248.165 51.676C247.925 51.572 247.645 51.52 247.325 51.52C246.957 51.52 246.625 51.58 246.329 51.7C246.041 51.82 245.793 51.988 245.585 52.204C245.385 52.412 245.229 52.656 245.117 52.936C245.013 53.216 244.961 53.516 244.961 53.836C244.961 54.092 244.989 54.34 245.045 54.58C245.101 54.82 245.193 55.06 245.321 55.3C245.449 55.54 245.609 55.788 245.801 56.044C246.001 56.292 246.241 56.56 246.521 56.848L251.285 61.756C251.573 61.228 251.801 60.68 251.969 60.112C252.137 59.536 252.249 58.956 252.305 58.372C252.321 58.204 252.377 58.072 252.473 57.976C252.569 57.872 252.697 57.82 252.857 57.82H254.453C254.445 58.82 254.293 59.784 253.997 60.712C253.709 61.632 253.301 62.488 252.773 63.28L256.385 67ZM268.872 57.772C268.512 57.308 268.116 56.984 267.684 56.8C267.252 56.616 266.784 56.524 266.28 56.524C265.272 56.524 264.484 56.896 263.916 57.64C263.348 58.376 263.064 59.468 263.064 60.916C263.064 61.668 263.128 62.312 263.256 62.848C263.384 63.376 263.568 63.808 263.808 64.144C264.048 64.48 264.34 64.724 264.684 64.876C265.028 65.028 265.416 65.104 265.848 65.104C266.504 65.104 267.068 64.964 267.54 64.684C268.02 64.396 268.464 63.992 268.872 63.472V57.772ZM271.452 49.24V67H269.892C269.548 67 269.328 66.836 269.232 66.508L269.004 65.176C268.492 65.776 267.908 66.26 267.252 66.628C266.604 66.996 265.848 67.18 264.984 67.18C264.296 67.18 263.672 67.044 263.112 66.772C262.552 66.492 262.072 66.088 261.672 65.56C261.272 65.032 260.96 64.38 260.736 63.604C260.52 62.82 260.412 61.924 260.412 60.916C260.412 60.004 260.532 59.16 260.772 58.384C261.02 57.608 261.372 56.936 261.828 56.368C262.284 55.792 262.836 55.344 263.484 55.024C264.14 54.696 264.872 54.532 265.68 54.532C266.4 54.532 267.012 54.648 267.516 54.88C268.02 55.104 268.472 55.42 268.872 55.828V49.24H271.452ZM281.135 59.5C281.135 59.068 281.071 58.668 280.943 58.3C280.823 57.924 280.643 57.6 280.403 57.328C280.163 57.048 279.863 56.832 279.503 56.68C279.151 56.52 278.743 56.44 278.279 56.44C277.343 56.44 276.607 56.708 276.071 57.244C275.535 57.78 275.195 58.532 275.051 59.5H281.135ZM274.979 61.084C275.011 61.78 275.119 62.384 275.303 62.896C275.487 63.4 275.731 63.82 276.035 64.156C276.347 64.492 276.715 64.744 277.139 64.912C277.571 65.072 278.051 65.152 278.579 65.152C279.083 65.152 279.519 65.096 279.887 64.984C280.255 64.864 280.575 64.736 280.847 64.6C281.119 64.456 281.351 64.328 281.543 64.216C281.735 64.096 281.911 64.036 282.071 64.036C282.279 64.036 282.439 64.116 282.551 64.276L283.283 65.224C282.979 65.584 282.635 65.888 282.251 66.136C281.867 66.384 281.459 66.588 281.027 66.748C280.595 66.9 280.151 67.008 279.695 67.072C279.239 67.144 278.795 67.18 278.363 67.18C277.515 67.18 276.727 67.04 275.999 66.76C275.279 66.472 274.651 66.052 274.115 65.5C273.587 64.948 273.171 64.264 272.867 63.448C272.571 62.632 272.423 61.692 272.423 60.628C272.423 59.78 272.555 58.988 272.819 58.252C273.091 57.516 273.475 56.876 273.971 56.332C274.475 55.788 275.083 55.36 275.795 55.048C276.515 54.728 277.327 54.568 278.231 54.568C278.983 54.568 279.679 54.692 280.319 54.94C280.959 55.18 281.511 55.536 281.975 56.008C282.439 56.48 282.799 57.06 283.055 57.748C283.319 58.428 283.451 59.204 283.451 60.076C283.451 60.476 283.407 60.744 283.319 60.88C283.231 61.016 283.071 61.084 282.839 61.084H274.979ZM285.033 67V56.812L283.833 56.644C283.633 56.604 283.469 56.532 283.341 56.428C283.221 56.324 283.161 56.176 283.161 55.984V54.928H285.033V54.412C285.033 53.66 285.153 52.968 285.393 52.336C285.633 51.704 285.997 51.156 286.485 50.692C286.973 50.228 287.581 49.868 288.309 49.612C289.045 49.348 289.905 49.216 290.889 49.216C291.209 49.216 291.537 49.236 291.873 49.276C292.217 49.316 292.509 49.376 292.749 49.456L292.665 50.8C292.649 50.968 292.549 51.064 292.365 51.088C292.181 51.104 291.937 51.112 291.633 51.112C290.889 51.112 290.257 51.184 289.737 51.328C289.217 51.464 288.793 51.676 288.465 51.964C288.137 52.244 287.897 52.596 287.745 53.02C287.601 53.436 287.529 53.924 287.529 54.484V54.928H295.029V67H292.449V56.788H287.613V67H285.033ZM299.214 56.38C299.478 56.108 299.75 55.864 300.03 55.648C300.318 55.424 300.622 55.232 300.942 55.072C301.262 54.912 301.602 54.788 301.962 54.7C302.322 54.612 302.714 54.568 303.138 54.568C303.81 54.568 304.398 54.68 304.902 54.904C305.414 55.128 305.842 55.444 306.186 55.852C306.538 56.26 306.802 56.752 306.978 57.328C307.154 57.896 307.242 58.524 307.242 59.212V67H304.674V59.212C304.674 58.388 304.482 57.748 304.098 57.292C303.722 56.836 303.146 56.608 302.37 56.608C301.794 56.608 301.258 56.74 300.762 57.004C300.274 57.268 299.814 57.628 299.382 58.084V67H296.802V54.76H298.362C298.714 54.76 298.938 54.924 299.034 55.252L299.214 56.38ZM316.784 59.5C316.784 59.068 316.72 58.668 316.592 58.3C316.472 57.924 316.292 57.6 316.052 57.328C315.812 57.048 315.512 56.832 315.152 56.68C314.8 56.52 314.392 56.44 313.928 56.44C312.992 56.44 312.256 56.708 311.72 57.244C311.184 57.78 310.844 58.532 310.7 59.5H316.784ZM310.628 61.084C310.66 61.78 310.768 62.384 310.952 62.896C311.136 63.4 311.38 63.82 311.684 64.156C311.996 64.492 312.364 64.744 312.788 64.912C313.22 65.072 313.7 65.152 314.228 65.152C314.732 65.152 315.168 65.096 315.536 64.984C315.904 64.864 316.224 64.736 316.496 64.6C316.768 64.456 317 64.328 317.192 64.216C317.384 64.096 317.56 64.036 317.72 64.036C317.928 64.036 318.088 64.116 318.2 64.276L318.932 65.224C318.628 65.584 318.284 65.888 317.9 66.136C317.516 66.384 317.108 66.588 316.676 66.748C316.244 66.9 315.8 67.008 315.344 67.072C314.888 67.144 314.444 67.18 314.012 67.18C313.164 67.18 312.376 67.04 311.648 66.76C310.928 66.472 310.3 66.052 309.764 65.5C309.236 64.948 308.82 64.264 308.516 63.448C308.22 62.632 308.072 61.692 308.072 60.628C308.072 59.78 308.204 58.988 308.468 58.252C308.74 57.516 309.124 56.876 309.62 56.332C310.124 55.788 310.732 55.36 311.444 55.048C312.164 54.728 312.976 54.568 313.88 54.568C314.632 54.568 315.328 54.692 315.968 54.94C316.608 55.18 317.16 55.536 317.624 56.008C318.088 56.48 318.448 57.06 318.704 57.748C318.968 58.428 319.1 59.204 319.1 60.076C319.1 60.476 319.056 60.744 318.968 60.88C318.88 61.016 318.72 61.084 318.488 61.084H310.628ZM131.801 96.192C130.785 96.192 130.001 95.908 129.449 95.34C128.905 94.764 128.633 93.956 128.633 92.916V85.788H127.289C127.145 85.788 127.021 85.744 126.917 85.656C126.813 85.56 126.761 85.42 126.761 85.236V84.192L128.741 83.904L129.305 80.364C129.345 80.228 129.413 80.12 129.509 80.04C129.605 79.952 129.733 79.908 129.893 79.908H131.213V83.928H134.609V85.788H131.213V92.736C131.213 93.176 131.321 93.512 131.537 93.744C131.753 93.976 132.041 94.092 132.401 94.092C132.601 94.092 132.773 94.068 132.917 94.02C133.061 93.964 133.185 93.908 133.289 93.852C133.393 93.788 133.481 93.732 133.553 93.684C133.633 93.628 133.709 93.6 133.781 93.6C133.925 93.6 134.041 93.68 134.129 93.84L134.897 95.1C134.497 95.452 134.025 95.724 133.481 95.916C132.937 96.1 132.377 96.192 131.801 96.192ZM137.722 85.212C138.226 84.716 138.778 84.32 139.378 84.024C139.978 83.72 140.678 83.568 141.478 83.568C142.15 83.568 142.738 83.68 143.242 83.904C143.754 84.128 144.182 84.444 144.526 84.852C144.878 85.26 145.142 85.752 145.318 86.328C145.494 86.896 145.582 87.524 145.582 88.212V96H143.014V88.212C143.014 87.388 142.822 86.748 142.438 86.292C142.062 85.836 141.486 85.608 140.71 85.608C140.134 85.608 139.598 85.74 139.102 86.004C138.614 86.268 138.154 86.628 137.722 87.084V96H135.142V78.24H137.722V85.212ZM155.123 88.5C155.123 88.068 155.059 87.668 154.931 87.3C154.811 86.924 154.631 86.6 154.391 86.328C154.151 86.048 153.851 85.832 153.491 85.68C153.139 85.52 152.731 85.44 152.267 85.44C151.331 85.44 150.595 85.708 150.059 86.244C149.523 86.78 149.183 87.532 149.039 88.5H155.123ZM148.967 90.084C148.999 90.78 149.107 91.384 149.291 91.896C149.475 92.4 149.719 92.82 150.023 93.156C150.335 93.492 150.703 93.744 151.127 93.912C151.559 94.072 152.039 94.152 152.567 94.152C153.071 94.152 153.507 94.096 153.875 93.984C154.243 93.864 154.563 93.736 154.835 93.6C155.107 93.456 155.339 93.328 155.531 93.216C155.723 93.096 155.899 93.036 156.059 93.036C156.267 93.036 156.427 93.116 156.539 93.276L157.271 94.224C156.967 94.584 156.623 94.888 156.239 95.136C155.855 95.384 155.447 95.588 155.015 95.748C154.583 95.9 154.139 96.008 153.683 96.072C153.227 96.144 152.783 96.18 152.351 96.18C151.503 96.18 150.715 96.04 149.987 95.76C149.267 95.472 148.639 95.052 148.103 94.5C147.575 93.948 147.159 93.264 146.855 92.448C146.559 91.632 146.411 90.692 146.411 89.628C146.411 88.78 146.543 87.988 146.807 87.252C147.079 86.516 147.463 85.876 147.959 85.332C148.463 84.788 149.071 84.36 149.783 84.048C150.503 83.728 151.315 83.568 152.219 83.568C152.971 83.568 153.667 83.692 154.307 83.94C154.947 84.18 155.499 84.536 155.963 85.008C156.427 85.48 156.787 86.06 157.043 86.748C157.307 87.428 157.439 88.204 157.439 89.076C157.439 89.476 157.395 89.744 157.307 89.88C157.219 90.016 157.059 90.084 156.827 90.084H148.967ZM170.634 86.772C170.274 86.308 169.878 85.984 169.446 85.8C169.014 85.616 168.546 85.524 168.042 85.524C167.034 85.524 166.246 85.896 165.678 86.64C165.11 87.376 164.826 88.468 164.826 89.916C164.826 90.668 164.89 91.312 165.018 91.848C165.146 92.376 165.33 92.808 165.57 93.144C165.81 93.48 166.102 93.724 166.446 93.876C166.79 94.028 167.178 94.104 167.61 94.104C168.266 94.104 168.83 93.964 169.302 93.684C169.782 93.396 170.226 92.992 170.634 92.472V86.772ZM173.214 78.24V96H171.654C171.31 96 171.09 95.836 170.994 95.508L170.766 94.176C170.254 94.776 169.67 95.26 169.014 95.628C168.366 95.996 167.61 96.18 166.746 96.18C166.058 96.18 165.434 96.044 164.874 95.772C164.314 95.492 163.834 95.088 163.434 94.56C163.034 94.032 162.722 93.38 162.498 92.604C162.282 91.82 162.174 90.924 162.174 89.916C162.174 89.004 162.294 88.16 162.534 87.384C162.782 86.608 163.134 85.936 163.59 85.368C164.046 84.792 164.598 84.344 165.246 84.024C165.902 83.696 166.634 83.532 167.442 83.532C168.162 83.532 168.774 83.648 169.278 83.88C169.782 84.104 170.234 84.42 170.634 84.828V78.24H173.214ZM180.161 83.568C181.065 83.568 181.881 83.716 182.609 84.012C183.345 84.308 183.969 84.728 184.481 85.272C185.001 85.816 185.401 86.476 185.681 87.252C185.961 88.028 186.101 88.9 186.101 89.868C186.101 90.836 185.961 91.708 185.681 92.484C185.401 93.26 185.001 93.924 184.481 94.476C183.969 95.02 183.345 95.44 182.609 95.736C181.881 96.032 181.065 96.18 180.161 96.18C179.249 96.18 178.425 96.032 177.689 95.736C176.961 95.44 176.337 95.02 175.817 94.476C175.297 93.924 174.897 93.26 174.617 92.484C174.337 91.708 174.197 90.836 174.197 89.868C174.197 88.9 174.337 88.028 174.617 87.252C174.897 86.476 175.297 85.816 175.817 85.272C176.337 84.728 176.961 84.308 177.689 84.012C178.425 83.716 179.249 83.568 180.161 83.568ZM180.161 94.164C181.265 94.164 182.085 93.796 182.621 93.06C183.165 92.316 183.437 91.256 183.437 89.88C183.437 88.504 183.165 87.444 182.621 86.7C182.085 85.948 181.265 85.572 180.161 85.572C179.041 85.572 178.209 85.948 177.665 86.7C177.121 87.444 176.849 88.504 176.849 89.88C176.849 91.256 177.121 92.316 177.665 93.06C178.209 93.796 179.041 94.164 180.161 94.164ZM189.492 85.38C189.756 85.108 190.028 84.864 190.308 84.648C190.596 84.424 190.9 84.232 191.22 84.072C191.54 83.912 191.88 83.788 192.24 83.7C192.6 83.612 192.992 83.568 193.416 83.568C194.088 83.568 194.676 83.68 195.18 83.904C195.692 84.128 196.12 84.444 196.464 84.852C196.816 85.26 197.08 85.752 197.256 86.328C197.432 86.896 197.52 87.524 197.52 88.212V96H194.952V88.212C194.952 87.388 194.76 86.748 194.376 86.292C194 85.836 193.424 85.608 192.648 85.608C192.072 85.608 191.536 85.74 191.04 86.004C190.552 86.268 190.092 86.628 189.66 87.084V96H187.08V83.76H188.64C188.992 83.76 189.216 83.924 189.312 84.252L189.492 85.38ZM204.325 83.568C205.229 83.568 206.045 83.716 206.773 84.012C207.509 84.308 208.133 84.728 208.645 85.272C209.165 85.816 209.565 86.476 209.845 87.252C210.125 88.028 210.265 88.9 210.265 89.868C210.265 90.836 210.125 91.708 209.845 92.484C209.565 93.26 209.165 93.924 208.645 94.476C208.133 95.02 207.509 95.44 206.773 95.736C206.045 96.032 205.229 96.18 204.325 96.18C203.413 96.18 202.589 96.032 201.853 95.736C201.125 95.44 200.501 95.02 199.981 94.476C199.461 93.924 199.061 93.26 198.781 92.484C198.501 91.708 198.361 90.836 198.361 89.868C198.361 88.9 198.501 88.028 198.781 87.252C199.061 86.476 199.461 85.816 199.981 85.272C200.501 84.728 201.125 84.308 201.853 84.012C202.589 83.716 203.413 83.568 204.325 83.568ZM204.325 94.164C205.429 94.164 206.249 93.796 206.785 93.06C207.329 92.316 207.601 91.256 207.601 89.88C207.601 88.504 207.329 87.444 206.785 86.7C206.249 85.948 205.429 85.572 204.325 85.572C203.205 85.572 202.373 85.948 201.829 86.7C201.285 87.444 201.013 88.504 201.013 89.88C201.013 91.256 201.285 92.316 201.829 93.06C202.373 93.796 203.205 94.164 204.325 94.164ZM213.68 86.028C214.064 85.252 214.528 84.644 215.072 84.204C215.616 83.756 216.268 83.532 217.028 83.532C217.292 83.532 217.54 83.564 217.772 83.628C218.004 83.684 218.212 83.772 218.396 83.892L218.216 85.836C218.184 85.972 218.132 86.068 218.06 86.124C217.996 86.172 217.908 86.196 217.796 86.196C217.676 86.196 217.504 86.176 217.28 86.136C217.056 86.088 216.82 86.064 216.572 86.064C216.212 86.064 215.892 86.116 215.612 86.22C215.34 86.324 215.092 86.476 214.868 86.676C214.652 86.876 214.46 87.12 214.292 87.408C214.124 87.696 213.968 88.024 213.824 88.392V96H211.244V83.76H212.744C213.016 83.76 213.204 83.812 213.308 83.916C213.412 84.012 213.484 84.184 213.524 84.432L213.68 86.028ZM230.592 88.5C230.592 88.068 230.528 87.668 230.4 87.3C230.28 86.924 230.1 86.6 229.86 86.328C229.62 86.048 229.32 85.832 228.96 85.68C228.608 85.52 228.2 85.44 227.736 85.44C226.8 85.44 226.064 85.708 225.528 86.244C224.992 86.78 224.652 87.532 224.508 88.5H230.592ZM224.436 90.084C224.468 90.78 224.576 91.384 224.76 91.896C224.944 92.4 225.188 92.82 225.492 93.156C225.804 93.492 226.172 93.744 226.596 93.912C227.028 94.072 227.508 94.152 228.036 94.152C228.54 94.152 228.976 94.096 229.344 93.984C229.712 93.864 230.032 93.736 230.304 93.6C230.576 93.456 230.808 93.328 231 93.216C231.192 93.096 231.368 93.036 231.528 93.036C231.736 93.036 231.896 93.116 232.008 93.276L232.74 94.224C232.436 94.584 232.092 94.888 231.708 95.136C231.324 95.384 230.916 95.588 230.484 95.748C230.052 95.9 229.608 96.008 229.152 96.072C228.696 96.144 228.252 96.18 227.82 96.18C226.972 96.18 226.184 96.04 225.456 95.76C224.736 95.472 224.108 95.052 223.572 94.5C223.044 93.948 222.628 93.264 222.324 92.448C222.028 91.632 221.88 90.692 221.88 89.628C221.88 88.78 222.012 87.988 222.276 87.252C222.548 86.516 222.932 85.876 223.428 85.332C223.932 84.788 224.54 84.36 225.252 84.048C225.972 83.728 226.784 83.568 227.688 83.568C228.44 83.568 229.136 83.692 229.776 83.94C230.416 84.18 230.968 84.536 231.432 85.008C231.896 85.48 232.256 86.06 232.512 86.748C232.776 87.428 232.908 88.204 232.908 89.076C232.908 89.476 232.864 89.744 232.776 89.88C232.688 90.016 232.528 90.084 232.296 90.084H224.436ZM244.162 96H241.69C241.49 96 241.33 95.948 241.21 95.844C241.098 95.74 241.006 95.624 240.934 95.496L238.114 90.972C238.042 91.244 237.946 91.48 237.826 91.68L235.27 95.496C235.182 95.624 235.082 95.74 234.97 95.844C234.866 95.948 234.726 96 234.55 96H232.246L236.482 89.688L232.414 83.76H234.886C235.086 83.76 235.23 83.792 235.318 83.856C235.414 83.912 235.498 84 235.57 84.12L238.342 88.44C238.414 88.176 238.526 87.924 238.678 87.684L241.018 84.168C241.178 83.896 241.382 83.76 241.63 83.76H243.994L239.926 89.58L244.162 96ZM246.988 92.928C247.348 93.392 247.74 93.72 248.164 93.912C248.596 94.096 249.072 94.188 249.592 94.188C250.6 94.188 251.384 93.82 251.944 93.084C252.512 92.348 252.796 91.252 252.796 89.796C252.796 89.044 252.732 88.404 252.604 87.876C252.476 87.34 252.292 86.904 252.052 86.568C251.812 86.232 251.52 85.988 251.176 85.836C250.832 85.684 250.444 85.608 250.012 85.608C249.356 85.608 248.788 85.752 248.308 86.04C247.836 86.32 247.396 86.724 246.988 87.252V92.928ZM246.856 85.536C247.368 84.936 247.948 84.452 248.596 84.084C249.252 83.716 250.012 83.532 250.876 83.532C251.564 83.532 252.188 83.672 252.748 83.952C253.308 84.224 253.788 84.624 254.188 85.152C254.588 85.68 254.896 86.336 255.112 87.12C255.336 87.896 255.448 88.788 255.448 89.796C255.448 90.7 255.324 91.544 255.076 92.328C254.836 93.104 254.488 93.78 254.032 94.356C253.576 94.924 253.024 95.372 252.376 95.7C251.728 96.02 250.996 96.18 250.18 96.18C249.46 96.18 248.848 96.064 248.344 95.832C247.848 95.6 247.396 95.28 246.988 94.872V100.068H244.408V83.76H245.968C246.32 83.76 246.544 83.924 246.64 84.252L246.856 85.536ZM264.483 88.5C264.483 88.068 264.419 87.668 264.291 87.3C264.171 86.924 263.991 86.6 263.751 86.328C263.511 86.048 263.211 85.832 262.851 85.68C262.499 85.52 262.091 85.44 261.627 85.44C260.691 85.44 259.955 85.708 259.419 86.244C258.883 86.78 258.543 87.532 258.399 88.5H264.483ZM258.327 90.084C258.359 90.78 258.467 91.384 258.651 91.896C258.835 92.4 259.079 92.82 259.383 93.156C259.695 93.492 260.063 93.744 260.487 93.912C260.919 94.072 261.399 94.152 261.927 94.152C262.431 94.152 262.867 94.096 263.235 93.984C263.603 93.864 263.923 93.736 264.195 93.6C264.467 93.456 264.699 93.328 264.891 93.216C265.083 93.096 265.259 93.036 265.419 93.036C265.627 93.036 265.787 93.116 265.899 93.276L266.631 94.224C266.327 94.584 265.983 94.888 265.599 95.136C265.215 95.384 264.807 95.588 264.375 95.748C263.943 95.9 263.499 96.008 263.043 96.072C262.587 96.144 262.143 96.18 261.711 96.18C260.863 96.18 260.075 96.04 259.347 95.76C258.627 95.472 257.999 95.052 257.463 94.5C256.935 93.948 256.519 93.264 256.215 92.448C255.919 91.632 255.771 90.692 255.771 89.628C255.771 88.78 255.903 87.988 256.167 87.252C256.439 86.516 256.823 85.876 257.319 85.332C257.823 84.788 258.431 84.36 259.143 84.048C259.863 83.728 260.675 83.568 261.579 83.568C262.331 83.568 263.027 83.692 263.667 83.94C264.307 84.18 264.859 84.536 265.323 85.008C265.787 85.48 266.147 86.06 266.403 86.748C266.667 87.428 266.799 88.204 266.799 89.076C266.799 89.476 266.755 89.744 266.667 89.88C266.579 90.016 266.419 90.084 266.187 90.084H258.327ZM270.141 86.028C270.525 85.252 270.989 84.644 271.533 84.204C272.077 83.756 272.729 83.532 273.489 83.532C273.753 83.532 274.001 83.564 274.233 83.628C274.465 83.684 274.673 83.772 274.857 83.892L274.677 85.836C274.645 85.972 274.593 86.068 274.521 86.124C274.457 86.172 274.369 86.196 274.257 86.196C274.137 86.196 273.965 86.176 273.741 86.136C273.517 86.088 273.281 86.064 273.033 86.064C272.673 86.064 272.353 86.116 272.073 86.22C271.801 86.324 271.553 86.476 271.329 86.676C271.113 86.876 270.921 87.12 270.753 87.408C270.585 87.696 270.429 88.024 270.285 88.392V96H267.705V83.76H269.205C269.477 83.76 269.665 83.812 269.769 83.916C269.873 84.012 269.945 84.184 269.985 84.432L270.141 86.028ZM277.752 83.76V96H275.172V83.76H277.752ZM278.184 80.064C278.184 80.296 278.136 80.516 278.04 80.724C277.952 80.932 277.828 81.116 277.668 81.276C277.508 81.428 277.32 81.552 277.104 81.648C276.896 81.736 276.672 81.78 276.432 81.78C276.2 81.78 275.98 81.736 275.772 81.648C275.572 81.552 275.396 81.428 275.244 81.276C275.092 81.116 274.968 80.932 274.872 80.724C274.784 80.516 274.74 80.296 274.74 80.064C274.74 79.824 274.784 79.6 274.872 79.392C274.968 79.184 275.092 79.004 275.244 78.852C275.396 78.692 275.572 78.568 275.772 78.48C275.98 78.384 276.2 78.336 276.432 78.336C276.672 78.336 276.896 78.384 277.104 78.48C277.32 78.568 277.508 78.692 277.668 78.852C277.828 79.004 277.952 79.184 278.04 79.392C278.136 79.6 278.184 79.824 278.184 80.064ZM287.522 88.5C287.522 88.068 287.458 87.668 287.33 87.3C287.21 86.924 287.03 86.6 286.79 86.328C286.55 86.048 286.25 85.832 285.89 85.68C285.538 85.52 285.13 85.44 284.666 85.44C283.73 85.44 282.994 85.708 282.458 86.244C281.922 86.78 281.582 87.532 281.438 88.5H287.522ZM281.366 90.084C281.398 90.78 281.506 91.384 281.69 91.896C281.874 92.4 282.118 92.82 282.422 93.156C282.734 93.492 283.102 93.744 283.526 93.912C283.958 94.072 284.438 94.152 284.966 94.152C285.47 94.152 285.906 94.096 286.274 93.984C286.642 93.864 286.962 93.736 287.234 93.6C287.506 93.456 287.738 93.328 287.93 93.216C288.122 93.096 288.298 93.036 288.458 93.036C288.666 93.036 288.826 93.116 288.938 93.276L289.67 94.224C289.366 94.584 289.022 94.888 288.638 95.136C288.254 95.384 287.846 95.588 287.414 95.748C286.982 95.9 286.538 96.008 286.082 96.072C285.626 96.144 285.182 96.18 284.75 96.18C283.902 96.18 283.114 96.04 282.386 95.76C281.666 95.472 281.038 95.052 280.502 94.5C279.974 93.948 279.558 93.264 279.254 92.448C278.958 91.632 278.81 90.692 278.81 89.628C278.81 88.78 278.942 87.988 279.206 87.252C279.478 86.516 279.862 85.876 280.358 85.332C280.862 84.788 281.47 84.36 282.182 84.048C282.902 83.728 283.714 83.568 284.618 83.568C285.37 83.568 286.066 83.692 286.706 83.94C287.346 84.18 287.898 84.536 288.362 85.008C288.826 85.48 289.186 86.06 289.442 86.748C289.706 87.428 289.838 88.204 289.838 89.076C289.838 89.476 289.794 89.744 289.706 89.88C289.618 90.016 289.458 90.084 289.226 90.084H281.366ZM293.156 85.38C293.42 85.108 293.692 84.864 293.972 84.648C294.26 84.424 294.564 84.232 294.884 84.072C295.204 83.912 295.544 83.788 295.904 83.7C296.264 83.612 296.656 83.568 297.08 83.568C297.752 83.568 298.34 83.68 298.844 83.904C299.356 84.128 299.784 84.444 300.128 84.852C300.48 85.26 300.744 85.752 300.92 86.328C301.096 86.896 301.184 87.524 301.184 88.212V96H298.616V88.212C298.616 87.388 298.424 86.748 298.04 86.292C297.664 85.836 297.088 85.608 296.312 85.608C295.736 85.608 295.2 85.74 294.704 86.004C294.216 86.268 293.756 86.628 293.324 87.084V96H290.744V83.76H292.304C292.656 83.76 292.88 83.924 292.976 84.252L293.156 85.38ZM311.349 86.16C311.269 86.264 311.193 86.344 311.121 86.4C311.049 86.456 310.945 86.484 310.809 86.484C310.673 86.484 310.529 86.436 310.377 86.34C310.233 86.244 310.057 86.14 309.849 86.028C309.649 85.908 309.405 85.8 309.117 85.704C308.829 85.608 308.469 85.56 308.037 85.56C307.477 85.56 306.985 85.66 306.561 85.86C306.145 86.06 305.793 86.348 305.505 86.724C305.225 87.092 305.013 87.544 304.869 88.08C304.733 88.608 304.665 89.204 304.665 89.868C304.665 90.556 304.741 91.168 304.893 91.704C305.045 92.24 305.261 92.692 305.541 93.06C305.829 93.428 306.173 93.708 306.573 93.9C306.981 94.092 307.437 94.188 307.941 94.188C308.437 94.188 308.841 94.128 309.153 94.008C309.465 93.888 309.725 93.756 309.933 93.612C310.141 93.468 310.317 93.336 310.461 93.216C310.613 93.096 310.773 93.036 310.941 93.036C311.149 93.036 311.309 93.116 311.421 93.276L312.153 94.224C311.857 94.584 311.529 94.888 311.169 95.136C310.809 95.384 310.429 95.588 310.029 95.748C309.629 95.9 309.213 96.008 308.781 96.072C308.349 96.144 307.913 96.18 307.473 96.18C306.713 96.18 306.001 96.04 305.337 95.76C304.681 95.472 304.105 95.06 303.609 94.524C303.121 93.98 302.733 93.32 302.445 92.544C302.165 91.76 302.025 90.868 302.025 89.868C302.025 88.964 302.153 88.128 302.409 87.36C302.665 86.584 303.037 85.916 303.525 85.356C304.021 84.796 304.633 84.36 305.361 84.048C306.089 83.728 306.929 83.568 307.881 83.568C308.769 83.568 309.549 83.712 310.221 84C310.901 84.288 311.505 84.696 312.033 85.224L311.349 86.16ZM320.545 88.5C320.545 88.068 320.481 87.668 320.353 87.3C320.233 86.924 320.053 86.6 319.813 86.328C319.573 86.048 319.273 85.832 318.913 85.68C318.561 85.52 318.153 85.44 317.689 85.44C316.753 85.44 316.017 85.708 315.481 86.244C314.945 86.78 314.605 87.532 314.461 88.5H320.545ZM314.389 90.084C314.421 90.78 314.529 91.384 314.713 91.896C314.897 92.4 315.141 92.82 315.445 93.156C315.757 93.492 316.125 93.744 316.549 93.912C316.981 94.072 317.461 94.152 317.989 94.152C318.493 94.152 318.929 94.096 319.297 93.984C319.665 93.864 319.985 93.736 320.257 93.6C320.529 93.456 320.761 93.328 320.953 93.216C321.145 93.096 321.321 93.036 321.481 93.036C321.689 93.036 321.849 93.116 321.961 93.276L322.693 94.224C322.389 94.584 322.045 94.888 321.661 95.136C321.277 95.384 320.869 95.588 320.437 95.748C320.005 95.9 319.561 96.008 319.105 96.072C318.649 96.144 318.205 96.18 317.773 96.18C316.925 96.18 316.137 96.04 315.409 95.76C314.689 95.472 314.061 95.052 313.525 94.5C312.997 93.948 312.581 93.264 312.277 92.448C311.981 91.632 311.833 90.692 311.833 89.628C311.833 88.78 311.965 87.988 312.229 87.252C312.501 86.516 312.885 85.876 313.381 85.332C313.885 84.788 314.493 84.36 315.205 84.048C315.925 83.728 316.737 83.568 317.641 83.568C318.393 83.568 319.089 83.692 319.729 83.94C320.369 84.18 320.921 84.536 321.385 85.008C321.849 85.48 322.209 86.06 322.465 86.748C322.729 87.428 322.861 88.204 322.861 89.076C322.861 89.476 322.817 89.744 322.729 89.88C322.641 90.016 322.481 90.084 322.249 90.084H314.389Z" fill="white"/>
<path d="M651.012 45.94C651.532 45.94 651.989 45.8733 652.382 45.74C652.782 45.6067 653.112 45.42 653.372 45.18C653.639 44.9333 653.839 44.6367 653.972 44.29C654.106 43.9433 654.172 43.5567 654.172 43.13C654.172 42.71 654.106 42.3333 653.972 42C653.846 41.6667 653.652 41.3833 653.392 41.15C653.132 40.9167 652.802 40.74 652.402 40.62C652.009 40.4933 651.546 40.43 651.012 40.43H648.872V45.94H651.012ZM651.012 38.6C651.952 38.6 652.766 38.71 653.452 38.93C654.146 39.15 654.716 39.46 655.162 39.86C655.616 40.2533 655.952 40.73 656.172 41.29C656.392 41.8433 656.502 42.4567 656.502 43.13C656.502 43.8167 656.386 44.4467 656.152 45.02C655.919 45.5867 655.572 46.0767 655.112 46.49C654.652 46.8967 654.079 47.2167 653.392 47.45C652.712 47.6767 651.919 47.79 651.012 47.79H648.872V53H646.532V38.6H651.012ZM658.931 44.01C659.351 43.5967 659.811 43.2667 660.311 43.02C660.811 42.7667 661.394 42.64 662.061 42.64C662.621 42.64 663.111 42.7333 663.531 42.92C663.957 43.1067 664.314 43.37 664.601 43.71C664.894 44.05 665.114 44.46 665.261 44.94C665.407 45.4133 665.481 45.9367 665.481 46.51V53H663.341V46.51C663.341 45.8233 663.181 45.29 662.861 44.91C662.547 44.53 662.067 44.34 661.421 44.34C660.941 44.34 660.494 44.45 660.081 44.67C659.674 44.89 659.291 45.19 658.931 45.57V53H656.781V38.2H658.931V44.01ZM671.942 48.54C671.175 48.5667 670.528 48.63 670.002 48.73C669.475 48.8233 669.048 48.9467 668.722 49.1C668.395 49.2467 668.158 49.4233 668.012 49.63C667.872 49.8367 667.802 50.0633 667.802 50.31C667.802 50.55 667.838 50.7567 667.912 50.93C667.992 51.0967 668.098 51.2367 668.232 51.35C668.372 51.4567 668.532 51.5367 668.712 51.59C668.898 51.6367 669.102 51.66 669.322 51.66C669.882 51.66 670.362 51.5567 670.762 51.35C671.168 51.1367 671.562 50.83 671.942 50.43V48.54ZM666.242 44.22C667.395 43.1467 668.768 42.61 670.362 42.61C670.948 42.61 671.468 42.7067 671.922 42.9C672.382 43.0867 672.765 43.3533 673.072 43.7C673.385 44.0467 673.622 44.46 673.782 44.94C673.948 45.4133 674.032 45.94 674.032 46.52V53H673.072C672.865 53 672.708 52.97 672.602 52.91C672.495 52.8433 672.405 52.7133 672.332 52.52L672.122 51.69C671.862 51.9233 671.605 52.1333 671.352 52.32C671.098 52.5 670.835 52.6533 670.562 52.78C670.295 52.9067 670.005 53 669.692 53.06C669.385 53.1267 669.045 53.16 668.672 53.16C668.258 53.16 667.872 53.1033 667.512 52.99C667.158 52.8767 666.852 52.7067 666.592 52.48C666.332 52.2467 666.125 51.96 665.972 51.62C665.825 51.28 665.752 50.88 665.752 50.42C665.752 50.0267 665.855 49.6433 666.062 49.27C666.275 48.8967 666.622 48.5633 667.102 48.27C667.588 47.97 668.225 47.7233 669.012 47.53C669.805 47.3367 670.782 47.2267 671.942 47.2V46.52C671.942 45.7867 671.785 45.24 671.472 44.88C671.158 44.52 670.698 44.34 670.092 44.34C669.678 44.34 669.332 44.3933 669.052 44.5C668.772 44.6 668.528 44.71 668.322 44.83C668.115 44.95 667.932 45.0633 667.772 45.17C667.612 45.27 667.442 45.32 667.262 45.32C667.115 45.32 666.988 45.2833 666.882 45.21C666.782 45.13 666.698 45.0333 666.632 44.92L666.242 44.22ZM681.14 44.65C681.087 44.7433 681.027 44.81 680.96 44.85C680.894 44.89 680.81 44.91 680.71 44.91C680.597 44.91 680.474 44.8767 680.34 44.81C680.207 44.7367 680.05 44.6567 679.87 44.57C679.69 44.4833 679.477 44.4067 679.23 44.34C678.99 44.2667 678.707 44.23 678.38 44.23C678.114 44.23 677.87 44.2633 677.65 44.33C677.437 44.39 677.254 44.48 677.1 44.6C676.954 44.7133 676.84 44.85 676.76 45.01C676.68 45.1633 676.64 45.33 676.64 45.51C676.64 45.75 676.714 45.95 676.86 46.11C677.007 46.27 677.2 46.41 677.44 46.53C677.68 46.6433 677.954 46.7467 678.26 46.84C678.567 46.9333 678.88 47.0333 679.2 47.14C679.52 47.2467 679.834 47.37 680.14 47.51C680.447 47.65 680.72 47.8233 680.96 48.03C681.2 48.23 681.394 48.4767 681.54 48.77C681.687 49.0567 681.76 49.4067 681.76 49.82C681.76 50.3 681.674 50.7433 681.5 51.15C681.327 51.5567 681.074 51.91 680.74 52.21C680.407 52.51 679.99 52.7433 679.49 52.91C678.997 53.0767 678.43 53.16 677.79 53.16C677.437 53.16 677.094 53.1267 676.76 53.06C676.434 53 676.12 52.9167 675.82 52.81C675.527 52.6967 675.25 52.5633 674.99 52.41C674.737 52.2567 674.51 52.09 674.31 51.91L674.81 51.09C674.87 50.99 674.944 50.9133 675.03 50.86C675.124 50.8 675.237 50.77 675.37 50.77C675.51 50.77 675.647 50.8167 675.78 50.91C675.92 50.9967 676.08 51.0933 676.26 51.2C676.447 51.3067 676.67 51.4067 676.93 51.5C677.19 51.5867 677.514 51.63 677.9 51.63C678.22 51.63 678.497 51.5933 678.73 51.52C678.964 51.44 679.157 51.3333 679.31 51.2C679.464 51.0667 679.577 50.9167 679.65 50.75C679.724 50.5767 679.76 50.3933 679.76 50.2C679.76 49.94 679.687 49.7267 679.54 49.56C679.394 49.3933 679.197 49.25 678.95 49.13C678.71 49.01 678.434 48.9033 678.12 48.81C677.814 48.7167 677.5 48.6167 677.18 48.51C676.86 48.4033 676.544 48.28 676.23 48.14C675.924 48 675.647 47.8233 675.4 47.61C675.16 47.39 674.967 47.1267 674.82 46.82C674.674 46.5067 674.6 46.1267 674.6 45.68C674.6 45.2733 674.68 44.8867 674.84 44.52C675.007 44.1533 675.247 43.83 675.56 43.55C675.88 43.27 676.27 43.05 676.73 42.89C677.197 42.7233 677.734 42.64 678.34 42.64C679.027 42.64 679.65 42.75 680.21 42.97C680.77 43.19 681.24 43.49 681.62 43.87L681.14 44.65ZM688.971 46.75C688.971 46.39 688.917 46.0567 688.811 45.75C688.711 45.4367 688.561 45.1667 688.361 44.94C688.161 44.7067 687.911 44.5267 687.611 44.4C687.317 44.2667 686.977 44.2 686.591 44.2C685.811 44.2 685.197 44.4233 684.751 44.87C684.304 45.3167 684.021 45.9433 683.901 46.75H688.971ZM683.841 48.07C683.867 48.65 683.957 49.1533 684.111 49.58C684.264 50 684.467 50.35 684.721 50.63C684.981 50.91 685.287 51.12 685.641 51.26C686.001 51.3933 686.401 51.46 686.841 51.46C687.261 51.46 687.624 51.4133 687.931 51.32C688.237 51.22 688.504 51.1133 688.731 51C688.957 50.88 689.151 50.7733 689.311 50.68C689.471 50.58 689.617 50.53 689.751 50.53C689.924 50.53 690.057 50.5967 690.151 50.73L690.761 51.52C690.507 51.82 690.221 52.0733 689.901 52.28C689.581 52.4867 689.241 52.6567 688.881 52.79C688.521 52.9167 688.151 53.0067 687.771 53.06C687.391 53.12 687.021 53.15 686.661 53.15C685.954 53.15 685.297 53.0333 684.691 52.8C684.091 52.56 683.567 52.21 683.121 51.75C682.681 51.29 682.334 50.72 682.081 50.04C681.834 49.36 681.711 48.5767 681.711 47.69C681.711 46.9833 681.821 46.3233 682.041 45.71C682.267 45.0967 682.587 44.5633 683.001 44.11C683.421 43.6567 683.927 43.3 684.521 43.04C685.121 42.7733 685.797 42.64 686.551 42.64C687.177 42.64 687.757 42.7433 688.291 42.95C688.824 43.15 689.284 43.4467 689.671 43.84C690.057 44.2333 690.357 44.7167 690.571 45.29C690.791 45.8567 690.901 46.5033 690.901 47.23C690.901 47.5633 690.864 47.7867 690.791 47.9C690.717 48.0133 690.584 48.07 690.391 48.07H683.841ZM703.416 50.97C703.65 50.97 703.833 51.04 703.966 51.18C704.1 51.3133 704.166 51.4867 704.166 51.7V53H694.426V52.27C694.426 52.1233 694.456 51.97 694.516 51.81C694.576 51.65 694.673 51.5033 694.806 51.37L699.286 46.88C699.666 46.5 700.003 46.1367 700.296 45.79C700.596 45.4433 700.85 45.0967 701.056 44.75C701.27 44.4033 701.43 44.0533 701.536 43.7C701.65 43.34 701.706 42.9633 701.706 42.57C701.706 42.19 701.646 41.8567 701.526 41.57C701.413 41.2767 701.253 41.0367 701.046 40.85C700.846 40.6567 700.603 40.5133 700.316 40.42C700.036 40.32 699.726 40.27 699.386 40.27C699.06 40.27 698.756 40.3167 698.476 40.41C698.203 40.5033 697.956 40.6333 697.736 40.8C697.523 40.9667 697.343 41.1667 697.196 41.4C697.056 41.6267 696.953 41.8767 696.886 42.15C696.786 42.4233 696.656 42.6067 696.496 42.7C696.343 42.7933 696.116 42.8133 695.816 42.76L694.686 42.56C694.786 41.88 694.973 41.2833 695.246 40.77C695.526 40.2567 695.876 39.83 696.296 39.49C696.716 39.1433 697.196 38.8833 697.736 38.71C698.283 38.53 698.873 38.44 699.506 38.44C700.146 38.44 700.733 38.5367 701.266 38.73C701.806 38.9167 702.27 39.1867 702.656 39.54C703.05 39.8867 703.356 40.31 703.576 40.81C703.796 41.31 703.906 41.8733 703.906 42.5C703.906 43.0333 703.826 43.5267 703.666 43.98C703.513 44.4333 703.303 44.8667 703.036 45.28C702.77 45.6933 702.456 46.0967 702.096 46.49C701.743 46.8767 701.37 47.27 700.976 47.67L697.496 51.23C697.783 51.15 698.07 51.0867 698.356 51.04C698.65 50.9933 698.926 50.97 699.186 50.97H703.416ZM552.568 73.36C552.568 74.64 552.36 75.812 551.944 76.876C551.528 77.932 550.94 78.84 550.18 79.6C549.428 80.36 548.52 80.952 547.456 81.376C546.4 81.792 545.224 82 543.928 82H537.4V64.72H543.928C545.224 64.72 546.4 64.932 547.456 65.356C548.52 65.772 549.428 66.36 550.18 67.12C550.94 67.88 551.528 68.792 551.944 69.856C552.36 70.912 552.568 72.08 552.568 73.36ZM549.7 73.36C549.7 72.368 549.564 71.476 549.292 70.684C549.028 69.892 548.644 69.224 548.14 68.68C547.644 68.136 547.04 67.72 546.328 67.432C545.616 67.136 544.816 66.988 543.928 66.988H540.22V79.732H543.928C544.816 79.732 545.616 79.588 546.328 79.3C547.04 79.012 547.644 78.596 548.14 78.052C548.644 77.5 549.028 76.832 549.292 76.048C549.564 75.256 549.7 74.36 549.7 73.36ZM561.541 74.5C561.541 74.068 561.477 73.668 561.349 73.3C561.229 72.924 561.049 72.6 560.809 72.328C560.569 72.048 560.269 71.832 559.909 71.68C559.557 71.52 559.149 71.44 558.685 71.44C557.749 71.44 557.013 71.708 556.477 72.244C555.941 72.78 555.601 73.532 555.457 74.5H561.541ZM555.385 76.084C555.417 76.78 555.525 77.384 555.709 77.896C555.893 78.4 556.137 78.82 556.441 79.156C556.753 79.492 557.121 79.744 557.545 79.912C557.977 80.072 558.457 80.152 558.985 80.152C559.489 80.152 559.925 80.096 560.293 79.984C560.661 79.864 560.981 79.736 561.253 79.6C561.525 79.456 561.757 79.328 561.949 79.216C562.141 79.096 562.317 79.036 562.477 79.036C562.685 79.036 562.845 79.116 562.957 79.276L563.689 80.224C563.385 80.584 563.041 80.888 562.657 81.136C562.273 81.384 561.865 81.588 561.433 81.748C561.001 81.9 560.557 82.008 560.101 82.072C559.645 82.144 559.201 82.18 558.769 82.18C557.921 82.18 557.133 82.04 556.405 81.76C555.685 81.472 555.057 81.052 554.521 80.5C553.993 79.948 553.577 79.264 553.273 78.448C552.977 77.632 552.829 76.692 552.829 75.628C552.829 74.78 552.961 73.988 553.225 73.252C553.497 72.516 553.881 71.876 554.377 71.332C554.881 70.788 555.489 70.36 556.201 70.048C556.921 69.728 557.733 69.568 558.637 69.568C559.389 69.568 560.085 69.692 560.725 69.94C561.365 70.18 561.917 70.536 562.381 71.008C562.845 71.48 563.205 72.06 563.461 72.748C563.725 73.428 563.857 74.204 563.857 75.076C563.857 75.476 563.813 75.744 563.725 75.88C563.637 76.016 563.477 76.084 563.245 76.084H555.385ZM572.071 71.98C572.007 72.092 571.935 72.172 571.855 72.22C571.775 72.268 571.675 72.292 571.555 72.292C571.419 72.292 571.271 72.252 571.111 72.172C570.951 72.084 570.763 71.988 570.547 71.884C570.331 71.78 570.075 71.688 569.779 71.608C569.491 71.52 569.151 71.476 568.759 71.476C568.439 71.476 568.147 71.516 567.883 71.596C567.627 71.668 567.407 71.776 567.223 71.92C567.047 72.056 566.911 72.22 566.815 72.412C566.719 72.596 566.671 72.796 566.671 73.012C566.671 73.3 566.759 73.54 566.935 73.732C567.111 73.924 567.343 74.092 567.631 74.236C567.919 74.372 568.247 74.496 568.615 74.608C568.983 74.72 569.359 74.84 569.743 74.968C570.127 75.096 570.503 75.244 570.871 75.412C571.239 75.58 571.567 75.788 571.855 76.036C572.143 76.276 572.375 76.572 572.551 76.924C572.727 77.268 572.815 77.688 572.815 78.184C572.815 78.76 572.711 79.292 572.503 79.78C572.295 80.268 571.991 80.692 571.591 81.052C571.191 81.412 570.691 81.692 570.091 81.892C569.499 82.092 568.819 82.192 568.051 82.192C567.627 82.192 567.215 82.152 566.815 82.072C566.423 82 566.047 81.9 565.687 81.772C565.335 81.636 565.003 81.476 564.691 81.292C564.387 81.108 564.115 80.908 563.875 80.692L564.475 79.708C564.547 79.588 564.635 79.496 564.739 79.432C564.851 79.36 564.987 79.324 565.147 79.324C565.315 79.324 565.479 79.38 565.639 79.492C565.807 79.596 565.999 79.712 566.215 79.84C566.439 79.968 566.707 80.088 567.019 80.2C567.331 80.304 567.719 80.356 568.183 80.356C568.567 80.356 568.899 80.312 569.179 80.224C569.459 80.128 569.691 80 569.875 79.84C570.059 79.68 570.195 79.5 570.283 79.3C570.371 79.092 570.415 78.872 570.415 78.64C570.415 78.328 570.327 78.072 570.151 77.872C569.975 77.672 569.739 77.5 569.443 77.356C569.155 77.212 568.823 77.084 568.447 76.972C568.079 76.86 567.703 76.74 567.319 76.612C566.935 76.484 566.555 76.336 566.179 76.168C565.811 76 565.479 75.788 565.183 75.532C564.895 75.268 564.663 74.952 564.487 74.584C564.311 74.208 564.223 73.752 564.223 73.216C564.223 72.728 564.319 72.264 564.511 71.824C564.711 71.384 564.999 70.996 565.375 70.66C565.759 70.324 566.227 70.06 566.779 69.868C567.339 69.668 567.983 69.568 568.711 69.568C569.535 69.568 570.283 69.7 570.955 69.964C571.627 70.228 572.191 70.588 572.647 71.044L572.071 71.98ZM576.428 69.76V82H573.848V69.76H576.428ZM576.86 66.064C576.86 66.296 576.812 66.516 576.716 66.724C576.628 66.932 576.504 67.116 576.344 67.276C576.184 67.428 575.996 67.552 575.78 67.648C575.572 67.736 575.348 67.78 575.108 67.78C574.876 67.78 574.656 67.736 574.448 67.648C574.248 67.552 574.072 67.428 573.92 67.276C573.768 67.116 573.644 66.932 573.548 66.724C573.46 66.516 573.416 66.296 573.416 66.064C573.416 65.824 573.46 65.6 573.548 65.392C573.644 65.184 573.768 65.004 573.92 64.852C574.072 64.692 574.248 64.568 574.448 64.48C574.656 64.384 574.876 64.336 575.108 64.336C575.348 64.336 575.572 64.384 575.78 64.48C575.996 64.568 576.184 64.692 576.344 64.852C576.504 65.004 576.628 65.184 576.716 65.392C576.812 65.6 576.86 65.824 576.86 66.064ZM582.538 75.772C583.338 75.772 583.938 75.568 584.338 75.16C584.738 74.752 584.938 74.22 584.938 73.564C584.938 72.892 584.738 72.36 584.338 71.968C583.938 71.576 583.338 71.38 582.538 71.38C581.746 71.38 581.146 71.576 580.738 71.968C580.338 72.36 580.138 72.892 580.138 73.564C580.138 73.884 580.19 74.18 580.294 74.452C580.398 74.724 580.55 74.96 580.75 75.16C580.95 75.352 581.198 75.504 581.494 75.616C581.798 75.72 582.146 75.772 582.538 75.772ZM586.126 82.6C586.126 82.328 586.046 82.112 585.886 81.952C585.734 81.784 585.526 81.656 585.262 81.568C584.998 81.472 584.69 81.404 584.338 81.364C583.986 81.316 583.61 81.284 583.21 81.268C582.818 81.244 582.414 81.224 581.998 81.208C581.59 81.184 581.194 81.144 580.81 81.088C580.426 81.288 580.11 81.528 579.862 81.808C579.622 82.088 579.502 82.412 579.502 82.78C579.502 83.02 579.562 83.244 579.682 83.452C579.81 83.66 580.002 83.84 580.258 83.992C580.522 84.144 580.854 84.264 581.254 84.352C581.662 84.44 582.15 84.484 582.718 84.484C583.854 84.484 584.706 84.308 585.274 83.956C585.842 83.604 586.126 83.152 586.126 82.6ZM588.718 70.204V71.164C588.718 71.484 588.526 71.68 588.142 71.752L586.918 71.956C587.126 72.42 587.23 72.936 587.23 73.504C587.23 74.104 587.11 74.648 586.87 75.136C586.638 75.624 586.314 76.04 585.898 76.384C585.482 76.728 584.986 76.992 584.41 77.176C583.834 77.36 583.21 77.452 582.538 77.452C582.282 77.452 582.03 77.44 581.782 77.416C581.542 77.384 581.306 77.344 581.074 77.296C580.842 77.432 580.67 77.576 580.558 77.728C580.446 77.88 580.39 78.036 580.39 78.196C580.39 78.46 580.506 78.656 580.738 78.784C580.97 78.912 581.274 79.004 581.65 79.06C582.034 79.116 582.47 79.152 582.958 79.168C583.446 79.184 583.942 79.212 584.446 79.252C584.95 79.292 585.446 79.36 585.934 79.456C586.422 79.544 586.854 79.696 587.23 79.912C587.614 80.12 587.922 80.404 588.154 80.764C588.386 81.124 588.502 81.592 588.502 82.168C588.502 82.696 588.37 83.212 588.106 83.716C587.842 84.22 587.458 84.668 586.954 85.06C586.458 85.452 585.85 85.764 585.13 85.996C584.41 86.236 583.59 86.356 582.67 86.356C581.758 86.356 580.962 86.268 580.282 86.092C579.61 85.916 579.046 85.676 578.59 85.372C578.142 85.076 577.806 84.732 577.582 84.34C577.366 83.948 577.258 83.54 577.258 83.116C577.258 82.54 577.438 82.048 577.798 81.64C578.166 81.232 578.662 80.912 579.286 80.68C578.95 80.52 578.678 80.3 578.47 80.02C578.27 79.74 578.17 79.372 578.17 78.916C578.17 78.556 578.302 78.18 578.566 77.788C578.83 77.396 579.226 77.064 579.754 76.792C579.146 76.456 578.666 76.012 578.314 75.46C577.962 74.9 577.786 74.248 577.786 73.504C577.786 72.896 577.902 72.348 578.134 71.86C578.374 71.372 578.706 70.956 579.13 70.612C579.554 70.268 580.054 70.004 580.63 69.82C581.214 69.636 581.85 69.544 582.538 69.544C583.594 69.544 584.514 69.764 585.298 70.204H588.718ZM591.668 71.38C591.932 71.108 592.204 70.864 592.484 70.648C592.772 70.424 593.076 70.232 593.396 70.072C593.716 69.912 594.056 69.788 594.416 69.7C594.776 69.612 595.168 69.568 595.592 69.568C596.264 69.568 596.852 69.68 597.356 69.904C597.868 70.128 598.296 70.444 598.64 70.852C598.992 71.26 599.256 71.752 599.432 72.328C599.608 72.896 599.696 73.524 599.696 74.212V82H597.128V74.212C597.128 73.388 596.936 72.748 596.552 72.292C596.176 71.836 595.6 71.608 594.824 71.608C594.248 71.608 593.712 71.74 593.216 72.004C592.728 72.268 592.268 72.628 591.836 73.084V82H589.256V69.76H590.816C591.168 69.76 591.392 69.924 591.488 70.252L591.668 71.38ZM609.861 73.72C609.125 74.152 608.581 74.656 608.229 75.232C607.877 75.808 607.701 76.432 607.701 77.104C607.701 77.576 607.785 78 607.953 78.376C608.129 78.744 608.357 79.056 608.637 79.312C608.925 79.568 609.253 79.764 609.621 79.9C609.997 80.036 610.385 80.104 610.785 80.104C611.577 80.104 612.297 79.972 612.945 79.708C613.593 79.436 614.169 79.072 614.673 78.616L609.861 73.72ZM621.213 82H618.705C618.569 82 618.445 81.992 618.333 81.976C618.229 81.96 618.129 81.936 618.033 81.904C617.945 81.864 617.857 81.812 617.769 81.748C617.689 81.684 617.601 81.6 617.505 81.496L616.065 80.032C615.305 80.704 614.441 81.232 613.473 81.616C612.513 82 611.469 82.192 610.341 82.192C609.685 82.192 609.041 82.08 608.409 81.856C607.785 81.632 607.225 81.312 606.729 80.896C606.233 80.472 605.833 79.96 605.529 79.36C605.225 78.752 605.073 78.068 605.073 77.308C605.073 76.756 605.161 76.236 605.337 75.748C605.521 75.26 605.773 74.808 606.093 74.392C606.421 73.968 606.805 73.588 607.245 73.252C607.685 72.916 608.169 72.628 608.697 72.388C608.241 71.78 607.909 71.188 607.701 70.612C607.493 70.036 607.389 69.452 607.389 68.86C607.389 68.268 607.497 67.708 607.713 67.18C607.929 66.652 608.241 66.192 608.649 65.8C609.065 65.408 609.565 65.1 610.149 64.876C610.741 64.644 611.409 64.528 612.153 64.528C612.825 64.528 613.429 64.632 613.965 64.84C614.509 65.048 614.973 65.328 615.357 65.68C615.749 66.032 616.053 66.436 616.269 66.892C616.493 67.348 616.625 67.82 616.665 68.308L615.033 68.644C614.889 68.676 614.753 68.656 614.625 68.584C614.505 68.512 614.413 68.392 614.349 68.224C614.285 68.016 614.193 67.812 614.073 67.612C613.953 67.404 613.805 67.22 613.629 67.06C613.453 66.9 613.241 66.772 612.993 66.676C612.753 66.572 612.473 66.52 612.153 66.52C611.785 66.52 611.453 66.58 611.157 66.7C610.869 66.82 610.621 66.988 610.413 67.204C610.213 67.412 610.057 67.656 609.945 67.936C609.841 68.216 609.789 68.516 609.789 68.836C609.789 69.092 609.817 69.34 609.873 69.58C609.929 69.82 610.021 70.06 610.149 70.3C610.277 70.54 610.437 70.788 610.629 71.044C610.829 71.292 611.069 71.56 611.349 71.848L616.113 76.756C616.401 76.228 616.629 75.68 616.797 75.112C616.965 74.536 617.077 73.956 617.133 73.372C617.149 73.204 617.205 73.072 617.301 72.976C617.397 72.872 617.525 72.82 617.685 72.82H619.281C619.273 73.82 619.121 74.784 618.825 75.712C618.537 76.632 618.129 77.488 617.601 78.28L621.213 82ZM633.916 74.5C633.916 74.068 633.852 73.668 633.724 73.3C633.604 72.924 633.424 72.6 633.184 72.328C632.944 72.048 632.644 71.832 632.284 71.68C631.932 71.52 631.524 71.44 631.06 71.44C630.124 71.44 629.388 71.708 628.852 72.244C628.316 72.78 627.976 73.532 627.832 74.5H633.916ZM627.76 76.084C627.792 76.78 627.9 77.384 628.084 77.896C628.268 78.4 628.512 78.82 628.816 79.156C629.128 79.492 629.496 79.744 629.92 79.912C630.352 80.072 630.832 80.152 631.36 80.152C631.864 80.152 632.3 80.096 632.668 79.984C633.036 79.864 633.356 79.736 633.628 79.6C633.9 79.456 634.132 79.328 634.324 79.216C634.516 79.096 634.692 79.036 634.852 79.036C635.06 79.036 635.22 79.116 635.332 79.276L636.064 80.224C635.76 80.584 635.416 80.888 635.032 81.136C634.648 81.384 634.24 81.588 633.808 81.748C633.376 81.9 632.932 82.008 632.476 82.072C632.02 82.144 631.576 82.18 631.144 82.18C630.296 82.18 629.508 82.04 628.78 81.76C628.06 81.472 627.432 81.052 626.896 80.5C626.368 79.948 625.952 79.264 625.648 78.448C625.352 77.632 625.204 76.692 625.204 75.628C625.204 74.78 625.336 73.988 625.6 73.252C625.872 72.516 626.256 71.876 626.752 71.332C627.256 70.788 627.864 70.36 628.576 70.048C629.296 69.728 630.108 69.568 631.012 69.568C631.764 69.568 632.46 69.692 633.1 69.94C633.74 70.18 634.292 70.536 634.756 71.008C635.22 71.48 635.58 72.06 635.836 72.748C636.1 73.428 636.232 74.204 636.232 75.076C636.232 75.476 636.188 75.744 636.1 75.88C636.012 76.016 635.852 76.084 635.62 76.084H627.76ZM647.633 69.76L642.713 82H640.385L635.465 69.76H637.589C637.789 69.76 637.953 69.812 638.081 69.916C638.217 70.012 638.305 70.128 638.345 70.264L641.057 77.392C641.169 77.728 641.269 78.06 641.357 78.388C641.445 78.716 641.521 79.048 641.585 79.384C641.649 79.048 641.725 78.72 641.813 78.4C641.909 78.072 642.013 77.736 642.125 77.392L644.885 70.264C644.933 70.12 645.021 70 645.149 69.904C645.277 69.808 645.433 69.76 645.617 69.76H647.633ZM654.155 76.648C653.235 76.68 652.459 76.756 651.827 76.876C651.195 76.988 650.683 77.136 650.291 77.32C649.899 77.496 649.615 77.708 649.439 77.956C649.271 78.204 649.187 78.476 649.187 78.772C649.187 79.06 649.231 79.308 649.319 79.516C649.415 79.716 649.543 79.884 649.703 80.02C649.871 80.148 650.063 80.244 650.279 80.308C650.503 80.364 650.747 80.392 651.011 80.392C651.683 80.392 652.259 80.268 652.739 80.02C653.227 79.764 653.699 79.396 654.155 78.916V76.648ZM647.315 71.464C648.699 70.176 650.347 69.532 652.259 69.532C652.963 69.532 653.587 69.648 654.131 69.88C654.683 70.104 655.143 70.424 655.511 70.84C655.887 71.256 656.171 71.752 656.363 72.328C656.563 72.896 656.663 73.528 656.663 74.224V82H655.511C655.263 82 655.075 81.964 654.947 81.892C654.819 81.812 654.711 81.656 654.623 81.424L654.371 80.428C654.059 80.708 653.751 80.96 653.447 81.184C653.143 81.4 652.827 81.584 652.499 81.736C652.179 81.888 651.831 82 651.455 82.072C651.087 82.152 650.679 82.192 650.231 82.192C649.735 82.192 649.271 82.124 648.839 81.988C648.415 81.852 648.047 81.648 647.735 81.376C647.423 81.096 647.175 80.752 646.991 80.344C646.815 79.936 646.727 79.456 646.727 78.904C646.727 78.432 646.851 77.972 647.099 77.524C647.355 77.076 647.771 76.676 648.347 76.324C648.931 75.964 649.695 75.668 650.639 75.436C651.591 75.204 652.763 75.072 654.155 75.04V74.224C654.155 73.344 653.967 72.688 653.591 72.256C653.215 71.824 652.663 71.608 651.935 71.608C651.439 71.608 651.023 71.672 650.687 71.8C650.351 71.92 650.059 72.052 649.811 72.196C649.563 72.34 649.343 72.476 649.151 72.604C648.959 72.724 648.755 72.784 648.539 72.784C648.363 72.784 648.211 72.74 648.083 72.652C647.963 72.556 647.863 72.44 647.783 72.304L647.315 71.464ZM660.813 64.24V82H658.233V64.24H660.813ZM672.818 69.76V82H671.258C670.914 82 670.694 81.836 670.598 81.508L670.406 80.368C670.15 80.64 669.878 80.888 669.59 81.112C669.31 81.336 669.01 81.528 668.69 81.688C668.37 81.848 668.026 81.972 667.658 82.06C667.298 82.148 666.91 82.192 666.494 82.192C665.822 82.192 665.23 82.08 664.718 81.856C664.206 81.632 663.774 81.316 663.422 80.908C663.078 80.5 662.818 80.012 662.642 79.444C662.466 78.868 662.378 78.236 662.378 77.548V69.76H664.958V77.548C664.958 78.372 665.146 79.012 665.522 79.468C665.906 79.924 666.486 80.152 667.262 80.152C667.83 80.152 668.358 80.024 668.846 79.768C669.342 79.504 669.806 79.144 670.238 78.688V69.76H672.818ZM680.991 76.648C680.071 76.68 679.295 76.756 678.663 76.876C678.031 76.988 677.519 77.136 677.127 77.32C676.735 77.496 676.451 77.708 676.275 77.956C676.107 78.204 676.023 78.476 676.023 78.772C676.023 79.06 676.067 79.308 676.155 79.516C676.251 79.716 676.379 79.884 676.539 80.02C676.707 80.148 676.899 80.244 677.115 80.308C677.339 80.364 677.583 80.392 677.847 80.392C678.519 80.392 679.095 80.268 679.575 80.02C680.063 79.764 680.535 79.396 680.991 78.916V76.648ZM674.151 71.464C675.535 70.176 677.183 69.532 679.095 69.532C679.799 69.532 680.423 69.648 680.967 69.88C681.519 70.104 681.979 70.424 682.347 70.84C682.723 71.256 683.007 71.752 683.199 72.328C683.399 72.896 683.499 73.528 683.499 74.224V82H682.347C682.099 82 681.911 81.964 681.783 81.892C681.655 81.812 681.547 81.656 681.459 81.424L681.207 80.428C680.895 80.708 680.587 80.96 680.283 81.184C679.979 81.4 679.663 81.584 679.335 81.736C679.015 81.888 678.667 82 678.291 82.072C677.923 82.152 677.515 82.192 677.067 82.192C676.571 82.192 676.107 82.124 675.675 81.988C675.251 81.852 674.883 81.648 674.571 81.376C674.259 81.096 674.011 80.752 673.827 80.344C673.651 79.936 673.563 79.456 673.563 78.904C673.563 78.432 673.687 77.972 673.935 77.524C674.191 77.076 674.607 76.676 675.183 76.324C675.767 75.964 676.531 75.668 677.475 75.436C678.427 75.204 679.599 75.072 680.991 75.04V74.224C680.991 73.344 680.803 72.688 680.427 72.256C680.051 71.824 679.499 71.608 678.771 71.608C678.275 71.608 677.859 71.672 677.523 71.8C677.187 71.92 676.895 72.052 676.647 72.196C676.399 72.34 676.179 72.476 675.987 72.604C675.795 72.724 675.591 72.784 675.375 72.784C675.199 72.784 675.047 72.74 674.919 72.652C674.799 72.556 674.699 72.44 674.619 72.304L674.151 71.464ZM688.781 82.192C687.765 82.192 686.981 81.908 686.429 81.34C685.885 80.764 685.613 79.956 685.613 78.916V71.788H684.269C684.125 71.788 684.001 71.744 683.897 71.656C683.793 71.56 683.741 71.42 683.741 71.236V70.192L685.721 69.904L686.285 66.364C686.325 66.228 686.393 66.12 686.489 66.04C686.585 65.952 686.713 65.908 686.873 65.908H688.193V69.928H691.589V71.788H688.193V78.736C688.193 79.176 688.301 79.512 688.517 79.744C688.733 79.976 689.021 80.092 689.381 80.092C689.581 80.092 689.753 80.068 689.897 80.02C690.041 79.964 690.165 79.908 690.269 79.852C690.373 79.788 690.461 79.732 690.533 79.684C690.613 79.628 690.689 79.6 690.761 79.6C690.905 79.6 691.021 79.68 691.109 79.84L691.877 81.1C691.477 81.452 691.005 81.724 690.461 81.916C689.917 82.1 689.357 82.192 688.781 82.192ZM700.057 74.5C700.057 74.068 699.993 73.668 699.865 73.3C699.745 72.924 699.565 72.6 699.325 72.328C699.085 72.048 698.785 71.832 698.425 71.68C698.073 71.52 697.665 71.44 697.201 71.44C696.265 71.44 695.529 71.708 694.993 72.244C694.457 72.78 694.117 73.532 693.973 74.5H700.057ZM693.901 76.084C693.933 76.78 694.041 77.384 694.225 77.896C694.409 78.4 694.653 78.82 694.957 79.156C695.269 79.492 695.637 79.744 696.061 79.912C696.493 80.072 696.973 80.152 697.501 80.152C698.005 80.152 698.441 80.096 698.809 79.984C699.177 79.864 699.497 79.736 699.769 79.6C700.041 79.456 700.273 79.328 700.465 79.216C700.657 79.096 700.833 79.036 700.993 79.036C701.201 79.036 701.361 79.116 701.473 79.276L702.205 80.224C701.901 80.584 701.557 80.888 701.173 81.136C700.789 81.384 700.381 81.588 699.949 81.748C699.517 81.9 699.073 82.008 698.617 82.072C698.161 82.144 697.717 82.18 697.285 82.18C696.437 82.18 695.649 82.04 694.921 81.76C694.201 81.472 693.573 81.052 693.037 80.5C692.509 79.948 692.093 79.264 691.789 78.448C691.493 77.632 691.345 76.692 691.345 75.628C691.345 74.78 691.477 73.988 691.741 73.252C692.013 72.516 692.397 71.876 692.893 71.332C693.397 70.788 694.005 70.36 694.717 70.048C695.437 69.728 696.249 69.568 697.153 69.568C697.905 69.568 698.601 69.692 699.241 69.94C699.881 70.18 700.433 70.536 700.897 71.008C701.361 71.48 701.721 72.06 701.977 72.748C702.241 73.428 702.373 74.204 702.373 75.076C702.373 75.476 702.329 75.744 702.241 75.88C702.153 76.016 701.993 76.084 701.761 76.084H693.901ZM711.68 82.192C710.664 82.192 709.88 81.908 709.328 81.34C708.784 80.764 708.512 79.956 708.512 78.916V71.788H707.168C707.024 71.788 706.9 71.744 706.796 71.656C706.692 71.56 706.64 71.42 706.64 71.236V70.192L708.62 69.904L709.184 66.364C709.224 66.228 709.292 66.12 709.388 66.04C709.484 65.952 709.612 65.908 709.772 65.908H711.092V69.928H714.488V71.788H711.092V78.736C711.092 79.176 711.2 79.512 711.416 79.744C711.632 79.976 711.92 80.092 712.28 80.092C712.48 80.092 712.652 80.068 712.796 80.02C712.94 79.964 713.064 79.908 713.168 79.852C713.272 79.788 713.36 79.732 713.432 79.684C713.512 79.628 713.588 79.6 713.66 79.6C713.804 79.6 713.92 79.68 714.008 79.84L714.776 81.1C714.376 81.452 713.904 81.724 713.36 81.916C712.816 82.1 712.256 82.192 711.68 82.192ZM717.601 71.212C718.105 70.716 718.657 70.32 719.257 70.024C719.857 69.72 720.557 69.568 721.357 69.568C722.029 69.568 722.617 69.68 723.121 69.904C723.633 70.128 724.061 70.444 724.405 70.852C724.757 71.26 725.021 71.752 725.197 72.328C725.373 72.896 725.461 73.524 725.461 74.212V82H722.893V74.212C722.893 73.388 722.701 72.748 722.317 72.292C721.941 71.836 721.365 71.608 720.589 71.608C720.013 71.608 719.477 71.74 718.981 72.004C718.493 72.268 718.033 72.628 717.601 73.084V82H715.021V64.24H717.601V71.212ZM735.002 74.5C735.002 74.068 734.938 73.668 734.81 73.3C734.69 72.924 734.51 72.6 734.27 72.328C734.03 72.048 733.73 71.832 733.37 71.68C733.018 71.52 732.61 71.44 732.146 71.44C731.21 71.44 730.474 71.708 729.938 72.244C729.402 72.78 729.062 73.532 728.918 74.5H735.002ZM728.846 76.084C728.878 76.78 728.986 77.384 729.17 77.896C729.354 78.4 729.598 78.82 729.902 79.156C730.214 79.492 730.582 79.744 731.006 79.912C731.438 80.072 731.918 80.152 732.446 80.152C732.95 80.152 733.386 80.096 733.754 79.984C734.122 79.864 734.442 79.736 734.714 79.6C734.986 79.456 735.218 79.328 735.41 79.216C735.602 79.096 735.778 79.036 735.938 79.036C736.146 79.036 736.306 79.116 736.418 79.276L737.15 80.224C736.846 80.584 736.502 80.888 736.118 81.136C735.734 81.384 735.326 81.588 734.894 81.748C734.462 81.9 734.018 82.008 733.562 82.072C733.106 82.144 732.662 82.18 732.23 82.18C731.382 82.18 730.594 82.04 729.866 81.76C729.146 81.472 728.518 81.052 727.982 80.5C727.454 79.948 727.038 79.264 726.734 78.448C726.438 77.632 726.29 76.692 726.29 75.628C726.29 74.78 726.422 73.988 726.686 73.252C726.958 72.516 727.342 71.876 727.838 71.332C728.342 70.788 728.95 70.36 729.662 70.048C730.382 69.728 731.194 69.568 732.098 69.568C732.85 69.568 733.546 69.692 734.186 69.94C734.826 70.18 735.378 70.536 735.842 71.008C736.306 71.48 736.666 72.06 736.922 72.748C737.186 73.428 737.318 74.204 737.318 75.076C737.318 75.476 737.274 75.744 737.186 75.88C737.098 76.016 736.938 76.084 736.706 76.084H728.846ZM759.405 69.76L755.481 82H753.429C753.189 82 753.021 81.844 752.925 81.532L750.489 73.912C750.425 73.696 750.365 73.48 750.309 73.264C750.261 73.048 750.217 72.836 750.177 72.628C750.089 73.06 749.981 73.492 749.853 73.924L747.381 81.532C747.293 81.844 747.105 82 746.817 82H744.861L740.937 69.76H742.977C743.177 69.76 743.341 69.812 743.469 69.916C743.605 70.012 743.693 70.128 743.733 70.264L745.773 77.392C745.853 77.72 745.921 78.04 745.977 78.352C746.041 78.656 746.097 78.96 746.145 79.264C746.225 78.96 746.309 78.656 746.397 78.352C746.485 78.04 746.577 77.72 746.673 77.392L748.965 70.228C749.005 70.084 749.085 69.968 749.205 69.88C749.333 69.784 749.485 69.736 749.661 69.736H750.789C750.973 69.736 751.129 69.784 751.257 69.88C751.385 69.968 751.469 70.084 751.509 70.228L753.741 77.392C753.837 77.72 753.925 78.04 754.005 78.352C754.093 78.664 754.173 78.976 754.245 79.288C754.301 78.984 754.361 78.676 754.425 78.364C754.489 78.052 754.565 77.728 754.653 77.392L756.729 70.264C756.777 70.12 756.865 70 756.993 69.904C757.121 69.808 757.277 69.76 757.461 69.76H759.405ZM767.627 74.5C767.627 74.068 767.563 73.668 767.435 73.3C767.315 72.924 767.135 72.6 766.895 72.328C766.655 72.048 766.355 71.832 765.995 71.68C765.643 71.52 765.235 71.44 764.771 71.44C763.835 71.44 763.099 71.708 762.563 72.244C762.027 72.78 761.687 73.532 761.543 74.5H767.627ZM761.471 76.084C761.503 76.78 761.611 77.384 761.795 77.896C761.979 78.4 762.223 78.82 762.527 79.156C762.839 79.492 763.207 79.744 763.631 79.912C764.063 80.072 764.543 80.152 765.071 80.152C765.575 80.152 766.011 80.096 766.379 79.984C766.747 79.864 767.067 79.736 767.339 79.6C767.611 79.456 767.843 79.328 768.035 79.216C768.227 79.096 768.403 79.036 768.563 79.036C768.771 79.036 768.931 79.116 769.043 79.276L769.775 80.224C769.471 80.584 769.127 80.888 768.743 81.136C768.359 81.384 767.951 81.588 767.519 81.748C767.087 81.9 766.643 82.008 766.187 82.072C765.731 82.144 765.287 82.18 764.855 82.18C764.007 82.18 763.219 82.04 762.491 81.76C761.771 81.472 761.143 81.052 760.607 80.5C760.079 79.948 759.663 79.264 759.359 78.448C759.063 77.632 758.915 76.692 758.915 75.628C758.915 74.78 759.047 73.988 759.311 73.252C759.583 72.516 759.967 71.876 760.463 71.332C760.967 70.788 761.575 70.36 762.287 70.048C763.007 69.728 763.819 69.568 764.723 69.568C765.475 69.568 766.171 69.692 766.811 69.94C767.451 70.18 768.003 70.536 768.467 71.008C768.931 71.48 769.291 72.06 769.547 72.748C769.811 73.428 769.943 74.204 769.943 75.076C769.943 75.476 769.899 75.744 769.811 75.88C769.723 76.016 769.563 76.084 769.331 76.084H761.471ZM773.429 78.928C773.789 79.392 774.181 79.72 774.605 79.912C775.037 80.096 775.505 80.188 776.009 80.188C777.025 80.188 777.817 79.82 778.385 79.084C778.953 78.348 779.237 77.208 779.237 75.664C779.237 74.256 778.989 73.228 778.493 72.58C778.005 71.932 777.305 71.608 776.393 71.608C775.761 71.608 775.209 71.752 774.737 72.04C774.273 72.32 773.837 72.724 773.429 73.252V78.928ZM773.429 71.38C773.933 70.828 774.497 70.388 775.121 70.06C775.745 69.732 776.457 69.568 777.257 69.568C777.969 69.568 778.609 69.708 779.177 69.988C779.753 70.26 780.241 70.656 780.641 71.176C781.041 71.696 781.349 72.328 781.565 73.072C781.781 73.808 781.889 74.64 781.889 75.568C781.889 76.56 781.765 77.464 781.517 78.28C781.277 79.088 780.929 79.784 780.473 80.368C780.017 80.944 779.465 81.392 778.817 81.712C778.169 82.024 777.445 82.18 776.645 82.18C776.253 82.18 775.897 82.14 775.577 82.06C775.257 81.988 774.961 81.88 774.689 81.736C774.417 81.592 774.165 81.42 773.933 81.22C773.709 81.02 773.493 80.792 773.285 80.536L773.177 81.484C773.137 81.668 773.065 81.8 772.961 81.88C772.857 81.96 772.713 82 772.529 82H770.849V64.24H773.429V71.38ZM790.204 71.98C790.14 72.092 790.068 72.172 789.988 72.22C789.908 72.268 789.808 72.292 789.688 72.292C789.552 72.292 789.404 72.252 789.244 72.172C789.084 72.084 788.896 71.988 788.68 71.884C788.464 71.78 788.208 71.688 787.912 71.608C787.624 71.52 787.284 71.476 786.892 71.476C786.572 71.476 786.28 71.516 786.016 71.596C785.76 71.668 785.54 71.776 785.356 71.92C785.18 72.056 785.044 72.22 784.948 72.412C784.852 72.596 784.804 72.796 784.804 73.012C784.804 73.3 784.892 73.54 785.068 73.732C785.244 73.924 785.476 74.092 785.764 74.236C786.052 74.372 786.38 74.496 786.748 74.608C787.116 74.72 787.492 74.84 787.876 74.968C788.26 75.096 788.636 75.244 789.004 75.412C789.372 75.58 789.7 75.788 789.988 76.036C790.276 76.276 790.508 76.572 790.684 76.924C790.86 77.268 790.948 77.688 790.948 78.184C790.948 78.76 790.844 79.292 790.636 79.78C790.428 80.268 790.124 80.692 789.724 81.052C789.324 81.412 788.824 81.692 788.224 81.892C787.632 82.092 786.952 82.192 786.184 82.192C785.76 82.192 785.348 82.152 784.948 82.072C784.556 82 784.18 81.9 783.82 81.772C783.468 81.636 783.136 81.476 782.824 81.292C782.52 81.108 782.248 80.908 782.008 80.692L782.608 79.708C782.68 79.588 782.768 79.496 782.872 79.432C782.984 79.36 783.12 79.324 783.28 79.324C783.448 79.324 783.612 79.38 783.772 79.492C783.94 79.596 784.132 79.712 784.348 79.84C784.572 79.968 784.84 80.088 785.152 80.2C785.464 80.304 785.852 80.356 786.316 80.356C786.7 80.356 787.032 80.312 787.312 80.224C787.592 80.128 787.824 80 788.008 79.84C788.192 79.68 788.328 79.5 788.416 79.3C788.504 79.092 788.548 78.872 788.548 78.64C788.548 78.328 788.46 78.072 788.284 77.872C788.108 77.672 787.872 77.5 787.576 77.356C787.288 77.212 786.956 77.084 786.58 76.972C786.212 76.86 785.836 76.74 785.452 76.612C785.068 76.484 784.688 76.336 784.312 76.168C783.944 76 783.612 75.788 783.316 75.532C783.028 75.268 782.796 74.952 782.62 74.584C782.444 74.208 782.356 73.752 782.356 73.216C782.356 72.728 782.452 72.264 782.644 71.824C782.844 71.384 783.132 70.996 783.508 70.66C783.892 70.324 784.36 70.06 784.912 69.868C785.472 69.668 786.116 69.568 786.844 69.568C787.668 69.568 788.416 69.7 789.088 69.964C789.76 70.228 790.324 70.588 790.78 71.044L790.204 71.98ZM794.561 69.76V82H791.981V69.76H794.561ZM794.993 66.064C794.993 66.296 794.945 66.516 794.849 66.724C794.761 66.932 794.637 67.116 794.477 67.276C794.317 67.428 794.129 67.552 793.913 67.648C793.705 67.736 793.481 67.78 793.241 67.78C793.009 67.78 792.789 67.736 792.581 67.648C792.381 67.552 792.205 67.428 792.053 67.276C791.901 67.116 791.777 66.932 791.681 66.724C791.593 66.516 791.549 66.296 791.549 66.064C791.549 65.824 791.593 65.6 791.681 65.392C791.777 65.184 791.901 65.004 792.053 64.852C792.205 64.692 792.381 64.568 792.581 64.48C792.789 64.384 793.009 64.336 793.241 64.336C793.481 64.336 793.705 64.384 793.913 64.48C794.129 64.568 794.317 64.692 794.477 64.852C794.637 65.004 794.761 65.184 794.849 65.392C794.945 65.6 794.993 65.824 794.993 66.064ZM800.226 82.192C799.21 82.192 798.426 81.908 797.874 81.34C797.33 80.764 797.058 79.956 797.058 78.916V71.788H795.714C795.57 71.788 795.446 71.744 795.342 71.656C795.238 71.56 795.186 71.42 795.186 71.236V70.192L797.166 69.904L797.73 66.364C797.77 66.228 797.838 66.12 797.934 66.04C798.03 65.952 798.158 65.908 798.318 65.908H799.638V69.928H803.034V71.788H799.638V78.736C799.638 79.176 799.746 79.512 799.962 79.744C800.178 79.976 800.466 80.092 800.826 80.092C801.026 80.092 801.198 80.068 801.342 80.02C801.486 79.964 801.61 79.908 801.714 79.852C801.818 79.788 801.906 79.732 801.978 79.684C802.058 79.628 802.134 79.6 802.206 79.6C802.35 79.6 802.466 79.68 802.554 79.84L803.322 81.1C802.922 81.452 802.45 81.724 801.906 81.916C801.362 82.1 800.802 82.192 800.226 82.192ZM811.502 74.5C811.502 74.068 811.438 73.668 811.31 73.3C811.19 72.924 811.01 72.6 810.77 72.328C810.53 72.048 810.23 71.832 809.87 71.68C809.518 71.52 809.11 71.44 808.646 71.44C807.71 71.44 806.974 71.708 806.438 72.244C805.902 72.78 805.562 73.532 805.418 74.5H811.502ZM805.346 76.084C805.378 76.78 805.486 77.384 805.67 77.896C805.854 78.4 806.098 78.82 806.402 79.156C806.714 79.492 807.082 79.744 807.506 79.912C807.938 80.072 808.418 80.152 808.946 80.152C809.45 80.152 809.886 80.096 810.254 79.984C810.622 79.864 810.942 79.736 811.214 79.6C811.486 79.456 811.718 79.328 811.91 79.216C812.102 79.096 812.278 79.036 812.438 79.036C812.646 79.036 812.806 79.116 812.918 79.276L813.65 80.224C813.346 80.584 813.002 80.888 812.618 81.136C812.234 81.384 811.826 81.588 811.394 81.748C810.962 81.9 810.518 82.008 810.062 82.072C809.606 82.144 809.162 82.18 808.73 82.18C807.882 82.18 807.094 82.04 806.366 81.76C805.646 81.472 805.018 81.052 804.482 80.5C803.954 79.948 803.538 79.264 803.234 78.448C802.938 77.632 802.79 76.692 802.79 75.628C802.79 74.78 802.922 73.988 803.186 73.252C803.458 72.516 803.842 71.876 804.338 71.332C804.842 70.788 805.45 70.36 806.162 70.048C806.882 69.728 807.694 69.568 808.598 69.568C809.35 69.568 810.046 69.692 810.686 69.94C811.326 70.18 811.878 70.536 812.342 71.008C812.806 71.48 813.166 72.06 813.422 72.748C813.686 73.428 813.818 74.204 813.818 75.076C813.818 75.476 813.774 75.744 813.686 75.88C813.598 76.016 813.438 76.084 813.206 76.084H805.346Z" fill="white"/>
</svg>
