<svg width="893" height="450" viewBox="0 0 893 450" fill="none" xmlns="http://www.w3.org/2000/svg">
<rect width="893" height="450" fill="white"/>
<path d="M120.352 89.592V92.712C121.048 92.64 122.056 92.616 122.848 92.616C124.264 92.616 130.696 92.616 132.016 92.616C132.904 92.616 134.032 92.664 134.656 92.712V89.592C134.008 89.688 132.832 89.736 132.064 89.736C130.672 89.736 124.36 89.736 122.848 89.736C122.032 89.736 121 89.688 120.352 89.592ZM136.696 96.576L134.56 95.232C134.224 95.4 133.576 95.496 132.784 95.496C131.152 95.496 122.56 95.496 120.928 95.496C120.16 95.496 119.152 95.424 118.12 95.328V98.448C119.128 98.376 120.328 98.352 120.928 98.352C123.064 98.352 131.296 98.352 132.496 98.352C132.088 99.672 131.32 101.184 130.048 102.48C128.2 104.376 125.344 105.936 121.72 106.704L124.12 109.416C127.192 108.528 130.264 106.92 132.688 104.208C134.464 102.24 135.496 99.888 136.24 97.56C136.312 97.32 136.528 96.888 136.696 96.576ZM145.744 89.76L143.464 92.184C145.216 93.384 148.24 96 149.488 97.344L151.936 94.848C150.52 93.384 147.4 90.888 145.744 89.76ZM142.72 105.744L144.76 108.912C148.12 108.336 151.216 107.016 153.664 105.552C157.528 103.224 160.72 99.912 162.52 96.648L160.672 93.288C159.136 96.528 156.016 100.176 151.912 102.624C149.584 103.992 146.488 105.216 142.72 105.744ZM169.408 89.904V93C170.152 92.952 171.16 92.904 172 92.904C173.488 92.904 178.432 92.904 179.848 92.904C180.664 92.904 181.6 92.952 182.416 93V89.904C181.6 90 180.664 90.072 179.848 90.072C178.432 90.072 173.488 90.072 171.976 90.072C171.184 90.072 170.176 90 169.408 89.904ZM166.648 96.024V99.168C167.296 99.12 168.232 99.096 168.928 99.096C170.44 99.096 183.232 99.096 184.648 99.096C185.32 99.096 186.256 99.12 186.856 99.168V96.024C186.208 96.144 185.152 96.192 184.648 96.192C183.232 96.192 170.44 96.192 168.928 96.192C168.184 96.192 167.344 96.12 166.648 96.024ZM178.912 97.704L175.576 97.728C175.576 100.296 175.264 102.576 174.064 104.376C173.104 105.792 171.4 107.16 169.696 107.832L172.528 109.872C174.664 108.792 176.512 106.92 177.352 105.264C178.36 103.248 178.912 100.848 178.912 97.704ZM183.856 88.248L181.96 89.016C182.608 89.952 183.352 91.368 183.832 92.352L185.752 91.536C185.32 90.648 184.456 89.112 183.856 88.248ZM186.688 87.168L184.792 87.936C185.464 88.848 186.232 90.24 186.736 91.248L188.632 90.432C188.2 89.592 187.312 88.056 186.688 87.168ZM190.736 101.184L192.152 103.992C194.888 103.176 198.584 101.568 200.744 100.296C203.36 98.76 206.264 96.504 207.704 94.944L205.328 92.616C204.08 94.176 201.68 96.312 199.328 97.728C197.432 98.88 193.88 100.488 190.736 101.184ZM199.064 99.624V107.52C199.064 108.384 198.992 109.656 198.92 110.136H202.496C202.352 109.656 202.328 108.384 202.328 107.52V99L199.064 99.624ZM218.936 89.76L216.656 92.184C218.408 93.384 221.432 96 222.68 97.344L225.128 94.848C223.712 93.384 220.592 90.888 218.936 89.76ZM215.912 105.744L217.952 108.912C221.312 108.336 224.408 107.016 226.856 105.552C230.72 103.224 233.912 99.912 235.712 96.648L233.864 93.288C232.328 96.528 229.208 100.176 225.104 102.624C222.776 103.992 219.68 105.216 215.912 105.744ZM256.809 88.344L254.889 89.136C255.537 90.048 256.281 91.488 256.785 92.472L258.705 91.632C258.249 90.744 257.409 89.232 256.809 88.344ZM259.641 87.264L257.745 88.056C258.393 88.944 259.161 90.36 259.665 91.344L261.585 90.528C261.153 89.688 260.265 88.176 259.641 87.264ZM258.945 93.624L256.497 92.112C255.945 92.304 255.153 92.4 254.409 92.4C253.641 92.4 248.625 92.4 247.545 92.4L246.441 95.136H254.529C254.145 96.912 252.753 99.792 251.121 101.664C249.033 104.04 246.369 106.128 241.449 107.616L244.281 110.136C248.793 108.36 251.697 106.152 253.977 103.368C256.137 100.704 257.505 97.488 258.153 95.352C258.345 94.752 258.681 94.104 258.945 93.624ZM251.121 89.832L247.617 88.68C247.401 89.496 246.897 90.624 246.537 91.2C245.337 93.264 243.249 96.36 239.025 98.928L241.737 100.92C245.169 98.568 248.049 95.184 249.657 92.28C249.945 91.776 250.569 90.672 251.121 89.832ZM280.4 93.312C280.4 92.472 281.096 91.8 281.936 91.8C282.776 91.8 283.448 92.472 283.448 93.312C283.448 94.152 282.776 94.848 281.936 94.848C281.096 94.848 280.4 94.152 280.4 93.312ZM278.816 93.312C278.816 95.04 280.208 96.432 281.936 96.432C283.664 96.432 285.056 95.04 285.056 93.312C285.056 91.584 283.664 90.192 281.936 90.192C280.208 90.192 278.816 91.584 278.816 93.312ZM263.912 101.184L266.792 104.16C267.224 103.536 267.776 102.672 268.328 101.928C269.312 100.608 270.992 98.256 271.952 97.032C272.624 96.168 273.128 96.12 273.92 96.888C274.784 97.776 276.896 100.104 278.312 101.76C279.728 103.416 281.744 105.912 283.352 107.904L286.016 105.048C284.168 103.08 281.696 100.44 280.088 98.712C278.648 97.152 276.824 95.256 275.192 93.72C273.344 91.968 271.928 92.232 270.488 93.936C268.832 95.904 266.96 98.256 265.88 99.336C265.136 100.08 264.608 100.584 263.912 101.184ZM290.217 96.888V100.68C291.129 100.608 292.737 100.536 294.081 100.536C296.913 100.536 304.809 100.536 306.993 100.536C308.001 100.536 309.225 100.656 309.801 100.68V96.888C309.153 96.936 308.097 97.056 306.969 97.056C304.833 97.056 296.913 97.056 294.081 97.056C292.833 97.056 291.105 96.96 290.217 96.888ZM330.02 89.592L328.004 90.408C328.892 91.656 329.42 92.688 330.14 94.2L332.204 93.288C331.676 92.184 330.692 90.6 330.02 89.592ZM333.332 88.416L331.292 89.28C332.18 90.48 332.756 91.416 333.524 92.928L335.588 92.016C335.012 90.96 334.076 89.376 333.332 88.416ZM319.604 89.112L317.852 91.752C319.436 92.64 321.956 94.272 323.276 95.208L325.076 92.544C323.828 91.68 321.188 89.976 319.604 89.112ZM315.164 106.152L316.964 109.32C319.076 108.936 322.532 107.736 324.956 106.344C328.892 104.088 332.276 101.04 334.508 97.728L332.66 94.464C330.74 97.896 327.404 101.184 323.324 103.464C320.708 104.904 317.828 105.696 315.164 106.152ZM315.908 94.584L314.156 97.248C315.788 98.088 318.26 99.72 319.628 100.656L321.38 97.968C320.156 97.104 317.516 95.448 315.908 94.584Z" fill="#444444"/>
<line x1="115" y1="122.5" x2="506" y2="122.5" stroke="#444444"/>
<path d="M128.824 141.76H123.256V157H120.94V141.76H115.36V139.804H128.824V141.76ZM150.228 139.804V157H148.188V144.364C148.188 144.196 148.192 144.016 148.2 143.824C148.216 143.632 148.232 143.436 148.248 143.236L142.344 153.988C142.16 154.348 141.88 154.528 141.504 154.528H141.168C140.792 154.528 140.512 154.348 140.328 153.988L134.304 143.188C134.352 143.612 134.376 144.004 134.376 144.364V157H132.336V139.804H134.052C134.26 139.804 134.42 139.824 134.532 139.864C134.644 139.904 134.752 140.016 134.856 140.2L140.796 150.784C140.892 150.976 140.984 151.176 141.072 151.384C141.168 151.592 141.256 151.804 141.336 152.02C141.416 151.804 141.5 151.592 141.588 151.384C141.676 151.168 141.772 150.964 141.876 150.772L147.708 140.2C147.804 140.016 147.908 139.904 148.02 139.864C148.14 139.824 148.304 139.804 148.512 139.804H150.228ZM164.381 142.492C164.309 142.612 164.229 142.704 164.141 142.768C164.061 142.824 163.961 142.852 163.841 142.852C163.705 142.852 163.545 142.784 163.361 142.648C163.177 142.512 162.945 142.364 162.665 142.204C162.393 142.036 162.061 141.884 161.669 141.748C161.285 141.612 160.817 141.544 160.265 141.544C159.745 141.544 159.285 141.616 158.885 141.76C158.493 141.896 158.161 142.084 157.889 142.324C157.625 142.564 157.425 142.848 157.289 143.176C157.153 143.496 157.085 143.844 157.085 144.22C157.085 144.7 157.201 145.1 157.433 145.42C157.673 145.732 157.985 146 158.369 146.224C158.761 146.448 159.201 146.644 159.689 146.812C160.185 146.972 160.689 147.14 161.201 147.316C161.721 147.492 162.225 147.692 162.713 147.916C163.209 148.132 163.649 148.408 164.033 148.744C164.425 149.08 164.737 149.492 164.969 149.98C165.209 150.468 165.329 151.068 165.329 151.78C165.329 152.532 165.201 153.24 164.945 153.904C164.689 154.56 164.313 155.132 163.817 155.62C163.329 156.108 162.725 156.492 162.005 156.772C161.293 157.052 160.481 157.192 159.569 157.192C158.449 157.192 157.433 156.992 156.521 156.592C155.609 156.184 154.829 155.636 154.181 154.948L154.853 153.844C154.917 153.756 154.993 153.684 155.081 153.628C155.177 153.564 155.281 153.532 155.393 153.532C155.497 153.532 155.613 153.576 155.741 153.664C155.877 153.744 156.029 153.848 156.197 153.976C156.365 154.104 156.557 154.244 156.773 154.396C156.989 154.548 157.233 154.688 157.505 154.816C157.785 154.944 158.101 155.052 158.453 155.14C158.805 155.22 159.201 155.26 159.641 155.26C160.193 155.26 160.685 155.184 161.117 155.032C161.549 154.88 161.913 154.668 162.209 154.396C162.513 154.116 162.745 153.784 162.905 153.4C163.065 153.016 163.145 152.588 163.145 152.116C163.145 151.596 163.025 151.172 162.785 150.844C162.553 150.508 162.245 150.228 161.861 150.004C161.477 149.78 161.037 149.592 160.541 149.44C160.045 149.28 159.541 149.12 159.029 148.96C158.517 148.792 158.013 148.6 157.517 148.384C157.021 148.168 156.581 147.888 156.197 147.544C155.813 147.2 155.501 146.772 155.261 146.26C155.029 145.74 154.913 145.1 154.913 144.34C154.913 143.732 155.029 143.144 155.261 142.576C155.501 142.008 155.845 141.504 156.293 141.064C156.749 140.624 157.305 140.272 157.961 140.008C158.625 139.744 159.385 139.612 160.241 139.612C161.201 139.612 162.073 139.764 162.857 140.068C163.649 140.372 164.345 140.812 164.945 141.388L164.381 142.492ZM177.556 138.376L175.324 138.136C175.324 139.984 175.012 142.144 174.556 144.064C173.908 146.992 171.988 153.4 169.252 157.072L171.22 157.84C173.932 153.472 175.636 147.496 176.452 144.112C176.788 142.624 177.1 140.656 177.268 139.792C177.364 139.336 177.46 138.808 177.556 138.376ZM185.812 141.136L184.06 141.928C185.74 143.92 187.636 148.096 188.332 150.544L190.204 149.656C189.388 147.448 187.3 143.08 185.812 141.136ZM168.916 143.632L169.108 145.72C169.732 145.624 170.716 145.504 171.268 145.432C172.732 145.288 177.244 144.736 178.852 144.736C180.388 144.736 181.396 145.144 181.396 147.352C181.396 149.944 181.012 153.064 180.244 154.696C179.764 155.728 179.044 155.92 178.156 155.92C177.484 155.92 176.212 155.752 175.204 155.44L175.54 157.432C176.284 157.624 177.436 157.792 178.348 157.792C179.908 157.792 181.108 157.384 181.852 155.776C182.86 153.784 183.244 149.968 183.244 147.112C183.244 143.872 181.492 143.056 179.356 143.056C177.724 143.056 172.852 143.584 171.052 143.632C170.284 143.656 169.66 143.68 168.916 143.632ZM186.076 137.656L184.78 138.208C185.452 139.12 186.268 140.56 186.748 141.544L188.044 140.968C187.54 139.984 186.676 138.52 186.076 137.656ZM188.716 136.696L187.444 137.248C188.14 138.136 188.932 139.504 189.436 140.56L190.756 139.984C190.276 139.096 189.364 137.584 188.716 136.696ZM204.604 140.152V141.904H213.46V140.152H204.604ZM193.468 138.352V140.032H205.204V138.352H193.468ZM196.276 143.224V144.88H202.516V143.224H196.276ZM196.276 148.216V149.848H202.516V148.216H196.276ZM212.932 140.152V140.584C211.9 149.008 208.324 154.648 203.572 157.12C203.98 157.456 204.484 158.128 204.772 158.584C209.908 155.608 213.58 149.968 214.732 140.416L213.58 140.104L213.244 140.152H212.932ZM206.788 142L205.06 142.336C206.548 149.872 209.308 155.728 214.516 158.68C214.804 158.2 215.38 157.528 215.788 157.168C210.844 154.624 208.06 148.936 206.788 142ZM195.34 139V154.576H197.068V139H195.34ZM201.772 139V158.872H203.5V139H201.772ZM192.988 154.048L193.324 155.848C195.82 155.464 199.276 154.912 202.564 154.384L202.468 152.728C198.964 153.256 195.34 153.76 192.988 154.048ZM225.412 138.064L223.324 137.992C223.276 138.664 223.228 139.336 223.132 140.056C222.844 142.024 222.388 145.552 222.388 147.832C222.388 149.392 222.508 150.736 222.628 151.648L224.5 151.504C224.332 150.304 224.332 149.464 224.452 148.552C224.74 145.408 227.524 141.04 230.524 141.04C233.044 141.04 234.316 143.776 234.316 147.568C234.316 153.592 230.26 155.704 225.028 156.496L226.18 158.224C232.108 157.144 236.308 154.192 236.308 147.544C236.308 142.504 234.004 139.288 230.836 139.288C227.788 139.288 225.292 142.288 224.308 144.76C224.452 143.08 224.908 139.84 225.412 138.064ZM254.86 144.256V145.912H262.636V144.256H254.86ZM254.86 150.352V151.984H262.636V150.352H254.86ZM253.924 138.208V157.624H255.676V139.84H261.796V157.624H263.596V138.208H253.924ZM251.404 156.592V158.248H265.444V156.592H251.404ZM246.94 136.864C246.316 138.448 245.212 140.752 244.3 142.144L245.548 142.672C246.484 141.376 247.636 139.24 248.548 137.464L246.94 136.864ZM249.844 139.6C248.524 142.144 246.244 145.744 244.396 147.88L245.548 148.48C247.372 146.416 249.724 142.96 251.404 140.272L249.844 139.6ZM243.148 141.904C244.444 143.056 245.956 144.712 246.604 145.84L247.564 144.472C246.916 143.416 245.404 141.832 244.06 140.704L243.148 141.904ZM249.076 145.168C250.06 146.752 251.02 148.84 251.38 150.184L252.82 149.512C252.46 148.192 251.428 146.128 250.42 144.592L249.076 145.168ZM243.1 147.592L243.244 149.2C245.524 149.08 248.572 148.912 251.62 148.72V147.256C248.452 147.4 245.26 147.52 243.1 147.592ZM249.676 150.904C250.348 152.392 250.996 154.336 251.212 155.584L252.676 155.08C252.412 153.832 251.74 151.936 251.044 150.472L249.676 150.904ZM244.42 150.568C244.132 152.68 243.652 154.816 242.86 156.28C243.244 156.448 243.964 156.784 244.276 156.976C245.044 155.44 245.644 153.112 245.98 150.856L244.42 150.568ZM247.18 148.288V158.992H248.812V148.288H247.18ZM276.148 137.992H274.036C274.156 138.496 274.204 139.312 274.204 140.248C274.228 141.52 274.228 145.312 274.228 146.632L275.98 147.592C275.98 145.96 275.956 141.448 275.98 140.248C275.98 139.384 276.052 138.496 276.148 137.992ZM284.548 140.416L283.3 141.664C284.644 142.6 286.828 144.688 288.004 146.2L289.348 144.832C288.244 143.488 285.964 141.352 284.548 140.416ZM269.428 141.16L269.5 142.936C270.916 143.128 272.284 143.176 273.34 143.176C275.308 143.176 278.14 142.864 280.588 142.312V140.464C278.164 141.136 275.5 141.496 273.22 141.496C272.02 141.496 270.844 141.4 269.428 141.16ZM275.38 151.984L273.58 152.608C273.532 153.376 273.484 154.24 273.484 155.104C273.484 156.88 274.18 158.032 279.004 158.032C280.588 158.032 282.916 157.816 283.972 157.552C286.132 156.952 286.996 155.92 287.092 153.664C287.116 152.656 287.092 152.032 287.092 151.072L285.028 150.424C285.148 151.384 285.172 152.2 285.172 153.136C285.172 154.72 284.428 155.44 283.18 155.824C282.316 156.064 280.468 156.232 279.124 156.232C275.62 156.232 275.284 155.728 275.284 154.384C275.284 153.664 275.332 152.488 275.38 151.984ZM276.604 148.816C276.604 146.896 275.5 145.504 273.58 145.504C271.204 145.504 269.644 147.76 269.644 150.208C269.644 153.016 271.372 154 272.74 154C275.764 154 276.604 150.976 276.604 148.816ZM272.932 152.224C272.044 152.224 271.252 151.456 271.252 150.112C271.252 148.312 272.284 147.04 273.46 147.04C274.3 147.04 274.852 147.76 274.852 148.912C274.852 150.52 274.372 152.224 272.932 152.224ZM301.924 149.224V150.856H314.884V149.224H301.924ZM309.82 150.16L308.5 150.664C309.82 153.28 312.172 156.16 314.212 157.696C314.5 157.24 315.076 156.64 315.484 156.304C313.42 155.056 311.068 152.488 309.82 150.16ZM304.444 143.248H312.46V145.744H304.444V143.248ZM304.444 139.336H312.46V141.784H304.444V139.336ZM302.812 137.848V147.232H314.164V137.848H302.812ZM307.084 150.04C305.86 152.608 303.46 155.224 301.132 156.472C301.516 156.808 302.068 157.432 302.332 157.84C304.708 156.376 307.132 153.472 308.452 150.544L307.084 150.04ZM307.612 138.616V146.512H307.54V158.92H309.292V146.512H309.196V138.616H307.612ZM294.172 144.112V145.552H300.988V144.112H294.172ZM294.268 137.704V139.144H300.892V137.704H294.268ZM294.172 147.328V148.768H300.988V147.328H294.172ZM293.092 140.848V142.336H301.612V140.848H293.092ZM294.964 150.568V152.056H299.428V156.064H294.964V157.576H300.988V150.568H294.964ZM294.148 150.568V158.68H295.684V150.568H294.148ZM321.268 142.24H325.948V144.064H321.268V142.24ZM321.268 139.168H325.948V140.968H321.268V139.168ZM319.66 137.872V145.408H327.628V137.872H319.66ZM318.22 147.184V148.576H329.044V147.184H318.22ZM328.9 138.04V139.384H339.844V138.04H328.9ZM323.02 147.616V155.8L324.556 156.76V147.616H323.02ZM323.836 151.168V152.536H328.636V151.168H323.836ZM333.652 138.376C333.436 139.408 333.028 140.896 332.644 141.88L333.988 142.192C334.42 141.304 334.9 139.936 335.356 138.712L333.652 138.376ZM331.468 145.648H337.204V147.448H331.468V145.648ZM331.468 148.696H337.204V150.544H331.468V148.696ZM331.468 142.576H337.204V144.352H331.468V142.576ZM329.836 141.256V151.864H338.884V141.256H329.836ZM331.828 152.296C330.916 153.4 329.356 154.48 327.868 155.176C328.204 155.44 328.804 156.016 329.068 156.28C330.556 155.464 332.308 154.096 333.364 152.752L331.828 152.296ZM319.9 149.896C319.78 152.848 319.396 156.088 317.932 157.84C318.316 158.104 318.844 158.632 319.084 158.992C320.788 156.952 321.268 153.352 321.412 149.896H319.9ZM321.028 152.248L319.9 152.656C321.892 157.624 325.756 158.416 331.876 158.416H339.676C339.772 157.936 340.06 157.24 340.324 156.856C338.908 156.904 332.956 156.904 331.876 156.904C326.476 156.904 322.732 156.376 321.028 152.248ZM335.188 152.944C336.484 153.832 338.092 155.224 338.86 156.184L340.18 155.344C339.388 154.432 337.804 153.088 336.412 152.248L335.188 152.944Z" fill="#444444"/>
<path d="M128.824 175.76H123.256V191H120.94V175.76H115.36V173.804H128.824V175.76ZM150.228 173.804V191H148.188V178.364C148.188 178.196 148.192 178.016 148.2 177.824C148.216 177.632 148.232 177.436 148.248 177.236L142.344 187.988C142.16 188.348 141.88 188.528 141.504 188.528H141.168C140.792 188.528 140.512 188.348 140.328 187.988L134.304 177.188C134.352 177.612 134.376 178.004 134.376 178.364V191H132.336V173.804H134.052C134.26 173.804 134.42 173.824 134.532 173.864C134.644 173.904 134.752 174.016 134.856 174.2L140.796 184.784C140.892 184.976 140.984 185.176 141.072 185.384C141.168 185.592 141.256 185.804 141.336 186.02C141.416 185.804 141.5 185.592 141.588 185.384C141.676 185.168 141.772 184.964 141.876 184.772L147.708 174.2C147.804 174.016 147.908 173.904 148.02 173.864C148.14 173.824 148.304 173.804 148.512 173.804H150.228ZM164.381 176.492C164.309 176.612 164.229 176.704 164.141 176.768C164.061 176.824 163.961 176.852 163.841 176.852C163.705 176.852 163.545 176.784 163.361 176.648C163.177 176.512 162.945 176.364 162.665 176.204C162.393 176.036 162.061 175.884 161.669 175.748C161.285 175.612 160.817 175.544 160.265 175.544C159.745 175.544 159.285 175.616 158.885 175.76C158.493 175.896 158.161 176.084 157.889 176.324C157.625 176.564 157.425 176.848 157.289 177.176C157.153 177.496 157.085 177.844 157.085 178.22C157.085 178.7 157.201 179.1 157.433 179.42C157.673 179.732 157.985 180 158.369 180.224C158.761 180.448 159.201 180.644 159.689 180.812C160.185 180.972 160.689 181.14 161.201 181.316C161.721 181.492 162.225 181.692 162.713 181.916C163.209 182.132 163.649 182.408 164.033 182.744C164.425 183.08 164.737 183.492 164.969 183.98C165.209 184.468 165.329 185.068 165.329 185.78C165.329 186.532 165.201 187.24 164.945 187.904C164.689 188.56 164.313 189.132 163.817 189.62C163.329 190.108 162.725 190.492 162.005 190.772C161.293 191.052 160.481 191.192 159.569 191.192C158.449 191.192 157.433 190.992 156.521 190.592C155.609 190.184 154.829 189.636 154.181 188.948L154.853 187.844C154.917 187.756 154.993 187.684 155.081 187.628C155.177 187.564 155.281 187.532 155.393 187.532C155.497 187.532 155.613 187.576 155.741 187.664C155.877 187.744 156.029 187.848 156.197 187.976C156.365 188.104 156.557 188.244 156.773 188.396C156.989 188.548 157.233 188.688 157.505 188.816C157.785 188.944 158.101 189.052 158.453 189.14C158.805 189.22 159.201 189.26 159.641 189.26C160.193 189.26 160.685 189.184 161.117 189.032C161.549 188.88 161.913 188.668 162.209 188.396C162.513 188.116 162.745 187.784 162.905 187.4C163.065 187.016 163.145 186.588 163.145 186.116C163.145 185.596 163.025 185.172 162.785 184.844C162.553 184.508 162.245 184.228 161.861 184.004C161.477 183.78 161.037 183.592 160.541 183.44C160.045 183.28 159.541 183.12 159.029 182.96C158.517 182.792 158.013 182.6 157.517 182.384C157.021 182.168 156.581 181.888 156.197 181.544C155.813 181.2 155.501 180.772 155.261 180.26C155.029 179.74 154.913 179.1 154.913 178.34C154.913 177.732 155.029 177.144 155.261 176.576C155.501 176.008 155.845 175.504 156.293 175.064C156.749 174.624 157.305 174.272 157.961 174.008C158.625 173.744 159.385 173.612 160.241 173.612C161.201 173.612 162.073 173.764 162.857 174.068C163.649 174.372 164.345 174.812 164.945 175.388L164.381 176.492ZM180.892 174.632L178.9 174.584C178.66 177.08 178.156 179.792 177.46 182.072C176.236 186.128 174.94 187.76 173.812 187.76C172.732 187.76 171.364 186.416 171.364 183.392C171.364 179.864 174.652 175.52 179.932 175.52C184.54 175.52 187.204 178.688 187.204 182.528C187.204 186.68 184.18 188.984 181.108 189.68C180.532 189.8 179.812 189.896 179.044 189.968L180.148 191.744C185.86 191 189.172 187.64 189.172 182.624C189.172 177.752 185.596 173.792 179.98 173.792C174.1 173.792 169.468 178.328 169.468 183.536C169.468 187.52 171.604 189.968 173.764 189.968C175.972 189.968 177.892 187.424 179.356 182.504C180.1 179.936 180.58 177.128 180.892 174.632ZM201.748 183.584V192.92H203.404V185.24H211.996V192.8H213.724V183.584H201.748ZM212.836 170.936C210.172 171.896 205.3 172.64 201.124 173.096C201.34 173.504 201.58 174.2 201.652 174.632C205.948 174.224 210.964 173.48 214.252 172.352L212.836 170.936ZM206.932 173.024V184.544H208.66V173.024H206.932ZM199.996 177.896V179.624H215.284V177.896H199.996ZM202.876 190.232V191.888H212.788V190.232H202.876ZM194.5 172.424C195.988 173.216 197.98 174.392 198.988 175.112L200.044 173.648C199.012 172.952 196.972 171.872 195.508 171.152L194.5 172.424ZM193.324 179.048C194.788 179.816 196.78 180.968 197.764 181.64L198.772 180.176C197.764 179.48 195.748 178.424 194.332 177.728L193.324 179.048ZM193.9 191.384L195.412 192.608C196.828 190.376 198.508 187.376 199.78 184.832L198.484 183.656C197.092 186.392 195.196 189.56 193.9 191.384ZM218.956 186.536V187.904H229.9V186.536H218.956ZM218.308 174.968V176.36H230.284V174.968H218.308ZM223.516 172.784V190.448H225.172V172.784H223.516ZM218.284 190.496L218.548 192.056C221.596 191.744 225.94 191.24 230.02 190.76L229.996 189.344C225.7 189.8 221.212 190.232 218.284 190.496ZM220.516 182.048H228.292V183.824H220.516V182.048ZM220.516 179.12H228.292V180.848H220.516V179.12ZM219.004 177.872V185.072H229.828V177.872H219.004ZM228.964 171.08C226.492 171.656 222.124 172.088 218.548 172.28C218.74 172.64 218.908 173.24 218.98 173.624C222.58 173.504 227.044 173.096 229.876 172.472L228.964 171.08ZM230.116 176.456V178.136H238.78V176.456H230.116ZM238.084 176.456V176.888C237.82 186.608 237.556 190.064 236.956 190.808C236.74 191.12 236.5 191.192 236.116 191.192C235.636 191.192 234.58 191.168 233.404 191.072C233.692 191.552 233.884 192.296 233.932 192.8C235.036 192.872 236.188 192.872 236.86 192.8C237.58 192.728 238.06 192.512 238.492 191.888C239.284 190.856 239.524 187.496 239.788 177.368C239.788 177.128 239.812 176.456 239.812 176.456H238.084ZM233.02 171.152C232.996 180.224 233.116 187.832 227.62 191.768C228.052 192.056 228.676 192.632 228.964 193.064C234.7 188.768 234.724 180.704 234.748 171.152H233.02Z" fill="#444444"/>
<path d="M128.824 209.76H123.256V225H120.94V209.76H115.36V207.804H128.824V209.76ZM150.228 207.804V225H148.188V212.364C148.188 212.196 148.192 212.016 148.2 211.824C148.216 211.632 148.232 211.436 148.248 211.236L142.344 221.988C142.16 222.348 141.88 222.528 141.504 222.528H141.168C140.792 222.528 140.512 222.348 140.328 221.988L134.304 211.188C134.352 211.612 134.376 212.004 134.376 212.364V225H132.336V207.804H134.052C134.26 207.804 134.42 207.824 134.532 207.864C134.644 207.904 134.752 208.016 134.856 208.2L140.796 218.784C140.892 218.976 140.984 219.176 141.072 219.384C141.168 219.592 141.256 219.804 141.336 220.02C141.416 219.804 141.5 219.592 141.588 219.384C141.676 219.168 141.772 218.964 141.876 218.772L147.708 208.2C147.804 208.016 147.908 207.904 148.02 207.864C148.14 207.824 148.304 207.804 148.512 207.804H150.228ZM164.381 210.492C164.309 210.612 164.229 210.704 164.141 210.768C164.061 210.824 163.961 210.852 163.841 210.852C163.705 210.852 163.545 210.784 163.361 210.648C163.177 210.512 162.945 210.364 162.665 210.204C162.393 210.036 162.061 209.884 161.669 209.748C161.285 209.612 160.817 209.544 160.265 209.544C159.745 209.544 159.285 209.616 158.885 209.76C158.493 209.896 158.161 210.084 157.889 210.324C157.625 210.564 157.425 210.848 157.289 211.176C157.153 211.496 157.085 211.844 157.085 212.22C157.085 212.7 157.201 213.1 157.433 213.42C157.673 213.732 157.985 214 158.369 214.224C158.761 214.448 159.201 214.644 159.689 214.812C160.185 214.972 160.689 215.14 161.201 215.316C161.721 215.492 162.225 215.692 162.713 215.916C163.209 216.132 163.649 216.408 164.033 216.744C164.425 217.08 164.737 217.492 164.969 217.98C165.209 218.468 165.329 219.068 165.329 219.78C165.329 220.532 165.201 221.24 164.945 221.904C164.689 222.56 164.313 223.132 163.817 223.62C163.329 224.108 162.725 224.492 162.005 224.772C161.293 225.052 160.481 225.192 159.569 225.192C158.449 225.192 157.433 224.992 156.521 224.592C155.609 224.184 154.829 223.636 154.181 222.948L154.853 221.844C154.917 221.756 154.993 221.684 155.081 221.628C155.177 221.564 155.281 221.532 155.393 221.532C155.497 221.532 155.613 221.576 155.741 221.664C155.877 221.744 156.029 221.848 156.197 221.976C156.365 222.104 156.557 222.244 156.773 222.396C156.989 222.548 157.233 222.688 157.505 222.816C157.785 222.944 158.101 223.052 158.453 223.14C158.805 223.22 159.201 223.26 159.641 223.26C160.193 223.26 160.685 223.184 161.117 223.032C161.549 222.88 161.913 222.668 162.209 222.396C162.513 222.116 162.745 221.784 162.905 221.4C163.065 221.016 163.145 220.588 163.145 220.116C163.145 219.596 163.025 219.172 162.785 218.844C162.553 218.508 162.245 218.228 161.861 218.004C161.477 217.78 161.037 217.592 160.541 217.44C160.045 217.28 159.541 217.12 159.029 216.96C158.517 216.792 158.013 216.6 157.517 216.384C157.021 216.168 156.581 215.888 156.197 215.544C155.813 215.2 155.501 214.772 155.261 214.26C155.029 213.74 154.913 213.1 154.913 212.34C154.913 211.732 155.029 211.144 155.261 210.576C155.501 210.008 155.845 209.504 156.293 209.064C156.749 208.624 157.305 208.272 157.961 208.008C158.625 207.744 159.385 207.612 160.241 207.612C161.201 207.612 162.073 207.764 162.857 208.068C163.649 208.372 164.345 208.812 164.945 209.388L164.381 210.492ZM180.892 208.632L178.9 208.584C178.66 211.08 178.156 213.792 177.46 216.072C176.236 220.128 174.94 221.76 173.812 221.76C172.732 221.76 171.364 220.416 171.364 217.392C171.364 213.864 174.652 209.52 179.932 209.52C184.54 209.52 187.204 212.688 187.204 216.528C187.204 220.68 184.18 222.984 181.108 223.68C180.532 223.8 179.812 223.896 179.044 223.968L180.148 225.744C185.86 225 189.172 221.64 189.172 216.624C189.172 211.752 185.596 207.792 179.98 207.792C174.1 207.792 169.468 212.328 169.468 217.536C169.468 221.52 171.604 223.968 173.764 223.968C175.972 223.968 177.892 221.424 179.356 216.504C180.1 213.936 180.58 211.128 180.892 208.632ZM203.38 204.864V208.368H205.228V204.864H203.38ZM194.188 207.216V211.872H195.964V208.824H212.62V211.872H214.468V207.216H194.188ZM196.204 211.608V213.12H212.62V211.608H196.204ZM193.828 219.072V220.656H214.972V219.072H193.828ZM196.588 215.28V216.792H212.284V215.28H196.588ZM205.564 219.456L203.932 219.84C205.66 223.824 209.068 226.08 214.132 226.992C214.372 226.512 214.852 225.792 215.236 225.408C210.412 224.736 207.052 222.768 205.564 219.456ZM203.356 209.616V215.592C203.356 219.048 202.636 222.96 193.588 225.48C193.972 225.864 194.5 226.536 194.692 226.92C204.004 224.136 205.156 219.696 205.156 215.592V209.616H203.356ZM232.444 204.864V212.136H234.22V204.864H232.444ZM227.212 206.184V207.408H239.716V206.184H227.212ZM227.836 208.632V209.832H239.092V208.632H227.836ZM226.564 211.104V212.352H240.316V211.104H226.564ZM229.804 217.512H237.244V219.096H229.804V217.512ZM229.804 220.248H237.244V221.832H229.804V220.248ZM229.804 214.824H237.244V216.336H229.804V214.824ZM228.172 213.576V223.08H238.948V213.576H228.172ZM234.676 224.16C236.236 225.072 237.94 226.224 238.924 226.968L240.508 226.08C239.404 225.288 237.532 224.184 235.924 223.272L234.676 224.16ZM230.884 223.2C229.756 224.16 227.452 225.264 225.484 225.864C225.844 226.152 226.396 226.68 226.66 227.04C228.628 226.416 230.956 225.264 232.396 224.112L230.884 223.2ZM222.004 204.864C221.38 206.448 220.252 208.8 219.388 210.192L220.612 210.72C221.548 209.4 222.676 207.24 223.588 205.464L222.004 204.864ZM224.692 207.6C223.372 210.12 221.116 213.696 219.316 215.832L220.42 216.456C222.22 214.368 224.548 210.96 226.204 208.296L224.692 207.6ZM218.164 209.856C219.436 211.08 220.876 212.784 221.476 213.936L222.508 212.592C221.884 211.488 220.42 209.88 219.124 208.704L218.164 209.856ZM223.828 213.048C224.764 214.656 225.7 216.768 226.012 218.112L227.428 217.464C227.092 216.144 226.132 214.08 225.148 212.52L223.828 213.048ZM217.972 215.472L218.092 217.08C220.276 216.936 223.18 216.768 226.084 216.576V215.064C223.06 215.232 220.06 215.376 217.972 215.472ZM224.428 218.856C225.004 220.248 225.508 222.072 225.628 223.248L227.02 222.816C226.876 221.64 226.348 219.84 225.724 218.448L224.428 218.856ZM219.412 218.568C219.148 220.656 218.692 222.816 217.924 224.28C218.284 224.448 219.004 224.76 219.292 224.952C220.06 223.416 220.612 221.112 220.924 218.832L219.412 218.568ZM221.956 216.168V226.92H223.54V216.168H221.956Z" fill="#444444"/>
<path d="M132.28 247.984V242.296C132.28 241.36 132.376 240.592 132.4 240.352H130.216C130.264 240.568 130.336 241.36 130.336 242.296V248.128C130.336 254.872 128.176 256.936 123.808 258.592L125.416 260.128C130.888 257.656 132.28 254.368 132.28 247.984ZM123.616 240.496H121.48C121.552 241.048 121.6 241.72 121.6 242.224V251.032C121.6 251.944 121.504 252.976 121.48 253.192H123.616C123.592 252.976 123.52 251.92 123.52 251.032V242.224C123.52 241.408 123.592 240.712 123.616 240.496ZM116.608 245.152V247.216C116.872 247.216 117.952 247.144 119.008 247.144H134.92C135.976 247.144 136.84 247.192 137.104 247.216V245.176C136.768 245.224 135.976 245.32 134.896 245.32H119.008C118 245.32 116.824 245.176 116.608 245.152ZM158.056 241.288C158.056 240.424 158.728 239.728 159.592 239.728C160.432 239.728 161.128 240.424 161.128 241.288C161.128 242.128 160.432 242.8 159.592 242.8C158.728 242.8 158.056 242.128 158.056 241.288ZM156.976 241.288C156.976 242.728 158.128 243.904 159.592 243.904C161.032 243.904 162.232 242.728 162.232 241.288C162.232 239.824 161.032 238.648 159.592 238.648C158.128 238.648 156.976 239.824 156.976 241.288ZM152.944 240.52H150.712C150.784 240.88 150.88 241.696 150.88 242.224C150.88 243.496 150.88 245.872 150.88 246.688C150.88 247.816 150.88 256.024 150.856 257.32C150.856 257.968 150.592 258.232 149.944 258.232C149.296 258.232 148.216 258.16 147.16 257.968L147.328 259.864C148.312 259.984 149.728 260.032 150.736 260.032C152.2 260.032 152.8 259.384 152.8 258.136C152.8 256.408 152.8 248.632 152.8 246.688C152.8 245.512 152.8 243.496 152.8 242.224C152.8 241.72 152.896 240.856 152.944 240.52ZM142.168 244.552V246.592C142.792 246.52 143.464 246.496 144.208 246.496C145.672 246.496 157.744 246.496 159.184 246.496C159.76 246.496 160.48 246.52 161.104 246.568V244.576C160.504 244.648 159.712 244.696 159.16 244.696C157.72 244.696 145.6 244.696 144.184 244.696C143.44 244.696 142.84 244.648 142.168 244.552ZM147.688 250.216L145.984 249.4C145.048 251.344 143.008 254.2 141.4 255.664L143.056 256.792C144.424 255.328 146.656 252.256 147.688 250.216ZM157.696 249.4L156.064 250.288C157.336 251.8 159.136 254.776 160.096 256.672L161.848 255.688C160.888 253.936 158.992 250.936 157.696 249.4ZM167.344 248.608V250.96C168.112 250.912 169.384 250.864 170.704 250.864C172.48 250.864 182.056 250.864 183.88 250.864C184.936 250.864 185.944 250.936 186.448 250.96V248.608C185.896 248.656 185.056 248.752 183.856 248.752C182.08 248.752 172.456 248.752 170.704 248.752C169.336 248.752 168.088 248.68 167.344 248.608ZM199.84 248.008L198.52 249.352C201.496 251.2 205.6 254.152 207.808 256.168L209.224 254.488C206.848 252.568 202.912 249.808 199.84 248.008ZM210.808 243.64L209.224 242.68C208.84 242.824 208.312 242.896 207.664 242.896H200.032L199.264 244.624H208.144C207.592 246.856 206.08 249.904 204.232 252.112C202.072 254.68 198.808 257.224 194.344 258.568L196.048 260.08C200.608 258.4 203.728 255.832 205.912 253.144C208.024 250.552 209.536 247.36 210.256 244.912C210.376 244.528 210.616 243.976 210.808 243.64ZM202.72 240.16L200.536 239.464C200.392 240.088 200.008 240.952 199.768 241.36C198.664 243.568 196.192 247.168 192.088 249.736L193.672 250.96C197.512 248.32 200.224 244.696 201.64 242.056C201.88 241.6 202.312 240.784 202.72 240.16ZM217.264 248.608V250.96C218.032 250.912 219.304 250.864 220.624 250.864C222.4 250.864 231.976 250.864 233.8 250.864C234.856 250.864 235.864 250.936 236.368 250.96V248.608C235.816 248.656 234.976 248.752 233.776 248.752C232 248.752 222.376 248.752 220.624 248.752C219.256 248.752 218.008 248.68 217.264 248.608ZM251.8 247.336C250.384 247.336 249.232 248.488 249.232 249.88C249.232 251.296 250.384 252.448 251.8 252.448C253.192 252.448 254.344 251.296 254.344 249.88C254.344 248.488 253.192 247.336 251.8 247.336ZM265.936 246.088V247.768H277.36V246.088H265.936ZM278.968 241.696V254.968H280.72V241.696H278.968ZM270.976 240.88V260.896H272.752V240.88H270.976ZM284.872 239.296V258.544C284.872 259 284.68 259.144 284.224 259.144C283.768 259.168 282.28 259.168 280.552 259.12C280.84 259.648 281.128 260.44 281.224 260.944C283.432 260.968 284.776 260.92 285.568 260.608C286.336 260.32 286.648 259.768 286.648 258.52V239.296H284.872ZM275.752 238.984C273.496 239.992 269.32 240.808 265.768 241.312C265.984 241.696 266.248 242.32 266.32 242.752C269.968 242.272 274.312 241.48 277.096 240.376L275.752 238.984ZM270.904 246.856C269.848 250.072 267.52 253.888 265.408 255.904C265.72 256.36 266.176 257.08 266.392 257.608C268.624 255.328 270.976 251.032 272.2 247.384L270.904 246.856ZM272.512 249.328L271.528 250.288C272.632 251.224 275.248 253.744 276.232 254.848L277.288 253.336C276.52 252.664 273.424 249.976 272.512 249.328ZM294.4 240.544V242.272H309.928V240.544H294.4ZM294.4 246.136V247.84H309.904V246.136H294.4ZM294.28 251.872V253.576H309.952V251.872H294.28ZM293.392 240.544V249.232C293.392 252.616 293.128 256.888 290.488 259.864C290.872 260.104 291.592 260.704 291.88 261.064C294.736 257.872 295.168 252.904 295.168 249.256V240.544H293.392ZM309.208 240.544V258.472C309.208 258.928 309.04 259.072 308.584 259.096C308.128 259.096 306.496 259.12 304.792 259.048C305.056 259.528 305.344 260.32 305.416 260.8C307.696 260.824 309.088 260.8 309.904 260.512C310.696 260.2 310.984 259.648 310.984 258.472V240.544H309.208ZM300.928 241.192V260.704H302.752V241.192H300.928ZM315.976 246.568V248.176H337.36V246.568H315.976ZM318.088 241.864V243.472H331.984V241.864H318.088ZM321.976 254.608V256.048H333.28V254.608H321.976ZM321.976 258.592V260.152H333.28V258.592H321.976ZM324.256 238.84V247.432H326.008V238.84H324.256ZM334.768 239.68C330.328 245.632 323.176 250.288 315.424 252.976C315.784 253.336 316.36 254.08 316.576 254.488C324.256 251.536 331.48 246.808 336.304 240.496L334.768 239.68ZM320.992 250.72V260.944H322.792V252.232H332.56V260.848H334.432V250.72H320.992ZM353.152 242.632L351.16 242.584C350.92 245.08 350.416 247.792 349.72 250.072C348.496 254.128 347.2 255.76 346.072 255.76C344.992 255.76 343.624 254.416 343.624 251.392C343.624 247.864 346.912 243.52 352.192 243.52C356.8 243.52 359.464 246.688 359.464 250.528C359.464 254.68 356.44 256.984 353.368 257.68C352.792 257.8 352.072 257.896 351.304 257.968L352.408 259.744C358.12 259 361.432 255.64 361.432 250.624C361.432 245.752 357.856 241.792 352.24 241.792C346.36 241.792 341.728 246.328 341.728 251.536C341.728 255.52 343.864 257.968 346.024 257.968C348.232 257.968 350.152 255.424 351.616 250.504C352.36 247.936 352.84 245.128 353.152 242.632ZM366.28 240.856V242.416H386.896V240.856H366.28ZM367.72 244.792V246.352H385.84V244.792H367.72ZM369.304 253.432V255.016H384.232V253.432H369.304ZM369.328 248.224V249.76H383.584V256.216H385.384V248.224H369.328ZM368.248 248.224V251.392C368.248 253.912 367.888 257.32 365.272 259.816C365.68 260.056 366.4 260.68 366.664 261.04C369.472 258.352 370.024 254.32 370.024 251.416V248.224H368.248ZM375.616 238.792V245.656H377.44V238.792H375.616ZM375.664 248.752V254.392H377.416V248.752H375.664Z" fill="#444444"/>
<path d="M126.064 272.84V275.816H127.864V272.84H126.064ZM116.752 274.784V279.032H118.432V276.344H135.496V279.032H137.224V274.784H116.752ZM119.368 278.288V279.752H134.608V278.288H119.368ZM126.16 276.656C125.752 280.328 124.384 281.912 118.384 282.68C118.672 283.016 119.056 283.664 119.2 284.048C125.728 283.064 127.36 281.048 127.888 276.656H126.16ZM125.512 281.168C128.368 281.936 131.992 283.28 133.84 284.312L134.752 283.016C132.832 281.984 129.184 280.712 126.4 280.04L125.512 281.168ZM116.368 284.048V285.656H137.632V284.048H116.368ZM132.376 285.08V292.856C132.376 293.192 132.256 293.264 131.872 293.312C131.488 293.312 130.168 293.312 128.68 293.264C128.92 293.768 129.184 294.44 129.256 294.92C131.152 294.92 132.4 294.92 133.144 294.656C133.936 294.392 134.152 293.912 134.152 292.904V285.08H132.376ZM119.512 287.144V293.672H121.192V287.144H119.512ZM120.328 287.144V288.56H127.24V291.032H120.328V292.448H128.944V287.144H120.328ZM148.216 278.192V280.016H162.856V278.192H148.216ZM157.984 273.128V292.472C157.984 293.024 157.768 293.168 157.192 293.216C156.64 293.24 154.648 293.24 152.608 293.168C152.896 293.672 153.232 294.488 153.328 294.968C155.944 294.992 157.576 294.968 158.512 294.656C159.424 294.392 159.808 293.84 159.808 292.472V273.128H157.984ZM149.728 283.28C150.952 285.2 152.512 287.792 153.232 289.28L154.912 288.368C154.144 286.904 152.536 284.408 151.288 282.536L149.728 283.28ZM144.4 279.392V294.872H146.224V277.616L146.2 277.568L144.4 279.392ZM147.016 273.008C145.624 276.752 143.32 280.424 140.848 282.776C141.184 283.208 141.76 284.12 141.976 284.552C144.64 281.84 147.16 277.712 148.768 273.536L147.016 273.008ZM178.432 276.632L176.44 276.584C176.2 279.08 175.696 281.792 175 284.072C173.776 288.128 172.48 289.76 171.352 289.76C170.272 289.76 168.904 288.416 168.904 285.392C168.904 281.864 172.192 277.52 177.472 277.52C182.08 277.52 184.744 280.688 184.744 284.528C184.744 288.68 181.72 290.984 178.648 291.68C178.072 291.8 177.352 291.896 176.584 291.968L177.688 293.744C183.4 293 186.712 289.64 186.712 284.624C186.712 279.752 183.136 275.792 177.52 275.792C171.64 275.792 167.008 280.328 167.008 285.536C167.008 289.52 169.144 291.968 171.304 291.968C173.512 291.968 175.432 289.424 176.896 284.504C177.64 281.936 178.12 279.128 178.432 276.632ZM199.288 285.584V294.92H200.944V287.24H209.536V294.8H211.264V285.584H199.288ZM210.376 272.936C207.712 273.896 202.84 274.64 198.664 275.096C198.88 275.504 199.12 276.2 199.192 276.632C203.488 276.224 208.504 275.48 211.792 274.352L210.376 272.936ZM204.472 275.024V286.544H206.2V275.024H204.472ZM197.536 279.896V281.624H212.824V279.896H197.536ZM200.416 292.232V293.888H210.328V292.232H200.416ZM192.04 274.424C193.528 275.216 195.52 276.392 196.528 277.112L197.584 275.648C196.552 274.952 194.512 273.872 193.048 273.152L192.04 274.424ZM190.864 281.048C192.328 281.816 194.32 282.968 195.304 283.64L196.312 282.176C195.304 281.48 193.288 280.424 191.872 279.728L190.864 281.048ZM191.44 293.384L192.952 294.608C194.368 292.376 196.048 289.376 197.32 286.832L196.024 285.656C194.632 288.392 192.736 291.56 191.44 293.384ZM219.52 274.544V276.272H235.048V274.544H219.52ZM219.52 280.136V281.84H235.024V280.136H219.52ZM219.4 285.872V287.576H235.072V285.872H219.4ZM218.512 274.544V283.232C218.512 286.616 218.248 290.888 215.608 293.864C215.992 294.104 216.712 294.704 217 295.064C219.856 291.872 220.288 286.904 220.288 283.256V274.544H218.512ZM234.328 274.544V292.472C234.328 292.928 234.16 293.072 233.704 293.096C233.248 293.096 231.616 293.12 229.912 293.048C230.176 293.528 230.464 294.32 230.536 294.8C232.816 294.824 234.208 294.8 235.024 294.512C235.816 294.2 236.104 293.648 236.104 292.472V274.544H234.328ZM226.048 275.192V294.704H227.872V275.192H226.048ZM241.048 276.992V278.72H262.528V276.992H241.048ZM248.896 282.68V284.408H258.496V282.68H248.896ZM257.848 282.68L257.824 282.992C257.416 289.568 256.936 292.256 256.168 292.952C255.904 293.192 255.568 293.216 255.04 293.216C254.416 293.216 252.712 293.216 250.984 293.048C251.32 293.552 251.584 294.296 251.608 294.824C253.24 294.896 254.824 294.944 255.664 294.896C256.576 294.824 257.176 294.656 257.728 294.08C258.664 293.12 259.144 290.456 259.624 283.544C259.672 283.28 259.696 282.68 259.696 282.68H257.848ZM248.488 277.952C248.224 283.688 247.816 290.384 240.808 293.552C241.264 293.912 241.84 294.56 242.104 295.016C249.424 291.512 250.12 284.312 250.48 277.952H248.488ZM250.768 272.792V277.736H252.616V272.792H250.768ZM272.128 282.944V284.648H287.56V282.944H272.128ZM273.352 276.776V278.504H286.432V276.776H273.352ZM278.848 272.864V284.168H280.696V272.864H278.848ZM272.152 291.992L272.416 293.816C275.824 293.6 280.84 293.264 285.616 292.904V291.272C280.648 291.56 275.416 291.848 272.152 291.992ZM281.824 287.888C283.624 290.072 285.544 293.072 286.288 294.968L287.968 294.032C287.176 292.088 285.184 289.232 283.36 287.096L281.824 287.888ZM277.24 284.072C276.496 286.64 275.08 290.24 273.904 292.472L275.488 293.024C276.688 290.84 278.128 287.408 279.184 284.624L277.24 284.072ZM266.944 274.352C268.624 275 270.64 276.128 271.648 276.992L272.68 275.48C271.648 274.64 269.584 273.608 267.952 273.008L266.944 274.352ZM265.672 280.976C267.352 281.552 269.416 282.56 270.448 283.328L271.432 281.816C270.352 281.048 268.24 280.112 266.608 279.584L265.672 280.976ZM266.512 293.456L268.072 294.632C269.416 292.4 271 289.4 272.2 286.856L270.856 285.728C269.536 288.44 267.736 291.608 266.512 293.456Z" fill="#444444"/>
<path d="M126.064 306.84V309.816H127.864V306.84H126.064ZM116.752 308.784V313.032H118.432V310.344H135.496V313.032H137.224V308.784H116.752ZM119.368 312.288V313.752H134.608V312.288H119.368ZM126.16 310.656C125.752 314.328 124.384 315.912 118.384 316.68C118.672 317.016 119.056 317.664 119.2 318.048C125.728 317.064 127.36 315.048 127.888 310.656H126.16ZM125.512 315.168C128.368 315.936 131.992 317.28 133.84 318.312L134.752 317.016C132.832 315.984 129.184 314.712 126.4 314.04L125.512 315.168ZM116.368 318.048V319.656H137.632V318.048H116.368ZM132.376 319.08V326.856C132.376 327.192 132.256 327.264 131.872 327.312C131.488 327.312 130.168 327.312 128.68 327.264C128.92 327.768 129.184 328.44 129.256 328.92C131.152 328.92 132.4 328.92 133.144 328.656C133.936 328.392 134.152 327.912 134.152 326.904V319.08H132.376ZM119.512 321.144V327.672H121.192V321.144H119.512ZM120.328 321.144V322.56H127.24V325.032H120.328V326.448H128.944V321.144H120.328ZM148.216 312.192V314.016H162.856V312.192H148.216ZM157.984 307.128V326.472C157.984 327.024 157.768 327.168 157.192 327.216C156.64 327.24 154.648 327.24 152.608 327.168C152.896 327.672 153.232 328.488 153.328 328.968C155.944 328.992 157.576 328.968 158.512 328.656C159.424 328.392 159.808 327.84 159.808 326.472V307.128H157.984ZM149.728 317.28C150.952 319.2 152.512 321.792 153.232 323.28L154.912 322.368C154.144 320.904 152.536 318.408 151.288 316.536L149.728 317.28ZM144.4 313.392V328.872H146.224V311.616L146.2 311.568L144.4 313.392ZM147.016 307.008C145.624 310.752 143.32 314.424 140.848 316.776C141.184 317.208 141.76 318.12 141.976 318.552C144.64 315.84 147.16 311.712 148.768 307.536L147.016 307.008ZM179.968 307.992H177.76C177.808 308.208 177.88 308.88 177.928 309.528C178 310.848 178.024 315.624 178.024 316.68L179.848 317.616C179.824 315.696 179.776 311.064 179.848 309.504C179.848 309.216 179.92 308.28 179.968 307.992ZM167.2 311.352L167.248 313.2C170.872 312.936 176.008 312.768 180.136 312.768C183.664 312.768 185.824 312.816 187.168 312.888L187.192 311.112C186.064 311.088 183.088 311.088 180.16 311.088C176.464 311.088 170.464 311.304 167.2 311.352ZM179.8 318.312L178.48 317.64C178.864 320.208 177.904 321.456 176.416 321.456C175.096 321.456 173.968 320.592 173.968 319.08C173.968 317.52 175.144 316.536 176.416 316.536C177.712 316.536 178.768 317.448 178.768 319.608C178.768 323.568 176.224 325.704 171.856 326.736L173.464 328.296C179.032 326.64 180.616 323.04 180.616 319.776C180.616 317.016 179.2 314.952 176.416 314.952C174.136 314.952 172.168 316.728 172.168 319.104C172.168 321.72 174.112 323.136 176.128 323.136C178.312 323.136 179.8 321.528 179.8 318.312ZM195.592 309.336L195.64 311.304C196.168 311.232 196.696 311.208 197.248 311.16C198.496 311.088 203.296 310.896 204.568 310.824C203.368 311.904 200.344 314.424 199 315.528C197.632 316.704 194.536 319.296 192.544 320.928L193.936 322.32C196.96 319.224 199.12 317.544 203.104 317.544C206.248 317.544 208.504 319.296 208.504 321.672C208.504 324.672 205.936 326.352 201.856 326.352C199.96 326.352 198.64 325.656 198.64 324.48C198.64 323.64 199.48 322.968 200.584 322.968C202.504 322.968 203.68 324.432 203.824 326.472L205.552 326.184C205.384 323.76 203.776 321.504 200.584 321.504C198.376 321.504 196.888 322.992 196.888 324.624C196.888 326.64 198.88 328.056 202.144 328.056C207.232 328.056 210.424 325.536 210.424 321.672C210.424 318.432 207.568 316.056 203.584 316.056C202.504 316.056 201.352 316.176 200.248 316.536C202.12 315 205.384 312.192 206.56 311.28C207.016 310.92 207.496 310.608 207.928 310.32L206.824 308.904C206.56 309 206.224 309.048 205.504 309.12C204.232 309.24 198.544 309.408 197.272 309.408C196.792 309.408 196.12 309.384 195.592 309.336ZM216.088 310.992V312.72H237.568V310.992H216.088ZM223.936 316.68V318.408H233.536V316.68H223.936ZM232.888 316.68L232.864 316.992C232.456 323.568 231.976 326.256 231.208 326.952C230.944 327.192 230.608 327.216 230.08 327.216C229.456 327.216 227.752 327.216 226.024 327.048C226.36 327.552 226.624 328.296 226.648 328.824C228.28 328.896 229.864 328.944 230.704 328.896C231.616 328.824 232.216 328.656 232.768 328.08C233.704 327.12 234.184 324.456 234.664 317.544C234.712 317.28 234.736 316.68 234.736 316.68H232.888ZM223.528 311.952C223.264 317.688 222.856 324.384 215.848 327.552C216.304 327.912 216.88 328.56 217.144 329.016C224.464 325.512 225.16 318.312 225.52 311.952H223.528ZM225.808 306.792V311.736H227.656V306.792H225.808ZM247.168 316.944V318.648H262.6V316.944H247.168ZM248.392 310.776V312.504H261.472V310.776H248.392ZM253.888 306.864V318.168H255.736V306.864H253.888ZM247.192 325.992L247.456 327.816C250.864 327.6 255.88 327.264 260.656 326.904V325.272C255.688 325.56 250.456 325.848 247.192 325.992ZM256.864 321.888C258.664 324.072 260.584 327.072 261.328 328.968L263.008 328.032C262.216 326.088 260.224 323.232 258.4 321.096L256.864 321.888ZM252.28 318.072C251.536 320.64 250.12 324.24 248.944 326.472L250.528 327.024C251.728 324.84 253.168 321.408 254.224 318.624L252.28 318.072ZM241.984 308.352C243.664 309 245.68 310.128 246.688 310.992L247.72 309.48C246.688 308.64 244.624 307.608 242.992 307.008L241.984 308.352ZM240.712 314.976C242.392 315.552 244.456 316.56 245.488 317.328L246.472 315.816C245.392 315.048 243.28 314.112 241.648 313.584L240.712 314.976ZM241.552 327.456L243.112 328.632C244.456 326.4 246.04 323.4 247.24 320.856L245.896 319.728C244.576 322.44 242.776 325.608 241.552 327.456Z" fill="#444444"/>
<path d="M127.984 342.16H125.704C125.8 342.616 125.872 343.672 125.896 344.56C125.896 345.592 125.92 347.56 125.92 348.952C125.92 351.4 126.208 356.056 126.208 357.832C126.208 359.488 125.344 360.328 123.592 360.328C121.264 360.328 119.92 359.584 119.92 358.264C119.92 356.92 121.336 356.08 123.832 356.08C128.032 356.08 131.968 358.432 134.368 360.832L135.52 359.032C133.072 356.8 128.8 354.4 124.048 354.4C119.896 354.4 118.024 356.152 118.024 358.336C118.024 361.072 120.448 362.104 123.784 362.104C126.976 362.104 128.176 360.424 128.176 358.48C128.176 356.368 127.792 351.568 127.792 348.952C127.792 347.296 127.792 345.64 127.792 344.56C127.816 343.84 127.888 342.688 127.984 342.16ZM126.736 347.008V348.784C128.464 348.784 132.376 348.616 134.968 348.376L134.896 346.576C132.304 346.888 128.392 347.008 126.736 347.008ZM156.856 343.312L155.056 341.728C154.792 342.16 154.168 342.856 153.688 343.336C152.08 344.968 148.432 347.848 146.608 349.36C144.448 351.184 144.184 352.216 146.44 354.112C148.696 355.96 152.32 359.08 154.024 360.808C154.6 361.408 155.176 361.984 155.68 362.56L157.384 361C154.84 358.432 150.592 355.024 148.408 353.224C146.848 351.928 146.872 351.568 148.312 350.32C150.088 348.832 153.544 346.12 155.2 344.68C155.584 344.344 156.328 343.696 156.856 343.312ZM176.224 342.016L174.232 341.944C174.232 342.256 174.208 342.688 174.16 343.12C173.944 345.184 173.464 349.072 173.464 352.36C173.464 355.408 174.112 358.816 174.808 360.952L176.56 360.424C175.816 358.168 175.144 355.288 175.144 352.168C175.144 348.88 175.552 345.088 175.96 343.072C176.032 342.736 176.128 342.304 176.224 342.016ZM172.36 344.968C171.328 344.968 169.24 344.824 168.4 344.68L168.448 346.48C169.432 346.528 171.304 346.624 172.336 346.624C175.912 346.624 180.64 346.264 184.096 345.664L184.072 343.888C180.76 344.632 176.584 344.968 172.36 344.968ZM182.368 347.8L180.448 347.32C180.424 347.704 180.304 348.352 180.208 348.712C179.104 352.6 177.136 355.192 175 357.064C173.464 358.408 171.904 359.08 170.704 359.08C169.816 359.08 169.336 358.6 169.336 357.616C169.336 355.408 171.496 352.768 174.208 351.568C175.432 351.016 177.208 350.44 179.224 350.44C182.8 350.44 184.768 352.48 184.768 354.808C184.768 357.904 182.08 360.136 177.76 360.616L178.792 362.224C184.36 361.336 186.64 358.336 186.64 354.904C186.64 351.544 183.784 348.904 179.248 348.904C177.688 348.904 175.744 349.264 174.136 349.888C170.584 351.256 167.536 354.64 167.536 357.928C167.536 359.968 168.784 360.928 170.368 360.928C172.072 360.928 173.992 360.04 175.528 358.864C178.048 356.92 180.448 353.584 181.864 349.144C182.008 348.76 182.224 348.112 182.368 347.8ZM195.592 343.336L195.64 345.304C196.168 345.232 196.696 345.208 197.248 345.16C198.496 345.088 203.296 344.896 204.568 344.824C203.368 345.904 200.344 348.424 199 349.528C197.632 350.704 194.536 353.296 192.544 354.928L193.936 356.32C196.96 353.224 199.12 351.544 203.104 351.544C206.248 351.544 208.504 353.296 208.504 355.672C208.504 358.672 205.936 360.352 201.856 360.352C199.96 360.352 198.64 359.656 198.64 358.48C198.64 357.64 199.48 356.968 200.584 356.968C202.504 356.968 203.68 358.432 203.824 360.472L205.552 360.184C205.384 357.76 203.776 355.504 200.584 355.504C198.376 355.504 196.888 356.992 196.888 358.624C196.888 360.64 198.88 362.056 202.144 362.056C207.232 362.056 210.424 359.536 210.424 355.672C210.424 352.432 207.568 350.056 203.584 350.056C202.504 350.056 201.352 350.176 200.248 350.536C202.12 349 205.384 346.192 206.56 345.28C207.016 344.92 207.496 344.608 207.928 344.32L206.824 342.904C206.56 343 206.224 343.048 205.504 343.12C204.232 343.24 198.544 343.408 197.272 343.408C196.792 343.408 196.12 343.384 195.592 343.336ZM224.872 340.912C223.384 341.344 220.648 341.752 218.344 341.992C218.536 342.304 218.728 342.832 218.8 343.144C221.224 342.976 224.128 342.592 226.096 342.016L224.872 340.912ZM235.192 340.936C233.56 341.392 230.632 341.776 228.184 341.992C228.352 342.328 228.544 342.808 228.616 343.144C231.208 343 234.304 342.64 236.392 342.064L235.192 340.936ZM217.864 341.488V343.888C217.864 345.424 217.6 347.344 215.872 348.928C216.256 349.144 216.832 349.696 217.096 350.08C219.064 348.232 219.496 345.712 219.496 343.96V342.376C219.808 342.328 219.928 342.232 219.952 342.064L217.864 341.488ZM227.704 341.56V343.696C227.704 345.064 227.344 346.6 225.376 347.872C225.76 348.112 226.288 348.688 226.504 349.072C228.808 347.512 229.312 345.352 229.312 343.768V342.376C229.624 342.328 229.744 342.232 229.768 342.064L227.704 341.56ZM218.608 344.32V345.736H226.72V344.32H218.608ZM228.424 344.32V345.736H237.568V344.32H228.424ZM222.28 344.848V348.736H223.912V344.848H222.28ZM232.36 344.848V348.808H233.992V344.848H232.36ZM220.864 353.296H233.008V354.976H220.864V353.296ZM220.864 356.128H233.008V357.856H220.864V356.128ZM220.864 350.44H233.008V352.12H220.864V350.44ZM219.112 349.24V359.08H234.808V349.24H219.112ZM228.832 360.304C231.448 361.168 234.064 362.2 235.576 362.992L237.568 362.08C235.84 361.264 232.936 360.208 230.296 359.392L228.832 360.304ZM223.192 359.344C221.464 360.28 218.584 361.12 216.112 361.648C216.52 361.96 217.144 362.656 217.432 363.016C219.832 362.344 222.88 361.24 224.824 360.088L223.192 359.344ZM247.984 352.504V354.016H254.512V358.024H247.984V359.536H256.192V352.504H247.984ZM247.192 352.504V360.976H248.872V352.504H247.192ZM242.848 345.352V346.696H249.52V345.352H242.848ZM253.912 345.352V346.696H260.704V345.352H253.912ZM259.912 341.872V360.496C259.912 360.952 259.768 361.096 259.312 361.096C258.856 361.12 257.272 361.144 255.688 361.072C255.952 361.576 256.264 362.416 256.336 362.92C258.448 362.92 259.84 362.896 260.656 362.608C261.424 362.296 261.712 361.72 261.712 360.52V341.872H259.912ZM242.992 341.872V343.336H248.968V348.88H242.992V350.344H250.672V341.872H242.992ZM260.848 341.872H252.832V350.344H260.848V348.904H254.56V343.312H260.848V341.872ZM241.984 341.872V362.944H243.76V341.872H241.984Z" fill="#444444"/>
<rect x="105.5" y="74.5" width="416" height="301" stroke="#444444"/>
<path d="M620.472 99.192V101.544H625.896V104.4H620.472V106.752H628.584V99.192H620.472ZM619.248 99.192V108.12H621.912V99.192H619.248ZM615.312 92.016V93.984H621.336V92.016H615.312ZM626.448 92.016V93.984H632.52V92.016H626.448ZM631.32 88.536V106.68C631.32 107.112 631.152 107.28 630.696 107.28C630.24 107.28 628.584 107.304 627.192 107.232C627.6 107.976 628.08 109.344 628.176 110.16C630.384 110.16 631.896 110.112 632.904 109.632C633.888 109.152 634.224 108.336 634.224 106.704V88.536H631.32ZM615.552 88.536V90.744H620.448V95.328H615.552V97.536H623.136V88.536H615.552ZM632.88 88.536H624.768V97.56H632.88V95.376H627.504V90.72H632.88V88.536ZM613.896 88.536V110.16H616.752V88.536H613.896ZM643.176 90.864L639.48 90.816C639.648 91.56 639.672 92.592 639.672 93.24C639.672 94.704 639.696 97.536 639.936 99.744C640.608 106.176 642.888 108.528 645.552 108.528C647.472 108.528 648.96 107.088 650.568 102.888L648.144 99.984C647.688 101.88 646.752 104.712 645.6 104.712C644.088 104.712 643.368 102.336 643.032 98.88C642.888 97.128 642.888 95.352 642.888 93.792C642.888 93.12 643.008 91.704 643.176 90.864ZM655.176 91.392L652.128 92.4C654.744 95.376 656.04 101.184 656.4 105.072L659.568 103.824C659.304 100.152 657.456 94.152 655.176 91.392ZM667.92 95.376V97.896H679.968V95.376H667.92ZM667.632 106.776V109.296H680.016V106.776H667.632ZM666.36 100.296V110.208H669.192V102.84H678.696V110.208H681.648V100.296H666.36ZM673.824 90.48C675.912 93.336 679.944 96.6 683.64 98.544C684.144 97.656 684.816 96.672 685.536 95.952C681.672 94.392 677.808 91.344 675.192 87.648H672.192C670.416 90.6 666.552 94.224 662.4 96.24C663.024 96.84 663.816 97.896 664.2 98.568C668.16 96.456 671.856 93.288 673.824 90.48ZM699.144 105.768L700.56 108.648C706.512 107.472 709.56 104.592 709.56 99.72C709.56 95.88 706.632 93.264 702.96 93.264C700.392 93.264 697.344 94.2 694.488 96.912L694.464 100.296C696.816 97.824 699.384 96.072 702.456 96.072C704.856 96.072 706.368 97.8 706.368 99.672C706.368 103.416 703.344 105.12 699.144 105.768ZM693.696 95.328L693.504 95.76L693.456 96.384C692.256 98.256 689.376 102.072 687.864 103.944L689.736 106.584C691.008 104.832 693.144 101.616 694.2 100.08L695.592 95.568C696 94.944 696.744 93.768 697.152 93.216L696.192 91.968C695.112 92.328 692.04 92.784 690.528 92.856C689.664 92.904 689.112 92.904 688.44 92.88L688.752 95.976C690.336 95.76 692.616 95.448 693.696 95.328ZM693.408 90.696C693.408 91.656 692.88 98.376 692.808 100.512C692.736 103.512 692.712 105.12 692.688 107.448C692.688 107.832 692.664 108.72 692.616 109.224H695.904C695.856 108.696 695.76 107.808 695.736 107.376C695.592 105.144 695.592 103.104 695.592 101.16C695.592 96.864 696.384 90.576 696.792 88.656L693.288 88.56C693.432 89.304 693.408 90.024 693.408 90.696ZM730.2 89.184H726.96C727.032 89.64 727.128 90.768 727.128 91.392C727.128 92.808 727.128 94.2 727.128 95.448C727.08 97.104 727.032 98.832 726.912 99.744C726.84 100.224 726.624 100.296 726.168 100.296C725.688 100.296 724.68 100.176 723.936 100.008L723.888 102.648C724.704 102.792 726.648 103.008 727.488 103.008C728.712 103.008 729.336 102.696 729.6 101.424C729.84 100.2 729.912 97.608 729.96 95.472C730.008 94.248 730.008 92.88 730.056 91.248C730.08 90.624 730.128 89.568 730.2 89.184ZM720.744 89.904H717.36C717.48 90.744 717.552 91.56 717.552 92.568C717.552 94.008 717.528 101.304 717.576 103.368C717.672 107.52 718.44 108.84 724.632 108.84C726.936 108.84 729.864 108.624 731.472 108.456L731.592 105.168C729.816 105.504 726.768 105.792 724.416 105.792C720.816 105.792 720.624 105.264 720.552 102.888C720.504 100.92 720.6 94.584 720.6 92.4C720.6 91.368 720.648 90.696 720.744 89.904ZM712.728 95.328L713.04 98.376C713.688 98.28 715.176 98.064 715.92 97.968C718.704 97.656 728.04 96.648 731.784 96.528C732.408 96.528 733.68 96.48 734.112 96.504V93.576C733.392 93.624 732.456 93.696 731.808 93.744C727.176 94.032 718.152 94.92 715.728 95.136C714.504 95.28 713.4 95.328 712.728 95.328ZM754.128 93.312C754.128 92.472 754.824 91.8 755.664 91.8C756.504 91.8 757.176 92.472 757.176 93.312C757.176 94.152 756.504 94.848 755.664 94.848C754.824 94.848 754.128 94.152 754.128 93.312ZM752.544 93.312C752.544 95.04 753.936 96.432 755.664 96.432C757.392 96.432 758.784 95.04 758.784 93.312C758.784 91.584 757.392 90.192 755.664 90.192C753.936 90.192 752.544 91.584 752.544 93.312ZM737.64 101.184L740.52 104.16C740.952 103.536 741.504 102.672 742.056 101.928C743.04 100.608 744.72 98.256 745.68 97.032C746.352 96.168 746.856 96.12 747.648 96.888C748.512 97.776 750.624 100.104 752.04 101.76C753.456 103.416 755.472 105.912 757.08 107.904L759.744 105.048C757.896 103.08 755.424 100.44 753.816 98.712C752.376 97.152 750.552 95.256 748.92 93.72C747.072 91.968 745.656 92.232 744.216 93.936C742.56 95.904 740.688 98.256 739.608 99.336C738.864 100.08 738.336 100.584 737.64 101.184ZM763.944 96.888V100.68C764.856 100.608 766.464 100.536 767.808 100.536C770.64 100.536 778.536 100.536 780.72 100.536C781.728 100.536 782.952 100.656 783.528 100.68V96.888C782.88 96.936 781.824 97.056 780.696 97.056C778.56 97.056 770.64 97.056 767.808 97.056C766.56 97.056 764.832 96.96 763.944 96.888ZM803.747 89.592L801.731 90.408C802.619 91.656 803.147 92.688 803.867 94.2L805.931 93.288C805.403 92.184 804.419 90.6 803.747 89.592ZM807.059 88.416L805.019 89.28C805.907 90.48 806.483 91.416 807.251 92.928L809.315 92.016C808.739 90.96 807.803 89.376 807.059 88.416ZM793.331 89.112L791.579 91.752C793.163 92.64 795.683 94.272 797.003 95.208L798.803 92.544C797.555 91.68 794.915 89.976 793.331 89.112ZM788.891 106.152L790.691 109.32C792.803 108.936 796.259 107.736 798.683 106.344C802.619 104.088 806.003 101.04 808.235 97.728L806.387 94.464C804.467 97.896 801.131 101.184 797.051 103.464C794.435 104.904 791.555 105.696 788.891 106.152ZM789.635 94.584L787.883 97.248C789.515 98.088 791.987 99.72 793.355 100.656L795.107 97.968C793.883 97.104 791.243 95.448 789.635 94.584Z" fill="#444444"/>
<rect x="602.5" y="74.5" width="221" height="48" stroke="#444444"/>
<path d="M620.76 180.32V183.008H630.624V188.528H633.432V180.32H620.76ZM619.56 187.376V190.088H635.256V187.376H619.56ZM624.768 176.624V185C624.768 189.56 624.168 194.12 618.312 197.192C619.056 197.648 620.184 198.632 620.712 199.232C626.976 195.752 627.648 190.256 627.648 185.024V176.624H624.768ZM628.944 188.888L626.28 189.536C627.576 194 629.784 197.408 633.48 199.208C633.912 198.416 634.824 197.264 635.496 196.688C632.16 195.32 629.976 192.392 628.944 188.888ZM614.04 178.856C615.552 179.528 617.448 180.632 618.336 181.472L619.992 179.12C619.032 178.304 617.088 177.32 615.6 176.744L614.04 178.856ZM612.648 185.384C614.184 186.032 616.104 187.088 617.016 187.904L618.672 185.504C617.688 184.712 615.696 183.752 614.208 183.224L612.648 185.384ZM613.344 197.024L615.84 198.848C617.184 196.472 618.6 193.688 619.776 191.144L617.568 189.344C616.248 192.152 614.544 195.2 613.344 197.024ZM644.736 178.784V181.256H659.928V178.784H644.736ZM648.216 188.624V191.024H656.64V188.624H648.216ZM648.24 192.656V195.056H656.712V192.656H648.24ZM650.808 176.648V179.888H653.784V176.648H650.808ZM655.272 187.616V199.112H658.104V187.616H655.272ZM655.176 180.272C653.352 183.392 648.816 184.928 643.752 185.624C644.208 186.2 644.856 187.424 645.12 188.048C650.544 186.992 655.416 185.024 657.864 181.04L655.176 180.272ZM639 178.856C640.512 179.528 642.408 180.632 643.296 181.472L644.952 179.12C643.992 178.304 642.048 177.32 640.56 176.744L639 178.856ZM637.608 185.384C639.144 186.032 641.064 187.088 641.976 187.904L643.632 185.504C642.648 184.712 640.656 183.752 639.168 183.224L637.608 185.384ZM638.304 197.024L640.824 198.848C642.168 196.472 643.608 193.688 644.808 191.144L642.6 189.344C641.256 192.152 639.528 195.2 638.304 197.024ZM646.608 187.544V190.352C646.608 192.392 646.272 195.752 643.608 197.864C644.28 198.224 645.384 198.968 645.912 199.424C648.936 196.952 649.368 192.92 649.368 190.4V187.544H646.608ZM648.792 180.056L646.44 181.064C649.752 185.528 654 186.92 658.968 187.856C659.232 186.968 659.88 185.912 660.504 185.264C655.776 184.616 651.816 183.68 648.792 180.056ZM679.248 182.312C679.248 181.472 679.944 180.8 680.784 180.8C681.624 180.8 682.296 181.472 682.296 182.312C682.296 183.152 681.624 183.848 680.784 183.848C679.944 183.848 679.248 183.152 679.248 182.312ZM677.664 182.312C677.664 184.04 679.056 185.432 680.784 185.432C682.512 185.432 683.904 184.04 683.904 182.312C683.904 180.584 682.512 179.192 680.784 179.192C679.056 179.192 677.664 180.584 677.664 182.312ZM662.76 190.184L665.64 193.16C666.072 192.536 666.624 191.672 667.176 190.928C668.16 189.608 669.84 187.256 670.8 186.032C671.472 185.168 671.976 185.12 672.768 185.888C673.632 186.776 675.744 189.104 677.16 190.76C678.576 192.416 680.592 194.912 682.2 196.904L684.864 194.048C683.016 192.08 680.544 189.44 678.936 187.712C677.496 186.152 675.672 184.256 674.04 182.72C672.192 180.968 670.776 181.232 669.336 182.936C667.68 184.904 665.808 187.256 664.728 188.336C663.984 189.08 663.456 189.584 662.76 190.184ZM689.064 185.888V189.68C689.976 189.608 691.584 189.536 692.928 189.536C695.76 189.536 703.656 189.536 705.84 189.536C706.848 189.536 708.072 189.656 708.648 189.68V185.888C708 185.936 706.944 186.056 705.816 186.056C703.68 186.056 695.76 186.056 692.928 186.056C691.68 186.056 689.952 185.96 689.064 185.888ZM728.867 178.592L726.851 179.408C727.739 180.656 728.267 181.688 728.987 183.2L731.051 182.288C730.523 181.184 729.539 179.6 728.867 178.592ZM732.179 177.416L730.139 178.28C731.027 179.48 731.603 180.416 732.371 181.928L734.435 181.016C733.859 179.96 732.923 178.376 732.179 177.416ZM718.451 178.112L716.699 180.752C718.283 181.64 720.803 183.272 722.123 184.208L723.923 181.544C722.675 180.68 720.035 178.976 718.451 178.112ZM714.011 195.152L715.811 198.32C717.923 197.936 721.379 196.736 723.803 195.344C727.739 193.088 731.123 190.04 733.355 186.728L731.507 183.464C729.587 186.896 726.251 190.184 722.171 192.464C719.555 193.904 716.675 194.696 714.011 195.152ZM714.755 183.584L713.003 186.248C714.635 187.088 717.107 188.72 718.475 189.656L720.227 186.968C719.003 186.104 716.363 184.448 714.755 183.584Z" fill="#444444"/>
<rect x="602.5" y="163.5" width="221" height="48" stroke="#444444"/>
<line x1="602" y1="99.5" x2="522" y2="99.5" stroke="#444444"/>
<path d="M602 188H562.5V100.5" stroke="#444444"/>
</svg>
