<svg width="900" height="120" viewBox="0 0 900 120" fill="none" xmlns="http://www.w3.org/2000/svg">
<path d="M400 0L450 60L400 120H0V0.000247073L400 0Z" fill="#E67F3B"/>
<path d="M850 0L900 60L850 120H450L500 60L450 0.000247073L850 0Z" fill="#F6AD3B"/>
<path d="M187.295 50.94C187.215 50.7667 187.089 50.54 186.915 50.26C186.742 49.98 186.549 49.7 186.335 49.42C186.135 49.14 185.942 48.92 185.755 48.76C188.289 47.92 190.382 46.7667 192.035 45.3C193.702 43.8333 194.902 41.9533 195.635 39.66C195.009 39.6733 194.295 39.6933 193.495 39.72C192.695 39.7467 191.875 39.7733 191.035 39.8C190.209 39.8267 189.409 39.8533 188.635 39.88C187.875 39.9067 187.209 39.9333 186.635 39.96C186.062 39.9867 185.642 40.0067 185.375 40.02L185.215 37.32C185.602 37.3467 186.109 37.3667 186.735 37.38C187.362 37.3933 188.055 37.4 188.815 37.4C189.589 37.4 190.375 37.4 191.175 37.4C191.989 37.3867 192.775 37.3733 193.535 37.36C194.295 37.3333 194.982 37.3067 195.595 37.28C196.209 37.2533 196.695 37.2267 197.055 37.2L198.675 38.04C198.222 40.1733 197.475 42.0867 196.435 43.78C195.395 45.46 194.102 46.9067 192.555 48.12C191.009 49.32 189.255 50.26 187.295 50.94ZM204.335 49.2V47.2C204.669 47.2267 205.289 47.2467 206.195 47.26C207.102 47.2733 208.189 47.28 209.455 47.28V43.48C208.615 43.48 207.849 43.4867 207.155 43.5C206.462 43.5 206.009 43.5133 205.795 43.54V41.56C206.102 41.5867 206.662 41.6067 207.475 41.62C208.302 41.62 209.309 41.62 210.495 41.62C211.642 41.62 212.622 41.6133 213.435 41.6C214.262 41.5867 214.809 41.5733 215.075 41.56V43.54C214.862 43.5133 214.442 43.5 213.815 43.5C213.189 43.4867 212.402 43.48 211.455 43.48V47.28C212.669 47.2667 213.715 47.2533 214.595 47.24C215.489 47.2267 216.062 47.2133 216.315 47.2V49.2C215.995 49.1733 215.315 49.1533 214.275 49.14C213.249 49.1267 211.962 49.12 210.415 49.12C209.549 49.12 208.689 49.1267 207.835 49.14C206.982 49.14 206.235 49.1467 205.595 49.16C204.969 49.16 204.549 49.1733 204.335 49.2ZM220.695 44.7C220.709 44.5133 220.715 44.26 220.715 43.94C220.715 43.62 220.715 43.3 220.715 42.98C220.715 42.66 220.709 42.4067 220.695 42.22C220.949 42.2333 221.395 42.2467 222.035 42.26C222.689 42.2733 223.462 42.2867 224.355 42.3C225.262 42.3133 226.229 42.3267 227.255 42.34C228.282 42.34 229.309 42.34 230.335 42.34C231.362 42.34 232.329 42.3333 233.235 42.32C234.155 42.3067 234.949 42.2933 235.615 42.28C236.282 42.2667 236.755 42.2467 237.035 42.22C237.022 42.3933 237.009 42.64 236.995 42.96C236.995 43.28 236.995 43.6067 236.995 43.94C237.009 44.26 237.015 44.5067 237.015 44.68C236.682 44.6667 236.189 44.6533 235.535 44.64C234.895 44.6267 234.142 44.6133 233.275 44.6C232.422 44.5867 231.509 44.58 230.535 44.58C229.575 44.58 228.602 44.58 227.615 44.58C226.629 44.58 225.689 44.5867 224.795 44.6C223.902 44.6133 223.095 44.6267 222.375 44.64C221.669 44.6533 221.109 44.6733 220.695 44.7ZM240.815 50.84C240.642 50.5467 240.409 50.1933 240.115 49.78C239.822 49.3667 239.529 49.04 239.235 48.8C240.235 48.36 241.235 47.8133 242.235 47.16C243.235 46.4933 244.189 45.7533 245.095 44.94C246.015 44.1267 246.849 43.2667 247.595 42.36C248.355 41.44 248.995 40.5067 249.515 39.56C248.862 39.6 248.142 39.6467 247.355 39.7C246.582 39.74 245.809 39.7867 245.035 39.84C244.275 39.8933 243.582 39.9467 242.955 40C242.342 40.04 241.869 40.0733 241.535 40.1L241.255 37.56C241.589 37.56 242.089 37.5533 242.755 37.54C243.422 37.5267 244.169 37.5067 244.995 37.48C245.822 37.44 246.649 37.4 247.475 37.36C248.302 37.3067 249.042 37.2533 249.695 37.2C250.362 37.1467 250.855 37.0933 251.175 37.04L252.795 38.08C252.462 39.0133 252.042 39.9267 251.535 40.82C251.042 41.7133 250.475 42.5733 249.835 43.4C250.302 43.7733 250.795 44.1867 251.315 44.64C251.835 45.0933 252.349 45.56 252.855 46.04C253.362 46.52 253.829 46.98 254.255 47.42C254.682 47.86 255.035 48.2533 255.315 48.6C254.982 48.8133 254.629 49.0867 254.255 49.42C253.895 49.7533 253.569 50.08 253.275 50.4C253.022 50.04 252.695 49.6333 252.295 49.18C251.909 48.7133 251.482 48.2467 251.015 47.78C250.562 47.3 250.102 46.84 249.635 46.4C249.169 45.9467 248.729 45.5467 248.315 45.2C247.209 46.3733 246.009 47.4467 244.715 48.42C243.422 49.38 242.122 50.1867 240.815 50.84ZM254.155 38.64C253.915 38.2133 253.589 37.76 253.175 37.28C252.775 36.7867 252.415 36.3933 252.095 36.1L253.195 35.26C253.382 35.42 253.615 35.66 253.895 35.98C254.175 36.2867 254.449 36.6067 254.715 36.94C254.982 37.26 255.182 37.5333 255.315 37.76L254.155 38.64ZM255.995 37.16C255.742 36.7333 255.409 36.2867 254.995 35.82C254.595 35.34 254.229 34.9533 253.895 34.66L254.995 33.8C255.195 33.9733 255.435 34.2133 255.715 34.52C255.995 34.8267 256.269 35.14 256.535 35.46C256.802 35.78 257.009 36.0533 257.155 36.28L255.995 37.16ZM263.581 51V39.72L261.141 41.32L260.001 39.5L264.081 36.98H265.721V51H263.581ZM104.058 87.944C104.042 87.688 104.002 87.376 103.938 87.008C103.874 86.656 103.794 86.312 103.698 85.976C103.618 85.624 103.53 85.344 103.434 85.136H105.306C105.626 85.136 105.858 85.088 106.002 84.992C106.146 84.88 106.218 84.672 106.218 84.368V79.232H90.402V76.928H93.93C93.85 76.624 93.746 76.32 93.618 76.016C93.506 75.696 93.386 75.432 93.258 75.224C94.442 75.096 95.45 74.888 96.282 74.6C97.13 74.296 97.826 73.888 98.37 73.376H94.554V71.24H99.57C99.618 71.016 99.65 70.792 99.666 70.568C99.698 70.344 99.722 70.104 99.738 69.848H93.618V72.8H90.93V67.544H99.666V65.816H102.738V67.544H111.546V72.752H108.858V69.848H102.522C102.506 70.088 102.474 70.328 102.426 70.568C102.394 70.792 102.346 71.016 102.282 71.24H107.994V73.376H103.89C104.546 73.888 105.322 74.296 106.218 74.6C107.114 74.904 108.122 75.12 109.242 75.248C109.098 75.472 108.954 75.744 108.81 76.064C108.666 76.368 108.538 76.656 108.426 76.928H112.098V79.232H108.978V85.472C108.978 86.336 108.73 86.96 108.234 87.344C107.738 87.744 106.994 87.944 106.002 87.944H104.058ZM93.738 86.216V80.288H103.002V86.216H93.738ZM96.69 76.928H105.714C104.786 76.608 103.93 76.176 103.146 75.632C102.378 75.088 101.738 74.448 101.226 73.712C100.73 74.448 100.098 75.088 99.33 75.632C98.578 76.176 97.698 76.608 96.69 76.928ZM96.474 84.104H100.266V82.4H96.474V84.104ZM126.006 87.704C125.974 87.432 125.918 87.112 125.838 86.744C125.774 86.376 125.694 86.016 125.598 85.664C125.502 85.296 125.406 85.008 125.31 84.8H127.71C128.03 84.8 128.262 84.744 128.406 84.632C128.55 84.52 128.622 84.304 128.622 83.984V74.024H120.126V71.336H128.622V66.104H131.574V71.336H134.742V74.024H131.574V85.184C131.574 86.064 131.318 86.704 130.806 87.104C130.31 87.504 129.55 87.704 128.526 87.704H126.006ZM116.31 87.728V75.584C115.926 76.048 115.542 76.496 115.158 76.928C114.774 77.344 114.398 77.728 114.03 78.08C113.806 77.808 113.486 77.504 113.07 77.168C112.654 76.816 112.278 76.544 111.942 76.352C112.438 75.92 112.958 75.376 113.502 74.72C114.046 74.048 114.582 73.32 115.11 72.536C115.654 71.752 116.158 70.952 116.622 70.136C117.102 69.304 117.51 68.52 117.846 67.784C118.182 67.032 118.422 66.368 118.566 65.792L121.182 66.704C120.958 67.44 120.67 68.2 120.318 68.984C119.966 69.752 119.574 70.52 119.142 71.288V87.728H116.31ZM124.638 82.04C124.43 81.576 124.118 81.04 123.702 80.432C123.286 79.808 122.846 79.2 122.382 78.608C121.934 78.016 121.534 77.544 121.182 77.192L123.558 75.632C123.974 76.016 124.406 76.488 124.854 77.048C125.302 77.592 125.726 78.16 126.126 78.752C126.542 79.344 126.886 79.896 127.158 80.408C126.95 80.504 126.678 80.656 126.342 80.864C126.006 81.056 125.678 81.264 125.358 81.488C125.054 81.712 124.814 81.896 124.638 82.04ZM147.738 87.776V84.152H144.978V81.32H147.738V76.784C147.21 77.632 146.634 78.48 146.01 79.328C145.386 80.16 144.754 80.936 144.114 81.656C143.49 82.376 142.882 83 142.29 83.528C142.13 83.336 141.93 83.12 141.69 82.88C141.45 82.64 141.202 82.416 140.946 82.208V87.752H138.09V75.968C137.834 76.288 137.578 76.6 137.322 76.904C137.082 77.192 136.834 77.472 136.578 77.744C136.322 77.456 135.994 77.16 135.594 76.856C135.21 76.536 134.834 76.288 134.466 76.112C135.042 75.568 135.626 74.864 136.218 74C136.81 73.136 137.362 72.208 137.874 71.216C138.402 70.224 138.85 69.264 139.218 68.336C139.602 67.408 139.866 66.608 140.01 65.936L142.698 66.656C142.506 67.392 142.258 68.152 141.954 68.936C141.65 69.72 141.314 70.504 140.946 71.288V80.936C141.602 80.312 142.298 79.56 143.034 78.68C143.77 77.8 144.466 76.888 145.122 75.944C145.778 74.984 146.322 74.072 146.754 73.208H141.93V70.544H147.738V65.96H150.546V70.544H156.762V73.208H151.194C151.562 73.928 152.018 74.68 152.562 75.464C153.122 76.248 153.722 77.016 154.362 77.768C155.002 78.52 155.634 79.216 156.258 79.856C156.882 80.48 157.442 81 157.938 81.416C157.73 81.528 157.482 81.704 157.194 81.944C156.922 82.184 156.65 82.44 156.378 82.712C156.122 82.968 155.914 83.208 155.754 83.432C154.922 82.68 154.034 81.736 153.09 80.6C152.162 79.448 151.314 78.264 150.546 77.048V81.32H153.186V84.152H150.546V87.776H147.738ZM168.27 87.92C168.19 87.728 168.062 87.496 167.886 87.224C167.71 86.968 167.518 86.704 167.31 86.432C167.118 86.176 166.934 85.968 166.758 85.808C167.99 85.392 169.054 84.824 169.95 84.104C170.846 83.368 171.47 82.464 171.822 81.392H167.958V75.344H172.11V73.952H169.35V72.416C169.078 72.624 168.806 72.824 168.534 73.016C168.262 73.192 168.006 73.352 167.766 73.496C167.654 73.304 167.478 73.064 167.238 72.776C166.998 72.472 166.758 72.2 166.518 71.96V72.2H164.43V73.592H166.518V75.68H164.43V77.264H167.262C167.262 78.176 167.246 79.136 167.214 80.144C167.182 81.136 167.126 82.08 167.046 82.976C166.982 83.856 166.886 84.592 166.758 85.184C166.55 86.128 166.198 86.784 165.702 87.152C165.222 87.536 164.47 87.728 163.446 87.728H162.198C162.182 87.408 162.126 87 162.03 86.504C161.934 86.024 161.83 85.656 161.718 85.4H163.038C163.518 85.4 163.862 85.328 164.07 85.184C164.278 85.04 164.446 84.696 164.574 84.152C164.606 84.024 164.638 83.872 164.67 83.696C164.702 83.504 164.726 83.304 164.742 83.096C164.582 83.144 164.406 83.192 164.214 83.24C164.038 83.288 163.91 83.328 163.83 83.36C163.766 82.896 163.662 82.344 163.518 81.704C163.39 81.064 163.254 80.536 163.11 80.12L164.334 79.808C164.414 80.016 164.494 80.28 164.574 80.6C164.67 80.92 164.758 81.248 164.838 81.584C164.854 81.184 164.862 80.792 164.862 80.408C164.878 80.008 164.886 79.64 164.886 79.304H158.454V66.584H167.358V68.72H164.43V70.112H166.518V71.36C167.254 70.96 167.99 70.448 168.726 69.824C169.478 69.184 170.158 68.504 170.766 67.784C171.374 67.048 171.822 66.352 172.11 65.696L174.078 66.08C174.51 66.672 175.07 67.272 175.758 67.88C176.462 68.488 177.23 69.048 178.062 69.56C178.894 70.072 179.718 70.488 180.534 70.808C180.23 71.112 179.926 71.496 179.622 71.96C179.334 72.424 179.134 72.808 179.022 73.112C178.75 72.984 178.47 72.84 178.182 72.68C177.894 72.52 177.606 72.344 177.318 72.152V73.952H174.63V75.344H178.926V81.392H175.134C175.582 82.368 176.294 83.216 177.27 83.936C178.262 84.656 179.318 85.224 180.438 85.64C180.262 85.8 180.062 86.016 179.838 86.288C179.63 86.576 179.43 86.864 179.238 87.152C179.062 87.44 178.926 87.68 178.83 87.872C177.806 87.408 176.83 86.824 175.902 86.12C174.99 85.416 174.23 84.568 173.622 83.576C173.046 84.584 172.286 85.44 171.342 86.144C170.414 86.848 169.39 87.44 168.27 87.92ZM170.214 71.72H176.67C175.998 71.24 175.358 70.72 174.75 70.16C174.142 69.6 173.63 69.064 173.214 68.552C172.862 69.064 172.422 69.6 171.894 70.16C171.366 70.704 170.806 71.224 170.214 71.72ZM157.494 84.824C157.526 84.472 157.542 84.048 157.542 83.552C157.558 83.04 157.558 82.536 157.542 82.04C157.542 81.528 157.518 81.096 157.47 80.744L159.126 80.552C159.158 80.888 159.182 81.312 159.198 81.824C159.23 82.32 159.246 82.824 159.246 83.336C159.262 83.848 159.27 84.296 159.27 84.68C159.014 84.664 158.718 84.672 158.382 84.704C158.062 84.736 157.766 84.776 157.494 84.824ZM159.822 84.272C159.822 83.984 159.806 83.608 159.774 83.144C159.742 82.664 159.702 82.2 159.654 81.752C159.622 81.288 159.582 80.936 159.534 80.696L160.95 80.504C161.014 80.792 161.07 81.16 161.118 81.608C161.182 82.04 161.23 82.472 161.262 82.904C161.31 83.336 161.342 83.704 161.358 84.008C161.198 84.024 160.95 84.064 160.614 84.128C160.278 84.192 160.014 84.24 159.822 84.272ZM161.886 83.816C161.87 83.512 161.83 83.144 161.766 82.712C161.718 82.28 161.654 81.856 161.574 81.44C161.51 81.024 161.438 80.688 161.358 80.432L162.702 80.192C162.782 80.48 162.862 80.832 162.942 81.248C163.022 81.664 163.094 82.08 163.158 82.496C163.222 82.896 163.262 83.24 163.278 83.528C163.198 83.544 163.062 83.576 162.87 83.624C162.678 83.656 162.486 83.696 162.294 83.744C162.102 83.776 161.966 83.8 161.886 83.816ZM174.63 79.232H176.55V77.504H174.63V79.232ZM170.334 79.232H172.11V77.504H170.334V79.232ZM160.734 77.264H162.294V75.68H160.734V77.264ZM160.734 73.592H162.294V72.2H160.734V73.592ZM160.734 70.112H162.294V68.72H160.734V70.112ZM193.098 86.216C193.034 85.96 192.914 85.656 192.738 85.304C192.562 84.952 192.354 84.616 192.114 84.296C191.89 83.96 191.666 83.688 191.442 83.48C193.634 83.144 195.298 82.432 196.434 81.344C197.586 80.24 198.194 78.944 198.258 77.456C198.322 76.272 198.106 75.216 197.61 74.288C197.114 73.36 196.434 72.608 195.57 72.032C194.722 71.456 193.786 71.112 192.762 71C192.634 72.488 192.394 74.008 192.042 75.56C191.69 77.112 191.21 78.568 190.602 79.928C190.01 81.288 189.282 82.44 188.418 83.384C187.762 84.088 187.122 84.496 186.498 84.608C185.89 84.72 185.242 84.632 184.554 84.344C183.882 84.056 183.29 83.6 182.778 82.976C182.266 82.352 181.874 81.616 181.602 80.768C181.33 79.904 181.218 78.984 181.266 78.008C181.346 76.552 181.69 75.224 182.298 74.024C182.906 72.808 183.722 71.76 184.746 70.88C185.77 70 186.946 69.336 188.274 68.888C189.602 68.44 191.018 68.256 192.522 68.336C193.738 68.4 194.882 68.672 195.954 69.152C197.026 69.632 197.962 70.296 198.762 71.144C199.578 71.976 200.202 72.944 200.634 74.048C201.082 75.152 201.266 76.36 201.186 77.672C201.074 79.864 200.306 81.704 198.882 83.192C197.458 84.664 195.53 85.672 193.098 86.216ZM185.298 81.368C185.474 81.496 185.658 81.56 185.85 81.56C186.042 81.56 186.234 81.464 186.426 81.272C187.002 80.696 187.53 79.88 188.01 78.824C188.506 77.768 188.914 76.576 189.234 75.248C189.57 73.92 189.786 72.568 189.882 71.192C188.778 71.448 187.794 71.912 186.93 72.584C186.082 73.256 185.41 74.072 184.914 75.032C184.418 75.976 184.138 77.016 184.074 78.152C184.042 78.904 184.138 79.56 184.362 80.12C184.602 80.664 184.914 81.08 185.298 81.368ZM209.814 87.032V84.656H216.414V82.328H212.238V79.952H216.414V77.768H211.758V66.872H223.734V77.768H219.078V79.952H223.518V82.328H219.078V84.656H224.67V87.032H209.814ZM203.07 85.064L202.326 82.448C202.742 82.368 203.23 82.264 203.79 82.136C204.366 82.008 204.966 81.864 205.59 81.704V76.592H203.046V74.144H205.59V69.776H202.902V67.304H211.038V69.776H208.326V74.144H210.702V76.592H208.326V81.008C208.934 80.848 209.486 80.696 209.982 80.552C210.494 80.408 210.926 80.28 211.278 80.168V82.616C210.83 82.776 210.254 82.968 209.55 83.192C208.846 83.416 208.094 83.648 207.294 83.888C206.51 84.128 205.742 84.352 204.99 84.56C204.238 84.768 203.598 84.936 203.07 85.064ZM214.35 75.56H216.414V73.328H214.35V75.56ZM219.078 75.56H221.142V73.328H219.078V75.56ZM214.35 71.264H216.414V69.104H214.35V71.264ZM219.078 71.264H221.142V69.104H219.078V71.264ZM226.65 87.776C226.442 87.6 226.114 87.392 225.666 87.152C225.234 86.912 224.874 86.744 224.586 86.648C225.098 86.008 225.506 85.352 225.81 84.68C226.13 84.008 226.362 83.232 226.506 82.352C226.65 81.472 226.722 80.432 226.722 79.232V73.52C226.45 73.312 226.106 73.064 225.69 72.776C225.274 72.488 224.906 72.272 224.586 72.128C225.018 71.76 225.434 71.304 225.834 70.76C226.234 70.216 226.602 69.64 226.938 69.032C227.29 68.424 227.594 67.832 227.85 67.256C228.106 66.68 228.306 66.176 228.45 65.744L231.138 66.32C231.074 66.496 230.994 66.68 230.898 66.872C230.818 67.064 230.738 67.264 230.658 67.472H234.498L235.242 68.312C235.034 68.76 234.77 69.264 234.45 69.824C234.13 70.384 233.81 70.928 233.49 71.456H236.034V72.488C236.77 72.072 237.402 71.528 237.93 70.856C238.474 70.184 238.858 69.448 239.082 68.648H236.49V66.488H246.906C246.842 67.992 246.73 69.224 246.57 70.184C246.426 71.144 246.21 71.888 245.922 72.416C245.65 72.944 245.29 73.312 244.842 73.52C244.41 73.728 243.882 73.832 243.258 73.832H241.674C241.658 73.624 241.618 73.368 241.554 73.064C241.506 72.744 241.442 72.44 241.362 72.152C241.298 71.848 241.226 71.608 241.146 71.432H242.442C242.826 71.432 243.13 71.384 243.354 71.288C243.578 71.176 243.746 70.92 243.858 70.52C243.986 70.12 244.074 69.496 244.122 68.648H241.77C241.466 69.864 240.938 70.976 240.186 71.984C239.45 72.976 238.514 73.824 237.378 74.528C237.234 74.336 237.034 74.096 236.778 73.808C236.522 73.52 236.274 73.264 236.034 73.04V78.488C236.45 77.88 236.834 77.176 237.186 76.376C237.538 75.576 237.802 74.848 237.978 74.192L240.306 74.816C240.242 75.024 240.17 75.248 240.09 75.488C240.01 75.728 239.922 75.976 239.826 76.232H240.93V74.24H243.474V76.232H246.738V78.464H243.474V80.552H247.29V82.784H243.474V87.752H240.93V82.784H236.706V80.552H240.93V78.464H238.77C238.61 78.784 238.434 79.096 238.242 79.4C238.066 79.688 237.89 79.944 237.714 80.168C237.538 80.04 237.282 79.888 236.946 79.712C236.61 79.536 236.306 79.392 236.034 79.28V85.664C236.034 87.024 235.218 87.704 233.586 87.704H232.002C231.986 87.496 231.946 87.24 231.882 86.936C231.834 86.632 231.778 86.328 231.714 86.024C231.65 85.736 231.578 85.512 231.498 85.352H233.01C233.282 85.352 233.474 85.304 233.586 85.208C233.714 85.112 233.778 84.936 233.778 84.68V81.464H228.906C228.794 82.776 228.554 83.944 228.186 84.968C227.818 85.992 227.306 86.928 226.65 87.776ZM228.45 71.456H230.754C230.93 71.136 231.106 70.808 231.282 70.472C231.474 70.136 231.618 69.848 231.714 69.608H229.554C229.394 69.928 229.218 70.24 229.026 70.544C228.834 70.848 228.642 71.152 228.45 71.456ZM229.002 79.28H230.346V77.48H229.002V79.28ZM232.434 79.28H233.778V77.48H232.434V79.28ZM229.002 75.488H230.346V73.688H229.002V75.488ZM232.434 75.488H233.778V73.688H232.434V75.488ZM258.75 79.52C258.014 79.52 257.39 79.264 256.878 78.752C256.366 78.24 256.11 77.616 256.11 76.88C256.11 76.144 256.366 75.52 256.878 75.008C257.39 74.496 258.014 74.24 258.75 74.24C259.486 74.24 260.11 74.496 260.622 75.008C261.134 75.52 261.39 76.144 261.39 76.88C261.39 77.616 261.134 78.24 260.622 78.752C260.11 79.264 259.486 79.52 258.75 79.52ZM271.962 87.608C271.802 87.4 271.578 87.168 271.29 86.912C271.018 86.656 270.73 86.416 270.426 86.192C270.122 85.984 269.842 85.824 269.586 85.712C270.466 85.056 271.29 84.248 272.058 83.288C272.842 82.312 273.522 81.272 274.098 80.168C274.674 79.048 275.09 77.96 275.346 76.904L278.25 77.84C277.946 78.832 277.546 79.832 277.05 80.84C277.69 82.104 278.618 83.048 279.834 83.672V75.488H274.338V72.944H288.162V75.488H282.834V78.272H289.29V80.84H282.834V84.536C283.298 84.6 283.786 84.648 284.298 84.68C284.81 84.712 285.354 84.728 285.93 84.728C286.634 84.728 287.378 84.72 288.162 84.704C288.962 84.688 289.738 84.656 290.49 84.608C291.258 84.544 291.93 84.472 292.506 84.392C292.442 84.568 292.362 84.848 292.266 85.232C292.17 85.616 292.082 86.008 292.002 86.408C291.938 86.824 291.898 87.152 291.882 87.392C291.274 87.392 290.61 87.392 289.89 87.392C289.186 87.408 288.49 87.416 287.802 87.416C287.114 87.432 286.49 87.44 285.93 87.44C284.074 87.44 282.498 87.296 281.202 87.008C279.906 86.736 278.81 86.296 277.914 85.688C277.034 85.08 276.266 84.296 275.61 83.336C274.538 84.952 273.322 86.376 271.962 87.608ZM270.69 74.168V68.648H279.618V65.816H282.738V68.648H291.786V74.048H288.93V71.024H273.546V74.168H270.69ZM296.262 88.016C296.23 87.648 296.158 87.24 296.046 86.792C295.934 86.36 295.814 85.992 295.686 85.688H297.294C297.614 85.688 297.838 85.64 297.966 85.544C298.094 85.448 298.158 85.248 298.158 84.944V84.344C297.246 84.456 296.374 84.56 295.542 84.656C294.71 84.736 294.014 84.784 293.454 84.8L293.094 82.616C293.734 82.6 294.502 82.568 295.398 82.52C296.31 82.456 297.23 82.376 298.158 82.28V81.104H292.998V78.968H298.158V78.272C297.454 78.336 296.75 78.384 296.046 78.416C295.342 78.448 294.686 78.464 294.078 78.464C294.03 78.256 293.942 77.968 293.814 77.6C293.702 77.216 293.59 76.936 293.478 76.76C294.118 76.76 294.854 76.744 295.686 76.712C296.518 76.664 297.366 76.6 298.23 76.52C299.094 76.424 299.902 76.32 300.654 76.208C301.406 76.08 302.006 75.936 302.454 75.776H292.998V73.76H302.262V72.752H295.83V70.856H302.262V69.872H293.574V67.928H298.758C298.566 67.624 298.374 67.336 298.182 67.064C297.99 66.792 297.806 66.568 297.63 66.392L299.982 65.432C300.302 65.736 300.646 66.136 301.014 66.632C301.382 67.112 301.678 67.544 301.902 67.928H305.454C305.71 67.512 305.974 67.056 306.246 66.56C306.534 66.064 306.742 65.68 306.87 65.408L309.75 66.128C309.622 66.368 309.454 66.648 309.246 66.968C309.054 67.288 308.846 67.608 308.622 67.928H313.926V69.872H305.214V70.856H311.55V72.752H305.214V73.76H314.502V75.776H309.99C310.406 76.064 310.846 76.408 311.31 76.808C311.774 77.192 312.158 77.544 312.462 77.864C312.302 77.976 312.102 78.144 311.862 78.368C311.638 78.576 311.43 78.776 311.238 78.968H314.478V81.104H310.782L312.15 82.376C311.862 82.696 311.542 83.008 311.19 83.312C310.838 83.616 310.454 83.912 310.038 84.2C310.55 84.632 311.118 85.008 311.742 85.328C312.014 84.864 312.27 84.4 312.51 83.936C312.75 83.472 312.942 83.08 313.086 82.76C313.374 83 313.726 83.256 314.142 83.528C314.574 83.8 314.91 83.976 315.15 84.056C314.75 85.128 314.23 86.152 313.59 87.128C313.062 87.96 312.246 88.184 311.142 87.8C310.55 87.608 309.966 87.328 309.39 86.96C308.814 86.592 308.27 86.136 307.758 85.592C306.926 86.04 306.07 86.424 305.19 86.744C304.326 87.064 303.502 87.304 302.718 87.464C302.606 87.144 302.422 86.768 302.166 86.336C301.926 85.92 301.71 85.592 301.518 85.352C302.238 85.208 303.014 84.992 303.846 84.704C304.694 84.4 305.526 84.048 306.342 83.648C306.134 83.28 305.942 82.888 305.766 82.472C305.59 82.04 305.43 81.584 305.286 81.104H300.822V82.016C301.446 81.936 302.006 81.864 302.502 81.8C303.014 81.736 303.422 81.68 303.726 81.632V83.528C303.39 83.592 302.966 83.664 302.454 83.744C301.958 83.824 301.414 83.904 300.822 83.984V85.688C300.822 86.504 300.582 87.096 300.102 87.464C299.638 87.832 298.934 88.016 297.99 88.016H296.262ZM300.822 78.968H304.83C304.766 78.488 304.71 77.984 304.662 77.456C304.614 76.912 304.59 76.352 304.59 75.776H302.478L303.582 77.384C303.214 77.496 302.79 77.6 302.31 77.696C301.846 77.792 301.35 77.88 300.822 77.96V78.968ZM307.35 78.968H310.422C310.102 78.632 309.718 78.272 309.27 77.888C308.822 77.504 308.462 77.216 308.19 77.024L309.438 75.776H307.086C307.086 76.368 307.11 76.936 307.158 77.48C307.206 78.008 307.27 78.504 307.35 78.968ZM308.526 82.4C309.15 81.984 309.686 81.552 310.134 81.104H307.926C308.006 81.328 308.094 81.552 308.19 81.776C308.302 81.984 308.414 82.192 308.526 82.4ZM328.506 87.704C328.474 87.432 328.418 87.112 328.338 86.744C328.274 86.376 328.194 86.016 328.098 85.664C328.002 85.296 327.906 85.008 327.81 84.8H330.21C330.53 84.8 330.762 84.744 330.906 84.632C331.05 84.52 331.122 84.304 331.122 83.984V74.024H322.626V71.336H331.122V66.104H334.074V71.336H337.242V74.024H334.074V85.184C334.074 86.064 333.818 86.704 333.306 87.104C332.81 87.504 332.05 87.704 331.026 87.704H328.506ZM318.81 87.728V75.584C318.426 76.048 318.042 76.496 317.658 76.928C317.274 77.344 316.898 77.728 316.53 78.08C316.306 77.808 315.986 77.504 315.57 77.168C315.154 76.816 314.778 76.544 314.442 76.352C314.938 75.92 315.458 75.376 316.002 74.72C316.546 74.048 317.082 73.32 317.61 72.536C318.154 71.752 318.658 70.952 319.122 70.136C319.602 69.304 320.01 68.52 320.346 67.784C320.682 67.032 320.922 66.368 321.066 65.792L323.682 66.704C323.458 67.44 323.17 68.2 322.818 68.984C322.466 69.752 322.074 70.52 321.642 71.288V87.728H318.81ZM327.138 82.04C326.93 81.576 326.618 81.04 326.202 80.432C325.786 79.808 325.346 79.2 324.882 78.608C324.434 78.016 324.034 77.544 323.682 77.192L326.058 75.632C326.474 76.016 326.906 76.488 327.354 77.048C327.802 77.592 328.226 78.16 328.626 78.752C329.042 79.344 329.386 79.896 329.658 80.408C329.45 80.504 329.178 80.656 328.842 80.864C328.506 81.056 328.178 81.264 327.858 81.488C327.554 81.712 327.314 81.896 327.138 82.04ZM348.174 87.488C347.886 87.072 347.566 86.656 347.214 86.24C346.878 85.84 346.502 85.504 346.086 85.232C347.302 84.688 348.302 84.04 349.086 83.288C349.87 82.536 350.454 81.6 350.838 80.48C351.222 79.344 351.414 77.96 351.414 76.328V74.48C350.358 74.56 349.366 74.632 348.438 74.696C347.526 74.744 346.838 74.768 346.374 74.768L345.99 71.888C346.566 71.92 347.342 71.928 348.318 71.912C349.31 71.88 350.342 71.832 351.414 71.768V66.848H354.246V71.528C355.046 71.448 355.774 71.352 356.43 71.24C357.102 71.128 357.638 71.016 358.038 70.904V73.808C357.67 73.872 357.15 73.944 356.478 74.024C355.806 74.104 355.062 74.184 354.246 74.264V76.328C354.246 79.096 353.766 81.368 352.806 83.144C351.862 84.904 350.318 86.352 348.174 87.488ZM340.686 83.96C340.59 83.4 340.502 82.704 340.422 81.872C340.342 81.024 340.278 80.096 340.23 79.088C340.182 78.08 340.15 77.04 340.134 75.968C340.118 74.896 340.11 73.856 340.11 72.848C340.126 71.84 340.158 70.92 340.206 70.088C340.254 69.256 340.318 68.568 340.398 68.024L343.302 68.408C343.174 69.016 343.078 69.824 343.014 70.832C342.95 71.824 342.91 72.912 342.894 74.096C342.894 75.28 342.91 76.464 342.942 77.648C342.99 78.816 343.054 79.896 343.134 80.888C343.23 81.864 343.35 82.648 343.494 83.24L340.686 83.96Z" fill="white"/>
<path d="M636.895 50.94C636.815 50.7667 636.688 50.54 636.515 50.26C636.342 49.98 636.148 49.7 635.935 49.42C635.735 49.14 635.542 48.92 635.355 48.76C637.888 47.92 639.982 46.7667 641.635 45.3C643.302 43.8333 644.502 41.9533 645.235 39.66C644.608 39.6733 643.895 39.6933 643.095 39.72C642.295 39.7467 641.475 39.7733 640.635 39.8C639.808 39.8267 639.008 39.8533 638.235 39.88C637.475 39.9067 636.808 39.9333 636.235 39.96C635.662 39.9867 635.242 40.0067 634.975 40.02L634.815 37.32C635.202 37.3467 635.708 37.3667 636.335 37.38C636.962 37.3933 637.655 37.4 638.415 37.4C639.188 37.4 639.975 37.4 640.775 37.4C641.588 37.3867 642.375 37.3733 643.135 37.36C643.895 37.3333 644.582 37.3067 645.195 37.28C645.808 37.2533 646.295 37.2267 646.655 37.2L648.275 38.04C647.822 40.1733 647.075 42.0867 646.035 43.78C644.995 45.46 643.702 46.9067 642.155 48.12C640.608 49.32 638.855 50.26 636.895 50.94ZM653.935 49.2V47.2C654.268 47.2267 654.888 47.2467 655.795 47.26C656.702 47.2733 657.788 47.28 659.055 47.28V43.48C658.215 43.48 657.448 43.4867 656.755 43.5C656.062 43.5 655.608 43.5133 655.395 43.54V41.56C655.702 41.5867 656.262 41.6067 657.075 41.62C657.902 41.62 658.908 41.62 660.095 41.62C661.242 41.62 662.222 41.6133 663.035 41.6C663.862 41.5867 664.408 41.5733 664.675 41.56V43.54C664.462 43.5133 664.042 43.5 663.415 43.5C662.788 43.4867 662.002 43.48 661.055 43.48V47.28C662.268 47.2667 663.315 47.2533 664.195 47.24C665.088 47.2267 665.662 47.2133 665.915 47.2V49.2C665.595 49.1733 664.915 49.1533 663.875 49.14C662.848 49.1267 661.562 49.12 660.015 49.12C659.148 49.12 658.288 49.1267 657.435 49.14C656.582 49.14 655.835 49.1467 655.195 49.16C654.568 49.16 654.148 49.1733 653.935 49.2ZM670.295 44.7C670.308 44.5133 670.315 44.26 670.315 43.94C670.315 43.62 670.315 43.3 670.315 42.98C670.315 42.66 670.308 42.4067 670.295 42.22C670.548 42.2333 670.995 42.2467 671.635 42.26C672.288 42.2733 673.062 42.2867 673.955 42.3C674.862 42.3133 675.828 42.3267 676.855 42.34C677.882 42.34 678.908 42.34 679.935 42.34C680.962 42.34 681.928 42.3333 682.835 42.32C683.755 42.3067 684.548 42.2933 685.215 42.28C685.882 42.2667 686.355 42.2467 686.635 42.22C686.622 42.3933 686.608 42.64 686.595 42.96C686.595 43.28 686.595 43.6067 686.595 43.94C686.608 44.26 686.615 44.5067 686.615 44.68C686.282 44.6667 685.788 44.6533 685.135 44.64C684.495 44.6267 683.742 44.6133 682.875 44.6C682.022 44.5867 681.108 44.58 680.135 44.58C679.175 44.58 678.202 44.58 677.215 44.58C676.228 44.58 675.288 44.5867 674.395 44.6C673.502 44.6133 672.695 44.6267 671.975 44.64C671.268 44.6533 670.708 44.6733 670.295 44.7ZM690.415 50.84C690.242 50.5467 690.008 50.1933 689.715 49.78C689.422 49.3667 689.128 49.04 688.835 48.8C689.835 48.36 690.835 47.8133 691.835 47.16C692.835 46.4933 693.788 45.7533 694.695 44.94C695.615 44.1267 696.448 43.2667 697.195 42.36C697.955 41.44 698.595 40.5067 699.115 39.56C698.462 39.6 697.742 39.6467 696.955 39.7C696.182 39.74 695.408 39.7867 694.635 39.84C693.875 39.8933 693.182 39.9467 692.555 40C691.942 40.04 691.468 40.0733 691.135 40.1L690.855 37.56C691.188 37.56 691.688 37.5533 692.355 37.54C693.022 37.5267 693.768 37.5067 694.595 37.48C695.422 37.44 696.248 37.4 697.075 37.36C697.902 37.3067 698.642 37.2533 699.295 37.2C699.962 37.1467 700.455 37.0933 700.775 37.04L702.395 38.08C702.062 39.0133 701.642 39.9267 701.135 40.82C700.642 41.7133 700.075 42.5733 699.435 43.4C699.902 43.7733 700.395 44.1867 700.915 44.64C701.435 45.0933 701.948 45.56 702.455 46.04C702.962 46.52 703.428 46.98 703.855 47.42C704.282 47.86 704.635 48.2533 704.915 48.6C704.582 48.8133 704.228 49.0867 703.855 49.42C703.495 49.7533 703.168 50.08 702.875 50.4C702.622 50.04 702.295 49.6333 701.895 49.18C701.508 48.7133 701.082 48.2467 700.615 47.78C700.162 47.3 699.702 46.84 699.235 46.4C698.768 45.9467 698.328 45.5467 697.915 45.2C696.808 46.3733 695.608 47.4467 694.315 48.42C693.022 49.38 691.722 50.1867 690.415 50.84ZM703.755 38.64C703.515 38.2133 703.188 37.76 702.775 37.28C702.375 36.7867 702.015 36.3933 701.695 36.1L702.795 35.26C702.982 35.42 703.215 35.66 703.495 35.98C703.775 36.2867 704.048 36.6067 704.315 36.94C704.582 37.26 704.782 37.5333 704.915 37.76L703.755 38.64ZM705.595 37.16C705.342 36.7333 705.008 36.2867 704.595 35.82C704.195 35.34 703.828 34.9533 703.495 34.66L704.595 33.8C704.795 33.9733 705.035 34.2133 705.315 34.52C705.595 34.8267 705.868 35.14 706.135 35.46C706.402 35.78 706.608 36.0533 706.755 36.28L705.595 37.16ZM710.121 51V50.34C710.121 49.38 710.367 48.4467 710.861 47.54C711.367 46.6333 712.207 45.62 713.381 44.5C713.794 44.1 714.187 43.7 714.561 43.3C714.934 42.8867 715.241 42.4867 715.481 42.1C715.721 41.7 715.847 41.32 715.861 40.96C715.874 40.2667 715.714 39.7533 715.381 39.42C715.061 39.0867 714.601 38.92 714.001 38.92C713.427 38.92 713.001 39.1267 712.721 39.54C712.441 39.9533 712.301 40.5333 712.301 41.28H710.181C710.181 39.8933 710.534 38.8133 711.241 38.04C711.947 37.2667 712.867 36.88 714.001 36.88C714.774 36.88 715.461 37.04 716.061 37.36C716.674 37.68 717.154 38.1467 717.501 38.76C717.847 39.3733 718.007 40.1267 717.981 41.02C717.967 41.6467 717.821 42.2267 717.541 42.76C717.261 43.2933 716.887 43.8133 716.421 44.32C715.967 44.8133 715.447 45.34 714.861 45.9C714.247 46.5 713.701 47.0733 713.221 47.62C712.754 48.1667 712.481 48.64 712.401 49.04H717.741V51H710.121ZM526.278 87.32C526.038 86.968 525.702 86.56 525.27 86.096C524.854 85.632 524.438 85.288 524.022 85.064C525.478 84.376 526.83 83.488 528.078 82.4C529.342 81.312 530.438 80.072 531.366 78.68C532.31 77.272 533.03 75.768 533.526 74.168H523.854C523.854 74.728 523.854 75.336 523.854 75.992C523.87 76.632 523.886 77.224 523.902 77.768C523.934 78.296 523.958 78.68 523.974 78.92H520.902V71.36C521.51 71.392 522.382 71.424 523.518 71.456C524.67 71.472 525.894 71.48 527.19 71.48V66.608H530.19V71.48C531.278 71.464 532.262 71.448 533.142 71.432C534.022 71.4 534.662 71.36 535.062 71.312L537.102 72.32C536.814 73.968 536.334 75.552 535.662 77.072C534.99 78.576 534.174 79.976 533.214 81.272C532.254 82.552 531.182 83.704 529.998 84.728C528.814 85.752 527.574 86.616 526.278 87.32ZM544.026 83.84V81.44C544.426 81.472 545.17 81.496 546.258 81.512C547.346 81.528 548.65 81.536 550.17 81.536V76.976C549.162 76.976 548.242 76.984 547.41 77C546.578 77 546.034 77.016 545.778 77.048V74.672C546.146 74.704 546.818 74.728 547.794 74.744C548.786 74.744 549.994 74.744 551.418 74.744C552.794 74.744 553.97 74.736 554.946 74.72C555.938 74.704 556.594 74.688 556.914 74.672V77.048C556.658 77.016 556.154 77 555.402 77C554.65 76.984 553.706 76.976 552.57 76.976V81.536C554.026 81.52 555.282 81.504 556.338 81.488C557.41 81.472 558.098 81.456 558.402 81.44V83.84C558.018 83.808 557.202 83.784 555.954 83.768C554.722 83.752 553.178 83.744 551.322 83.744C550.282 83.744 549.25 83.752 548.226 83.768C547.202 83.768 546.306 83.776 545.538 83.792C544.786 83.792 544.282 83.808 544.026 83.84ZM567.966 86.168C567.87 85.96 567.718 85.688 567.51 85.352C567.302 85.016 567.07 84.68 566.814 84.344C566.574 84.008 566.342 83.744 566.118 83.552C569.158 82.56 571.67 81.184 573.654 79.424C575.654 77.648 577.094 75.392 577.974 72.656C577.222 72.672 576.366 72.696 575.406 72.728C574.462 72.76 573.486 72.792 572.478 72.824C571.47 72.84 570.502 72.864 569.574 72.896C568.662 72.928 567.862 72.96 567.174 72.992C566.486 73.024 565.982 73.048 565.662 73.064L565.47 69.824C565.934 69.856 566.542 69.88 567.294 69.896C568.062 69.912 568.902 69.92 569.814 69.92C570.726 69.92 571.67 69.92 572.646 69.92C573.622 69.904 574.558 69.888 575.454 69.872C576.366 69.84 577.19 69.808 577.926 69.776C578.662 69.744 579.246 69.712 579.678 69.68L581.622 70.712C581.094 73.272 580.198 75.568 578.934 77.6C577.686 79.616 576.134 81.352 574.278 82.808C572.422 84.248 570.318 85.368 567.966 86.168ZM582.798 71.192C582.494 70.696 582.086 70.168 581.574 69.608C581.078 69.032 580.63 68.576 580.23 68.24L581.526 67.16C581.766 67.352 582.054 67.632 582.39 68C582.742 68.368 583.078 68.744 583.398 69.128C583.734 69.496 583.99 69.816 584.166 70.088L582.798 71.192ZM584.91 69.416C584.59 68.92 584.174 68.392 583.662 67.832C583.166 67.272 582.71 66.824 582.294 66.488L583.59 65.408C583.83 65.6 584.118 65.88 584.454 66.248C584.806 66.616 585.15 66.992 585.486 67.376C585.822 67.744 586.078 68.056 586.254 68.312L584.91 69.416ZM593.634 87.176C593.426 86.84 593.138 86.448 592.77 86C592.402 85.552 592.034 85.2 591.666 84.944C593.858 84.032 595.482 82.808 596.538 81.272C597.61 79.72 598.17 77.72 598.218 75.272H594.018V80.048H591.138V75.296C590.354 75.296 589.594 75.304 588.858 75.32C588.138 75.32 587.498 75.328 586.938 75.344C586.394 75.344 586.002 75.352 585.762 75.368V72.488C585.938 72.488 586.29 72.496 586.818 72.512C587.362 72.528 588.01 72.544 588.762 72.56C589.53 72.56 590.322 72.568 591.138 72.584C591.138 71.848 591.13 71.136 591.114 70.448C591.114 69.76 591.106 69.152 591.09 68.624C591.074 68.08 591.05 67.688 591.018 67.448H594.114C594.098 67.688 594.082 68.08 594.066 68.624C594.05 69.168 594.034 69.792 594.018 70.496C594.018 71.184 594.018 71.888 594.018 72.608H598.218C598.218 72.048 598.21 71.408 598.194 70.688C598.178 69.968 598.162 69.272 598.146 68.6C598.13 67.912 598.114 67.368 598.098 66.968H601.098V72.584C601.882 72.568 602.634 72.56 603.354 72.56C604.09 72.544 604.738 72.536 605.298 72.536C605.874 72.52 606.298 72.504 606.57 72.488V75.368C606.314 75.352 605.898 75.344 605.322 75.344C604.762 75.328 604.114 75.32 603.378 75.32C602.642 75.304 601.882 75.296 601.098 75.296C601.05 78.24 600.402 80.664 599.154 82.568C597.906 84.456 596.066 85.992 593.634 87.176ZM618.366 86.384V75.992C617.15 76.824 615.902 77.6 614.622 78.32C613.358 79.024 612.118 79.64 610.902 80.168C610.774 79.928 610.598 79.648 610.374 79.328C610.15 79.008 609.91 78.696 609.654 78.392C609.414 78.088 609.174 77.848 608.934 77.672C610.326 77.176 611.766 76.528 613.254 75.728C614.742 74.928 616.174 74.04 617.55 73.064C618.942 72.088 620.214 71.064 621.366 69.992C622.518 68.92 623.454 67.856 624.174 66.8L626.67 68.504C625.982 69.416 625.182 70.32 624.27 71.216C623.374 72.096 622.406 72.952 621.366 73.784V86.384H618.366ZM638.514 86.744V67.4H641.442V74.672L642.522 73.136C642.906 73.408 643.41 73.752 644.034 74.168C644.674 74.568 645.354 74.984 646.074 75.416C646.794 75.832 647.49 76.216 648.162 76.568C648.834 76.92 649.402 77.184 649.866 77.36C649.674 77.536 649.45 77.792 649.194 78.128C648.954 78.448 648.73 78.784 648.522 79.136C648.314 79.472 648.146 79.76 648.018 80C647.634 79.792 647.154 79.528 646.578 79.208C646.018 78.872 645.418 78.504 644.778 78.104C644.154 77.704 643.546 77.312 642.954 76.928C642.378 76.528 641.874 76.168 641.442 75.848V86.744H638.514ZM665.598 86.216C665.534 85.96 665.414 85.656 665.238 85.304C665.062 84.952 664.854 84.616 664.614 84.296C664.39 83.96 664.166 83.688 663.942 83.48C666.134 83.144 667.798 82.432 668.934 81.344C670.086 80.24 670.694 78.944 670.758 77.456C670.822 76.272 670.606 75.216 670.11 74.288C669.614 73.36 668.934 72.608 668.07 72.032C667.222 71.456 666.286 71.112 665.262 71C665.134 72.488 664.894 74.008 664.542 75.56C664.19 77.112 663.71 78.568 663.102 79.928C662.51 81.288 661.782 82.44 660.918 83.384C660.262 84.088 659.622 84.496 658.998 84.608C658.39 84.72 657.742 84.632 657.054 84.344C656.382 84.056 655.79 83.6 655.278 82.976C654.766 82.352 654.374 81.616 654.102 80.768C653.83 79.904 653.718 78.984 653.766 78.008C653.846 76.552 654.19 75.224 654.798 74.024C655.406 72.808 656.222 71.76 657.246 70.88C658.27 70 659.446 69.336 660.774 68.888C662.102 68.44 663.518 68.256 665.022 68.336C666.238 68.4 667.382 68.672 668.454 69.152C669.526 69.632 670.462 70.296 671.262 71.144C672.078 71.976 672.702 72.944 673.134 74.048C673.582 75.152 673.766 76.36 673.686 77.672C673.574 79.864 672.806 81.704 671.382 83.192C669.958 84.664 668.03 85.672 665.598 86.216ZM657.798 81.368C657.974 81.496 658.158 81.56 658.35 81.56C658.542 81.56 658.734 81.464 658.926 81.272C659.502 80.696 660.03 79.88 660.51 78.824C661.006 77.768 661.414 76.576 661.734 75.248C662.07 73.92 662.286 72.568 662.382 71.192C661.278 71.448 660.294 71.912 659.43 72.584C658.582 73.256 657.91 74.072 657.414 75.032C656.918 75.976 656.638 77.016 656.574 78.152C656.542 78.904 656.638 79.56 656.862 80.12C657.102 80.664 657.414 81.08 657.798 81.368ZM680.538 87.032C680.426 86.792 680.258 86.512 680.034 86.192C679.81 85.872 679.57 85.568 679.314 85.28C679.058 84.976 678.826 84.736 678.618 84.56C680.778 83.728 682.354 82.672 683.346 81.392C684.338 80.112 684.898 78.472 685.026 76.472C683.762 76.488 682.546 76.504 681.378 76.52C680.226 76.536 679.242 76.56 678.426 76.592C677.61 76.608 677.066 76.624 676.794 76.64L676.65 73.808C676.842 73.824 677.298 73.832 678.018 73.832C678.738 73.832 679.626 73.832 680.682 73.832C681.738 73.816 682.882 73.8 684.114 73.784C685.362 73.768 686.602 73.752 687.834 73.736C689.066 73.72 690.21 73.704 691.266 73.688C692.338 73.672 693.234 73.656 693.954 73.64C694.69 73.608 695.154 73.584 695.346 73.568L695.37 76.4C695.146 76.384 694.674 76.376 693.954 76.376C693.234 76.376 692.362 76.384 691.338 76.4C690.314 76.4 689.21 76.408 688.026 76.424C687.882 79.032 687.194 81.184 685.962 82.88C684.746 84.56 682.938 85.944 680.538 87.032ZM680.082 70.832L679.914 68.024C680.106 68.024 680.498 68.024 681.09 68.024C681.698 68.024 682.41 68.016 683.226 68C684.058 67.984 684.922 67.968 685.818 67.952C686.73 67.936 687.594 67.92 688.41 67.904C689.242 67.872 689.946 67.848 690.522 67.832C691.114 67.816 691.498 67.8 691.674 67.784L691.722 70.592C691.514 70.576 691.114 70.576 690.522 70.592C689.946 70.592 689.25 70.6 688.434 70.616C687.634 70.616 686.794 70.632 685.914 70.664C685.05 70.68 684.21 70.696 683.394 70.712C682.594 70.728 681.898 70.752 681.306 70.784C680.714 70.8 680.306 70.816 680.082 70.832ZM696.906 70.136C696.602 69.624 696.21 69.08 695.73 68.504C695.25 67.928 694.818 67.464 694.434 67.112L695.778 66.104C696.002 66.312 696.282 66.608 696.618 66.992C696.954 67.36 697.274 67.744 697.578 68.144C697.898 68.528 698.146 68.856 698.322 69.128L696.906 70.136ZM694.65 71.864C694.474 71.528 694.242 71.168 693.954 70.784C693.666 70.4 693.37 70.032 693.066 69.68C692.762 69.328 692.482 69.032 692.226 68.792L693.57 67.808C693.794 68.016 694.066 68.312 694.386 68.696C694.722 69.064 695.042 69.448 695.346 69.848C695.666 70.248 695.906 70.584 696.066 70.856L694.65 71.864ZM706.014 87.224C705.806 86.888 705.518 86.496 705.15 86.048C704.782 85.6 704.414 85.248 704.046 84.992C706.238 84.064 707.862 82.832 708.918 81.296C709.99 79.744 710.558 77.744 710.622 75.296H706.398V80.096H703.518V75.32C702.302 75.336 701.198 75.352 700.206 75.368C699.23 75.368 698.542 75.384 698.142 75.416V72.536C698.334 72.536 698.686 72.544 699.198 72.56C699.726 72.576 700.366 72.592 701.118 72.608C701.87 72.608 702.67 72.616 703.518 72.632C703.518 71.272 703.51 70.168 703.494 69.32C703.478 68.472 703.446 67.864 703.398 67.496H706.518C706.486 67.848 706.454 68.464 706.422 69.344C706.406 70.224 706.398 71.328 706.398 72.656H710.622C710.622 72.096 710.614 71.456 710.598 70.736C710.582 70 710.566 69.296 710.55 68.624C710.534 67.936 710.51 67.392 710.478 66.992H713.502V72.632C714.702 72.616 715.798 72.6 716.79 72.584C717.782 72.568 718.502 72.552 718.95 72.536V75.416C718.534 75.384 717.822 75.368 716.814 75.368C715.822 75.352 714.718 75.336 713.502 75.32C713.438 78.264 712.782 80.688 711.534 82.592C710.286 84.496 708.446 86.04 706.014 87.224ZM717.078 71.24C716.79 70.728 716.406 70.176 715.926 69.584C715.462 68.992 715.038 68.52 714.654 68.168L715.998 67.184C716.222 67.392 716.494 67.688 716.814 68.072C717.15 68.44 717.47 68.824 717.774 69.224C718.094 69.624 718.334 69.96 718.494 70.232L717.078 71.24ZM719.31 69.512C719.022 69 718.638 68.456 718.158 67.88C717.678 67.304 717.246 66.84 716.862 66.488L718.206 65.48C718.43 65.688 718.702 65.984 719.022 66.368C719.358 66.736 719.686 67.12 720.006 67.52C720.326 67.904 720.566 68.232 720.726 68.504L719.31 69.512ZM730.866 86.384V75.992C729.65 76.824 728.402 77.6 727.122 78.32C725.858 79.024 724.618 79.64 723.402 80.168C723.274 79.928 723.098 79.648 722.874 79.328C722.65 79.008 722.41 78.696 722.154 78.392C721.914 78.088 721.674 77.848 721.434 77.672C722.826 77.176 724.266 76.528 725.754 75.728C727.242 74.928 728.674 74.04 730.05 73.064C731.442 72.088 732.714 71.064 733.866 69.992C735.018 68.92 735.954 67.856 736.674 66.8L739.17 68.504C738.482 69.416 737.682 70.32 736.77 71.216C735.874 72.096 734.906 72.952 733.866 73.784V86.384H730.866ZM747.222 85.328L745.59 82.376C746.726 82.136 747.918 81.744 749.166 81.2C750.43 80.64 751.694 79.992 752.958 79.256C754.222 78.504 755.422 77.704 756.558 76.856C757.694 75.992 758.718 75.12 759.63 74.24C760.558 73.36 761.31 72.52 761.886 71.72C761.95 71.992 762.054 72.328 762.198 72.728C762.358 73.128 762.526 73.52 762.702 73.904C762.878 74.272 763.03 74.56 763.158 74.768C762.374 75.776 761.39 76.8 760.206 77.84C759.038 78.864 757.742 79.856 756.318 80.816C754.894 81.76 753.406 82.624 751.854 83.408C750.302 84.192 748.758 84.832 747.222 85.328ZM749.79 74.744C749.582 74.52 749.286 74.256 748.902 73.952C748.534 73.648 748.118 73.328 747.654 72.992C747.206 72.656 746.766 72.352 746.334 72.08C745.902 71.792 745.526 71.576 745.206 71.432L747.126 69.008C747.446 69.184 747.822 69.408 748.254 69.68C748.686 69.952 749.126 70.248 749.574 70.568C750.038 70.888 750.47 71.208 750.87 71.528C751.27 71.832 751.59 72.104 751.83 72.344L749.79 74.744ZM783.354 86.192C781.85 86.448 780.386 86.624 778.962 86.72C777.538 86.816 776.21 86.8 774.978 86.672C773.746 86.544 772.666 86.288 771.738 85.904C770.81 85.504 770.082 84.96 769.554 84.272C769.042 83.568 768.786 82.696 768.786 81.656C768.786 80.28 769.266 79.112 770.226 78.152C771.202 77.176 772.506 76.336 774.138 75.632C773.882 74.944 773.658 74.12 773.466 73.16C773.29 72.184 773.17 71.128 773.106 69.992C773.042 68.84 773.034 67.664 773.082 66.464H776.178C776.082 67.344 776.05 68.296 776.082 69.32C776.114 70.328 776.186 71.296 776.298 72.224C776.426 73.152 776.586 73.952 776.778 74.624C777.578 74.368 778.418 74.12 779.298 73.88C780.194 73.64 781.106 73.4 782.034 73.16L782.61 76.16C781.202 76.32 779.85 76.576 778.554 76.928C777.258 77.264 776.098 77.672 775.074 78.152C774.05 78.616 773.234 79.136 772.626 79.712C772.034 80.272 771.738 80.864 771.738 81.488C771.738 82.16 772.058 82.696 772.698 83.096C773.338 83.496 774.218 83.768 775.338 83.912C776.458 84.04 777.738 84.04 779.178 83.912C780.634 83.768 782.17 83.488 783.786 83.072C783.626 83.472 783.506 83.984 783.426 84.608C783.362 85.232 783.338 85.76 783.354 86.192ZM801.63 87.728V79.76H796.446V77.24H801.63V75.248C801.278 75.376 800.862 75.568 800.382 75.824C799.918 76.08 799.55 76.296 799.278 76.472C799.022 75.816 798.67 75.096 798.222 74.312C797.774 73.512 797.342 72.8 796.926 72.176V72.392H787.902V70.112H796.926V71.12L798.678 70.16C798.966 70.528 799.294 71.016 799.662 71.624C800.046 72.232 800.414 72.856 800.766 73.496C801.134 74.12 801.422 74.672 801.63 75.152V69.152H797.238V66.752H809.046V69.152H804.366V74.864C804.67 74.448 804.99 73.968 805.326 73.424C805.662 72.88 805.982 72.328 806.286 71.768C806.59 71.192 806.838 70.664 807.03 70.184L809.358 71.312C809.15 71.776 808.87 72.328 808.518 72.968C808.166 73.608 807.79 74.24 807.39 74.864C807.006 75.472 806.662 75.976 806.358 76.376C806.134 76.2 805.814 76 805.398 75.776C804.982 75.536 804.638 75.36 804.366 75.248V77.24H809.67V79.76H804.366V87.728H801.63ZM788.79 87.248V80.144H796.086V87.248H788.79ZM789.006 75.68V73.544H795.75V75.68H789.006ZM789.006 68.96V66.824H795.75V68.96H789.006ZM789.006 78.968V76.856H795.75V78.968H789.006ZM791.262 84.968H793.638V82.4H791.262V84.968ZM812.754 87.656V75.44C812.53 75.792 812.306 76.128 812.082 76.448C811.874 76.752 811.658 77.032 811.434 77.288C811.306 77.096 811.106 76.888 810.834 76.664C810.578 76.424 810.314 76.2 810.042 75.992C809.77 75.768 809.538 75.6 809.346 75.488C809.826 74.912 810.306 74.216 810.786 73.4C811.282 72.584 811.746 71.728 812.178 70.832C812.61 69.936 812.986 69.064 813.306 68.216C813.642 67.352 813.89 66.576 814.05 65.888L816.738 66.512C816.69 66.752 816.618 67.024 816.522 67.328H832.026V70.04H827.13V73.352H831.282V86.96H816.882V73.352H821.034V70.04H816.474V67.448C816.346 67.896 816.194 68.36 816.018 68.84C815.842 69.32 815.642 69.816 815.418 70.328V87.656H812.754ZM819.45 84.152H821.034V76.136H819.45V84.152ZM823.29 84.152H824.874V76.136H823.29V84.152ZM827.13 84.152H828.714V76.136H827.13V84.152ZM823.29 73.352H824.874V70.04H823.29V73.352Z" fill="white"/>
</svg>
